<svg width="480" height="389" viewBox="0 0 480 389" fill="none" xmlns="http://www.w3.org/2000/svg">
<g clip-path="url(#clip0)">
<path d="M76.2249 0L44.4853 61.9074H50.8925V112.391H18.6025L0 148.674L230.498 266.85L306.723 118.176L76.2249 0Z" fill="#AFD1C1"/>
<path d="M422.906 40.2715H69.5234V217.564H422.906V40.2715Z" fill="#3F3D56"/>
<path opacity="0.3" d="M379.935 103.977H119.105V104.578H379.935V103.977Z" fill="#378D63"/>
<path opacity="0.3" d="M380.236 119.001H119.406V119.602H380.236V119.001Z" fill="#378D63"/>
<path opacity="0.3" d="M380.236 149.051H119.406V149.652H380.236V149.051Z" fill="#378D63"/>
<path opacity="0.3" d="M380.236 162.273H119.406V162.874H380.236V162.273Z" fill="#378D63"/>
<path opacity="0.3" d="M380.236 134.026H119.406V134.627H380.236V134.026Z" fill="#378D63"/>
<path d="M340.57 388.846C402.307 388.846 452.354 384.272 452.354 378.629C452.354 372.987 402.307 368.412 340.57 368.412C278.833 368.412 228.786 372.987 228.786 378.629C228.786 384.272 278.833 388.846 340.57 388.846Z" fill="#3F3D56"/>
<path d="M126.642 162.708L125.812 161.838L164.637 124.833L198.861 149.451L226.537 118.767L238.673 129.082L271.685 109.274L308.354 133.921L365.905 101.185L366.499 102.23L308.301 135.333L271.649 110.698L238.552 130.556L226.648 120.438L199.033 151.055L164.744 126.391L126.642 162.708Z" fill="#378D63"/>
<path d="M365.511 112.09C369.826 112.09 373.324 108.592 373.324 104.277C373.324 99.9621 369.826 96.4641 365.511 96.4641C361.196 96.4641 357.698 99.9621 357.698 104.277C357.698 108.592 361.196 112.09 365.511 112.09Z" fill="#378D63"/>
<path d="M314.747 245.79L308.124 246.526C308.124 246.526 305.18 259.772 308.124 277.434C311.067 295.096 314.747 312.758 314.747 312.758C314.747 312.758 317.691 370.159 319.162 370.895C320.634 371.631 333.881 376.046 334.617 371.631C335.353 367.215 335.353 266.395 335.353 266.395L345.655 314.965C345.655 314.965 347.127 376.046 350.071 376.046C353.014 376.046 362.581 375.31 362.581 370.159C362.581 365.008 364.789 297.304 364.789 297.304C364.789 297.304 364.053 247.261 361.109 245.79C358.166 244.318 314.747 245.79 314.747 245.79Z" fill="#2F2E41"/>
<path d="M320.634 368.687C320.634 368.687 314.011 367.951 312.539 368.687C311.067 369.423 308.859 374.575 312.539 377.518C316.219 380.462 325.786 384.877 328.729 384.877C330.771 384.787 332.773 384.286 334.617 383.405L333.145 370.895L320.634 368.687Z" fill="#2F2E41"/>
<path d="M350.071 372.367L350.807 382.67C350.807 382.67 360.374 384.141 361.109 382.67C361.845 381.198 369.205 377.518 369.94 376.782C370.676 376.046 371.412 367.951 366.997 367.215C362.581 366.479 361.109 368.687 361.109 368.687L350.071 372.367Z" fill="#2F2E41"/>
<path d="M288.254 183.973C288.254 183.973 270.592 200.899 272.8 209.73C275.008 218.561 292.67 244.318 292.67 244.318C292.67 244.318 309.596 253.149 311.803 244.318C314.011 235.487 300.029 237.695 300.029 237.695L288.99 211.202L301.501 193.54L288.254 183.973Z" fill="#FFB8B8"/>
<path d="M367.172 158.222C367.172 158.222 383.262 147.876 382.889 140.768C382.517 133.659 372.818 111.247 372.818 111.247C372.818 111.247 365.23 95.4715 362.213 101.919C359.197 108.366 366.178 115.229 366.178 115.229L370.684 137.214L358.438 148.897L367.172 158.222Z" fill="#FFB8B8"/>
<path d="M327.258 143.498C334.574 143.498 340.504 137.567 340.504 130.251C340.504 122.935 334.574 117.005 327.258 117.005C319.942 117.005 314.011 122.935 314.011 130.251C314.011 137.567 319.942 143.498 327.258 143.498Z" fill="#FFB8B8"/>
<path d="M320.634 138.346L322.842 152.329L339.032 149.385C339.032 149.385 338.296 135.403 338.296 133.931C338.296 132.459 320.634 138.346 320.634 138.346Z" fill="#FFB8B8"/>
<path d="M319.899 152.329C319.899 152.329 338.296 147.913 340.504 149.385C342.712 150.857 353.75 152.329 353.75 152.329L366.261 171.462L362.581 195.748C362.581 195.748 361.846 234.751 363.317 241.374C364.789 247.998 372.884 248.733 355.958 250.205C339.032 251.677 336.089 249.469 324.314 252.413C312.539 255.357 302.972 250.941 305.916 247.998C308.86 245.054 314.011 197.955 308.124 193.54C302.237 189.124 300.029 166.311 300.029 166.311C300.029 166.311 319.899 156.008 319.899 152.329Z" fill="#67BD92"/>
<path d="M351.543 154.536L353.751 152.329L358.166 147.913C358.166 147.913 372.516 154.168 371.78 156.376C371.045 158.584 366.261 171.462 366.261 171.462L359.638 173.67L351.543 154.536Z" fill="#67BD92"/>
<path d="M308.86 167.783L300.029 166.311C300.029 166.311 293.406 173.67 291.198 176.614C288.99 179.558 284.575 186.917 284.575 186.917L300.029 197.955L311.804 185.445L308.86 167.783Z" fill="#67BD92"/>
<path d="M331.881 114.203L331.745 113.142C330.844 113.137 329.949 113.277 329.094 113.559C329.006 112.919 329.062 112.267 329.257 111.652C328.388 111.875 327.56 112.235 326.804 112.718L326.268 110.782L318.912 114.408C316.271 115.709 313.487 117.139 311.977 119.667C310.294 122.485 310.587 126.106 311.737 129.18C312.888 132.254 314.8 134.975 316.332 137.877C316.914 139.125 317.613 140.315 318.42 141.431C321.197 144.893 326.602 145.592 330.518 143.503C332.007 142.785 333.195 141.563 333.87 140.053C334.155 139.117 334.379 138.162 334.539 137.196C335.024 135.218 335.586 131.135 337.193 129.883C337.9 129.333 339.302 131.158 339.887 130.48C341.393 128.737 341.077 126.05 340.142 123.945C339.244 121.831 338.195 119.785 337.003 117.822C336.498 117.033 331.864 114.076 331.881 114.203Z" fill="#2F2E41"/>
<path d="M46.0845 69.1191H7.62109V107.582H46.0845V69.1191Z" fill="#3F3D56"/>
</g>
<defs>
<clipPath id="clip0">
<rect width="480" height="388.846" fill="white"/>
</clipPath>
</defs>
</svg>
