<svg width="310" height="207" viewBox="0 0 310 207" fill="none" xmlns="http://www.w3.org/2000/svg">
<path d="M154.549 15C119.506 15 91 43.5056 91 78.5492C90.99 87.5195 92.8894 96.3892 96.572 104.569C106.531 126.674 128.769 142.098 154.549 142.098C171.401 142.089 187.559 135.391 199.475 123.475C211.391 111.559 218.089 95.4006 218.098 78.5492C218.098 43.5056 189.588 15 154.549 15ZM207.127 104.096C202.328 113.958 194.855 122.274 185.558 128.094C176.262 133.915 165.517 137.005 154.549 137.014C129.775 137.014 108.55 121.524 100.055 99.7187C97.4217 92.9717 96.075 85.7916 96.084 78.5492C96.084 46.3119 122.312 20.0839 154.549 20.0839C186.786 20.0839 213.014 46.3119 213.014 78.5492C213.025 87.4022 211.012 96.1406 207.127 104.096V104.096Z" fill="#3F3D56"/>
<path d="M210.198 109.21C204.709 119.166 196.651 127.468 186.864 133.253C177.077 139.037 165.918 142.091 154.549 142.098C128.769 142.098 106.531 126.674 96.572 104.569C97.665 102.896 98.8259 101.279 100.054 99.7187C108.55 121.524 129.775 137.014 154.549 137.014C165.517 137.005 176.262 133.915 185.558 128.094C194.855 122.274 202.328 113.958 207.127 104.096C208.225 105.748 209.249 107.453 210.198 109.21Z" fill="#99BCAB"/>
<path opacity="0.03" d="M156.12 113.144C172.556 113.144 185.88 108.8 185.88 103.442C185.88 98.0835 172.556 93.7397 156.12 93.7397C139.684 93.7397 126.36 98.0835 126.36 103.442C126.36 108.8 139.684 113.144 156.12 113.144Z" fill="black"/>
<path d="M119.03 88.5609C119.03 88.5609 143.277 63.1673 155.243 85.8342C155.243 85.8342 158.489 88.7849 156.822 93.0346C156.822 93.0346 155.668 91.6134 153.472 94.4908C152.677 95.5208 151.775 96.4431 150.785 97.2385C149.459 98.3111 147.852 98.8729 146.21 98.838V98.838C146.21 98.838 136.547 102.197 123.947 91.7727C123.947 91.7727 119.744 90.8438 119.277 90.0417L125.131 88.0854C125.131 88.0854 126.253 92.9013 129.569 94.6917C129.569 94.6917 125.059 88.3539 125.988 87.7567C126.176 87.6322 129.125 86.8711 129.125 86.8711C129.125 86.8711 131.112 95.23 136.319 97.8208C136.319 97.8208 130.013 91.0945 130.246 86.5803L134.766 85.7333C134.766 85.7333 136.48 94.6798 142.303 97.8886C142.303 97.8886 135.943 90.597 135.769 85.6248L140.312 85.4581C140.312 85.4581 142.133 94.1477 146.997 96.7725C146.997 96.7725 140.408 87.5274 141.35 85.4958C141.35 85.4958 145.533 85.6228 146.631 86.2524C146.631 86.2524 148.073 92.4504 151.014 93.7027C151.014 93.7027 147.207 87.0021 147.777 86.4291C147.777 86.4291 153.178 88.1999 155.495 90.6995C153.475 88.2884 150.923 86.5027 148.09 85.5184C149.693 84.5297 151.522 84.083 153.352 84.2335C153.352 84.2335 150.853 81.7502 146.782 85.1116C146.782 85.1116 142.525 83.9218 141.854 84.226C141.854 84.226 145.453 80.2838 148.668 79.2696C148.668 79.2696 144.596 78.5161 140.646 84.2228L136.078 84.2831C136.078 84.2831 140.595 78.7904 143.399 77.6526C143.399 77.6526 139.137 77.5977 134.929 84.3977L130.458 85.1528C130.458 85.1528 134.022 80.0945 136.881 78.091C136.881 78.091 132.915 78.9858 129.184 85.4447L126.277 86.3569C126.277 86.3569 128.934 82.7109 129.766 81.7234C130.598 80.7358 130.457 80.429 130.457 80.429C128.157 81.9194 126.277 84.0903 125.027 86.6985C125.027 86.6985 119.194 88.9391 119.03 88.5609Z" fill="#BFE6D3"/>
<path d="M126.561 52.1286C126.561 52.1286 158.672 62.1582 147.297 85.1646C147.297 85.1646 146.681 89.7641 142.532 90.3663C142.532 90.3663 143.052 88.536 139.689 87.9222C138.493 87.7009 137.325 87.3209 136.211 86.7903C134.705 86.0819 133.452 84.8425 132.646 83.2642V83.2642C132.646 83.2642 125.076 75.8099 126.686 58.4571C126.686 58.4571 125.24 53.9843 125.623 53.1282L130.143 57.6878C130.143 57.6878 126.998 61.2264 127.318 65.3088C127.318 65.3088 129.878 57.7558 130.839 58.3255C131.041 58.4468 133.142 60.8588 133.142 60.8588C133.142 60.8588 127.701 67.0533 128.363 73.3138C128.363 73.3138 130.33 63.8575 133.938 61.7584L136.879 65.6292C136.879 65.6292 130.831 71.8623 131.352 79.0477C131.352 79.0477 133.716 69.2435 137.475 66.5276L139.941 70.7595C139.941 70.7595 134.183 76.957 134.623 82.9318C134.623 82.9318 138.39 71.9201 140.448 71.7747C140.448 71.7747 142.503 75.8065 142.577 77.1702C142.577 77.1702 138.519 81.7315 139.065 85.1746C139.065 85.1746 142.278 78.1119 143.024 78.3534C143.024 78.3534 144.433 84.4036 143.685 87.8875C144.514 84.7196 144.583 81.3664 143.884 78.16C145.474 79.1746 146.762 80.6824 147.589 82.498C147.589 82.498 148.224 78.8465 143.526 76.6693C143.526 76.6693 142.256 72.0241 141.673 71.5232C141.673 71.5232 146.54 72.9281 149.012 75.4514C149.012 75.4514 147.501 71.1986 141.055 70.3806L138.66 66.0674C138.66 66.0674 145.226 67.5329 147.556 69.6161C147.556 69.6161 145.406 65.5319 137.977 65.0341L135.094 61.2163C135.094 61.2163 140.835 62.0016 143.832 63.657C143.832 63.657 141.11 60.3543 134.187 60.1186L131.988 57.826C131.988 57.826 136.175 58.4775 137.364 58.7892C138.553 59.1009 138.718 58.771 138.718 58.771C136.383 57.3558 133.738 56.6869 131.08 56.8388C131.08 56.8388 126.347 52.4829 126.561 52.1286Z" fill="#2AAB6C"/>
<path d="M141.564 43.8863C141.564 43.8863 170.78 61.7386 154.988 81.2795C154.988 81.2795 153.445 85.6037 149.281 85.1455C149.281 85.1455 150.163 83.4941 147.014 82.0497C145.894 81.5329 144.835 80.8688 143.858 80.0716C142.537 79.0025 141.571 77.4799 141.11 75.7401V75.7401C141.11 75.7401 135.265 66.5747 140.389 50.0809C140.389 50.0809 139.898 45.3609 140.446 44.6237L143.913 50.202C143.913 50.202 140.126 52.8564 139.6 56.9125C139.6 56.9125 143.641 50.2016 144.461 50.9985C144.632 51.1673 146.184 54.0452 146.184 54.0452C146.184 54.0452 139.616 58.7078 138.977 64.9713C138.977 64.9713 142.831 56.2575 146.775 55.1217L148.845 59.6318C148.845 59.6318 141.678 64.1791 140.714 71.3081C140.714 71.3081 145.025 62.3553 149.242 60.6568L150.776 65.399C150.776 65.399 143.899 69.9848 143.102 75.914C143.102 75.914 149.028 66.1388 151.061 66.5151C151.061 66.5151 152.237 70.9591 152.03 72.3058C152.03 72.3058 147.143 75.7261 146.969 79.2168C146.969 79.2168 151.545 73.1476 152.223 73.5707C152.223 73.5707 152.354 79.8173 150.912 83.0218C152.369 80.1455 153.123 76.8973 153.099 73.5987C154.44 74.9872 155.385 76.7799 155.819 78.7562C155.819 78.7562 157.186 75.3602 153.056 72.0568C153.056 72.0568 152.771 67.2133 152.307 66.5789C152.307 66.5789 156.758 69.1724 158.649 72.2522C158.649 72.2522 158.049 67.7301 151.938 65.3103L150.49 60.5069C150.49 60.5069 156.584 63.5873 158.426 66.2028C158.426 66.2028 157.17 61.684 150.036 59.3287L148.011 54.8849C148.011 54.8849 153.442 57.0951 156.021 59.4619C156.021 59.4619 154.047 55.56 147.353 53.5875L145.681 50.8011C145.681 50.8011 149.626 52.4898 150.72 53.0928C151.814 53.6957 152.042 53.416 152.042 53.416C150.058 51.4497 147.62 50.1326 145 49.6112C145 49.6112 141.283 44.1775 141.564 43.8863Z" fill="#2AAB6C"/>
<path d="M193.265 86.2657C193.265 86.2657 166.964 63.5209 156.981 87.3379C156.981 87.3379 154.001 90.6148 156.022 94.6712C156.022 94.6712 157.05 93.1357 159.481 95.7706C160.36 96.7129 161.336 97.5368 162.389 98.2251C163.801 99.1543 165.449 99.5455 167.081 99.339V99.339C167.081 99.339 176.987 101.673 188.643 89.9773C188.643 89.9773 192.748 88.6131 193.145 87.7657L187.15 86.4303C187.15 86.4303 186.443 91.342 183.295 93.4712C183.295 93.4712 187.245 86.69 186.269 86.1926C186.071 86.0884 183.071 85.639 183.071 85.639C183.071 85.639 181.804 94.1684 176.841 97.2922C176.841 97.2922 182.546 89.9365 181.93 85.4668L177.359 85.0961C177.359 85.0961 176.413 94.182 170.889 97.9854C170.889 97.9854 176.6 90.0613 176.35 85.093L171.813 85.4022C171.813 85.4022 170.74 94.2433 166.121 97.365C166.121 97.365 171.894 87.4722 170.784 85.5481C170.784 85.5481 166.63 86.112 165.591 86.8536C165.591 86.8536 164.683 93.1747 161.861 94.729C161.861 94.729 165.081 87.6602 164.465 87.1493C164.465 87.1493 159.239 89.477 157.145 92.2077C158.95 89.5962 161.339 87.5516 164.075 86.2754C162.395 85.4588 160.536 85.2054 158.728 85.5465C158.728 85.5465 161.004 82.813 165.343 85.7336C165.343 85.7336 169.48 84.1041 170.173 84.3368C170.173 84.3368 166.256 80.7885 162.968 80.115C162.968 80.115 166.958 78.9391 171.376 84.2073L175.928 83.7897C175.928 83.7897 170.964 78.7938 168.076 77.9542C168.076 77.9542 172.314 77.4539 177.082 83.7836L181.597 84.0679C181.597 84.0679 177.619 79.4047 174.603 77.7091C174.603 77.7091 178.627 78.1852 182.891 84.2252L185.862 84.8294C185.862 84.8294 182.907 81.4775 181.994 80.5813C181.082 79.6852 181.197 79.3649 181.197 79.3649C183.613 80.6082 185.67 82.5728 187.136 85.0387C187.136 85.0387 193.133 86.6594 193.265 86.2657Z" fill="#BFE6D3"/>
<path d="M189.5 55.9674C189.5 55.9674 156.193 58.0583 162.794 83.2206C162.794 83.2206 162.5 87.8622 166.431 89.4476C166.431 89.4476 166.286 87.5139 169.685 87.7463C170.895 87.8133 172.109 87.7212 173.3 87.4721C174.917 87.1474 176.392 86.2419 177.499 84.8953C177.499 84.8953 186.347 79.4374 188.195 62.1233C188.195 62.1233 190.485 58.1061 190.275 57.1714L184.979 60.5792C184.979 60.5792 187.35 64.7908 186.246 68.6989C186.246 68.6989 185.218 60.7131 184.17 61.0334C183.952 61.0534 181.425 62.9604 181.425 62.9604C181.425 62.9604 185.532 70.3124 183.643 76.2788C183.643 76.2788 183.573 66.5498 180.466 63.6522L176.804 66.7053C176.804 66.7053 181.479 74.2388 179.571 81.1318C179.571 81.1318 179.181 70.9942 176.041 67.4278L172.793 70.9685C172.793 70.9685 177.233 78.4165 175.606 84.1348C175.606 84.1348 174.092 72.4748 172.1 71.8014C172.1 71.8014 169.311 75.2512 168.944 76.5701C168.944 76.5701 171.985 81.9952 170.804 85.2192C170.804 85.2192 169.056 77.5917 168.276 77.6148C168.276 77.6148 165.715 83.1757 165.764 86.7636C165.571 83.4688 166.16 80.1754 167.473 77.2116C165.723 77.8162 164.17 78.9741 163.006 80.5433C163.006 80.5433 163.105 76.8249 168.101 75.8591C168.101 75.8591 170.258 71.6009 170.919 71.2773C170.919 71.2773 165.865 71.4599 162.985 73.3506C162.985 73.3506 165.292 69.5558 171.742 70.3058L174.931 66.6732C174.931 66.6732 168.228 66.5306 165.553 67.9936C165.553 67.9936 168.447 64.5341 175.798 65.8243L179.357 62.8001C179.357 62.8001 173.593 62.1817 170.298 63.0982C170.298 63.0982 173.619 60.534 180.411 61.9731L183.005 60.2546C183.005 60.2546 178.788 59.8929 177.569 59.9078C176.349 59.9227 176.243 59.5625 176.243 59.5625C178.801 58.741 181.516 58.7239 184.082 59.5129C184.082 59.5129 189.645 56.3823 189.5 55.9674Z" fill="#2AAB6C"/>
<path d="M172.624 44.5942C172.624 44.5942 142.296 59.9971 156.717 80.7619C156.717 80.7619 157.969 85.2028 162.151 85.0913C162.151 85.0913 161.38 83.3491 164.622 82.1924C165.771 81.7656 166.871 81.1896 167.899 80.4763C169.297 79.5207 170.373 78.0814 170.961 76.3806C170.961 76.3806 177.406 67.7233 173.434 50.8537C173.434 50.8537 174.245 46.1875 173.742 45.4022L169.931 50.7151C169.931 50.7151 173.524 53.6792 173.781 57.7644C173.781 57.7644 170.197 50.7434 169.327 51.4649C169.131 51.5717 167.404 54.3685 167.404 54.3685C167.404 54.3685 173.647 59.5553 173.849 65.8746C173.849 65.8746 170.585 56.843 166.739 55.3998L164.333 59.7224C164.333 59.7224 171.163 64.8492 171.653 72.0388C171.653 72.0388 167.956 62.7562 163.86 60.7033L162 65.3127C162 65.3127 168.583 70.4547 168.949 76.437C168.949 76.437 163.704 66.1908 161.628 66.3682C161.628 66.3682 160.165 70.7077 160.257 72.084C160.257 72.084 164.873 75.9073 164.833 79.3869C164.833 79.3869 160.697 72.9902 159.979 73.3268C159.979 73.3268 159.422 79.5399 160.648 82.8611C159.384 79.8711 158.85 76.5661 159.098 73.2759C157.667 74.5458 156.602 76.2514 156.034 78.183C156.034 78.183 154.904 74.6803 159.238 71.7627C159.238 71.7627 159.847 66.9257 160.356 66.3573C160.356 66.3573 155.71 68.5692 153.65 71.4934C153.65 71.4934 154.55 67.0276 160.803 65.1202L162.578 60.4493C162.578 60.4493 156.289 63.0247 154.279 65.4676C154.279 65.4676 155.837 61.0769 163.107 59.3084L165.426 55.0544C165.426 55.0544 159.855 56.8071 157.088 58.9919C157.088 58.9919 159.338 55.2623 166.135 53.8586L167.986 51.2103C167.986 51.2103 163.941 52.577 162.81 53.0836C161.679 53.5902 161.462 53.2977 161.462 53.2977C163.574 51.4991 166.096 50.3866 168.746 50.0844C168.746 50.0844 172.896 44.922 172.624 44.5942Z" fill="#2AAB6C"/>
<path d="M82.4904 137.295C78.0305 129.302 70.8098 123.208 62.1805 120.155C53.5511 117.102 44.1048 117.299 35.6102 120.709C27.1157 124.119 20.1555 130.509 16.0328 138.681C11.9101 146.854 10.9077 156.249 13.2132 165.107C15.5188 173.966 20.9742 181.68 28.558 186.806C36.1417 191.932 45.3339 194.117 54.4131 192.954C63.4924 191.79 71.8362 187.357 77.8823 180.484C83.9283 173.612 87.262 164.771 87.2591 155.618C87.2558 149.204 85.6143 142.897 82.4904 137.295V137.295ZM49.6177 190.244C42.7755 190.239 36.0886 188.205 30.4018 184.401C24.7151 180.596 20.2839 175.191 17.6682 168.869C15.0525 162.546 14.3697 155.59 15.7063 148.88C17.0428 142.17 20.3385 136.006 25.177 131.168C30.0155 126.33 36.1795 123.036 42.89 121.7C49.6005 120.365 56.5564 121.048 62.8784 123.665C69.2004 126.282 74.6049 130.714 78.4087 136.401C82.2126 142.088 84.2451 148.776 84.2494 155.618C84.2721 160.172 83.3917 164.685 81.6592 168.897C79.9268 173.108 77.3766 176.935 74.1562 180.155C70.9358 183.375 67.1089 185.924 62.897 187.656C58.6851 189.388 54.1717 190.268 49.6177 190.244V190.244Z" fill="#3F3D56"/>
<path d="M87.2591 155.618C87.2623 162.398 85.4334 169.053 81.9656 174.879C78.4978 180.705 73.52 185.486 67.5587 188.716C61.5974 191.946 54.874 193.505 48.0996 193.228C41.3252 192.951 34.7514 190.849 29.0735 187.143C28.4245 185.534 27.8844 183.883 27.4568 182.202C33.9315 187.609 42.1585 190.466 50.5914 190.235C59.0242 190.003 67.0822 186.7 73.2505 180.945C79.4188 175.19 83.2726 167.38 84.0876 158.983C84.9025 150.587 82.6224 142.182 77.6759 135.348C79.3226 135.888 80.9311 136.539 82.4904 137.295C85.6247 142.893 87.2669 149.202 87.2591 155.618V155.618Z" fill="#99BCAB"/>
<path d="M66.1916 153.082C66.1916 153.082 43.2803 137.965 36.4517 156.217C36.4517 156.217 34.1994 158.838 36.0959 161.713C36.0959 161.713 36.8599 160.489 39.0037 162.299C39.773 162.934 40.6148 163.475 41.5114 163.912C42.7243 164.507 44.0989 164.689 45.4248 164.429V164.429C45.4248 164.429 53.6905 165.524 62.5846 156.104C62.5846 156.104 65.8843 154.827 66.1873 154.186L61.1867 153.592C61.1867 153.592 60.8871 157.272 58.4198 159.054C58.4198 159.054 61.2878 153.791 60.4449 153.464C60.2887 153.373 57.785 153.27 57.785 153.27C57.785 153.27 57.2369 159.662 53.3426 162.302C53.3426 162.302 57.5972 156.482 56.839 153.207L53.0649 153.228C53.0649 153.228 52.8193 160.02 48.5026 163.19C48.5026 163.19 52.74 156.953 52.241 153.286L48.5311 153.802C48.5311 153.802 48.1627 160.431 44.5511 163.043C44.5511 163.043 48.7173 155.341 47.687 153.981C47.687 153.981 44.3127 154.665 43.5072 155.283C43.5072 155.283 43.1139 160.05 40.8945 161.359C40.8945 161.359 43.1336 155.916 42.5733 155.56C42.5733 155.56 38.4129 157.622 36.8708 159.763C38.201 157.705 40.0467 156.032 42.2244 154.909C40.799 154.412 39.2589 154.342 37.7946 154.711C37.7946 154.711 39.5032 152.541 43.2386 154.421C43.2386 154.421 46.5784 152.959 47.1307 153.069C47.1307 153.069 43.7057 150.695 40.9675 150.406C40.9675 150.406 44.1709 149.282 48.1278 152.87L51.8148 152.249C51.8148 152.249 47.4402 148.895 45.0292 148.428C45.0292 148.428 48.4784 147.787 52.7658 152.174L56.4614 152.115C56.4614 152.115 52.9305 148.914 50.342 147.846C50.342 147.846 53.6667 147.941 57.5229 152.137L59.9983 152.39C59.9983 152.39 57.3725 150.102 56.5645 149.512C55.7566 148.921 55.8435 148.655 55.8435 148.655C57.8963 149.423 59.6945 150.748 61.0363 152.481C61.0363 152.481 66.1277 153.394 66.1916 153.082Z" fill="#2AAB6C"/>
<path opacity="0.03" d="M47.4705 171.615C61.0097 171.615 71.9854 169.355 71.9854 166.568C71.9854 163.78 61.0097 161.52 47.4705 161.52C33.9313 161.52 22.9556 163.78 22.9556 166.568C22.9556 169.355 33.9313 171.615 47.4705 171.615Z" fill="black"/>
<path d="M259.641 118C254.698 118 249.804 118.974 245.237 120.865C240.67 122.757 236.52 125.53 233.025 129.025C229.53 132.52 226.757 136.67 224.865 141.237C222.974 145.804 222 150.698 222 155.641C222 160.585 222.974 165.479 224.865 170.046C226.757 174.613 229.53 178.763 233.025 182.258C236.52 185.753 240.67 188.526 245.237 190.418C249.804 192.309 254.698 193.283 259.641 193.283C259.885 193.283 260.124 193.283 260.368 193.273C270.287 193.082 279.728 188.983 286.641 181.867C293.553 174.752 297.377 165.196 297.281 155.276C297.185 145.357 293.177 135.876 286.129 128.896C279.081 121.915 269.561 118 259.641 118V118ZM267.313 189.409C262.562 190.488 257.636 190.552 252.859 189.597C248.081 188.643 243.558 186.691 239.587 183.869C235.615 181.047 232.283 177.418 229.81 173.221C227.336 169.023 225.776 164.351 225.232 159.509C224.687 154.667 225.17 149.765 226.65 145.123C228.13 140.481 230.572 136.203 233.818 132.57C237.063 128.936 241.039 126.028 245.486 124.036C249.932 122.044 254.749 121.013 259.621 121.01H259.641C268.158 121.009 276.376 124.147 282.725 129.823C289.074 135.499 293.108 143.316 294.057 151.779C295.007 160.243 292.804 168.759 287.87 175.701C282.937 182.642 275.618 187.523 267.313 189.409V189.409Z" fill="#3F3D56"/>
<path d="M267.313 189.409C265.137 190.932 262.81 192.226 260.369 193.273C260.124 193.283 259.886 193.283 259.641 193.283C250.326 193.283 241.341 189.828 234.424 183.587C227.508 177.346 223.152 168.762 222.198 159.494C221.244 150.227 223.761 140.936 229.261 133.417C234.761 125.898 242.854 120.686 251.975 118.788C254.593 119.263 257.156 120.007 259.621 121.01C254.749 121.013 249.933 122.045 245.487 124.037C241.041 126.029 237.065 128.937 233.82 132.571C230.575 136.204 228.132 140.482 226.653 145.124C225.174 149.766 224.69 154.667 225.235 159.509C225.779 164.35 227.339 169.022 229.813 173.22C232.286 177.417 235.617 181.045 239.589 183.867C243.56 186.689 248.082 188.641 252.86 189.596C257.637 190.551 262.562 190.487 267.313 189.409Z" fill="#99BCAB"/>
<path d="M243.836 141.233C243.836 141.233 264.387 152.5 253.322 164.911C253.322 164.911 252.245 167.654 249.319 167.371C249.319 167.371 249.936 166.323 247.721 165.412C246.934 165.087 246.189 164.668 245.501 164.164C244.571 163.488 243.89 162.525 243.564 161.423V161.423C243.564 161.423 239.444 155.624 243.02 145.161C243.02 145.161 242.667 142.171 243.052 141.702L245.495 145.232C245.495 145.232 242.839 146.921 242.476 149.493C242.476 149.493 245.305 145.233 245.881 145.736C246.002 145.843 247.097 147.664 247.097 147.664C247.097 147.664 242.489 150.63 242.05 154.601C242.05 154.601 244.744 149.072 247.513 148.346L248.975 151.201C248.975 151.201 243.946 154.095 243.279 158.615C243.279 158.615 246.295 152.933 249.255 151.85L250.34 154.853C250.34 154.853 245.515 157.771 244.964 161.53C244.964 161.53 249.113 155.325 250.542 155.56C250.542 155.56 251.374 158.375 251.231 159.228C251.231 159.228 247.802 161.404 247.686 163.617C247.686 163.617 250.892 159.763 251.368 160.03C251.368 160.03 251.47 163.989 250.461 166.022C251.481 164.197 252.005 162.137 251.984 160.046C252.928 160.924 253.595 162.059 253.902 163.311C253.902 163.311 254.857 161.156 251.951 159.069C251.951 159.069 251.744 156 251.417 155.598C251.417 155.598 254.548 157.235 255.88 159.184C255.88 159.184 255.452 156.318 251.156 154.795L250.131 151.753C250.131 151.753 254.417 153.695 255.715 155.35C255.715 155.35 254.826 152.488 249.811 151.007L248.382 148.194C248.382 148.194 252.2 149.586 254.016 151.081C254.016 151.081 252.623 148.612 247.917 147.372L246.739 145.609C246.739 145.609 249.512 146.673 250.282 147.053C251.051 147.434 251.211 147.256 251.211 147.256C249.814 146.013 248.099 145.182 246.258 144.856C246.258 144.856 243.639 141.418 243.836 141.233Z" fill="#2AAB6C"/>
<path d="M282.43 146.402C282.43 146.402 259.03 147.727 263.668 163.675C263.668 163.675 263.461 166.617 266.223 167.622C266.223 167.622 266.121 166.396 268.509 166.544C269.359 166.586 270.212 166.528 271.049 166.37C272.185 166.164 273.221 165.59 273.999 164.737C273.999 164.737 280.215 161.277 281.513 150.303C281.513 150.303 283.122 147.757 282.974 147.165L279.254 149.325C279.254 149.325 280.919 151.994 280.144 154.471C280.144 154.471 279.421 149.41 278.685 149.613C278.532 149.625 276.757 150.834 276.757 150.834C276.757 150.834 279.642 155.494 278.315 159.275C278.315 159.275 278.266 153.109 276.083 151.272L273.511 153.208C273.511 153.208 276.795 157.982 275.454 162.351C275.454 162.351 275.18 155.926 272.975 153.665L270.693 155.91C270.693 155.91 273.812 160.63 272.669 164.255C272.669 164.255 271.605 156.864 270.206 156.437C270.206 156.437 268.246 158.624 267.989 159.46C267.989 159.46 270.125 162.898 269.295 164.942C269.295 164.942 268.067 160.107 267.519 160.122C267.519 160.122 265.72 163.647 265.754 165.921C265.619 163.832 266.033 161.745 266.955 159.867C265.726 160.25 264.635 160.984 263.817 161.978C263.817 161.978 263.886 159.621 267.396 159.009C267.396 159.009 268.912 156.31 269.376 156.105C269.376 156.105 265.826 156.221 263.802 157.419C263.802 157.419 265.423 155.014 269.955 155.49L272.195 153.187C272.195 153.187 267.485 153.097 265.606 154.024C265.606 154.024 267.639 151.831 272.804 152.649L275.304 150.732C275.304 150.732 271.255 150.34 268.94 150.921C268.94 150.921 271.273 149.296 276.044 150.208L277.867 149.119C277.867 149.119 274.905 148.89 274.048 148.899C273.191 148.909 273.116 148.68 273.116 148.68C274.914 148.16 276.821 148.149 278.624 148.649C278.624 148.649 282.532 146.665 282.43 146.402Z" fill="#2AAB6C"/>
<path opacity="0.3" d="M264.47 136.767C264.47 136.767 245.226 150.141 257.565 161.313C257.565 161.313 258.928 163.929 261.805 163.334C261.805 163.334 261.089 162.356 263.19 161.22C263.943 160.807 264.645 160.307 265.281 159.729C266.138 158.956 266.718 157.924 266.932 156.791V156.791C266.932 156.791 270.407 150.582 265.754 140.564C265.754 140.564 265.783 137.554 265.353 137.129L263.296 140.9C263.296 140.9 266.123 142.297 266.756 144.809C266.756 144.809 263.473 140.885 262.969 141.446C262.865 141.56 261.968 143.488 261.968 143.488C261.968 143.488 266.868 145.94 267.725 149.858C267.725 149.858 264.46 144.648 261.626 144.222L260.45 147.219C260.45 147.219 265.754 149.56 266.906 153.981C266.906 153.981 263.298 148.661 260.239 147.895L259.481 150.998C259.481 150.998 264.61 153.378 265.538 157.064C265.538 157.064 260.751 151.332 259.355 151.716C259.355 151.716 258.832 154.609 259.064 155.445C259.064 155.445 262.702 157.242 263.055 159.428C263.055 159.428 259.446 155.939 259.009 156.257C259.009 156.257 259.33 160.2 260.547 162.118C259.342 160.416 258.602 158.429 258.399 156.354C257.555 157.328 257.014 158.527 256.844 159.805C256.844 159.805 255.663 157.764 258.335 155.401C258.335 155.401 258.209 152.32 258.495 151.898C258.495 151.898 255.531 153.86 254.439 155.94C254.439 155.94 254.558 153.042 258.667 151.067L259.362 147.934C259.362 147.934 255.304 150.326 254.195 152.106C254.195 152.106 254.774 149.169 259.598 147.158L260.71 144.182C260.71 144.182 257.059 145.976 255.405 147.681C255.405 147.681 256.531 145.071 261.075 143.344L262.059 141.464C262.059 141.464 259.415 142.817 258.682 143.261C257.95 143.705 257.78 143.568 257.78 143.568C259.036 142.18 260.653 141.169 262.451 140.648C262.451 140.648 264.681 136.929 264.47 136.767Z" fill="#2AAB6C"/>
<path opacity="0.03" d="M260.824 170.956C272.371 170.956 281.732 169.028 281.732 166.651C281.732 164.274 272.371 162.347 260.824 162.347C249.277 162.347 239.917 164.274 239.917 166.651C239.917 169.028 249.277 170.956 260.824 170.956Z" fill="black"/>
</svg>
