<svg width="310" height="207" viewBox="0 0 310 207" fill="none" xmlns="http://www.w3.org/2000/svg">
<g clip-path="url(#clip0)">
<path d="M162.995 184.445C208.278 184.445 244.986 147.736 244.986 102.454C244.986 57.1713 208.278 20.4626 162.995 20.4626C117.713 20.4626 81.0039 57.1713 81.0039 102.454C81.0039 147.736 117.713 184.445 162.995 184.445Z" fill="url(#paint0_linear)"/>
<path d="M162.995 182.434C207.167 182.434 242.975 146.625 242.975 102.454C242.975 58.2821 207.167 22.4739 162.995 22.4739C118.824 22.4739 83.0154 58.2821 83.0154 102.454C83.0154 146.625 118.824 182.434 162.995 182.434Z" fill="#99BCAB"/>
<path opacity="0.05" d="M137.134 66.161C142.621 66.161 147.069 61.7129 147.069 56.2259C147.069 50.7389 142.621 46.2908 137.134 46.2908C131.647 46.2908 127.199 50.7389 127.199 56.2259C127.199 61.7129 131.647 66.161 137.134 66.161Z" fill="black"/>
<path opacity="0.05" d="M167.522 172.554C173.009 172.554 177.457 168.106 177.457 162.619C177.457 157.132 173.009 152.684 167.522 152.684C162.035 152.684 157.587 157.132 157.587 162.619C157.587 168.106 162.035 172.554 167.522 172.554Z" fill="black"/>
<path opacity="0.05" d="M177.457 111.396C188.676 111.396 197.771 102.301 197.771 91.0824C197.771 79.8635 188.676 70.7689 177.457 70.7689C166.238 70.7689 157.144 79.8635 157.144 91.0824C157.144 102.301 166.238 111.396 177.457 111.396Z" fill="black"/>
<path d="M195.123 126.258C185.062 126.258 174.351 125.777 163.403 124.809C139.067 122.661 116.382 118.372 99.5317 112.736C82.5594 107.054 73.4907 100.635 74.0176 94.6618C74.2836 91.6372 76.9485 88.9368 81.9337 86.6367L82.1871 87.2067C77.4196 89.4054 74.8789 91.931 74.6331 94.7175C74.3874 97.504 76.495 100.503 80.9027 103.538C85.2345 106.52 91.5649 109.412 99.7217 112.151C116.529 117.774 139.161 122.05 163.451 124.193C187.742 126.337 210.773 126.091 228.3 123.499C236.807 122.233 243.548 120.5 248.335 118.324C253.209 116.11 255.806 113.557 256.054 110.737C256.338 107.528 253.437 104.009 247.669 100.564L247.991 100.024C254.07 103.655 256.991 107.277 256.68 110.793C256.153 116.769 246.106 121.501 228.394 124.117C218.75 125.539 207.409 126.255 195.123 126.258Z" fill="url(#paint1_linear)"/>
<path opacity="0.5" d="M247.839 99.6597C253.592 103.097 256.682 106.669 256.375 110.129C255.314 122.154 213.702 128.305 163.431 123.867C113.16 119.429 73.2676 106.084 74.329 94.0589C74.5824 91.0874 77.3309 88.4859 82.0628 86.2921" stroke="#BDBDBD" stroke-width="3" stroke-miterlimit="10"/>
<path d="M173.252 138.037C166.002 134.911 158.603 131.423 151.261 127.666C129.509 116.541 110.092 104.055 96.588 92.5035C82.9798 80.8661 76.9914 71.5161 79.7221 66.1737C81.1052 63.4683 84.5884 61.9661 90.0701 61.7052L90.1005 62.3309C84.8569 62.5842 81.5536 63.9673 80.2794 66.4574C79.0052 68.9475 79.8336 72.5193 82.7822 76.9853C85.6776 81.3727 90.4603 86.434 96.9958 92.0222C110.462 103.548 129.836 116.006 151.545 127.109C158.876 130.858 166.26 134.341 173.5 137.462L173.252 138.037Z" fill="url(#paint2_linear)"/>
<path d="M174.42 137.749C167.304 134.681 159.933 131.215 152.447 127.388C107.516 104.409 75.5501 77.0663 81.0471 66.3206C82.4049 63.6659 85.9235 62.2675 91.1317 62.0142" stroke="#BDBDBD" stroke-width="3" stroke-miterlimit="10"/>
<path d="M232.108 155.972C225.521 155.972 216.232 153.819 203.693 149.497L203.898 148.905C227.827 157.148 239.664 157.482 243.479 150.022C244.946 147.154 243.578 142.805 239.525 137.444L240.031 137.067C244.302 142.711 245.653 147.167 244.044 150.308C242.106 154.08 238.286 155.97 232.108 155.972Z" fill="url(#paint3_linear)"/>
<path d="M239.776 136.626C243.829 141.971 245.349 146.442 243.76 149.545C240.115 156.671 229.423 157.398 203.797 148.583" stroke="#BDBDBD" stroke-width="3" stroke-miterlimit="10"/>
<g opacity="0.5">
<path opacity="0.5" d="M90.7236 176.62H89.908V181.238H90.7236V176.62Z" fill="#99BCAB"/>
<path opacity="0.5" d="M92.6235 179.338V178.522H88.0056V179.338H92.6235Z" fill="#99BCAB"/>
</g>
<g opacity="0.5">
<path opacity="0.5" d="M256.441 9.81567H255.626V14.4336H256.441V9.81567Z" fill="#99BCAB"/>
<path opacity="0.5" d="M258.341 12.5338V11.7181H253.723V12.5338H258.341Z" fill="#99BCAB"/>
</g>
<g opacity="0.5">
<path opacity="0.5" d="M274.1 135.869H273.284V140.487H274.1V135.869Z" fill="#99BCAB"/>
<path opacity="0.5" d="M276 138.587V137.771H271.382V138.587H276Z" fill="#99BCAB"/>
</g>
<g opacity="0.5">
<path opacity="0.5" d="M93.4395 20.954H92.6238V25.572H93.4395V20.954Z" fill="#99BCAB"/>
<path opacity="0.5" d="M95.3418 23.6721V22.8564H90.7238V23.6721H95.3418Z" fill="#99BCAB"/>
</g>
<path opacity="0.5" d="M116.719 192.457C116.495 192.36 116.314 192.183 116.211 191.961C116.108 191.738 116.091 191.486 116.162 191.252C116.174 191.215 116.182 191.178 116.185 191.14V191.14C116.187 191.034 116.157 190.931 116.097 190.843C116.038 190.756 115.953 190.689 115.854 190.653C115.755 190.616 115.647 190.612 115.545 190.64C115.443 190.667 115.352 190.726 115.285 190.808C115.263 190.839 115.244 190.872 115.23 190.907C115.132 191.132 114.955 191.313 114.733 191.415C114.511 191.518 114.258 191.536 114.024 191.464C113.988 191.452 113.95 191.445 113.913 191.442V191.442C113.807 191.439 113.703 191.47 113.616 191.529C113.529 191.588 113.462 191.674 113.425 191.773C113.389 191.872 113.384 191.98 113.412 192.082C113.44 192.183 113.499 192.274 113.581 192.341C113.611 192.363 113.644 192.382 113.679 192.397C113.904 192.494 114.085 192.671 114.188 192.893C114.291 193.116 114.308 193.368 114.237 193.602C114.225 193.638 114.217 193.676 114.214 193.714V193.714C114.211 193.819 114.242 193.923 114.301 194.01C114.361 194.098 114.446 194.164 114.545 194.201C114.644 194.238 114.752 194.242 114.854 194.214C114.956 194.187 115.047 194.128 115.113 194.046C115.136 194.015 115.154 193.982 115.169 193.947C115.267 193.722 115.443 193.541 115.666 193.438C115.888 193.336 116.14 193.318 116.375 193.39C116.411 193.402 116.448 193.409 116.486 193.412V193.412C116.592 193.415 116.696 193.384 116.783 193.325C116.87 193.266 116.937 193.18 116.973 193.081C117.01 192.982 117.015 192.874 116.987 192.772C116.959 192.67 116.9 192.58 116.818 192.513C116.787 192.491 116.754 192.472 116.719 192.457V192.457Z" fill="#575958"/>
<path opacity="0.5" d="M166.433 195.728C166.208 195.63 166.027 195.453 165.924 195.231C165.822 195.009 165.804 194.756 165.875 194.522C165.887 194.486 165.895 194.448 165.898 194.41V194.41C165.901 194.305 165.87 194.201 165.811 194.114C165.751 194.027 165.666 193.96 165.567 193.923C165.468 193.887 165.36 193.882 165.258 193.91C165.156 193.938 165.066 193.997 164.999 194.079C164.976 194.109 164.958 194.142 164.943 194.177C164.846 194.402 164.669 194.583 164.446 194.686C164.224 194.789 163.972 194.806 163.737 194.735C163.701 194.723 163.664 194.715 163.626 194.712V194.712C163.52 194.709 163.417 194.74 163.329 194.799C163.242 194.859 163.175 194.944 163.139 195.043C163.102 195.142 163.098 195.25 163.125 195.352C163.153 195.454 163.212 195.544 163.294 195.611C163.325 195.634 163.358 195.652 163.393 195.667C163.618 195.765 163.798 195.941 163.901 196.164C164.004 196.386 164.021 196.638 163.95 196.873C163.938 196.909 163.93 196.946 163.927 196.984V196.984C163.925 197.09 163.955 197.193 164.015 197.281C164.074 197.368 164.159 197.435 164.258 197.471C164.358 197.508 164.466 197.513 164.567 197.485C164.669 197.457 164.76 197.398 164.827 197.316C164.849 197.285 164.868 197.252 164.882 197.217C164.98 196.993 165.157 196.812 165.379 196.709C165.601 196.606 165.854 196.589 166.088 196.66C166.124 196.672 166.162 196.68 166.2 196.683V196.683C166.305 196.685 166.409 196.655 166.496 196.595C166.584 196.536 166.65 196.451 166.687 196.352C166.723 196.253 166.728 196.145 166.7 196.043C166.672 195.941 166.613 195.85 166.531 195.783C166.501 195.761 166.468 195.742 166.433 195.728V195.728Z" fill="#575958"/>
<path opacity="0.5" d="M264.778 64.5094C264.553 64.4118 264.373 64.235 264.27 64.0127C264.167 63.7903 264.15 63.538 264.221 63.3036C264.233 63.2675 264.241 63.2301 264.244 63.1921V63.1921C264.246 63.0866 264.216 62.9829 264.156 62.8955C264.097 62.8082 264.012 62.7416 263.913 62.705C263.813 62.6684 263.705 62.6638 263.604 62.6916C263.502 62.7194 263.411 62.7784 263.344 62.8603C263.322 62.8909 263.303 62.9241 263.289 62.9591C263.191 63.1838 263.014 63.3647 262.792 63.4675C262.57 63.5702 262.317 63.5876 262.083 63.5164C262.047 63.5044 262.009 63.4967 261.971 63.4936V63.4936C261.866 63.4911 261.762 63.5217 261.675 63.5811C261.587 63.6404 261.521 63.7256 261.484 63.8247C261.448 63.9238 261.443 64.0318 261.471 64.1337C261.499 64.2355 261.558 64.3262 261.64 64.3929C261.67 64.4153 261.703 64.434 261.738 64.4486C261.963 64.5462 262.144 64.723 262.247 64.9453C262.349 65.1677 262.367 65.42 262.296 65.6544C262.284 65.6905 262.276 65.7279 262.273 65.7658V65.7658C262.27 65.8714 262.301 65.9751 262.36 66.0625C262.42 66.1498 262.505 66.2164 262.604 66.253C262.703 66.2895 262.811 66.2942 262.913 66.2664C263.015 66.2385 263.105 66.1795 263.172 66.0977C263.195 66.0671 263.213 66.0339 263.228 65.9989C263.325 65.7742 263.502 65.5933 263.725 65.4905C263.947 65.3877 264.199 65.3703 264.434 65.4416C264.47 65.4536 264.507 65.4612 264.545 65.4644V65.4644C264.651 65.4669 264.754 65.4363 264.842 65.3769C264.929 65.3175 264.996 65.2324 265.032 65.1333C265.069 65.0342 265.074 64.9262 265.046 64.8243C265.018 64.7224 264.959 64.6318 264.877 64.5651C264.846 64.5427 264.813 64.524 264.778 64.5094V64.5094Z" fill="#575958"/>
<path opacity="0.5" d="M71.1321 136.401C70.9074 136.303 70.7265 136.126 70.6237 135.904C70.521 135.682 70.5036 135.429 70.5748 135.195C70.5868 135.159 70.5945 135.122 70.5976 135.084V135.084C70.6001 134.978 70.5695 134.874 70.5101 134.787C70.4508 134.7 70.3656 134.633 70.2665 134.596C70.1674 134.56 70.0594 134.555 69.9575 134.583C69.8557 134.611 69.765 134.67 69.6983 134.752V134.752C69.6759 134.782 69.6572 134.816 69.6426 134.851C69.545 135.075 69.3682 135.256 69.1459 135.359C68.9235 135.462 68.6712 135.479 68.4368 135.408C68.4007 135.396 68.3633 135.388 68.3254 135.385V135.385C68.2198 135.383 68.1161 135.413 68.0287 135.473C67.9414 135.532 67.8748 135.617 67.8382 135.716C67.8017 135.815 67.797 135.923 67.8248 136.025C67.8527 136.127 67.9116 136.218 67.9935 136.284V136.284C68.0241 136.307 68.0573 136.325 68.0923 136.34C68.317 136.438 68.4979 136.614 68.6007 136.837C68.7034 137.059 68.7209 137.311 68.6496 137.546C68.6376 137.582 68.6299 137.619 68.6268 137.657V137.657C68.6243 137.763 68.6549 137.867 68.7143 137.954C68.7737 138.041 68.8588 138.108 68.9579 138.144C69.057 138.181 69.165 138.186 69.2669 138.158C69.3688 138.13 69.4594 138.071 69.5261 137.989V137.989C69.5485 137.959 69.5672 137.925 69.5818 137.89C69.6794 137.666 69.8562 137.485 70.0785 137.382C70.3009 137.279 70.5532 137.262 70.7876 137.333C70.8237 137.345 70.8611 137.353 70.8991 137.356V137.356C71.0046 137.358 71.1084 137.328 71.1957 137.268C71.283 137.209 71.3496 137.124 71.3862 137.025C71.4228 136.926 71.4275 136.818 71.3996 136.716C71.3718 136.614 71.3128 136.523 71.2309 136.457V136.457C71.2003 136.434 71.1671 136.415 71.1321 136.401V136.401Z" fill="#575958"/>
<path opacity="0.5" d="M67.6288 70.9386C68.5284 70.9386 69.2577 70.2093 69.2577 69.3098C69.2577 68.4102 68.5284 67.6809 67.6288 67.6809C66.7293 67.6809 66 68.4102 66 69.3098C66 70.2093 66.7293 70.9386 67.6288 70.9386Z" fill="#69C397"/>
<path opacity="0.5" d="M200.476 16.3335C201.376 16.3335 202.105 15.6043 202.105 14.7047C202.105 13.8051 201.376 13.0759 200.476 13.0759C199.576 13.0759 198.847 13.8051 198.847 14.7047C198.847 15.6043 199.576 16.3335 200.476 16.3335Z" fill="#575958"/>
<path opacity="0.5" d="M110.824 12.2577C111.724 12.2577 112.453 11.5284 112.453 10.6288C112.453 9.72925 111.724 9 110.824 9C109.925 9 109.196 9.72925 109.196 10.6288C109.196 11.5284 109.925 12.2577 110.824 12.2577Z" fill="#99BCAB"/>
<path opacity="0.5" d="M231.446 185.856C232.346 185.856 233.075 185.127 233.075 184.227C233.075 183.328 232.346 182.598 231.446 182.598C230.547 182.598 229.818 183.328 229.818 184.227C229.818 185.127 230.547 185.856 231.446 185.856Z" fill="#69C397"/>
</g>
<path d="M188.886 158.132C189.525 158.385 190.238 158.374 190.868 158.101C191.499 157.829 191.995 157.317 192.249 156.678L192.461 156.144L193.095 156.397L198.763 158.644L199.996 159.133C200.168 159.201 200.355 159.221 200.538 159.191C205.863 160.358 209.666 156.678 211.809 151.274C212.58 149.421 213.014 147.446 213.092 145.441L213.156 145.465C213.238 143.32 212.759 141.366 211.552 139.793L211.482 139.975C210.877 139.176 210.134 138.492 209.287 137.956C209.249 137.849 209.189 137.751 209.111 137.67C209.032 137.588 208.937 137.524 208.832 137.483L201.073 134.407L201.524 133.27C201.777 132.632 201.766 131.919 201.494 131.288C201.221 130.658 200.709 130.161 200.071 129.908V129.908L198.666 133.469L189.098 129.675L188.619 130.88L188.14 132.084L187.425 133.89L187.394 133.893L189.053 129.711L184.473 127.866C178.901 125.658 175.217 129.599 172.838 135.366L172.841 135.396L172.696 135.753L172.699 135.783L172.578 136.1C170.336 141.952 170.304 147.343 175.904 149.558L180.466 151.35L182.388 146.498L182.419 146.495L181.437 148.97L180.985 150.107L180.482 151.379L190.053 155.19L188.886 158.132V158.132ZM200.756 137.068L200.726 137.047L200.757 137.044L200.756 137.068Z" fill="url(#paint4_linear)"/>
<path d="M190.715 153.279L197.901 135.158L188.841 131.565L181.654 149.686L190.715 153.279Z" fill="#6C8579"/>
<path d="M173.86 136.167L173.863 136.197C176.096 130.569 179.596 126.64 184.957 128.763L189.271 130.474L181.168 150.864L176.858 149.153C171.496 147.026 171.626 141.796 173.86 136.167Z" fill="#9CBEAD"/>
<path d="M176.561 131.305C175.425 132.788 174.515 134.431 173.861 136.181C173.244 137.682 172.81 139.251 172.57 140.856L174.412 141.588L178.218 131.97L176.561 131.305Z" fill="#F8F8F8"/>
<path d="M187.718 134.396L183.001 146.289L182.669 146.157C182.49 146.086 182.326 145.98 182.188 145.846C182.049 145.712 181.939 145.551 181.862 145.374C181.786 145.197 181.745 145.007 181.742 144.814C181.739 144.621 181.774 144.429 181.845 144.25L185.481 135.082C185.625 134.72 185.906 134.429 186.264 134.275C186.622 134.12 187.026 134.114 187.389 134.258L187.72 134.389L187.718 134.396Z" fill="#F8F8F8"/>
<path d="M207.823 139.886L207.648 140.329L188.395 132.693L189.293 130.43L206.722 137.342C206.961 137.436 207.18 137.577 207.365 137.756C207.55 137.935 207.698 138.149 207.8 138.385C207.902 138.622 207.957 138.876 207.961 139.134C207.965 139.391 207.918 139.647 207.823 139.886Z" fill="#6F9C86"/>
<path d="M201.332 156.252L201.156 156.695C200.964 157.178 200.589 157.565 200.112 157.771C199.635 157.977 199.096 157.985 198.613 157.794L181.181 150.88L182.079 148.617L201.332 156.252Z" fill="#6F9C86"/>
<path d="M193.053 155.612L201.136 135.225L206.479 137.336C212.368 139.673 212.896 145.164 210.667 150.792C208.433 156.421 204.285 160.057 198.383 157.725L193.053 155.612Z" fill="#9CBEAD"/>
<path d="M210.424 139.99L208.79 144.088L211.921 145.328C212.01 143.309 211.556 141.471 210.424 139.99Z" fill="#3A7759"/>
<path d="M203.16 158.312L204.793 154.215L207.925 155.455C206.586 156.982 204.999 158.012 203.16 158.312Z" fill="#3A7759"/>
<path d="M201.156 133.385L200.529 134.966L198.265 134.068L199.614 130.666L200.05 130.839C200.29 130.933 200.509 131.074 200.695 131.253C200.88 131.432 201.029 131.646 201.131 131.883C201.234 132.119 201.289 132.374 201.293 132.631C201.297 132.889 201.251 133.145 201.156 133.385V133.385Z" fill="#6F9C86"/>
<path d="M189.107 157.264L190.455 153.865L192.718 154.763L192.091 156.343C191.9 156.826 191.524 157.213 191.047 157.42C190.571 157.626 190.031 157.634 189.548 157.442L189.106 157.267L189.107 157.264Z" fill="#6F9C86"/>
<path d="M191.493 153.025L198.254 135.972L206.221 141.758C206.841 142.208 207.293 142.852 207.507 143.588C207.72 144.324 207.683 145.11 207.401 145.822L204.887 152.156C204.604 152.871 204.09 153.471 203.427 153.861C202.763 154.251 201.989 154.407 201.226 154.307L191.493 153.025Z" fill="#575958"/>
<path d="M197.944 136.579C201.699 138.066 203.384 142.694 201.708 146.919C200.033 151.144 195.632 153.35 191.882 151.869" fill="#EDEDED"/>
<path d="M190.877 152.743L197.614 135.754L199.313 136.428L198.265 137.417L192.73 151.371L192.576 153.418L190.877 152.743Z" fill="#9CBEAD"/>
<path opacity="0.05" d="M190.877 152.743L197.614 135.754L199.313 136.428L198.265 137.417L192.73 151.371L192.576 153.418L190.877 152.743Z" fill="black"/>
<path d="M194.268 144.234L195.166 141.971L192.902 141.073L192.004 143.337L194.268 144.234Z" fill="#575958"/>
<path d="M191.88 141.983C191.384 143.233 191.235 144.347 191.548 144.471C191.86 144.595 192.516 143.682 193.011 142.432C193.507 141.181 193.656 140.067 193.343 139.944C193.031 139.82 192.375 140.733 191.88 141.983Z" fill="#575958"/>
<path opacity="0.05" d="M185.403 131.566C184.902 131.294 184.35 131.128 183.781 131.078C183.213 131.029 182.64 131.096 182.099 131.276C181.558 131.456 181.059 131.745 180.634 132.126C180.209 132.506 179.866 132.97 179.627 133.488" fill="black"/>
<path opacity="0.05" d="M179.337 146.849C178.786 146.702 178.272 146.445 177.825 146.091C177.378 145.738 177.008 145.297 176.738 144.796C176.467 144.294 176.303 143.743 176.254 143.175C176.205 142.608 176.273 142.036 176.453 141.496" fill="black"/>
<path opacity="0.05" d="M205.473 144.115C205.473 144.115 206.393 148.411 202.329 152.042Z" fill="black"/>
<path opacity="0.05" d="M203.335 143.266C203.335 143.266 204.255 147.561 200.191 151.192Z" fill="black"/>
<path d="M197.313 141.514C196.941 142.451 197.399 143.513 198.337 143.884C199.275 144.256 200.336 143.798 200.708 142.86C201.08 141.923 200.621 140.861 199.683 140.489C198.746 140.117 197.684 140.576 197.313 141.514Z" fill="#CCD2DB"/>
<path d="M195.974 148.191C195.726 148.816 196.032 149.524 196.657 149.772C197.282 150.02 197.99 149.714 198.238 149.089C198.486 148.464 198.18 147.756 197.555 147.508C196.93 147.26 196.222 147.566 195.974 148.191Z" fill="#CCD2DB"/>
<path d="M192.718 144.531L192.825 144.872C192.883 145.058 192.865 145.26 192.774 145.432C192.684 145.605 192.529 145.734 192.343 145.793L188.528 146.985C188.337 147.044 188.131 147.025 187.955 146.933C187.778 146.84 187.645 146.682 187.586 146.491L187.264 145.462L191.81 144.042C191.995 143.988 192.194 144.009 192.364 144.1C192.534 144.192 192.661 144.347 192.718 144.531V144.531Z" fill="#565656"/>
<path opacity="0.05" d="M190.367 144.135L190.909 145.879L188.827 146.526C188.455 146.641 188.052 146.604 187.707 146.423C187.362 146.242 187.104 145.931 186.988 145.559L186.882 145.218L190.367 144.135Z" fill="black"/>
<path d="M192.859 136.201L191.682 139.17L188.166 137.775L189.343 134.807C189.491 134.434 189.781 134.135 190.15 133.975C190.518 133.816 190.935 133.81 191.308 133.958L191.994 134.23C192.181 134.302 192.352 134.41 192.497 134.548C192.642 134.686 192.757 134.852 192.838 135.035C192.918 135.218 192.962 135.416 192.965 135.616C192.969 135.816 192.933 136.015 192.859 136.201V136.201Z" fill="#565656"/>
<path d="M189.3 135.145L189.774 133.788C190.319 132.631 191.879 132.171 193.322 132.742L194.996 133.406L194.303 135.158L189.3 135.145Z" fill="#565656"/>
<path d="M198.208 135.476L198.073 135.818C197.999 136.005 197.853 136.155 197.669 136.235C197.484 136.314 197.275 136.317 197.088 136.243L194.29 135.134L194.985 133.382L197.783 134.492C197.97 134.566 198.12 134.711 198.199 134.896C198.279 135.081 198.282 135.29 198.208 135.476Z" fill="#565656"/>
<path opacity="0.05" d="M190.095 137.549C189.514 137.319 188.874 137.288 188.274 137.461L188.204 137.643L191.624 139.004C191.322 138.339 190.774 137.818 190.095 137.549V137.549Z" fill="black"/>
<path d="M185.6 144.392L186.776 141.426L190.279 142.816L189.101 145.784C189.028 145.969 188.919 146.137 188.781 146.28C188.642 146.423 188.477 146.537 188.295 146.615C188.112 146.694 187.916 146.736 187.717 146.739C187.519 146.742 187.321 146.706 187.137 146.633L186.451 146.361C186.266 146.288 186.097 146.179 185.955 146.04C185.812 145.902 185.698 145.737 185.619 145.554C185.54 145.372 185.498 145.176 185.495 144.977C185.492 144.778 185.528 144.581 185.602 144.396L185.6 144.392Z" fill="#565656"/>
<path opacity="0.05" d="M187.972 142.893C187.391 142.663 186.902 142.246 186.583 141.708L186.654 141.526L190.074 142.887C189.401 143.16 188.648 143.162 187.972 142.893V142.893Z" fill="black"/>
<path d="M186.409 139.266C185.834 140.717 186.543 142.359 187.994 142.935C189.445 143.51 191.088 142.8 191.663 141.349C192.239 139.899 191.529 138.256 190.078 137.68C188.627 137.105 186.984 137.815 186.409 139.266Z" fill="#565656"/>
<path d="M186.543 139.21C185.967 140.66 186.677 142.303 188.128 142.879C189.579 143.454 191.222 142.744 191.797 141.293C192.372 139.842 191.663 138.2 190.212 137.624C188.761 137.049 187.118 137.759 186.543 139.21Z" fill="#565656"/>
<path d="M191.819 141.319C192.002 140.858 192.061 140.357 191.989 139.866C191.916 139.375 191.716 138.912 191.408 138.523C190.918 138.596 190.456 138.796 190.068 139.104C189.68 139.412 189.379 139.816 189.196 140.277C189.014 140.737 188.955 141.237 189.027 141.727C189.099 142.217 189.298 142.68 189.605 143.069C190.095 142.997 190.558 142.798 190.946 142.491C191.335 142.183 191.636 141.779 191.819 141.319V141.319Z" fill="#EDEDED"/>
<path d="M97.4173 118.818C97.7494 118.87 98.0886 118.788 98.3603 118.59C98.6319 118.392 98.8138 118.095 98.8661 117.762L98.9098 117.485L99.2399 117.537L102.187 117.999L102.829 118.1C102.918 118.114 103.01 118.104 103.094 118.069C105.761 118.053 107.181 115.887 107.622 113.077C107.79 112.109 107.785 111.12 107.606 110.154L107.639 110.159C107.448 109.126 107.008 108.245 106.263 107.624L106.249 107.718C105.874 107.402 105.446 107.155 104.984 106.991C104.954 106.944 104.915 106.903 104.869 106.873C104.823 106.842 104.77 106.822 104.716 106.814L100.681 106.181L100.774 105.589C100.826 105.257 100.744 104.918 100.546 104.647C100.348 104.375 100.05 104.193 99.7178 104.141V104.141L99.4308 105.992L94.4545 105.211L94.3556 105.838L94.2566 106.464L94.1097 107.403L94.0955 107.408L94.4372 105.233L92.052 104.846C89.1545 104.391 87.8204 106.669 87.3052 109.678L87.31 109.692L87.2792 109.878L87.284 109.893L87.26 110.057C86.8202 113.092 87.3854 115.668 90.297 116.123L92.6675 116.487L93.0629 113.964L93.0771 113.959L92.8749 115.247L92.7817 115.838L92.6785 116.499L97.6575 117.288L97.4173 118.818V118.818ZM100.816 107.485L100.799 107.478L100.814 107.474L100.816 107.485Z" fill="url(#paint5_linear)"/>
<path d="M97.7676 116.305L99.2473 106.881L94.5352 106.141L93.0556 115.565L97.7676 116.305Z" fill="#6C8579"/>
<path d="M87.8787 109.951L87.8835 109.965C88.3435 107.037 89.5914 104.785 92.3793 105.222L94.623 105.574L92.9501 116.18L90.708 115.827C87.9196 115.389 87.4187 112.878 87.8787 109.951Z" fill="#9CBEAD"/>
<path d="M88.6447 107.339C88.2623 108.169 88.0049 109.052 87.881 109.957C87.7478 110.74 87.7099 111.536 87.768 112.328L88.7261 112.479L89.5075 107.478L88.6447 107.339Z" fill="#F8F8F8"/>
<path d="M94.3039 107.613L93.3328 113.798L93.1602 113.771C93.0669 113.757 92.9774 113.724 92.8968 113.675C92.8163 113.625 92.7462 113.561 92.6906 113.484C92.635 113.408 92.595 113.322 92.5728 113.23C92.5506 113.138 92.5468 113.043 92.5614 112.95L93.31 108.182C93.3396 107.993 93.4428 107.824 93.5969 107.712C93.751 107.6 93.9434 107.553 94.1318 107.583L94.3044 107.61L94.3039 107.613Z" fill="#F8F8F8"/>
<path d="M104.493 108.069L104.457 108.3L94.444 106.728L94.6288 105.55L103.693 106.973C103.817 106.993 103.937 107.037 104.045 107.102C104.152 107.168 104.246 107.254 104.32 107.356C104.394 107.457 104.448 107.573 104.478 107.695C104.507 107.818 104.512 107.945 104.493 108.069Z" fill="#6F9C86"/>
<path d="M103.156 116.581L103.12 116.811C103.08 117.062 102.943 117.288 102.737 117.437C102.532 117.587 102.275 117.649 102.024 117.61L92.9584 116.186L93.1432 115.009L103.156 116.581Z" fill="#6F9C86"/>
<path d="M99.1352 117.167L100.799 106.564L103.577 106.997C106.639 107.478 107.483 110.043 107.024 112.97C106.564 115.897 104.975 118.08 101.907 117.602L99.1352 117.167Z" fill="#9CBEAD"/>
<path d="M105.745 107.839L105.407 109.971L107.035 110.226C106.86 109.253 106.445 108.424 105.745 107.839Z" fill="#3A7759"/>
<path d="M104.251 117.368L104.589 115.236L106.217 115.49C105.743 116.364 105.096 117.026 104.251 117.368Z" fill="#3A7759"/>
<path d="M100.61 105.684L100.481 106.506L99.3033 106.321L99.5811 104.552L99.808 104.588C99.9327 104.607 100.052 104.65 100.16 104.716C100.268 104.781 100.362 104.867 100.436 104.969C100.511 105.071 100.565 105.187 100.594 105.309C100.624 105.432 100.629 105.559 100.61 105.684V105.684Z" fill="#6F9C86"/>
<path d="M97.4292 118.38L97.7067 116.613L98.8839 116.797L98.7549 117.619C98.7154 117.871 98.5778 118.096 98.3723 118.246C98.1668 118.395 97.9103 118.457 97.6591 118.418L97.429 118.382L97.4292 118.38Z" fill="#6F9C86"/>
<path d="M98.1118 116.1L99.5032 107.231L103.929 109.136C104.274 109.284 104.559 109.543 104.74 109.871C104.921 110.199 104.988 110.578 104.93 110.949L104.412 114.243C104.354 114.615 104.173 114.957 103.898 115.214C103.624 115.471 103.271 115.63 102.896 115.664L98.1118 116.1Z" fill="#575958"/>
<path d="M99.4206 107.554C101.373 107.86 102.676 109.888 102.331 112.085C101.986 114.282 100.123 115.809 98.1729 115.506" fill="#EDEDED"/>
<path d="M97.7872 116.031L99.174 107.196L100.058 107.335L99.6641 107.92L98.5242 115.177L98.6711 116.171L97.7872 116.031Z" fill="#9CBEAD"/>
<path opacity="0.05" d="M97.7872 116.031L99.174 107.196L100.058 107.335L99.6641 107.92L98.5242 115.177L98.6711 116.171L97.7872 116.031Z" fill="black"/>
<path d="M98.49 111.605L98.6748 110.427L97.4976 110.243L97.3128 111.42L98.49 111.605Z" fill="#575958"/>
<path d="M97.1077 110.787C97.0056 111.437 97.0546 111.985 97.2171 112.01C97.3797 112.036 97.5942 111.529 97.6963 110.879C97.7984 110.229 97.7493 109.681 97.5868 109.656C97.4243 109.63 97.2097 110.137 97.1077 110.787Z" fill="#575958"/>
<path opacity="0.05" d="M92.8946 106.511C92.6258 106.436 92.3444 106.416 92.0678 106.453C91.7911 106.491 91.525 106.584 91.2859 106.729C91.0469 106.873 90.84 107.065 90.678 107.292C90.516 107.52 90.4023 107.778 90.344 108.051" fill="black"/>
<path opacity="0.05" d="M91.6436 114.46C91.365 114.45 91.0915 114.382 90.8401 114.262C90.5887 114.141 90.3646 113.97 90.1816 113.76C89.9986 113.55 89.8607 113.304 89.7762 113.038C89.6918 112.773 89.6626 112.493 89.6906 112.215" fill="black"/>
<path opacity="0.05" d="M103.826 110.341C103.826 110.341 104.728 112.293 103.179 114.464Z" fill="black"/>
<path opacity="0.05" d="M102.714 110.166C102.714 110.166 103.616 112.118 102.067 114.288Z" fill="black"/>
<path d="M99.6503 109.978C99.5737 110.466 99.9069 110.923 100.395 111C100.882 111.076 101.34 110.743 101.416 110.255C101.493 109.768 101.159 109.31 100.672 109.234C100.184 109.157 99.7268 109.49 99.6503 109.978Z" fill="#CCD2DB"/>
<path d="M99.7304 113.31C99.6794 113.635 99.9015 113.94 100.227 113.991C100.552 114.042 100.857 113.82 100.908 113.495C100.959 113.17 100.736 112.865 100.411 112.814C100.086 112.763 99.7814 112.985 99.7304 113.31Z" fill="#CCD2DB"/>
<path d="M97.7823 111.913L97.8698 112.064C97.9176 112.147 97.9306 112.245 97.906 112.337C97.8815 112.429 97.8213 112.508 97.7387 112.556L96.0459 113.536C95.9615 113.584 95.8611 113.598 95.7668 113.573C95.6725 113.547 95.5921 113.486 95.5432 113.401L95.2789 112.945L97.2959 111.777C97.3785 111.732 97.4759 111.72 97.5669 111.746C97.658 111.771 97.7353 111.831 97.7823 111.913V111.913Z" fill="#565656"/>
<path opacity="0.05" d="M96.6169 111.977L97.0635 112.751L96.1394 113.284C95.9742 113.379 95.778 113.405 95.5938 113.356C95.4096 113.306 95.2527 113.186 95.1574 113.021L95.0701 112.869L96.6169 111.977Z" fill="black"/>
<path d="M96.9525 107.921L96.7101 109.465L94.8818 109.178L95.1242 107.634C95.1547 107.44 95.261 107.266 95.4197 107.151C95.5785 107.035 95.7767 106.987 95.9707 107.018L96.3275 107.074C96.4245 107.088 96.5176 107.121 96.6017 107.171C96.6857 107.222 96.7589 107.288 96.817 107.367C96.8751 107.446 96.917 107.536 96.9403 107.631C96.9636 107.726 96.9677 107.825 96.9525 107.921V107.921Z" fill="#565656"/>
<path d="M95.1402 107.801L95.2201 107.101C95.356 106.491 96.0511 106.103 96.8012 106.221L97.6719 106.357L97.5297 107.268L95.1402 107.801Z" fill="#565656"/>
<path d="M99.428 107L99.4002 107.177C99.3849 107.274 99.3316 107.362 99.2521 107.42C99.1725 107.478 99.0732 107.502 98.9759 107.486L97.5209 107.258L97.6639 106.347L99.1189 106.575C99.2162 106.591 99.3034 106.644 99.3613 106.724C99.4193 106.803 99.4433 106.902 99.428 107Z" fill="#565656"/>
<path opacity="0.05" d="M95.778 108.863C95.4761 108.815 95.167 108.869 94.8993 109.017L94.8852 109.111L96.6646 109.392C96.4488 109.108 96.131 108.918 95.778 108.863V108.863Z" fill="black"/>
<path d="M94.369 112.613L94.6112 111.071L96.4329 111.357L96.1905 112.901C96.1754 112.997 96.1415 113.089 96.0908 113.172C96.0401 113.255 95.9736 113.327 95.895 113.384C95.8164 113.442 95.7272 113.483 95.6327 113.506C95.5382 113.529 95.44 113.533 95.344 113.518L94.9872 113.462C94.8911 113.446 94.7989 113.413 94.716 113.362C94.633 113.311 94.5608 113.245 94.5035 113.166C94.4462 113.087 94.405 112.998 94.3822 112.904C94.3593 112.809 94.3553 112.711 94.3704 112.615L94.369 112.613Z" fill="#565656"/>
<path opacity="0.05" d="M95.3401 111.642C95.0376 111.595 94.7594 111.449 94.5495 111.226L94.5636 111.132L96.3429 111.413C96.0507 111.616 95.6914 111.698 95.3401 111.642V111.642Z" fill="black"/>
<path d="M94.2033 110.079C94.0849 110.833 94.6005 111.541 95.3551 111.66C96.1097 111.778 96.8174 111.262 96.9359 110.508C97.0543 109.753 96.5387 109.046 95.7841 108.927C95.0295 108.809 94.3218 109.324 94.2033 110.079Z" fill="#565656"/>
<path d="M94.2612 110.038C94.1427 110.792 94.6584 111.5 95.4129 111.618C96.1675 111.737 96.8753 111.221 96.9937 110.467C97.1122 109.712 96.5966 109.004 95.842 108.886C95.0874 108.767 94.3797 109.283 94.2612 110.038Z" fill="#565656"/>
<path d="M97.0072 110.476C97.045 110.237 97.0189 109.991 96.9316 109.765C96.8443 109.538 96.6989 109.339 96.5099 109.186C96.2839 109.274 96.0848 109.419 95.9327 109.608C95.7805 109.797 95.6806 110.022 95.643 110.261C95.6054 110.501 95.6314 110.746 95.7183 110.972C95.8053 111.198 95.9502 111.398 96.1385 111.55C96.3648 111.463 96.5642 111.318 96.7167 111.13C96.8692 110.941 96.9694 110.716 97.0072 110.476V110.476Z" fill="#EDEDED"/>
<defs>
<linearGradient id="paint0_linear" x1="162.995" y1="184.445" x2="162.995" y2="20.4626" gradientUnits="userSpaceOnUse">
<stop stop-color="#808080" stop-opacity="0.25"/>
<stop offset="0.54" stop-color="#808080" stop-opacity="0.12"/>
<stop offset="1" stop-color="#808080" stop-opacity="0.1"/>
</linearGradient>
<linearGradient id="paint1_linear" x1="105534" y1="21472.6" x2="105534" y2="15275.1" gradientUnits="userSpaceOnUse">
<stop stop-color="#808080" stop-opacity="0.25"/>
<stop offset="0.54" stop-color="#808080" stop-opacity="0.12"/>
<stop offset="1" stop-color="#808080" stop-opacity="0.1"/>
</linearGradient>
<linearGradient id="paint2_linear" x1="40019.4" y1="44812.1" x2="40019.4" y2="21812.5" gradientUnits="userSpaceOnUse">
<stop stop-color="#808080" stop-opacity="0.25"/>
<stop offset="0.54" stop-color="#808080" stop-opacity="0.12"/>
<stop offset="1" stop-color="#808080" stop-opacity="0.1"/>
</linearGradient>
<linearGradient id="paint3_linear" x1="33398.5" y1="12558.9" x2="33398.5" y2="11147.8" gradientUnits="userSpaceOnUse">
<stop stop-color="#808080" stop-opacity="0.25"/>
<stop offset="0.54" stop-color="#808080" stop-opacity="0.12"/>
<stop offset="1" stop-color="#808080" stop-opacity="0.1"/>
</linearGradient>
<linearGradient id="paint4_linear" x1="-32509.1" y1="19773.8" x2="-28573.1" y2="21334.8" gradientUnits="userSpaceOnUse">
<stop stop-color="#808080" stop-opacity="0.25"/>
<stop offset="0.54" stop-color="#808080" stop-opacity="0.12"/>
<stop offset="1" stop-color="#808080" stop-opacity="0.1"/>
</linearGradient>
<linearGradient id="paint5_linear" x1="-13399.8" y1="13003.2" x2="-11352.8" y2="13324.6" gradientUnits="userSpaceOnUse">
<stop stop-color="#808080" stop-opacity="0.25"/>
<stop offset="0.54" stop-color="#808080" stop-opacity="0.12"/>
<stop offset="1" stop-color="#808080" stop-opacity="0.1"/>
</linearGradient>
<clipPath id="clip0">
<rect x="66" y="9" width="210" height="188.509" fill="white"/>
</clipPath>
</defs>
</svg>
