<svg width="393" height="242" viewBox="0 0 393 242" fill="none" xmlns="http://www.w3.org/2000/svg">
<path opacity="0.03" d="M192 241.059C298.039 241.059 384 223.361 384 201.529C384 179.698 298.039 162 192 162C85.9613 162 0 179.698 0 201.529C0 223.361 85.9613 241.059 192 241.059Z" fill="black"/>
<path d="M52.1894 87.1986C52.1894 87.1986 131.676 127.168 91.3716 175.744C91.3716 175.744 87.6552 186.296 76.5173 185.616C76.5173 185.616 78.717 181.556 70.1925 178.402C67.1617 177.272 64.2777 175.783 61.6027 173.965C57.9838 171.528 55.2701 167.965 53.8826 163.828V163.828C53.8826 163.828 37.4721 142.383 49.6236 102.211C49.6236 102.211 47.8833 90.9124 49.2779 89.0845L59.0253 102.146C59.0253 102.146 49.1741 108.91 48.1438 118.715C48.1438 118.715 58.3018 102.172 60.5578 104.005C61.0292 104.394 65.4275 111.156 65.4275 111.156C65.4275 111.156 48.3484 123.03 47.2177 138.153C47.2177 138.153 56.6932 116.814 67.0998 113.685L73.0293 124.319C73.0293 124.319 54.3441 135.976 52.4235 153.213C52.4235 153.213 63.0962 131.253 74.1796 126.743L78.7007 137.989C78.7007 137.989 60.792 149.71 59.209 164.045C59.209 164.045 74.1093 139.945 79.5627 140.644C79.5627 140.644 83.1008 151.21 82.6709 154.468C82.6709 154.468 69.9597 163.185 69.8156 171.595C69.8156 171.595 81.4571 156.541 83.3009 157.49C83.3009 157.49 84.2211 172.495 80.6689 180.345C84.2897 173.282 86.0031 165.397 85.6393 157.469C89.3389 160.671 92.0214 164.886 93.3565 169.594C93.3565 169.594 96.6902 161.291 85.3834 153.766C85.3834 153.766 84.1827 142.15 82.8872 140.672C82.8872 140.672 94.9863 146.457 100.305 153.671C100.305 153.671 98.2942 142.859 81.7898 137.659L77.4919 126.257C77.4919 126.257 94.0126 133.047 99.1608 139.149C99.1608 139.149 95.4003 128.412 76.1762 123.47L70.3744 112.99C70.3744 112.99 85.047 117.756 92.1376 123.185C92.1376 123.185 86.5192 114.004 68.5021 109.938L63.7922 103.407C63.7922 103.407 74.4576 107.069 77.4282 108.408C80.3987 109.747 80.9824 109.051 80.9824 109.051C75.5144 104.525 68.8972 101.604 61.8677 100.616C61.8677 100.616 51.4676 87.9271 52.1894 87.1986Z" fill="#2AAB6C"/>
<path d="M355.033 88.4972C355.033 88.4972 269.964 114.554 301.541 169.208C301.541 169.208 303.433 180.234 314.527 181.433C314.527 181.433 313.04 177.062 321.973 175.383C325.15 174.779 328.243 173.794 331.186 172.451C335.162 170.656 338.436 167.6 340.498 163.755V163.755C340.498 163.755 360.276 145.369 355.042 103.727C355.042 103.727 358.654 92.8811 357.586 90.8451L345.784 102.084C345.784 102.084 354.36 110.407 353.729 120.246C353.729 120.246 346.493 102.232 343.961 103.66C343.431 103.964 337.96 109.892 337.96 109.892C337.96 109.892 352.803 124.465 351.379 139.563C351.379 139.563 345.621 116.936 335.887 112.104L328.256 121.592C328.256 121.592 344.719 136.22 343.719 153.535C343.719 153.535 336.884 130.095 326.715 123.788L320.37 134.116C320.37 134.116 336.057 148.677 335.211 163.075C335.211 163.075 324.568 136.814 319.075 136.588C319.075 136.588 313.813 146.41 313.69 149.694C313.69 149.694 324.757 160.422 323.487 168.736C323.487 168.736 314.538 151.941 312.561 152.567C312.561 152.567 309.135 167.205 311.319 175.54C308.935 167.97 308.57 159.908 310.26 152.154C306.075 154.69 302.723 158.394 300.616 162.811C300.616 162.811 298.724 154.066 311.134 148.547C311.134 148.547 314.268 137.297 315.793 136.057C315.793 136.057 302.894 139.729 296.44 145.947C296.44 145.947 300.237 135.627 317.381 133.271L323.532 122.753C323.532 122.753 306.106 126.673 300.006 131.824C300.006 131.824 305.516 121.87 325.297 120.226L332.776 110.87C332.776 110.87 317.511 113.104 309.61 117.266C309.61 117.266 316.69 109.158 335.134 108.175L340.873 102.528C340.873 102.528 329.744 104.347 326.591 105.168C323.438 105.989 322.979 105.206 322.979 105.206C329.13 101.661 336.143 99.8934 343.239 100.099C343.239 100.099 355.622 89.3365 355.033 88.4972Z" fill="#2AAB6C"/>
<path opacity="0.3" d="M277.837 53.4975C277.837 53.4975 197.548 87.9335 234.244 137.97C234.244 137.97 237.264 148.541 248.214 148.523C248.214 148.523 246.332 144.416 254.856 141.839C257.917 140.896 260.855 139.595 263.609 137.962C267.315 135.781 270.206 132.446 271.838 128.468V128.468C271.838 128.468 289.176 108.397 279.685 68.3289C279.685 68.3289 282.044 57.3568 280.79 55.4817L270.458 67.7139C270.458 67.7139 279.732 74.9309 280.164 84.5805C280.164 84.5805 271.115 67.7928 268.853 69.4644C268.387 69.8005 263.669 76.172 263.669 76.172C263.669 76.172 279.725 88.7948 279.925 103.742C279.925 103.742 271.902 82.2727 261.872 78.5936L255.333 88.6606C255.333 88.6606 272.947 101.179 273.845 118.187C273.845 118.187 264.653 96.0568 254.053 90.9709L248.965 101.733C248.965 101.733 265.911 114.266 266.541 128.42C266.541 128.42 253.351 103.906 247.967 104.262C247.967 104.262 243.89 114.434 244.112 117.664C244.112 117.664 256.05 126.948 255.705 135.193C255.705 135.193 245.138 119.752 243.302 120.585C243.302 120.585 241.522 135.227 244.531 143.142C241.405 136.024 240.189 128.214 241.002 120.482C237.19 123.407 234.319 127.383 232.741 131.922C232.741 131.922 229.957 123.585 241.481 116.956C241.481 116.956 243.331 105.609 244.688 104.283C244.688 104.283 232.397 109.23 226.852 116.006C226.852 116.006 229.455 105.511 245.939 101.375L250.823 90.4543C250.823 90.4543 234.213 96.1541 228.829 101.824C228.829 101.824 233.144 91.5294 252.267 87.7998L258.556 77.7643C258.556 77.7643 243.88 81.5797 236.562 86.5696C236.562 86.5696 242.628 77.8793 260.515 74.9757L265.517 68.8456C265.517 68.8456 254.847 71.8091 251.84 72.8816C248.833 73.9541 248.315 73.3264 248.315 73.3264C253.94 69.1977 260.603 66.7169 267.559 66.162C267.559 66.162 278.486 54.2474 277.837 53.4975Z" fill="#2AAB6C"/>
<path opacity="0.3" d="M111.332 57.8685C111.332 57.8685 182.706 90.6163 148.607 134.755C148.607 134.755 145.656 144.186 135.817 143.923C135.817 143.923 137.6 140.276 129.998 137.768C127.269 136.852 124.658 135.617 122.22 134.088C118.938 132.044 116.416 128.983 115.038 125.371V125.371C115.038 125.371 99.9094 106.946 109.338 71.1544C109.338 71.1544 107.465 61.2419 108.634 59.5851L117.644 70.809C117.644 70.809 109.147 77.0859 108.543 85.7473C108.543 85.7473 117.052 70.8652 119.046 72.4181C119.457 72.7306 123.554 78.562 123.554 78.562C123.554 78.562 108.842 89.5441 108.327 102.971C108.327 102.971 116.019 83.859 125.114 80.7784L130.764 89.9714C130.764 89.9714 114.655 100.825 113.466 116.088C113.466 116.088 122.223 96.4083 131.862 92.0763L136.193 101.861C136.193 101.861 120.684 112.743 119.799 125.447C119.799 125.447 132.202 103.715 137.033 104.156C137.033 104.156 140.468 113.388 140.196 116.285C140.196 116.285 129.259 124.36 129.385 131.777C129.385 131.777 139.227 118.139 140.858 118.929C140.858 118.929 142.128 132.126 139.247 139.171C142.216 132.845 143.484 125.854 142.927 118.888C146.286 121.602 148.778 125.24 150.093 129.353C150.093 129.353 152.783 121.925 142.575 115.709C142.575 115.709 141.169 105.471 139.978 104.248C139.978 104.248 150.912 108.97 155.743 115.184C155.743 115.184 153.639 105.695 138.92 101.608L134.777 91.6845C134.777 91.6845 149.574 97.1795 154.285 102.396C154.285 102.396 150.638 93.0478 133.539 89.2668L128.113 80.1077C128.113 80.1077 141.214 83.8659 147.679 88.5141C147.679 88.5141 142.423 80.5689 126.415 77.5579L122.058 71.9369C122.058 71.9369 131.579 74.8397 134.257 75.871C136.935 76.9023 137.415 76.3498 137.415 76.3498C132.453 72.5135 126.521 70.1346 120.284 69.4797C120.284 69.4797 110.732 58.5278 111.332 57.8685Z" fill="#2AAB6C"/>
<g clip-path="url(#clip0)">
<path d="M212.841 17.178C211.46 17.7698 210.013 18.0329 208.566 18.0329C208.435 18.0329 208.303 18.0329 208.172 18.0329C208.04 18.0329 207.974 18.0329 207.974 18.0329C207.119 18.0329 206.265 17.6383 205.738 16.9149C204.884 15.8628 204.686 13.9557 205.081 11.6541L205.147 11.2595L197.979 5.86719L190.877 11.1938L190.942 11.5883C191.337 13.89 191.14 15.797 190.285 16.8492C189.759 17.5726 188.904 17.9671 188.049 17.9671C187.983 17.9671 187.917 17.9671 187.852 17.9671C187.72 17.9671 187.589 17.9671 187.457 17.9671C186.01 17.9671 184.629 17.7041 183.183 17.1122L181.341 16.3889L182.328 18.0986C183.446 19.9399 184.169 21.9785 184.564 24.0828L184.629 24.6089H197.979H211.328L211.394 24.0828C211.788 21.9785 212.512 20.0057 213.63 18.0986L214.616 16.3889L212.841 17.178Z" fill="#378D63"/>
<path d="M211.328 24.6089L211.394 24.0829C211.788 21.9785 212.512 20.0057 213.629 18.0986L214.616 16.3889L212.775 17.1122C211.394 17.7041 209.947 17.9671 208.5 17.9671C208.369 17.9671 208.237 17.9671 208.106 17.9671C207.974 17.9671 207.908 17.9671 207.908 17.9671C207.053 17.9671 206.199 17.5726 205.672 16.8492C204.818 15.797 204.62 13.89 205.015 11.5884L205.081 11.1938L197.979 5.86719V24.6089H211.328Z" fill="#6A9881"/>
<path d="M184.892 25.0693H211.065V29.8699H184.892V25.0693Z" fill="#378D63"/>
<path d="M197.979 25.0693H211.065V29.8699H197.979V25.0693V25.0693Z" fill="#6A9881"/>
<path d="M194.756 16.1258L197.979 12.9036L201.201 16.1258L197.979 19.3481L194.756 16.1258Z" fill="#66BB91"/>
<path d="M214.879 15.1395C213.038 16.7177 210.605 17.5068 208.171 17.4411C207.382 17.5068 206.659 17.178 206.199 16.5204C205.146 15.1395 205.541 12.3775 205.738 11.3911C205.804 11.1281 205.672 10.865 205.475 10.7335L198.439 5.47267C198.307 5.34115 198.176 5.27539 197.979 5.27539C197.847 5.27539 197.715 5.34115 197.584 5.40691L190.482 10.7335C190.285 10.865 190.219 11.1281 190.219 11.3911C190.482 12.3118 190.811 15.0737 189.758 16.5204C189.298 17.1123 188.575 17.4411 187.786 17.4411C185.352 17.5726 182.919 16.7835 181.078 15.2052C180.815 14.9422 180.42 15.0079 180.157 15.271C179.96 15.4683 179.96 15.7971 180.092 16.0601C180.157 16.1259 183.38 20.0057 183.972 24.7405V30.0671C183.972 30.4617 184.235 30.7247 184.629 30.7247H211.328C211.722 30.7247 211.985 30.4617 211.985 30.0671V24.8063C212.577 20.0715 215.8 16.1259 215.865 16.1259C216.063 15.8628 216.063 15.4025 215.734 15.2052C215.471 14.8764 215.142 14.8764 214.879 15.1395ZM210.67 26.7133H204.226C203.831 26.7133 203.568 26.9764 203.568 27.3709C203.568 27.7655 203.831 28.0285 204.226 28.0285H210.67V29.4095H185.287V25.3981H210.67V26.7133ZM210.736 24.0171H185.221C184.826 21.847 184.037 19.7427 182.919 17.8356C184.498 18.4933 186.142 18.8221 187.851 18.7563C189.035 18.7563 190.087 18.296 190.811 17.3753C192.126 15.5998 191.797 12.7063 191.6 11.5884L197.979 6.78788L204.357 11.5884C204.16 12.7063 203.765 15.5998 205.146 17.3753C205.87 18.296 206.988 18.8221 208.106 18.7563C209.815 18.8221 211.459 18.4933 213.038 17.8356C211.92 19.7427 211.131 21.847 210.736 24.0171Z" fill="#454545"/>
<path d="M198.439 12.1145C198.176 11.8515 197.781 11.8515 197.518 12.1145L193.967 15.6656C193.704 15.9286 193.704 16.3232 193.967 16.5862L197.518 20.1373C197.781 20.4003 198.176 20.4003 198.439 20.1373L201.99 16.5862C202.253 16.3232 202.253 15.9286 201.99 15.6656L198.439 12.1145ZM197.979 18.6905L195.348 16.0601L197.979 13.4296L200.609 16.0601L197.979 18.6905Z" fill="#454545"/>
<path d="M213.038 17.8357C211.459 18.4933 209.815 18.8221 208.106 18.7563C206.922 18.7563 205.87 18.296 205.146 17.3754C203.831 15.5998 204.16 12.7064 204.357 11.5884L197.979 6.72217V11.9172C198.176 11.9172 198.307 11.983 198.439 12.1145L201.99 15.6656C202.253 15.9286 202.253 16.3232 201.99 16.5862L198.439 20.1373C198.307 20.2688 198.176 20.3346 197.979 20.3346V24.0172H210.736C211.131 21.847 211.92 19.7427 213.038 17.8357Z" fill="#6A9881"/>
</g>
<circle opacity="0.27" cx="16" cy="109" r="4" fill="#2AAB6C"/>
<circle opacity="0.27" cx="125" cy="46" r="4" fill="#2AAB6C"/>
<circle opacity="0.27" cx="325" cy="48" r="4" fill="#2AAB6C"/>
<circle opacity="0.27" cx="369" cy="162" r="4" fill="#2AAB6C"/>
<circle opacity="0.27" cx="25" cy="156" r="4" fill="#BFE6D3"/>
<circle opacity="0.27" cx="74" cy="54" r="4" fill="#BFE6D3"/>
<circle opacity="0.27" cx="325" cy="81" r="4" fill="#BFE6D3"/>
<circle opacity="0.27" cx="389" cy="147" r="4" fill="#BFE6D3"/>
<circle opacity="0.27" cx="30" cy="130" r="4" fill="#2AAB6C" fill-opacity="0.36"/>
<circle opacity="0.27" cx="98" cy="70" r="4" fill="#2AAB6C" fill-opacity="0.36"/>
<circle opacity="0.27" cx="299" cy="70" r="4" fill="#2AAB6C" fill-opacity="0.36"/>
<circle opacity="0.27" cx="368" cy="126" r="4" fill="#2AAB6C" fill-opacity="0.36"/>
<defs>
<clipPath id="clip0">
<rect width="36" height="36" fill="white" transform="translate(180)"/>
</clipPath>
</defs>
</svg>
