<svg width="22" height="18" viewBox="0 0 22 18" fill="none" xmlns="http://www.w3.org/2000/svg">
<path d="M21.3125 15H2.75V0.75C2.75 0.335625 2.44234 0 2.0625 0H0.6875C0.307656 0 0 0.335625 0 0.75V16.5C0 17.3283 0.615742 18 1.375 18H21.3125C21.6923 18 22 17.6644 22 17.25V15.75C22 15.3356 21.6923 15 21.3125 15ZM19.9375 1.5H14.8646C13.9459 1.5 13.4857 2.71172 14.1354 3.42047L15.5276 4.93922L12.375 8.37891L9.22238 4.93969C8.68527 4.35375 7.81473 4.35375 7.27805 4.93969L4.32652 8.15953C4.05797 8.4525 4.05797 8.92734 4.32652 9.22031L5.29848 10.2806C5.56703 10.5736 6.00231 10.5736 6.27086 10.2806L8.25 8.12109L11.4026 11.5603C11.9397 12.1462 12.8103 12.1462 13.347 11.5603L17.472 7.06031L18.8641 8.57906C19.5138 9.28781 20.6246 8.78578 20.6246 7.78359V2.25C20.625 1.83562 20.3173 1.5 19.9375 1.5Z" fill="#69C397"/>
</svg>
