<svg width="22" height="24" viewBox="0 0 22 24" fill="none" xmlns="http://www.w3.org/2000/svg">
<path d="M2.12368 21.8504C-0.745655 19.0244 -0.692177 14.4671 2.19174 11.6513L12.4925 1.59377C14.6687 -0.531164 18.2061 -0.531352 20.3826 1.59377C22.5379 3.69818 22.5405 7.09357 20.3826 9.20046L11.4034 17.9591C9.93727 19.3906 7.54192 19.3706 6.10068 17.9124C4.71217 16.5075 4.75671 14.2808 6.17198 12.8989L13.2308 6.01605C13.5344 5.72009 14.0318 5.71502 14.3419 6.00476L15.4645 7.05377C15.7746 7.34355 15.7799 7.8184 15.4764 8.11437L8.41829 14.9966C8.17609 15.2331 8.16117 15.626 8.38647 15.854C8.60117 16.0713 8.93868 16.0749 9.15686 15.8618L18.1361 7.10313C19.0992 6.16273 19.0992 4.63165 18.1355 3.69073C17.1932 2.77071 15.6823 2.77024 14.7396 3.69073L4.43879 13.7482C2.73168 15.4151 2.70535 18.1132 4.3803 19.7629C6.05044 21.4079 8.75011 21.4099 10.4233 19.7763L18.8727 11.5264C19.1761 11.2301 19.6735 11.2248 19.9838 11.5144L21.1073 12.5627C21.4176 12.8522 21.4232 13.3271 21.1198 13.6233L12.6704 21.8732C9.74482 24.7296 5.01251 24.6958 2.12368 21.8504V21.8504Z" fill="#69C397"/>
</svg>
