<svg width="36" height="26" viewBox="0 0 36 26" fill="none" xmlns="http://www.w3.org/2000/svg">
<path d="M32.8401 11.9026C31.4591 12.4944 30.0124 12.7575 28.5657 12.7575C28.4341 12.7575 28.3026 12.7575 28.1711 12.7575C28.0396 12.7575 27.9738 12.7575 27.9738 12.7575C27.1189 12.7575 26.264 12.3629 25.738 11.6396C24.8831 10.5874 24.6858 8.68033 25.0804 6.37872L25.1461 5.98416L17.9782 0.591797L10.8761 5.91839L10.9418 6.31296C11.3364 8.61457 11.1391 10.5216 10.2842 11.5738C9.75816 12.2972 8.90327 12.6917 8.04839 12.6917C7.98263 12.6917 7.91687 12.6917 7.85111 12.6917C7.71959 12.6917 7.58806 12.6917 7.45654 12.6917C6.00981 12.6917 4.62884 12.4287 3.18211 11.8368L1.34082 11.1135L2.32723 12.8232C3.44516 14.6645 4.16852 16.7031 4.56308 18.8074L4.62884 19.3335H17.9782H31.3276L31.3934 18.8074C31.7879 16.7031 32.5113 14.7303 33.6292 12.8232L34.6156 11.1135L32.8401 11.9026Z" fill="#378D63"/>
<path d="M31.3279 19.3336L31.3936 18.8075C31.7882 16.7031 32.5116 14.7303 33.6295 12.8233L34.6159 11.1135L32.7746 11.8368C31.3936 12.4287 29.9469 12.6917 28.5002 12.6917C28.3687 12.6917 28.2371 12.6917 28.1056 12.6917C27.9741 12.6917 27.9083 12.6917 27.9083 12.6917C27.0534 12.6917 26.1986 12.2972 25.6725 11.5738C24.8176 10.5216 24.6203 8.61458 25.0149 6.31296L25.0806 5.9184L17.9785 0.591797V19.3336H31.3279Z" fill="#6A9881"/>
<path d="M4.89258 19.7939H31.0652V24.5945H4.89258V19.7939Z" fill="#378D63"/>
<path d="M17.9785 19.7939H31.0648V24.5945H17.9785V19.7939V19.7939Z" fill="#6A9881"/>
<path d="M14.7559 10.8504L17.9781 7.62817L21.2004 10.8504L17.9781 14.0727L14.7559 10.8504Z" fill="#66BB91"/>
<path d="M34.879 9.86407C33.0377 11.4423 30.6045 12.2315 28.1714 12.1657C27.3823 12.2315 26.6589 11.9026 26.1986 11.245C25.1464 9.86407 25.541 7.10213 25.7382 6.11573C25.804 5.85268 25.6725 5.58964 25.4752 5.45812L18.4388 0.197282C18.3073 0.0657606 18.1758 0 17.9785 0C17.847 0 17.7155 0.0657604 17.5839 0.131521L10.4818 5.45812C10.2845 5.58964 10.2188 5.85268 10.2188 6.11573C10.4818 7.03637 10.8106 9.79831 9.75845 11.245C9.29813 11.8369 8.57476 12.1657 7.78564 12.1657C5.3525 12.2972 2.91936 11.5081 1.07807 9.92983C0.815027 9.66679 0.420464 9.73255 0.157422 9.99559C-0.039859 10.1929 -0.0398589 10.5217 0.091662 10.7847C0.157423 10.8505 3.37969 14.7303 3.97153 19.4651V24.7917C3.97153 25.1863 4.23457 25.4493 4.62914 25.4493H31.3279C31.7225 25.4493 31.9855 25.1863 31.9855 24.7917V19.5309C32.5773 14.7961 35.7996 10.8505 35.8654 10.8505C36.0626 10.5874 36.0626 10.1271 35.7338 9.92983C35.4708 9.60103 35.142 9.60103 34.879 9.86407ZM30.6703 21.4379H24.2258C23.8312 21.4379 23.5682 21.701 23.5682 22.0955C23.5682 22.4901 23.8312 22.7531 24.2258 22.7531H30.6703V24.1341H5.28674V20.1227H30.6703V21.4379ZM30.736 18.7417H5.22098C4.82642 16.5716 4.03729 14.4673 2.91936 12.5603C4.49761 13.2179 6.14163 13.5467 7.8514 13.4809C9.03509 13.4809 10.0873 13.0206 10.8106 12.0999C12.1258 10.3244 11.797 7.43094 11.5997 6.31301L17.9785 1.51249L24.3573 6.31301C24.16 7.43094 23.7654 10.3244 25.1464 12.0999C25.8698 13.0206 26.9877 13.5467 28.1056 13.4809C29.8154 13.5467 31.4594 13.2179 33.0377 12.5603C31.9197 14.4673 31.1306 16.5716 30.736 18.7417Z" fill="#454545"/>
<path d="M18.4385 6.83913C18.1755 6.57609 17.7809 6.57609 17.5179 6.83913L13.9668 10.3902C13.7038 10.6532 13.7038 11.0478 13.9668 11.3108L17.5179 14.8619C17.7809 15.125 18.1755 15.125 18.4385 14.8619L21.9896 11.3108C22.2526 11.0478 22.2526 10.6532 21.9896 10.3902L18.4385 6.83913ZM17.9782 13.4151L15.3478 10.7847L17.9782 8.15426L20.6086 10.7847L17.9782 13.4151Z" fill="#454545"/>
<path d="M33.0377 12.5603C31.4594 13.2179 29.8154 13.5467 28.1056 13.4809C26.9219 13.4809 25.8698 13.0206 25.1464 12.1C23.8312 10.3244 24.16 7.43098 24.3573 6.31305L17.9785 1.44678V6.64186C18.1758 6.64186 18.3073 6.70762 18.4388 6.83914L21.9899 10.3902C22.2529 10.6532 22.2529 11.0478 21.9899 11.3108L18.4388 14.8619C18.3073 14.9934 18.1758 15.0592 17.9785 15.0592V18.7418H30.7361C31.1306 16.5716 31.9197 14.4673 33.0377 12.5603Z" fill="#6A9881"/>
</svg>
