<svg width="22" height="24" viewBox="0 0 22 24" fill="none" xmlns="http://www.w3.org/2000/svg">
<path d="M21.45 21H18.7V5.31792C18.7 4.04011 17.9599 2.99995 17.05 2.99995H13.2V5.99995H16.5V24H21.45C21.7539 24 22 23.6643 22 23.25V21.75C22 21.3356 21.7539 21 21.45 21ZM10.7332 0.0472981L4.13325 2.37886C3.64341 2.55183 3.3 3.17339 3.3 3.88683V21H0.55C0.246125 21 0 21.3356 0 21.75V23.25C0 23.6643 0.246125 24 0.55 24H12.1V1.55527C12.1 0.543704 11.4276 -0.198327 10.7332 0.0472981V0.0472981ZM9.075 13.5C8.61953 13.5 8.25 12.8282 8.25 12C8.25 11.1717 8.61953 10.5 9.075 10.5C9.53047 10.5 9.9 11.1717 9.9 12C9.9 12.8282 9.53047 13.5 9.075 13.5Z" fill="#69C397"/>
</svg>
