<svg width="35" height="35" viewBox="0 0 35 35" fill="none" xmlns="http://www.w3.org/2000/svg">
<circle cx="17.5" cy="17.5" r="17.5" fill="white"/>
<path fill-rule="evenodd" clip-rule="evenodd" d="M27.6584 17.7888C27.6584 17.0324 27.5964 16.3132 27.4724 15.6312H17.54V19.6984H23.2192C23.102 20.3447 22.8547 20.9604 22.4924 21.5082C22.13 22.056 21.6601 22.5245 21.1112 22.8852V25.5264H24.5088C25.5474 24.5299 26.3646 23.326 26.9072 21.9928C27.4499 20.6597 27.7058 19.2273 27.6584 17.7888V17.7888Z" fill="#4285F4"/>
<path fill-rule="evenodd" clip-rule="evenodd" d="M17.54 28.0808C20.1081 28.1535 22.6065 27.2394 24.5212 25.5264L21.1112 22.8852C20.0466 23.5651 18.8028 23.9106 17.54 23.8772C16.2255 23.8633 14.9486 23.4368 13.8896 22.6581C12.8305 21.8794 12.0428 20.7877 11.6376 19.5372H8.116V22.2652C8.99262 24.0134 10.3384 25.4833 12.0027 26.5104C13.667 27.5374 15.5843 28.0812 17.54 28.0808V28.0808Z" fill="#34A853"/>
<path fill-rule="evenodd" clip-rule="evenodd" d="M11.6376 19.5496C11.2046 18.2496 11.2046 16.8443 11.6376 15.5444V12.8164H8.116C7.38104 14.2827 6.99888 15.9005 7 17.5408C7 19.2396 7.4092 20.8516 8.116 22.2776L11.6376 19.5496V19.5496Z" fill="#FBBC05"/>
<path fill-rule="evenodd" clip-rule="evenodd" d="M17.54 11.192C19.038 11.1673 20.4856 11.733 21.57 12.7668L24.5956 9.74118C22.6861 7.95044 20.1576 6.96835 17.54 7.00078C15.5856 6.99923 13.6692 7.54112 12.005 8.56592C10.3408 9.59071 8.99434 11.058 8.116 12.804L11.6376 15.532C12.0428 14.2814 12.8305 13.1898 13.8896 12.411C14.9486 11.6323 16.2255 11.2059 17.54 11.192V11.192Z" fill="#EA4335"/>
</svg>
