<svg width="29" height="8" viewBox="0 0 29 8" fill="none" xmlns="http://www.w3.org/2000/svg">
<path d="M18.129 3.95894C18.129 6.14736 16.506 7.91789 14.5 7.91789C12.494 7.91789 10.871 6.14736 10.871 3.95894C10.871 1.77053 12.494 0 14.5 0C16.506 0 18.129 1.77053 18.129 3.95894ZM25.371 0C23.3649 0 21.7419 1.77053 21.7419 3.95894C21.7419 6.14736 23.3649 7.91789 25.371 7.91789C27.377 7.91789 29 6.14736 29 3.95894C29 1.77053 27.377 0 25.371 0ZM3.62903 0C1.62298 0 0 1.77053 0 3.95894C0 6.14736 1.62298 7.91789 3.62903 7.91789C5.63508 7.91789 7.25806 6.14736 7.25806 3.95894C7.25806 1.77053 5.63508 0 3.62903 0Z" fill="#69C397"/>
</svg>
