<svg width="26" height="26" viewBox="0 0 26 26" fill="none" xmlns="http://www.w3.org/2000/svg">
<path d="M11.5117 11.4405L3.79881 9.5361C3.54367 9.4731 3.39253 9.19636 3.46125 8.91802L5.53876 0.504002C5.60749 0.225667 5.87007 0.0510763 6.12521 0.114073L7.97322 0.570367C8.22836 0.633363 8.3795 0.910107 8.31078 1.18844L7.50073 4.46916C9.79015 2.76929 12.6798 2.06534 15.5199 2.79053C20.7805 4.13373 23.8507 9.82148 22.4197 15.5689C20.9907 21.3084 15.5718 24.9051 10.3054 23.6048C7.838 22.9956 5.84145 21.4192 4.5607 19.3249C4.41232 19.0823 4.48553 18.7469 4.72337 18.5888L6.38336 17.4851C6.602 17.3397 6.88126 17.3979 7.02024 17.619C7.93033 19.0674 9.3291 20.1554 11.0521 20.5808C14.7969 21.5054 18.6444 18.9478 19.6533 14.8619C20.662 10.7766 18.4479 6.72154 14.7024 5.79674C12.4503 5.24067 10.1613 5.94441 8.47476 7.48227L12.2583 8.41647C12.5135 8.47947 12.6646 8.75621 12.5959 9.03455L12.0981 11.0506C12.0294 11.3289 11.7668 11.5035 11.5117 11.4405V11.4405Z" fill="#69C397"/>
</svg>
