<svg width="18" height="13" viewBox="0 0 18 13" fill="none" xmlns="http://www.w3.org/2000/svg">
<path d="M5.4 6.5C7.14094 6.5 8.55 5.04621 8.55 3.25C8.55 1.45379 7.14094 0 5.4 0C3.65906 0 2.25 1.45379 2.25 3.25C2.25 5.04621 3.65906 6.5 5.4 6.5ZM7.56 7.42857H7.32656C6.74156 7.71875 6.09187 7.89286 5.4 7.89286C4.70812 7.89286 4.06125 7.71875 3.47344 7.42857H3.24C1.45125 7.42857 0 8.92589 0 10.7714V11.6071C0 12.3761 0.604687 13 1.35 13H9.45C10.1953 13 10.8 12.3761 10.8 11.6071V10.7714C10.8 8.92589 9.34875 7.42857 7.56 7.42857ZM13.5 6.5C14.9906 6.5 16.2 5.25223 16.2 3.71429C16.2 2.17634 14.9906 0.928571 13.5 0.928571C12.0094 0.928571 10.8 2.17634 10.8 3.71429C10.8 5.25223 12.0094 6.5 13.5 6.5ZM14.85 7.42857H14.7431C14.3522 7.56786 13.9387 7.66071 13.5 7.66071C13.0612 7.66071 12.6478 7.56786 12.2569 7.42857H12.15C11.5762 7.42857 11.0475 7.59978 10.5834 7.87545C11.2697 8.63862 11.7 9.65134 11.7 10.7714V11.8857C11.7 11.9496 11.6859 12.0105 11.6831 12.0714H16.65C17.3953 12.0714 18 11.4475 18 10.6786C18 8.88237 16.5909 7.42857 14.85 7.42857V7.42857Z" fill="#378D63"/>
</svg>
