<svg width="30" height="32" viewBox="0 0 30 32" fill="none" xmlns="http://www.w3.org/2000/svg">
<path fill-rule="evenodd" clip-rule="evenodd" d="M28.5071 26.0139C24.2412 30.6487 17.4901 32.6012 11.1417 30.4453C2.55702 27.5299 -2.03894 18.2073 0.876252 9.62257C2.38152 5.18997 5.59505 1.82093 9.53346 0C9.37206 0.388502 9.2212 0.784322 9.0839 1.18854C5.73931 11.0373 11.0121 21.7329 20.8609 25.0777C23.4003 25.9399 25.9957 26.2282 28.5071 26.0141V26.0139ZM27.4172 13.5642L28.0241 15.4444L30 15.4406L28.3994 16.5988L29.0134 18.4767L27.4174 17.3123L25.8211 18.4767L26.4353 16.5988L24.8347 15.4406L26.8104 15.4444L27.4174 13.5642H27.4172ZM16.8531 11.4514L17.4599 13.3316L19.4358 13.3278L17.8352 14.486L18.4492 16.3639L16.8532 15.1994L15.2569 16.3639L15.8711 14.486L14.2705 13.3278L16.2462 13.3316L16.8532 11.4514H16.8531ZM18.9659 0.887163L19.5728 2.76737L21.5487 2.76362L19.948 3.9218L20.562 5.79968L18.9661 4.63525L17.3697 5.79968L17.9839 3.9218L16.3833 2.76362L18.359 2.76737L18.9661 0.887163H18.9659Z" fill="#2B2A29"/>
</svg>
