<svg width="30" height="30" viewBox="0 0 30 30" fill="none" xmlns="http://www.w3.org/2000/svg">
<path d="M14.9985 23.3104C19.588 23.3104 23.3085 19.5899 23.3085 15.0004C23.3085 10.4109 19.588 6.69043 14.9985 6.69043C10.409 6.69043 6.68848 10.4109 6.68848 15.0004C6.68848 19.5899 10.409 23.3104 14.9985 23.3104Z" fill="white"/>
<path fill-rule="evenodd" clip-rule="evenodd" d="M14.9998 0H15C15.5734 0 16.0425 0.468937 16.0425 1.04228V4.52437C15.7157 4.44076 15.3649 4.39512 15 4.39512C14.6351 4.39512 14.2843 4.44076 13.9575 4.52437V1.04228C13.9575 0.468937 14.4265 0 14.9998 0Z" fill="white"/>
<path fill-rule="evenodd" clip-rule="evenodd" d="M7.50125 2.01003C7.99785 1.72326 8.63865 1.89492 8.92542 2.39152L10.6665 5.4071C10.3415 5.49798 10.015 5.63369 9.69911 5.81626C9.38285 5.99882 9.10193 6.2137 8.8608 6.44958L7.11975 3.43401C6.83318 2.9374 7.00484 2.2968 7.50145 2.01003H7.50125Z" fill="white"/>
<path fill-rule="evenodd" clip-rule="evenodd" d="M2.00794 7.50012L2.00814 7.49992C2.29471 7.00331 2.93551 6.83165 3.43211 7.11843L6.44769 8.85947C6.21181 9.1004 5.99693 9.38152 5.81436 9.69738C5.6318 10.0136 5.49608 10.3402 5.4052 10.6651L2.38963 8.9241C1.89303 8.63732 1.72136 7.99672 2.00794 7.50012Z" fill="white"/>
<path fill-rule="evenodd" clip-rule="evenodd" d="M0 15.0007V15.0005C0 14.4271 0.468939 13.958 1.04229 13.958H4.52437C4.44076 14.2848 4.39512 14.6356 4.39512 15.0005C4.39512 15.3654 4.44076 15.7162 4.52437 16.043H1.04229C0.468939 16.043 0 15.574 0 15.0007Z" fill="white"/>
<path fill-rule="evenodd" clip-rule="evenodd" d="M2.00808 22.5007C1.7213 22.0041 1.89297 21.3633 2.38957 21.0765L5.40514 19.3354C5.49602 19.6604 5.63173 19.987 5.8143 20.3028C5.99687 20.6191 6.21175 20.9 6.44763 21.1411L3.43205 22.8822C2.93545 23.1687 2.29485 22.9971 2.00808 22.5005V22.5007Z" fill="white"/>
<path fill-rule="evenodd" clip-rule="evenodd" d="M7.50159 27.991L7.50139 27.9908C7.00478 27.7043 6.83312 27.0635 7.11989 26.5668L8.86094 23.5513C9.10187 23.7872 9.38299 24.002 9.69904 24.1846C10.0149 24.3672 10.3417 24.5029 10.6664 24.5938L8.92536 27.6093C8.63859 28.1059 7.99799 28.2776 7.50139 27.991H7.50159Z" fill="white"/>
<path fill-rule="evenodd" clip-rule="evenodd" d="M15.0002 30.0009H15C14.4267 30.0009 13.9575 29.532 13.9575 28.9586V25.4766C14.2843 25.5602 14.6351 25.6058 15 25.6058C15.3649 25.6058 15.7157 25.5602 16.0425 25.4766V28.9586C16.0425 29.532 15.5736 30.0009 15.0002 30.0009Z" fill="white"/>
<path fill-rule="evenodd" clip-rule="evenodd" d="M22.5002 27.9908C22.0036 28.2776 21.3628 28.1059 21.076 27.6093L19.335 24.5938C19.6599 24.5029 19.9865 24.3672 20.3023 24.1846C20.6186 24.002 20.8995 23.7872 21.1406 23.5513L22.8817 26.5668C23.1682 27.0635 22.9966 27.704 22.5 27.9908H22.5002Z" fill="white"/>
<path fill-rule="evenodd" clip-rule="evenodd" d="M27.9915 22.5008L27.9913 22.501C27.7047 22.9976 27.0639 23.1692 26.5673 22.8825L23.5518 21.1414C23.7876 20.9005 24.0025 20.6194 24.1851 20.3033C24.3677 19.9874 24.5034 19.6607 24.5942 19.3359L27.6098 21.077C28.1064 21.3638 28.2781 22.0044 27.9915 22.501V22.5008Z" fill="white"/>
<path fill-rule="evenodd" clip-rule="evenodd" d="M30 15.0003V15.0005C30 15.5738 29.531 16.043 28.9577 16.043H25.4756C25.5592 15.7162 25.6048 15.3654 25.6048 15.0005C25.6048 14.6356 25.5592 14.2848 25.4756 13.958H28.9577C29.531 13.958 30 14.4269 30 15.0003Z" fill="white"/>
<path fill-rule="evenodd" clip-rule="evenodd" d="M27.9913 7.50027C28.2781 7.99687 28.1064 8.63767 27.6098 8.92444L24.5942 10.6655C24.5034 10.3405 24.3677 10.014 24.1851 9.69813C24.0025 9.38187 23.7876 9.10095 23.5518 8.85982L26.5673 7.11878C27.0639 6.8322 27.7045 7.00386 27.9913 7.50047V7.50027Z" fill="white"/>
<path fill-rule="evenodd" clip-rule="evenodd" d="M22.5 2.0094L22.5002 2.0096C22.9968 2.29617 23.1684 2.93697 22.8817 3.43358L21.1406 6.44916C20.8997 6.21327 20.6186 5.9984 20.3027 5.81583C19.9865 5.63326 19.6599 5.49755 19.335 5.40667L21.076 2.39109C21.3628 1.89449 22.0034 1.72283 22.5 2.0094Z" fill="white"/>
</svg>
