<svg width="224" height="173" viewBox="0 0 224 173" fill="none" xmlns="http://www.w3.org/2000/svg">
<path d="M19.6681 23.6543C19.6681 23.6543 122.811 80.1995 67.2762 142.487C67.2762 142.487 61.87 156.255 47.186 154.832C47.186 154.832 50.2831 149.571 39.1683 145.003C35.217 143.368 31.4765 141.264 28.0276 138.737C23.3606 135.347 19.9426 130.512 18.3037 124.981V124.981C18.3037 124.981 -2.37084 95.8755 15.5725 43.3682C15.5725 43.3682 13.8042 28.3587 15.7326 26.0091L27.9976 43.7244C27.9976 43.7244 14.6638 52.199 12.8415 65.1055C12.8415 65.1055 27.0404 43.7256 29.9349 46.2534C30.5396 46.789 36.0331 55.9305 36.0331 55.9305C36.0331 55.9305 12.9091 70.8158 10.7043 90.7445C10.7043 90.7445 24.2269 62.9954 38.1237 59.3498L45.4583 73.6789C45.4583 73.6789 20.2225 88.2026 16.8748 110.887C16.8748 110.887 32.0083 82.3736 46.8642 76.9359L52.3091 92.0077C52.3091 92.0077 28.0964 106.652 25.3311 125.518C25.3311 125.518 46.1509 94.3754 53.3233 95.5558C53.3233 95.5558 57.5015 109.682 56.7803 113.967C56.7803 113.967 39.5759 124.887 38.9903 135.992C38.9903 135.992 55.0791 116.649 57.4707 117.989C57.4707 117.989 57.9812 137.858 52.919 148.063C58.0349 138.902 60.6693 128.563 60.5613 118.071C65.2989 122.477 68.6451 128.171 70.1879 134.454C70.1879 134.454 74.9827 123.641 60.3972 113.167C60.3972 113.167 59.3567 97.7623 57.7145 95.7484C57.7145 95.7484 73.4286 103.961 80.1169 113.742C80.1169 113.742 77.9683 99.3627 56.4062 91.7162L51.2635 76.4491C51.2635 76.4491 72.7724 86.197 79.2877 94.5014C79.2877 94.5014 74.8237 80.1381 49.656 72.7049L42.4829 58.5863C42.4829 58.5863 61.6452 65.5721 70.7586 73.0793C70.7586 73.0793 63.7667 60.6841 40.1526 54.4649L34.2366 45.6155C34.2366 45.6155 48.1562 50.9547 52.0181 52.8635C55.8801 54.7722 56.684 53.8807 56.684 53.8807C49.672 47.6427 41.0663 43.4732 31.8251 41.8364C31.8251 41.8364 18.6801 24.5828 19.6681 23.6543Z" fill="#2AAB6C"/>
<path d="M213.359 49.5941C213.359 49.5941 95.9251 56.245 119.198 136.284C119.198 136.284 118.163 151.048 132.022 156.092C132.022 156.092 131.511 149.94 143.495 150.68C147.764 150.893 152.043 150.6 156.243 149.808C161.943 148.775 167.145 145.894 171.046 141.611C171.046 141.611 202.245 124.25 208.76 69.1757C208.76 69.1757 216.834 56.3971 216.092 53.4239L197.421 64.264C197.421 64.264 205.779 77.6604 201.887 90.0917C201.887 90.0917 198.261 64.6897 194.568 65.7086C193.799 65.7724 184.888 71.8383 184.888 71.8383C184.888 71.8383 199.371 95.2243 192.709 114.203C192.709 114.203 192.463 83.2559 181.51 74.0387L168.597 83.7505C168.597 83.7505 185.079 107.714 178.352 129.64C178.352 129.64 176.976 97.3929 165.908 86.0485L154.456 97.3113C154.456 97.3113 170.11 121.003 164.373 139.192C164.373 139.192 159.034 102.103 152.012 99.9605C152.012 99.9605 142.178 110.934 140.885 115.129C140.885 115.129 151.607 132.386 147.442 142.641C147.442 142.641 141.278 118.379 138.528 118.452C138.528 118.452 129.498 136.141 129.672 147.554C128.99 137.073 131.067 126.597 135.697 117.17C129.527 119.093 124.052 122.776 119.947 127.768C119.947 127.768 120.297 115.94 137.91 112.868C137.91 112.868 145.518 99.3229 147.848 98.2933C147.848 98.2933 130.028 98.8743 119.875 104.889C119.875 104.889 128.008 92.8175 150.751 95.2033L161.993 83.6484C161.993 83.6484 138.358 83.1948 128.927 87.8485C128.927 87.8485 139.131 76.8442 165.051 80.9481L177.599 71.3285C177.599 71.3285 157.276 69.3613 145.658 72.2767C145.658 72.2767 157.368 64.1202 181.314 68.6977L190.46 63.2314C190.46 63.2314 175.593 62.0809 171.293 62.1282C166.992 62.1755 166.618 61.0299 166.618 61.0299C175.639 58.4169 185.209 58.3624 194.259 60.8723C194.259 60.8723 213.871 50.9141 213.359 49.5941Z" fill="#2AAB6C"/>
<path opacity="0.3" d="M123.224 1.23749C123.224 1.23749 26.645 68.3624 88.5706 124.431C88.5706 124.431 95.4121 137.556 109.848 134.571C109.848 134.571 106.257 129.664 116.802 123.961C120.583 121.89 124.106 119.379 127.297 116.481C131.595 112.602 134.505 107.422 135.583 101.734V101.734C135.583 101.734 153.022 70.5757 129.671 20.2982C129.671 20.2982 129.815 5.18983 127.655 3.05565L117.335 21.9819C117.335 21.9819 131.519 28.9925 134.697 41.6021C134.697 41.6021 118.223 21.9085 115.693 24.7245C115.169 25.2937 110.669 34.9725 110.669 34.9725C110.669 34.9725 135.258 47.2788 139.562 66.9377C139.562 66.9377 123.176 40.7924 108.954 38.6521L103.051 53.6971C103.051 53.6971 129.667 65.445 135.45 87.6325C135.45 87.6325 117.343 60.9316 101.988 57.0901L98.1873 72.6595C98.1873 72.6595 123.926 84.6074 128.584 103.103C128.584 103.103 104.56 74.339 97.5548 76.2644C97.5548 76.2644 94.9283 90.7823 96.0952 94.9816C96.0952 94.9816 114.35 103.998 116.123 114.967C116.123 114.967 98.013 97.4589 95.8169 99.0531C95.8169 99.0531 97.4282 118.845 103.536 128.471C97.4893 119.928 93.7735 109.956 92.7554 99.5398C88.519 104.427 85.8069 110.449 84.9537 116.86C84.9537 116.86 79.0272 106.619 92.4341 94.7596C92.4341 94.7596 91.8052 79.2948 93.237 77.1782C93.237 77.1782 78.3638 87.0262 72.8827 97.4624C72.8827 97.4624 73.4792 82.9175 94.1001 73.0059L97.5881 57.2822C97.5881 57.2822 77.2235 69.2904 71.6554 78.2242C71.6554 78.2242 74.5637 63.48 98.775 53.3909L104.356 38.4551C104.356 38.4551 86.0329 47.4551 77.7299 56.0147C77.7299 56.0147 83.3806 42.9134 106.185 34.2477L111.126 24.8102C111.126 24.8102 97.8546 31.6038 94.1789 33.8313C90.5031 36.0589 89.6499 35.371 89.6499 35.371C95.9519 28.405 104.069 23.3316 113.092 20.7191C113.092 20.7191 124.282 2.05096 123.224 1.23749Z" fill="#2AAB6C"/>
<path opacity="0.03" d="M104.928 172.823C162.878 172.823 209.856 163.151 209.856 151.22C209.856 139.289 162.878 129.617 104.928 129.617C46.9779 129.617 0 139.289 0 151.22C0 163.151 46.9779 172.823 104.928 172.823Z" fill="black"/>
</svg>
