<svg width="266" height="240" viewBox="0 0 266 240" fill="none" xmlns="http://www.w3.org/2000/svg">
<path d="M47.3397 62.6394C47.3397 62.6394 143.972 115.615 91.9425 173.971C91.9425 173.971 86.8776 186.869 73.1205 185.536C73.1205 185.536 76.0221 180.608 65.609 176.327C61.9071 174.796 58.4028 172.825 55.1716 170.457C50.7992 167.281 47.5969 162.751 46.0615 157.57V157.57C46.0615 157.57 26.6921 130.301 43.5027 81.1088C43.5027 81.1088 41.846 67.0468 43.6528 64.8456L55.1434 81.4425C55.1434 81.4425 42.6513 89.3822 40.9442 101.474C40.9442 101.474 54.2467 81.4436 56.9585 83.8119C57.5249 84.3136 62.6717 92.8781 62.6717 92.8781C62.6717 92.8781 41.0075 106.824 38.9419 125.494C38.9419 125.494 51.6108 99.4969 64.6303 96.0815L71.5019 109.506C71.5019 109.506 47.8592 123.113 44.7228 144.365C44.7228 144.365 58.901 117.652 72.819 112.557L77.9203 126.678C77.9203 126.678 55.236 140.397 52.6453 158.073C52.6453 158.073 72.1508 128.896 78.8704 130.002C78.8704 130.002 82.7848 143.236 82.1092 147.251C82.1092 147.251 65.9908 157.482 65.4422 167.886C65.4422 167.886 80.5154 149.763 82.756 151.019C82.756 151.019 83.2343 169.634 78.4916 179.194C83.2846 170.612 85.7527 160.926 85.6515 151.096C90.0901 155.223 93.225 160.558 94.6704 166.445C94.6704 166.445 99.1625 156.314 85.4977 146.501C85.4977 146.501 84.523 132.069 82.9844 130.182C82.9844 130.182 97.7065 137.877 103.973 147.04C103.973 147.04 101.96 133.569 81.7587 126.405L76.9407 112.101C76.9407 112.101 97.0917 121.234 103.196 129.014C103.196 129.014 99.0136 115.557 75.4346 108.594L68.7143 95.3662C68.7143 95.3662 86.667 101.911 95.205 108.944C95.205 108.944 88.6545 97.3315 66.5312 91.505L60.9886 83.2142C60.9886 83.2142 74.0295 88.2164 77.6476 90.0047C81.2658 91.7929 82.0189 90.9577 82.0189 90.9577C75.4496 85.1135 67.3872 81.2072 58.7293 79.6737C58.7293 79.6737 46.4142 63.5093 47.3397 62.6394Z" fill="#2AAB6C"/>
<path d="M228.803 86.9414C228.803 86.9414 118.783 93.1725 140.587 168.159C140.587 168.159 139.617 181.991 152.601 186.716C152.601 186.716 152.122 180.953 163.35 181.646C167.349 181.845 171.358 181.571 175.293 180.829C180.634 179.861 185.507 177.162 189.162 173.15C189.162 173.15 218.391 156.884 224.495 105.287C224.495 105.287 232.06 93.315 231.364 90.5295L213.871 100.685C213.871 100.685 221.702 113.236 218.056 124.883C218.056 124.883 214.659 101.084 211.198 102.039C210.478 102.098 202.13 107.781 202.13 107.781C202.13 107.781 215.699 129.691 209.457 147.472C209.457 147.472 209.227 118.478 198.965 109.843L186.867 118.942C186.867 118.942 202.309 141.392 196.006 161.934C196.006 161.934 194.717 131.723 184.348 121.095L173.619 131.646C173.619 131.646 188.285 153.842 182.91 170.883C182.91 170.883 177.908 136.135 171.33 134.128C171.33 134.128 162.116 144.409 160.904 148.339C160.904 148.339 170.95 164.507 167.048 174.115C167.048 174.115 161.273 151.384 158.697 151.453C158.697 151.453 150.237 168.025 150.399 178.717C149.761 168.898 151.707 159.084 156.044 150.251C150.263 152.053 145.135 155.504 141.288 160.18C141.288 160.18 141.616 149.099 158.117 146.221C158.117 146.221 165.246 133.531 167.428 132.566C167.428 132.566 150.733 133.111 141.221 138.745C141.221 138.745 148.841 127.436 170.147 129.671L180.68 118.846C180.68 118.846 158.537 118.421 149.702 122.781C149.702 122.781 159.262 112.471 183.545 116.316L195.301 107.304C195.301 107.304 176.261 105.461 165.376 108.192C165.376 108.192 176.347 100.551 198.781 104.839L207.35 99.7178C207.35 99.7178 193.422 98.64 189.393 98.6843C185.364 98.7286 185.013 97.6553 185.013 97.6553C193.465 95.2073 202.431 95.1562 210.909 97.5076C210.909 97.5076 229.283 88.1781 228.803 86.9414Z" fill="#2AAB6C"/>
<path opacity="0.3" d="M144.358 41.6376C144.358 41.6376 53.8763 104.525 111.893 157.055C111.893 157.055 118.302 169.351 131.827 166.555C131.827 166.555 128.462 161.957 138.342 156.614C141.884 154.673 145.184 152.321 148.175 149.606C152.201 145.972 154.928 141.119 155.937 135.79V135.79C155.937 135.79 172.276 106.599 150.398 59.495C150.398 59.495 150.534 45.3405 148.51 43.341L138.842 61.0725C138.842 61.0725 152.129 67.6405 155.107 79.4541C155.107 79.4541 139.673 61.0037 137.303 63.6419C136.812 64.1752 132.596 73.243 132.596 73.243C132.596 73.243 155.633 84.7724 159.665 103.19C159.665 103.19 144.314 78.6955 130.989 76.6903L125.459 90.7856C125.459 90.7856 150.395 101.792 155.813 122.579C155.813 122.579 138.849 97.5634 124.463 93.9644L120.902 108.551C120.902 108.551 145.016 119.745 149.38 137.073C149.38 137.073 126.873 110.124 120.31 111.928C120.31 111.928 117.849 125.53 118.942 129.464C118.942 129.464 136.045 137.911 137.706 148.187C137.706 148.187 120.739 131.785 118.682 133.278C118.682 133.278 120.191 151.821 125.914 160.839C120.248 152.835 116.767 143.493 115.813 133.734C111.844 138.313 109.303 143.955 108.504 149.961C108.504 149.961 102.952 140.367 115.512 129.256C115.512 129.256 114.923 114.767 116.264 112.784C116.264 112.784 102.33 122.011 97.1951 131.788C97.1951 131.788 97.7539 118.161 117.073 108.875L120.341 94.1443C120.341 94.1443 101.262 105.395 96.0453 113.764C96.0453 113.764 98.77 99.9509 121.453 90.4987L126.682 76.5058C126.682 76.5058 109.515 84.9376 101.736 92.9569C101.736 92.9569 107.03 80.6826 128.395 72.564L133.024 63.7223C133.024 63.7223 120.591 70.087 117.147 72.1739C113.703 74.2608 112.904 73.6164 112.904 73.6164C118.808 67.0901 126.413 62.337 134.866 59.8894C134.866 59.8894 145.35 42.3997 144.358 41.6376Z" fill="#2AAB6C"/>
<path opacity="0.03" d="M127.217 202.391C181.509 202.391 225.522 193.33 225.522 182.152C225.522 170.974 181.509 161.913 127.217 161.913C72.9254 161.913 28.9131 170.974 28.9131 182.152C28.9131 193.33 72.9254 202.391 127.217 202.391Z" fill="black"/>
</svg>
