<svg width="266" height="240" viewBox="0 0 266 240" fill="none" xmlns="http://www.w3.org/2000/svg">
<path opacity="0.03" d="M133 225.522C187.292 225.522 231.304 212.577 231.304 196.609C231.304 180.64 187.292 167.696 133 167.696C78.7077 167.696 34.6953 180.64 34.6953 196.609C34.6953 212.577 78.7077 225.522 133 225.522Z" fill="black"/>
<path d="M10.5074 152.264C10.5074 152.264 90.6015 76.5888 130.128 144.138C130.128 144.138 140.85 152.931 135.341 165.596C135.341 165.596 131.531 161.361 124.276 169.935C121.651 173.005 118.673 175.753 115.403 178.124C111.02 181.32 105.712 182.995 100.289 182.89V182.89C100.289 182.89 68.3692 192.901 26.7481 161.835C26.7481 161.835 12.8662 159.067 11.3238 156.677L30.6603 150.847C30.6603 150.847 34.366 165.199 45.3187 170.534C45.3187 170.534 30.4225 151.647 33.4905 149.867C34.113 149.496 43.8522 147.228 43.8522 147.228C43.8522 147.228 50.4165 172.138 67.6173 179.859C67.6173 179.859 46.788 159.814 47.5557 146.362L62.4851 143.837C62.4851 143.837 68.1481 170.499 87.3837 180.061C87.3837 180.061 66.3753 158.332 65.8005 143.514L80.8072 143.017C80.8072 143.017 86.8222 168.913 102.888 176.735C102.888 176.735 81.1239 149.184 84.2343 143.129C84.2343 143.129 98.0514 143.508 101.678 145.384C101.678 145.384 106.441 163.855 116.159 167.587C116.159 167.587 103.582 147.619 105.465 145.911C105.465 145.911 123.305 151.188 130.959 158.637C124.286 151.452 115.856 146.13 106.499 143.197C111.794 140.25 117.837 138.919 123.88 139.368C123.88 139.368 115.626 131.967 102.177 141.985C102.177 141.985 88.117 138.439 85.9013 139.345C85.9013 139.345 97.7871 127.598 108.409 124.575C108.409 124.575 94.9572 122.33 81.9095 139.336L66.8214 139.516C66.8214 139.516 81.7425 123.147 91.0036 119.756C91.0036 119.756 76.925 119.592 63.0253 139.857L48.2578 142.108C48.2578 142.108 60.0284 127.033 69.4715 121.063C69.4715 121.063 56.3729 123.729 44.0485 142.977L34.4459 145.696C34.4459 145.696 43.2234 134.83 45.9717 131.887C48.72 128.944 48.253 128.03 48.253 128.03C40.6554 132.472 34.4447 138.941 30.3169 146.714C30.3169 146.714 11.05 153.391 10.5074 152.264Z" fill="#BFE6D3"/>
<path d="M35.3557 43.6989C35.3557 43.6989 141.425 73.588 103.851 142.149C103.851 142.149 101.817 155.856 88.1121 157.65C88.1121 157.65 89.8312 152.196 78.7223 150.367C74.7709 149.707 70.9131 148.575 67.2321 146.994C62.2575 144.883 58.1187 141.189 55.4575 136.486V136.486C55.4575 136.486 30.4522 114.271 35.7702 62.5581C35.7702 62.5581 30.9938 49.2288 32.2593 46.6777L47.1879 60.2656C47.1879 60.2656 36.8011 70.811 37.8567 82.9769C37.8567 82.9769 46.3143 60.4683 49.4892 62.1661C50.154 62.5277 57.0948 69.7154 57.0948 69.7154C57.0948 69.7154 39.1215 88.1755 41.3073 106.832C41.3073 106.832 47.8056 78.652 59.7237 72.3964L69.4381 83.9319C69.4381 83.9319 49.4607 102.507 51.1837 123.92C51.1837 123.92 58.9916 94.7027 71.4076 86.6089L79.5535 99.2205C79.5535 99.2205 60.5353 117.69 61.9857 135.495C61.9857 135.495 74.4306 102.679 81.2268 102.246C81.2268 102.246 88.017 114.261 88.2614 118.325C88.2614 118.325 74.8565 131.918 76.6614 142.179C76.6614 142.179 87.2734 121.131 89.7391 121.851C89.7391 121.851 94.391 139.881 91.9197 150.263C94.6599 140.823 94.8867 130.83 92.5776 121.275C97.8307 124.298 102.085 128.792 104.817 134.202C104.817 134.202 106.916 123.321 91.3946 116.832C91.3946 116.832 87.1994 102.989 85.276 101.497C85.276 101.497 101.351 105.683 109.517 113.203C109.517 113.203 104.527 100.529 83.2322 98.0912L75.3211 85.2376C75.3211 85.2376 97.0097 89.6049 104.707 95.8132C104.707 95.8132 97.6059 83.6417 73.0649 82.1583L63.5423 70.781C63.5423 70.781 82.5068 73.1211 92.4078 78.0543C92.4078 78.0543 83.4137 68.212 60.5467 67.5096L53.2817 60.6775C53.2817 60.6775 67.1135 62.6191 71.0411 63.5479C74.9687 64.4767 75.5147 63.4936 75.5147 63.4936C67.7995 59.2762 59.0651 57.283 50.2841 57.7357C50.2841 57.7357 34.6495 44.7546 35.3557 43.6989Z" fill="#2AAB6C"/>
<path d="M84.9278 19.1351C84.9278 19.1351 181.435 72.3367 129.27 130.57C129.27 130.57 124.175 143.457 110.421 142.091C110.421 142.091 113.334 137.17 102.931 132.866C99.2327 131.326 95.733 129.346 92.5073 126.971C88.1424 123.785 84.9507 119.247 83.4274 114.062V114.062C83.4274 114.062 64.1219 86.7487 81.0475 37.5955C81.0475 37.5955 79.4237 23.5297 81.2356 21.3327L92.6874 37.9564C92.6874 37.9564 80.1768 45.8669 78.4413 57.9545C78.4413 57.9545 91.7907 37.9555 94.497 40.3301C95.0622 40.8332 100.189 49.4096 100.189 49.4096C100.189 49.4096 78.4921 63.3045 76.3829 81.9703C76.3829 81.9703 89.1125 56.0026 102.14 52.6176L108.98 66.0582C108.98 66.0582 85.3057 79.6097 82.1196 100.855C82.1196 100.855 96.3603 74.1745 110.29 69.1127L115.358 83.2449C115.358 83.2449 92.6421 96.9112 90.01 114.581C90.01 114.581 109.584 85.4496 116.301 86.5712C116.301 86.5712 120.184 99.8146 119.499 103.828C119.499 103.828 103.357 114.021 102.784 124.423C102.784 124.423 117.899 106.336 120.137 107.597C120.137 107.597 120.572 126.213 115.807 135.763C120.62 127.191 123.111 117.511 123.032 107.681C127.461 111.819 130.584 117.161 132.015 123.051C132.015 123.051 136.531 112.93 122.889 103.086C122.889 103.086 121.948 88.6517 120.414 86.7613C120.414 86.7613 135.118 94.4901 141.363 103.668C141.363 103.668 139.382 90.1918 119.197 82.9808L114.413 68.6662C114.413 68.6662 134.543 77.8459 140.628 85.6403C140.628 85.6403 136.478 72.1739 112.915 65.1548L106.226 51.9119C106.226 51.9119 124.163 58.4986 132.685 65.5519C132.685 65.5519 126.161 53.9238 104.052 48.0455L98.5284 39.7418C98.5284 39.7418 111.558 44.7745 115.172 46.5712C118.786 48.3679 119.541 47.5345 119.541 47.5345C112.985 41.6749 104.932 37.7498 96.2774 36.196C96.2774 36.196 84.0002 20.0029 84.9278 19.1351Z" fill="#2AAB6C"/>
<path d="M255.707 145.424C255.707 145.424 168.831 77.6425 135.853 148.619C135.853 148.619 126.009 158.385 132.687 170.473C132.687 170.473 136.081 165.898 144.112 173.75C147.015 176.558 150.24 179.013 153.719 181.064C158.383 183.833 163.825 184.999 169.215 184.384V184.384C169.215 184.384 201.936 191.338 240.441 156.485C240.441 156.485 254 152.42 255.31 149.895L235.51 145.915C235.51 145.915 233.175 160.552 222.774 166.897C222.774 166.897 235.822 146.689 232.6 145.206C231.945 144.896 222.036 143.557 222.036 143.557C222.036 143.557 217.85 168.975 201.455 178.284C201.455 178.284 220.3 156.364 218.267 143.043L203.166 141.939C203.166 141.939 200.043 169.016 181.796 180.35C181.796 180.35 200.66 156.735 199.835 141.93L184.848 142.851C184.848 142.851 181.303 169.198 166.046 178.501C166.046 178.501 185.115 149.02 181.447 143.286C181.447 143.286 167.727 144.966 164.294 147.176C164.294 147.176 161.294 166.014 151.972 170.646C151.972 170.646 162.609 149.58 160.573 148.058C160.573 148.058 143.311 154.994 136.394 163.132C142.359 155.349 150.25 149.256 159.288 145.453C153.738 143.02 147.597 142.264 141.623 143.281C141.623 143.281 149.142 135.135 163.476 143.839C163.476 143.839 177.139 138.982 179.43 139.676C179.43 139.676 166.489 129.102 155.629 127.095C155.629 127.095 168.81 123.59 183.403 139.29L198.441 138.046C198.441 138.046 182.042 123.157 172.503 120.655C172.503 120.655 186.503 119.164 202.253 138.027L217.167 138.875C217.167 138.875 204.026 124.978 194.062 119.925C194.062 119.925 207.354 121.344 221.439 139.343L231.255 141.144C231.255 141.144 221.492 131.155 218.478 128.484C215.465 125.814 215.843 124.859 215.843 124.859C223.826 128.564 230.619 134.419 235.462 141.768C235.462 141.768 255.273 146.597 255.707 145.424Z" fill="#BFE6D3"/>
<path d="M243.261 55.137C243.261 55.137 133.241 61.3681 155.045 136.354C155.045 136.354 154.075 150.187 167.058 154.911C167.058 154.911 166.58 149.149 177.807 149.841C181.807 150.041 185.816 149.767 189.751 149.024C195.091 148.056 199.965 145.358 203.62 141.345C203.62 141.345 232.849 125.08 238.952 73.4824C238.952 73.4824 246.517 61.5106 245.822 58.7251L228.329 68.8808C228.329 68.8808 236.16 81.4316 232.513 93.0781C232.513 93.0781 229.116 69.2797 225.656 70.2342C224.936 70.294 216.588 75.977 216.588 75.977C216.588 75.977 230.156 97.8867 223.915 115.667C223.915 115.667 223.684 86.6738 213.422 78.0385L201.325 87.1372C201.325 87.1372 216.766 109.588 210.464 130.129C210.464 130.129 209.175 99.9184 198.805 89.2901L188.076 99.8419C188.076 99.8419 202.742 122.038 197.368 139.079C197.368 139.079 192.366 104.331 185.787 102.324C185.787 102.324 176.573 112.605 175.362 116.535C175.362 116.535 185.408 132.703 181.505 142.31C181.505 142.31 175.731 119.58 173.154 119.648C173.154 119.648 164.695 136.221 164.857 146.913C164.218 137.094 166.164 127.279 170.501 118.447C164.721 120.249 159.592 123.699 155.746 128.376C155.746 128.376 156.074 117.295 172.575 114.416C172.575 114.416 179.703 101.726 181.886 100.762C181.886 100.762 165.191 101.306 155.678 106.941C155.678 106.941 163.298 95.6318 184.605 97.867L195.137 87.0415C195.137 87.0415 172.995 86.6166 164.159 90.9765C164.159 90.9765 173.719 80.6669 198.003 84.5117L209.759 75.4994C209.759 75.4994 190.719 73.6564 179.834 76.3877C179.834 76.3877 190.804 68.7461 213.239 73.0346L221.808 67.9134C221.808 67.9134 207.879 66.8356 203.85 66.8799C199.821 66.9242 199.471 65.8508 199.471 65.8508C207.922 63.4029 216.888 63.3517 225.367 65.7032C225.367 65.7032 243.741 56.3737 243.261 55.137Z" fill="#2AAB6C"/>
<path d="M187.516 21.253C187.516 21.253 87.3344 67.1551 134.969 129.036C134.969 129.036 139.108 142.271 152.92 141.938C152.92 141.938 150.374 136.746 161.082 133.299C164.879 132.027 168.512 130.311 171.906 128.185C176.526 125.337 180.081 121.048 182.022 115.979C182.022 115.979 203.312 90.1799 190.19 39.9069C190.19 39.9069 192.871 26.0013 191.208 23.6609L178.62 39.4938C178.62 39.4938 190.487 48.3271 191.336 60.5015C191.336 60.5015 179.499 39.5782 176.624 41.7283C175.975 42.0465 170.273 50.3813 170.273 50.3813C170.273 50.3813 190.894 65.8384 191.562 84.6707C191.562 84.6707 180.78 57.7557 168.077 53.4546L160.128 66.3366C160.128 66.3366 182.689 81.6147 184.308 103.041C184.308 103.041 172.096 75.3776 158.566 69.2598L152.421 82.9962C152.421 82.9962 174.168 98.3197 175.374 116.148C175.374 116.148 158.051 85.6131 151.194 86.1417C151.194 86.1417 146.361 99.0738 146.665 103.175C146.665 103.175 161.913 114.569 161.78 124.938C161.78 124.938 148.118 105.876 145.744 106.879C145.744 106.879 143.907 125.395 147.955 135.292C143.781 126.381 142.017 116.532 142.836 106.727C138.11 110.512 134.592 115.594 132.714 121.351C132.714 121.351 128.981 110.912 143.298 102.218C143.298 102.218 145.311 87.803 146.992 86.1092C146.992 86.1092 131.643 92.7009 124.839 101.415C124.839 101.415 127.813 88.1066 148.469 82.4223L154.331 68.5027C154.331 68.5027 133.556 76.1775 126.918 83.4577C126.918 83.4577 132.063 70.3729 156.077 65.1026L163.74 52.4253C163.74 52.4253 145.338 57.6487 136.197 64.1595C136.197 64.1595 143.628 53.0451 166.082 48.8617L172.195 40.9697C172.195 40.9697 158.832 45.0426 155.096 46.5523C151.36 48.0621 150.643 47.1902 150.643 47.1902C157.621 41.8303 165.951 38.5149 174.704 37.6143C174.704 37.6143 188.413 22.2298 187.516 21.253Z" fill="#2AAB6C"/>
</svg>
