<svg width="250" height="209" viewBox="0 0 250 209" fill="none" xmlns="http://www.w3.org/2000/svg">
<path opacity="0.03" d="M125 208.522C179.292 208.522 223.304 195.577 223.304 179.609C223.304 163.64 179.292 150.696 125 150.696C70.7079 150.696 26.6956 163.64 26.6956 179.609C26.6956 195.577 70.7079 208.522 125 208.522Z" fill="black"/>
<path d="M2.50738 135.264C2.50738 135.264 82.6015 59.5888 122.128 127.138C122.128 127.138 132.85 135.931 127.341 148.596C127.341 148.596 123.531 144.361 116.276 152.935C113.651 156.005 110.673 158.753 107.403 161.124C103.02 164.32 97.7122 165.995 92.289 165.89V165.89C92.289 165.89 60.3692 175.901 18.7481 144.835C18.7481 144.835 4.8662 142.067 3.32381 139.677L22.6603 133.847C22.6603 133.847 26.366 148.199 37.3187 153.534C37.3187 153.534 22.4225 134.647 25.4905 132.867C26.113 132.496 35.8522 130.228 35.8522 130.228C35.8522 130.228 42.4165 155.138 59.6173 162.859C59.6173 162.859 38.788 142.814 39.5557 129.362L54.4851 126.837C54.4851 126.837 60.1481 153.499 79.3837 163.061C79.3837 163.061 58.3753 141.332 57.8005 126.514L72.8072 126.017C72.8072 126.017 78.8222 151.913 94.8881 159.735C94.8881 159.735 73.1239 132.184 76.2343 126.129C76.2343 126.129 90.0514 126.508 93.6781 128.384C93.6781 128.384 98.4414 146.855 108.159 150.587C108.159 150.587 95.5816 130.619 97.465 128.911C97.465 128.911 115.305 134.188 122.959 141.637C116.286 134.452 107.856 129.13 98.4991 126.197C103.794 123.25 109.837 121.919 115.88 122.368C115.88 122.368 107.626 114.967 94.1774 124.985C94.1774 124.985 80.117 121.439 77.9013 122.345C77.9013 122.345 89.7871 110.598 100.409 107.575C100.409 107.575 86.9572 105.33 73.9095 122.336L58.8214 122.516C58.8214 122.516 73.7425 106.147 83.0036 102.756C83.0036 102.756 68.925 102.592 55.0253 122.857L40.2578 125.108C40.2578 125.108 52.0284 110.033 61.4715 104.063C61.4715 104.063 48.3729 106.729 36.0485 125.977L26.4459 128.696C26.4459 128.696 35.2234 117.83 37.9717 114.887C40.72 111.944 40.253 111.03 40.253 111.03C32.6554 115.472 26.4447 121.941 22.3169 129.714C22.3169 129.714 3.05005 136.391 2.50738 135.264Z" fill="#BFE6D3"/>
<path d="M27.356 26.6989C27.356 26.6989 133.426 56.588 95.8517 125.149C95.8517 125.149 93.8169 138.856 80.1124 140.65C80.1124 140.65 81.8315 135.196 70.7226 133.367C66.7711 132.707 62.9133 131.575 59.2323 129.994C54.2578 127.883 50.1189 124.189 47.4577 119.486V119.486C47.4577 119.486 22.4525 97.2711 27.7705 45.5581C27.7705 45.5581 22.9941 32.2288 24.2595 29.6777L39.1881 43.2656C39.1881 43.2656 28.8014 53.811 29.857 65.9769C29.857 65.9769 38.3146 43.4683 41.4895 45.1661C42.1543 45.5277 49.0951 52.7154 49.0951 52.7154C49.0951 52.7154 31.1217 71.1755 33.3075 89.8325C33.3075 89.8325 39.8058 61.652 51.7239 55.3964L61.4383 66.9319C61.4383 66.9319 41.4609 85.5068 43.1839 106.92C43.1839 106.92 50.9919 77.7027 63.4079 69.6089L71.5537 82.2205C71.5537 82.2205 52.5355 100.69 53.986 118.495C53.986 118.495 66.4308 85.6793 73.2271 85.2458C73.2271 85.2458 80.0172 97.2609 80.2617 101.325C80.2617 101.325 66.8567 114.918 68.6617 125.179C68.6617 125.179 79.2737 104.131 81.7393 104.851C81.7393 104.851 86.3912 122.881 83.9199 133.263C86.6601 123.823 86.8869 113.83 84.5779 104.275C89.8309 107.298 94.0852 111.792 96.8173 117.202C96.8173 117.202 98.9162 106.321 83.3948 99.8321C83.3948 99.8321 79.1997 85.989 77.2763 84.4965C77.2763 84.4965 93.3515 88.6832 101.518 96.2028C101.518 96.2028 96.5269 83.5289 75.2325 81.0912L67.3214 68.2376C67.3214 68.2376 89.01 72.6049 96.7073 78.8132C96.7073 78.8132 89.6062 66.6417 65.0651 65.1583L55.5425 53.781C55.5425 53.781 74.5071 56.1211 84.4081 61.0543C84.4081 61.0543 75.4139 51.212 52.5469 50.5096L45.2819 43.6775C45.2819 43.6775 59.1137 45.6191 63.0413 46.5479C66.9689 47.4767 67.515 46.4936 67.515 46.4936C59.7997 42.2762 51.0654 40.283 42.2844 40.7357C42.2844 40.7357 26.6498 27.7546 27.356 26.6989Z" fill="#2AAB6C"/>
<path d="M76.9278 2.13512C76.9278 2.13512 173.435 55.3367 121.27 113.57C121.27 113.57 116.175 126.457 102.421 125.091C102.421 125.091 105.334 120.17 94.931 115.866C91.2327 114.326 87.733 112.346 84.5073 109.971C80.1424 106.785 76.9507 102.247 75.4274 97.0625V97.0625C75.4274 97.0625 56.1219 69.7487 73.0475 20.5955C73.0475 20.5955 71.4237 6.52969 73.2356 4.3327L84.6874 20.9564C84.6874 20.9564 72.1768 28.8669 70.4413 40.9545C70.4413 40.9545 83.7907 20.9555 86.497 23.3301C87.0622 23.8332 92.1889 32.4096 92.1889 32.4096C92.1889 32.4096 70.4921 46.3045 68.3829 64.9703C68.3829 64.9703 81.1125 39.0026 94.1401 35.6176L100.98 49.0582C100.98 49.0582 77.3057 62.6097 74.1196 83.8545C74.1196 83.8545 88.3603 57.1745 102.29 52.1127L107.358 66.2449C107.358 66.2449 84.6421 79.9112 82.01 97.5808C82.01 97.5808 101.584 68.4496 108.301 69.5712C108.301 69.5712 112.184 82.8146 111.499 86.8279C111.499 86.8279 95.3569 97.0207 94.7839 107.423C94.7839 107.423 109.899 89.3365 112.137 90.5975C112.137 90.5975 112.572 109.213 107.807 118.763C112.62 110.191 115.111 100.511 115.032 90.6809C119.461 94.8188 122.584 100.161 124.015 106.051C124.015 106.051 128.531 95.9304 114.889 86.0859C114.889 86.0859 113.948 71.6517 112.414 69.7613C112.414 69.7613 127.118 77.4901 133.363 86.6681C133.363 86.6681 131.382 73.1918 111.197 65.9808L106.413 51.6662C106.413 51.6662 126.543 60.8459 132.628 68.6403C132.628 68.6403 128.478 55.1739 104.915 48.1548L98.2257 34.9119C98.2257 34.9119 116.163 41.4986 124.685 48.5519C124.685 48.5519 118.161 36.9238 96.0516 31.0455L90.5284 22.7418C90.5284 22.7418 103.558 27.7745 107.172 29.5712C110.786 31.3679 111.541 30.5345 111.541 30.5345C104.985 24.6749 96.9317 20.7498 88.2774 19.196C88.2774 19.196 76.0002 3.00287 76.9278 2.13512Z" fill="#2AAB6C"/>
<path d="M247.707 128.424C247.707 128.424 160.831 60.6425 127.853 131.619C127.853 131.619 118.009 141.385 124.687 153.473C124.687 153.473 128.081 148.898 136.112 156.75C139.015 159.558 142.24 162.013 145.719 164.064C150.383 166.833 155.825 167.999 161.215 167.384V167.384C161.215 167.384 193.936 174.338 232.441 139.485C232.441 139.485 246 135.42 247.31 132.895L227.51 128.915C227.51 128.915 225.175 143.552 214.774 149.897C214.774 149.897 227.822 129.689 224.6 128.206C223.945 127.896 214.036 126.557 214.036 126.557C214.036 126.557 209.85 151.975 193.455 161.284C193.455 161.284 212.3 139.364 210.267 126.043L195.166 124.939C195.166 124.939 192.043 152.016 173.796 163.35C173.796 163.35 192.66 139.735 191.835 124.93L176.848 125.851C176.848 125.851 173.303 152.198 158.046 161.501C158.046 161.501 177.115 132.02 173.447 126.286C173.447 126.286 159.727 127.966 156.294 130.176C156.294 130.176 153.294 149.014 143.972 153.646C143.972 153.646 154.609 132.58 152.573 131.058C152.573 131.058 135.311 137.994 128.394 146.132C134.359 138.349 142.25 132.256 151.288 128.453C145.738 126.02 139.597 125.264 133.623 126.281C133.623 126.281 141.142 118.135 155.476 126.839C155.476 126.839 169.139 121.982 171.43 122.676C171.43 122.676 158.489 112.102 147.629 110.095C147.629 110.095 160.81 106.59 175.403 122.29L190.441 121.046C190.441 121.046 174.042 106.157 164.503 103.655C164.503 103.655 178.503 102.164 194.253 121.027L209.167 121.875C209.167 121.875 196.026 107.978 186.062 102.925C186.062 102.925 199.354 104.344 213.439 122.343L223.255 124.144C223.255 124.144 213.492 114.155 210.478 111.484C207.465 108.814 207.843 107.859 207.843 107.859C215.826 111.564 222.619 117.419 227.462 124.768C227.462 124.768 247.273 129.597 247.707 128.424Z" fill="#BFE6D3"/>
<path d="M235.261 38.137C235.261 38.137 125.241 44.3681 147.045 119.354C147.045 119.354 146.075 133.187 159.058 137.911C159.058 137.911 158.58 132.149 169.807 132.841C173.807 133.041 177.816 132.767 181.751 132.024C187.091 131.056 191.965 128.358 195.62 124.345C195.62 124.345 224.849 108.08 230.952 56.4824C230.952 56.4824 238.517 44.5106 237.822 41.7251L220.329 51.8808C220.329 51.8808 228.16 64.4316 224.513 76.0781C224.513 76.0781 221.116 52.2797 217.656 53.2342C216.936 53.294 208.588 58.977 208.588 58.977C208.588 58.977 222.156 80.8867 215.915 98.6672C215.915 98.6672 215.684 69.6738 205.422 61.0385L193.325 70.1372C193.325 70.1372 208.766 92.5876 202.464 113.129C202.464 113.129 201.175 82.9184 190.805 72.2901L180.076 82.8419C180.076 82.8419 194.742 105.038 189.368 122.079C189.368 122.079 184.366 87.3309 177.787 85.3238C177.787 85.3238 168.573 95.6048 167.362 99.5351C167.362 99.5351 177.408 115.703 173.505 125.31C173.505 125.31 167.731 102.58 165.154 102.648C165.154 102.648 156.695 119.221 156.857 129.913C156.218 120.094 158.164 110.279 162.501 101.447C156.721 103.249 151.592 106.699 147.746 111.376C147.746 111.376 148.074 100.295 164.575 97.4162C164.575 97.4162 171.703 84.7265 173.886 83.762C173.886 83.762 157.191 84.3062 147.678 89.9409C147.678 89.9409 155.298 78.6318 176.605 80.867L187.137 70.0415C187.137 70.0415 164.995 69.6166 156.159 73.9765C156.159 73.9765 165.719 63.6669 190.003 67.5117L201.759 58.4994C201.759 58.4994 182.719 56.6564 171.834 59.3877C171.834 59.3877 182.804 51.7461 205.239 56.0346L213.808 50.9134C213.808 50.9134 199.879 49.8356 195.85 49.8799C191.821 49.9242 191.471 48.8508 191.471 48.8508C199.922 46.4029 208.888 46.3517 217.367 48.7032C217.367 48.7032 235.741 39.3737 235.261 38.137Z" fill="#2AAB6C"/>
<path d="M179.516 4.253C179.516 4.253 79.3344 50.1551 126.969 112.036C126.969 112.036 131.108 125.271 144.92 124.938C144.92 124.938 142.374 119.746 153.082 116.299C156.879 115.027 160.512 113.311 163.906 111.185C168.526 108.337 172.081 104.048 174.022 98.9794C174.022 98.9794 195.312 73.1799 182.19 22.9069C182.19 22.9069 184.871 9.00135 183.208 6.66091L170.62 22.4938C170.62 22.4938 182.487 31.3271 183.336 43.5015C183.336 43.5015 171.499 22.5782 168.624 24.7283C167.975 25.0465 162.273 33.3813 162.273 33.3813C162.273 33.3813 182.894 48.8384 183.562 67.6707C183.562 67.6707 172.78 40.7557 160.077 36.4546L152.128 49.3366C152.128 49.3366 174.689 64.6147 176.308 86.0405C176.308 86.0405 164.096 58.3776 150.566 52.2598L144.421 65.9962C144.421 65.9962 166.168 81.3197 167.374 99.1476C167.374 99.1476 150.051 68.6131 143.194 69.1417C143.194 69.1417 138.361 82.0738 138.665 86.1751C138.665 86.1751 153.913 97.5691 153.78 107.938C153.78 107.938 140.118 88.8759 137.744 89.879C137.744 89.879 135.907 108.395 139.955 118.292C135.781 109.381 134.017 99.5325 134.836 89.7271C130.11 93.5117 126.592 98.5944 124.714 104.351C124.714 104.351 120.981 93.9125 135.298 85.2178C135.298 85.2178 137.311 70.803 138.992 69.1092C138.992 69.1092 123.643 75.7009 116.839 84.4151C116.839 84.4151 119.813 71.1066 140.469 65.4223L146.331 51.5027C146.331 51.5027 125.556 59.1775 118.918 66.4577C118.918 66.4577 124.063 53.3729 148.077 48.1026L155.74 35.4253C155.74 35.4253 137.338 40.6487 128.197 47.1595C128.197 47.1595 135.628 36.0451 158.082 31.8617L164.195 23.9697C164.195 23.9697 150.832 28.0426 147.096 29.5523C143.36 31.0621 142.643 30.1902 142.643 30.1902C149.621 24.8303 157.951 21.5149 166.704 20.6143C166.704 20.6143 180.413 5.22977 179.516 4.253Z" fill="#2AAB6C"/>
</svg>
