<svg width="233" height="175" viewBox="0 0 233 175" fill="none" xmlns="http://www.w3.org/2000/svg">
<path d="M205.464 69.5442C205.464 69.5442 96.5857 -2.29277 64.1349 84.4435C64.1349 84.4435 53.4316 96.9013 62.4438 110.562C62.4438 110.562 66.0746 104.745 76.2625 113.349C79.9183 116.364 83.9185 118.936 88.1796 121.011C93.9433 123.841 100.476 124.704 106.777 123.468V123.468C106.777 123.468 146.057 128.674 188.323 83.9065C188.323 83.9065 204.004 77.8389 205.444 74.793L181.68 71.9678C181.68 71.9678 180.256 89.4597 168.532 97.9269C168.532 97.9269 182.161 72.9174 178.155 71.359C177.413 70.9311 165.515 70.4387 165.515 70.4387C165.515 70.4387 162.91 100.816 144.404 113.363C144.404 113.363 164.622 85.7056 161.019 70.1406L143.084 70.241C143.084 70.241 141.917 102.516 121.403 117.583C121.403 117.583 141.54 87.9406 139.168 70.5147L121.538 72.9665C121.538 72.9665 119.788 104.47 102.625 116.881C102.625 116.881 122.424 80.28 117.527 73.8179C117.527 73.8179 101.492 77.0705 97.6638 80.0052C97.6638 80.0052 95.795 102.659 85.2476 108.878C85.2476 108.878 95.8884 83.0158 93.2259 81.3224C93.2259 81.3224 73.4548 91.1227 66.1264 101.294C72.4478 91.517 81.219 83.5653 91.5675 78.2304C84.7937 75.8643 77.475 75.536 70.5166 77.2858C70.5166 77.2858 78.6359 66.9769 96.3876 75.9073C96.3876 75.9073 112.259 68.9608 114.883 69.4853C114.883 69.4853 98.6072 58.2018 85.5946 56.8295C85.5946 56.8295 100.818 51.4868 119.622 68.5389L137.143 65.5896C137.143 65.5896 116.354 49.6475 104.896 47.4311C104.896 47.4311 121.288 44.3839 141.662 65.2288L159.225 64.9529C159.225 64.9529 142.445 49.7405 130.144 44.6648C130.144 44.6648 145.944 45.113 164.269 65.0532L176.033 66.2593C176.033 66.2593 163.555 55.3859 159.715 52.5787C155.875 49.7715 156.288 48.5065 156.288 48.5065C166.044 52.1575 174.589 58.4543 180.966 66.6907C180.966 66.6907 205.161 71.0306 205.464 69.5442Z" fill="#2AAB6C"/>
<path opacity="0.03" d="M116.5 157.618C180.841 157.618 233 146.88 233 133.633C233 120.386 180.841 109.648 116.5 109.648C52.1588 109.648 0 120.386 0 133.633C0 146.88 52.1588 157.618 116.5 157.618Z" fill="black"/>
</svg>
