<svg width="266" height="240" viewBox="0 0 266 240" fill="none" xmlns="http://www.w3.org/2000/svg">
<path d="M208.071 104.943C208.071 104.943 116.198 44.3262 88.8153 117.515C88.8153 117.515 79.7837 128.027 87.3883 139.555C87.3883 139.555 90.452 134.646 99.0487 141.906C102.134 144.451 105.509 146.621 109.105 148.371C113.968 150.76 119.48 151.488 124.797 150.444V150.444C124.797 150.444 157.942 154.837 193.607 117.062C193.607 117.062 206.839 111.942 208.054 109.372L188.002 106.988C188.002 106.988 186.8 121.748 176.907 128.893C176.907 128.893 188.407 107.79 185.027 106.475C184.401 106.114 174.361 105.698 174.361 105.698C174.361 105.698 172.163 131.331 156.547 141.918C156.547 141.918 173.608 118.58 170.568 105.446L155.434 105.531C155.434 105.531 154.449 132.765 137.139 145.479C137.139 145.479 154.131 120.466 152.13 105.762L137.253 107.831C137.253 107.831 135.776 134.414 121.294 144.887C121.294 144.887 138 114.002 133.868 108.549C133.868 108.549 120.338 111.294 117.107 113.77C117.107 113.77 115.531 132.886 106.631 138.134C106.631 138.134 115.609 116.311 113.363 114.882C113.363 114.882 96.6796 123.151 90.4958 131.734C95.8299 123.484 103.231 116.774 111.963 112.273C106.247 110.276 100.072 109.999 94.2002 111.476C94.2002 111.476 101.051 102.777 116.031 110.312C116.031 110.312 129.423 104.451 131.638 104.893C131.638 104.893 117.903 95.3723 106.923 94.2143C106.923 94.2143 119.769 89.7061 135.636 104.095L150.421 101.606C150.421 101.606 132.879 88.154 123.21 86.2839C123.21 86.2839 137.042 83.7126 154.234 101.302L169.054 101.069C169.054 101.069 154.895 88.2326 144.515 83.9496C144.515 83.9496 157.847 84.3278 173.31 101.154L183.236 102.171C183.236 102.171 172.707 92.9963 169.467 90.6275C166.227 88.2587 166.576 87.1913 166.576 87.1913C174.807 90.2721 182.018 95.5855 187.399 102.535C187.399 102.535 207.815 106.197 208.071 104.943Z" fill="#2AAB6C"/>
<path opacity="0.03" d="M133 179.261C187.292 179.261 231.304 170.2 231.304 159.022C231.304 147.844 187.292 138.783 133 138.783C78.7081 138.783 34.6958 147.844 34.6958 159.022C34.6958 170.2 78.7081 179.261 133 179.261Z" fill="black"/>
</svg>
