<svg width="810" height="708" viewBox="0 0 810 708" fill="none" xmlns="http://www.w3.org/2000/svg">
<g filter="url(#filter0_d)">
<path d="M312.674 470.663C262.698 498.751 214.222 527.839 169.043 556.101" stroke="#707070" stroke-opacity="0.01" stroke-width="10"/>
</g>
<g filter="url(#filter1_d)">
<path d="M278.675 432.663C219.828 464.557 162.798 497.629 109.674 529.784" stroke="#707070" stroke-opacity="0.01" stroke-width="10"/>
</g>
<g filter="url(#filter2_d)">
<path d="M266.509 295.7C223.59 316.915 181.834 339.036 142.839 360.617" stroke="white" stroke-opacity="0.01" stroke-width="10"/>
</g>
<g filter="url(#filter3_d)">
<path d="M324.53 323.527C251.714 352.229 181.247 382.465 115.674 412.143" stroke="white" stroke-opacity="0.01" stroke-width="16"/>
</g>
<g filter="url(#filter4_d)">
<path d="M616.674 267.132C580.985 286.911 546.2 307.431 513.674 327.389" stroke="white" stroke-opacity="0.01" stroke-width="10"/>
</g>
<g filter="url(#filter5_d)">
<path d="M638.674 305.132C599.081 322.782 560.594 341.284 524.674 359.39" stroke="white" stroke-opacity="0.01" stroke-width="10"/>
</g>
<g filter="url(#filter6_d)">
<path d="M145.191 405.88C113.327 423.257 82.4432 441.271 53.6741 458.784" stroke="#707070" stroke-opacity="0.01" stroke-width="10"/>
</g>
<g filter="url(#filter7_d)">
<path d="M127.191 377.88C95.3269 395.257 64.4432 413.271 35.6741 430.784" stroke="#707070" stroke-opacity="0.01" stroke-width="10"/>
</g>
<line x1="67.341" y1="495.705" x2="101.241" y2="479.079" stroke="#378D63" stroke-width="4"/>
<line x1="134.476" y1="461.098" x2="168.376" y2="444.472" stroke="#378D63" stroke-width="4"/>
<line x1="198.872" y1="431.197" x2="232.772" y2="414.572" stroke="#378D63" stroke-width="4"/>
<line x1="266.006" y1="396.59" x2="299.906" y2="379.964" stroke="#378D63" stroke-width="4"/>
<line x1="205.653" y1="427.872" x2="239.552" y2="411.246" stroke="#378D63" stroke-width="4"/>
<line x1="272.787" y1="393.265" x2="306.687" y2="376.639" stroke="#378D63" stroke-width="4"/>
<line x1="337.183" y1="363.364" x2="371.083" y2="346.738" stroke="#378D63" stroke-width="4"/>
<line x1="404.318" y1="328.757" x2="438.218" y2="312.131" stroke="#378D63" stroke-width="4"/>
<line x1="337.459" y1="363.442" x2="371.358" y2="346.816" stroke="#378D63" stroke-width="4"/>
<line x1="404.593" y1="328.834" x2="438.493" y2="312.208" stroke="#378D63" stroke-width="4"/>
<line x1="468.989" y1="298.934" x2="502.889" y2="282.308" stroke="#378D63" stroke-width="4"/>
<line x1="536.124" y1="264.326" x2="570.024" y2="247.7" stroke="#378D63" stroke-width="4"/>
<line x1="475.77" y1="295.608" x2="509.67" y2="278.983" stroke="#378D63" stroke-width="4"/>
<line x1="542.904" y1="261.001" x2="576.804" y2="244.375" stroke="#378D63" stroke-width="4"/>
<line x1="607.301" y1="231.1" x2="641.201" y2="214.475" stroke="#378D63" stroke-width="4"/>
<line x1="674.436" y1="196.493" x2="708.336" y2="179.868" stroke="#378D63" stroke-width="4"/>
<line x1="216.646" y1="556.933" x2="250.545" y2="540.308" stroke="#378D63" stroke-width="4"/>
<line x1="283.78" y1="522.326" x2="317.68" y2="505.7" stroke="#378D63" stroke-width="4"/>
<line x1="348.176" y1="492.426" x2="382.076" y2="475.8" stroke="#378D63" stroke-width="4"/>
<line x1="415.31" y1="457.817" x2="449.21" y2="441.191" stroke="#378D63" stroke-width="4"/>
<line x1="354.956" y1="489.1" x2="388.856" y2="472.474" stroke="#378D63" stroke-width="4"/>
<line x1="422.092" y1="454.493" x2="455.992" y2="437.867" stroke="#378D63" stroke-width="4"/>
<line x1="486.489" y1="424.593" x2="520.389" y2="407.967" stroke="#378D63" stroke-width="4"/>
<line x1="546.538" y1="394.795" x2="580.438" y2="378.169" stroke="#378D63" stroke-width="4"/>
<line x1="613.674" y1="360.188" x2="647.574" y2="343.562" stroke="#378D63" stroke-width="4"/>
<line x1="553.319" y1="391.47" x2="587.218" y2="374.845" stroke="#378D63" stroke-width="4"/>
<line x1="620.453" y1="356.863" x2="654.353" y2="340.237" stroke="#378D63" stroke-width="4"/>
<line x1="684.851" y1="326.962" x2="718.751" y2="310.337" stroke="#378D63" stroke-width="4"/>
<line x1="751.985" y1="292.354" x2="785.884" y2="275.729" stroke="#378D63" stroke-width="4"/>
<path d="M161.041 425.067C162.896 424.044 164.268 422.327 164.856 420.293C165.445 418.259 165.202 416.074 164.18 414.219L163.326 412.666L165.172 411.655L181.631 402.583L185.213 400.612C185.713 400.336 186.128 399.929 186.414 399.435C199.634 389.059 198.342 372.8 189.694 357.103C186.799 351.638 182.955 346.731 178.34 342.613L178.523 342.509C173.583 338.106 167.995 335.412 161.889 335.196L162.183 335.72C159.096 335.59 156.012 336.017 153.076 336.98C152.749 336.86 152.399 336.811 152.051 336.837C151.702 336.864 151.364 336.965 151.058 337.134L128.526 349.552L126.709 346.249C125.686 344.395 123.969 343.022 121.935 342.434C119.901 341.845 117.716 342.088 115.861 343.11V343.11L121.576 353.435L93.7856 368.748L95.7099 372.249L97.6342 375.751L100.526 380.993L100.474 381.072L93.7827 368.923L80.4125 376.199C64.2332 385.117 66.3794 401.606 75.4253 418.576L75.5038 418.628L76.0677 419.672L76.1463 419.725L76.6608 420.635C86.1806 437.442 98.9376 448.092 115.189 439.121L128.397 431.787L120.63 417.699L120.682 417.62L124.644 424.812L126.461 428.115L128.499 431.805L156.332 416.521L161.041 425.067V425.067ZM134.232 355.525L134.125 355.554L134.177 355.476L134.232 355.525Z" fill="url(#paint0_linear)"/>
<path d="M153.083 411.199L124.087 358.566L97.7706 373.064L126.767 425.697L153.083 411.199Z" fill="#6C8579"/>
<path d="M79.3408 417.72L79.4193 417.773C70.4141 401.422 67.9363 385.392 83.5019 376.808L96.0318 369.905L128.626 429.166L116.102 436.061C100.527 444.639 88.3461 434.071 79.3408 417.72Z" fill="#9CBEAD"/>
<path d="M73.0672 401.757C74.3673 407.367 76.4907 412.753 79.3685 417.741C81.7255 422.152 84.6079 426.262 87.9528 429.98L93.3061 427.036L77.9001 399.121L73.0672 401.757Z" fill="#F8F8F8"/>
<path d="M102.306 381.287L121.337 415.831L120.373 416.362C119.852 416.649 119.279 416.83 118.688 416.896C118.097 416.962 117.499 416.911 116.928 416.745C116.356 416.58 115.823 416.303 115.359 415.932C114.894 415.561 114.508 415.101 114.221 414.58L99.5504 387.952C98.9708 386.9 98.8329 385.661 99.167 384.507C99.501 383.353 100.28 382.379 101.332 381.8L102.296 381.269L102.306 381.287Z" fill="#F8F8F8"/>
<path d="M154.795 344.251L155.503 345.536L99.5835 376.344L95.9615 369.769L146.583 341.881C147.278 341.496 148.041 341.253 148.83 341.164C149.619 341.075 150.418 341.143 151.181 341.363C151.943 341.583 152.655 341.951 153.275 342.447C153.896 342.942 154.412 343.555 154.795 344.251Z" fill="#9DC0AF"/>
<path d="M180.985 391.784L181.693 393.07C182.466 394.472 182.65 396.125 182.204 397.663C181.759 399.201 180.721 400.5 179.318 401.273L128.687 429.166L125.065 422.592L180.985 391.784Z" fill="#9DC0AF"/>
<path d="M163.225 410.217L130.596 351.008L146.098 342.444C163.205 333.023 177.299 342.536 186.31 358.878C195.316 375.229 195.825 392.227 178.704 401.688L163.225 410.217Z" fill="#9CBEAD"/>
<path d="M160.145 338.267L166.686 350.189L175.776 345.175C171.147 341.004 165.888 338.48 160.145 338.267Z" fill="#3A7759"/>
<path d="M189.462 391.475L182.922 379.553L192.011 374.539C193.019 380.718 192.356 386.513 189.462 391.475Z" fill="#3A7759"/>
<path d="M126.257 347.352L128.786 351.943L122.211 355.565L116.768 345.685L118.035 344.987C118.73 344.601 119.494 344.356 120.284 344.266C121.074 344.176 121.873 344.243 122.637 344.463C123.401 344.683 124.114 345.051 124.735 345.547C125.356 346.043 125.873 346.656 126.257 347.352V347.352Z" fill="#9DC0AF"/>
<path d="M159.407 422.842L153.969 412.971L160.543 409.349L163.073 413.94C163.846 415.343 164.03 416.995 163.584 418.533C163.139 420.072 162.1 421.37 160.698 422.143L159.412 422.851L159.407 422.842Z" fill="#9DC0AF"/>
<path d="M154.013 408.85L126.721 359.324L156.106 351.728C158.393 351.137 160.811 351.324 162.98 352.26C165.148 353.195 166.944 354.825 168.085 356.893L178.218 375.294C179.362 377.371 179.781 379.77 179.407 382.111C179.032 384.453 177.887 386.602 176.151 388.218L154.013 408.85Z" fill="#575958"/>
<path d="M127.556 361.253C138.457 355.242 152.768 360.312 159.529 372.583C166.29 384.854 162.903 399.645 152.025 405.659" fill="#EDEDED"/>
<path d="M152.13 409.762L124.942 360.419L129.88 357.702L130.176 362.133L152.503 402.665L157.067 407.045L152.13 409.762Z" fill="#9CBEAD"/>
<path opacity="0.05" d="M152.13 409.762L124.942 360.419L129.88 357.702L130.176 362.133L152.503 402.665L157.067 407.045L152.13 409.762Z" fill="black"/>
<path d="M138.548 385.014L134.926 378.44L128.351 382.062L131.973 388.636L138.548 385.014Z" fill="#575958"/>
<path d="M128.511 386.272C130.511 389.903 132.869 392.441 133.777 391.941C134.684 391.441 133.799 388.092 131.798 384.461C129.798 380.83 127.44 378.292 126.533 378.792C125.625 379.292 126.511 382.641 128.511 386.272Z" fill="#575958"/>
<path opacity="0.05" d="M91.033 381.241C89.4029 381.901 87.9256 382.888 86.6922 384.142C85.4587 385.396 84.4955 386.889 83.8619 388.53C83.2284 390.17 82.9381 391.923 83.0088 393.681C83.0795 395.438 83.5098 397.162 84.2731 398.746" fill="black"/>
<path opacity="0.05" d="M115.484 425.645C114.055 426.666 112.433 427.384 110.716 427.755C109 428.125 107.225 428.14 105.503 427.799C103.78 427.458 102.146 426.767 100.7 425.77C99.2542 424.773 98.028 423.491 97.0968 422.002" fill="black"/>
<path opacity="0.05" d="M160.246 358.129C160.246 358.129 172.265 364.368 172.928 381.153Z" fill="black"/>
<path opacity="0.05" d="M154.032 361.547C154.032 361.547 166.051 367.786 166.714 384.571Z" fill="black"/>
<path d="M138.049 372.434C139.549 375.157 142.973 376.149 145.697 374.649C148.42 373.148 149.411 369.724 147.911 367.001C146.411 364.278 142.987 363.287 140.263 364.787C137.54 366.287 136.549 369.711 138.049 372.434Z" fill="#CCD2DB"/>
<path d="M151.302 388.713C152.302 390.529 154.584 391.19 156.4 390.19C158.215 389.19 158.876 386.907 157.876 385.091C156.876 383.276 154.593 382.615 152.778 383.615C150.962 384.615 150.301 386.898 151.302 388.713Z" fill="#CCD2DB"/>
<path d="M136.216 389.278L137.236 389.693C137.792 389.92 138.236 390.358 138.469 390.912C138.702 391.465 138.705 392.089 138.479 392.645L133.831 404.055C133.599 404.625 133.15 405.078 132.584 405.317C132.018 405.555 131.38 405.559 130.81 405.327L127.732 404.073L133.27 390.478C133.505 389.931 133.946 389.498 134.497 389.274C135.048 389.049 135.666 389.051 136.216 389.278V389.278Z" fill="#565656"/>
<path opacity="0.05" d="M130.659 394.093L135.87 396.224L133.325 402.444C132.871 403.556 131.993 404.441 130.885 404.906C129.777 405.37 128.531 405.376 127.419 404.921L126.4 404.504L130.659 394.093Z" fill="black"/>
<path d="M116.68 372.606L121.431 381.228L111.22 386.853L106.47 378.231C105.873 377.147 105.731 375.871 106.075 374.683C106.419 373.494 107.221 372.491 108.305 371.894L110.297 370.796C110.834 370.492 111.426 370.298 112.039 370.225C112.652 370.151 113.273 370.2 113.867 370.368C114.46 370.537 115.015 370.821 115.498 371.205C115.981 371.589 116.383 372.065 116.68 372.606V372.606Z" fill="#565656"/>
<path d="M107.185 378.995L104.886 375.206C103.206 371.641 105.172 367.03 109.359 364.719L114.221 362.039L117.029 367.125L107.185 378.995Z" fill="#565656"/>
<path d="M125.453 358.458L126 359.45C126.299 359.993 126.37 360.633 126.198 361.228C126.025 361.824 125.623 362.327 125.08 362.626L116.954 367.103L114.151 362.016L122.278 357.539C122.821 357.24 123.46 357.168 124.056 357.341C124.651 357.513 125.154 357.915 125.453 358.458Z" fill="#565656"/>
<path opacity="0.05" d="M114.463 381.821C112.776 382.748 111.446 384.211 110.683 385.978L110.976 386.501L120.921 381.037C118.748 380.451 116.433 380.732 114.463 381.821V381.821Z" fill="black"/>
<path d="M121.922 405.933L117.177 397.32L127.351 391.715L132.101 400.337C132.397 400.874 132.584 401.463 132.651 402.072C132.719 402.681 132.666 403.297 132.496 403.886C132.326 404.474 132.041 405.023 131.658 405.502C131.276 405.98 130.803 406.379 130.266 406.674L128.274 407.772C127.737 408.068 127.147 408.255 126.538 408.323C125.93 408.39 125.313 408.338 124.725 408.167C124.136 407.997 123.587 407.712 123.109 407.329C122.63 406.947 122.232 406.474 121.936 405.937L121.922 405.933Z" fill="#565656"/>
<path opacity="0.05" d="M123.012 397.349C121.325 398.283 119.375 398.627 117.47 398.328L117.176 397.805L127.121 392.34C126.449 394.477 124.977 396.272 123.012 397.349V397.349Z" fill="black"/>
<path d="M111.317 393.958C113.639 398.173 118.937 399.707 123.152 397.385C127.366 395.063 128.9 389.765 126.578 385.551C124.257 381.337 118.958 379.803 114.744 382.124C110.53 384.446 108.996 389.744 111.317 393.958Z" fill="#565656"/>
<path d="M111.445 393.523C113.767 397.738 119.065 399.272 123.279 396.95C127.493 394.628 129.027 389.33 126.706 385.116C124.384 380.902 119.086 379.367 114.872 381.689C110.657 384.011 109.123 389.309 111.445 393.523Z" fill="#565656"/>
<path d="M126.813 385.115C126.076 383.776 124.999 382.654 123.69 381.863C122.381 381.072 120.887 380.64 119.358 380.61C118.571 381.918 118.141 383.41 118.111 384.937C118.082 386.463 118.454 387.971 119.19 389.308C119.927 390.645 121.002 391.766 122.308 392.557C123.614 393.348 125.105 393.781 126.631 393.815C127.422 392.508 127.856 391.016 127.888 389.489C127.919 387.962 127.549 386.454 126.813 385.115V385.115Z" fill="#EDEDED"/>
<path d="M515.041 397.067C516.896 396.044 518.268 394.327 518.856 392.292C519.445 390.258 519.202 388.074 518.18 386.219L517.326 384.666L519.172 383.655L535.631 374.582L539.213 372.612C539.713 372.335 540.128 371.928 540.414 371.434C553.634 361.059 552.342 344.799 543.694 329.103C540.799 323.637 536.955 318.731 532.34 314.613L532.523 314.508C527.583 310.105 521.995 307.412 515.889 307.196L516.183 307.719C513.096 307.59 510.012 308.017 507.076 308.98C506.749 308.859 506.399 308.81 506.051 308.837C505.702 308.863 505.364 308.965 505.058 309.134L482.526 321.551L480.709 318.248C479.686 316.394 477.969 315.022 475.935 314.433C473.901 313.845 471.716 314.088 469.861 315.109V315.109L475.576 325.435L447.786 340.748L449.71 344.249L451.634 347.75L454.526 352.993L454.474 353.071L447.783 340.922L434.412 348.198C418.233 357.116 420.379 373.605 429.425 390.576L429.504 390.628L430.068 391.672L430.146 391.724L430.661 392.634C440.181 409.442 452.938 420.091 469.189 411.121L482.397 403.787L474.63 389.698L474.682 389.62L478.644 396.811L480.461 400.114L482.499 403.804L510.332 388.52L515.041 397.067V397.067ZM488.232 327.525L488.125 327.554L488.177 327.475L488.232 327.525Z" fill="url(#paint1_linear)"/>
<path d="M507.08 383.197L478.084 330.564L451.768 345.063L480.764 397.695L507.08 383.197Z" fill="#6C8579"/>
<path d="M433.336 389.718L433.415 389.771C424.41 373.42 421.932 357.39 437.498 348.806L450.027 341.903L482.621 401.164L470.097 408.059C454.523 416.637 442.342 406.069 433.336 389.718Z" fill="#9CBEAD"/>
<path d="M427.069 373.757C428.369 379.367 430.492 384.753 433.37 389.741C435.727 394.152 438.609 398.262 441.954 401.98L447.308 399.036L431.902 371.121L427.069 373.757Z" fill="#F8F8F8"/>
<path d="M456.306 353.286L475.337 387.83L474.373 388.361C473.852 388.648 473.279 388.83 472.688 388.896C472.097 388.961 471.499 388.91 470.928 388.745C470.356 388.579 469.823 388.303 469.359 387.931C468.894 387.56 468.508 387.101 468.221 386.58L453.55 359.951C452.971 358.899 452.833 357.66 453.167 356.506C453.501 355.353 454.28 354.379 455.332 353.799L456.296 353.268L456.306 353.286Z" fill="#F8F8F8"/>
<path d="M508.794 316.25L509.502 317.535L453.582 348.343L449.96 341.768L500.582 313.88C501.276 313.495 502.04 313.252 502.829 313.163C503.618 313.074 504.416 313.142 505.179 313.362C505.942 313.582 506.654 313.95 507.274 314.446C507.894 314.941 508.411 315.554 508.794 316.25Z" fill="#9DC0AF"/>
<path d="M534.983 363.784L535.692 365.069C536.464 366.472 536.648 368.124 536.203 369.663C535.757 371.201 534.719 372.499 533.316 373.272L482.686 401.166L479.064 394.591L534.983 363.784Z" fill="#9DC0AF"/>
<path d="M517.221 382.215L484.592 323.005L500.094 314.442C517.2 305.021 531.295 314.534 540.306 330.876C549.311 347.227 549.821 364.225 532.699 373.686L517.221 382.215Z" fill="#9CBEAD"/>
<path d="M514.141 310.265L520.681 322.187L529.771 317.173C525.143 313.002 519.883 310.478 514.141 310.265Z" fill="#3A7759"/>
<path d="M543.461 363.475L536.921 351.553L546.01 346.538C547.018 352.717 546.355 358.512 543.461 363.475Z" fill="#3A7759"/>
<path d="M480.255 319.351L482.784 323.942L476.209 327.564L470.766 317.684L472.033 316.986C472.728 316.6 473.492 316.355 474.282 316.265C475.072 316.175 475.871 316.242 476.635 316.462C477.399 316.681 478.112 317.05 478.733 317.546C479.354 318.041 479.871 318.655 480.255 319.351V319.351Z" fill="#9DC0AF"/>
<path d="M513.403 394.84L507.965 384.97L514.54 381.347L517.069 385.939C517.842 387.341 518.026 388.994 517.58 390.532C517.135 392.07 516.096 393.369 514.694 394.141L513.408 394.85L513.403 394.84Z" fill="#9DC0AF"/>
<path d="M508.013 380.849L480.721 331.323L510.106 323.727C512.393 323.137 514.811 323.324 516.98 324.259C519.148 325.194 520.944 326.825 522.085 328.893L532.218 347.294C533.362 349.37 533.781 351.769 533.407 354.111C533.032 356.452 531.887 358.602 530.151 360.218L508.013 380.849Z" fill="#575958"/>
<path d="M481.554 333.252C492.455 327.241 506.766 332.311 513.527 344.582C520.288 356.853 516.901 371.644 506.023 377.658" fill="#EDEDED"/>
<path d="M506.128 381.761L478.94 332.418L483.878 329.7L484.174 334.131L506.501 374.664L511.065 379.043L506.128 381.761Z" fill="#9CBEAD"/>
<path opacity="0.05" d="M506.128 381.761L478.94 332.418L483.878 329.7L484.174 334.131L506.501 374.664L511.065 379.043L506.128 381.761Z" fill="black"/>
<path d="M492.544 357.013L488.922 350.439L482.348 354.061L485.97 360.635L492.544 357.013Z" fill="#575958"/>
<path d="M482.508 358.271C484.509 361.902 486.866 364.44 487.774 363.939C488.682 363.439 487.796 360.091 485.795 356.46C483.795 352.829 481.437 350.29 480.53 350.791C479.622 351.291 480.508 354.64 482.508 358.271Z" fill="#575958"/>
<path opacity="0.05" d="M445.031 353.24C443.4 353.9 441.923 354.887 440.69 356.141C439.456 357.395 438.493 358.888 437.86 360.529C437.226 362.169 436.936 363.922 437.006 365.68C437.077 367.437 437.507 369.161 438.271 370.745" fill="black"/>
<path opacity="0.05" d="M469.483 397.645C468.054 398.666 466.432 399.384 464.715 399.754C462.999 400.125 461.224 400.14 459.502 399.799C457.779 399.457 456.145 398.767 454.699 397.77C453.253 396.773 452.027 395.49 451.096 394.001" fill="black"/>
<path opacity="0.05" d="M514.242 330.128C514.242 330.128 526.261 336.366 526.925 353.152Z" fill="black"/>
<path opacity="0.05" d="M508.032 333.546C508.032 333.546 520.051 339.785 520.714 356.57Z" fill="black"/>
<path d="M492.048 344.434C493.548 347.157 496.972 348.148 499.696 346.648C502.419 345.148 503.41 341.724 501.91 339.001C500.41 336.277 496.986 335.286 494.263 336.786C491.539 338.287 490.548 341.71 492.048 344.434Z" fill="#CCD2DB"/>
<path d="M505.302 360.713C506.302 362.529 508.585 363.19 510.4 362.19C512.216 361.19 512.877 358.907 511.876 357.091C510.876 355.276 508.594 354.615 506.778 355.615C504.963 356.615 504.302 358.898 505.302 360.713Z" fill="#CCD2DB"/>
<path d="M490.212 361.276L491.231 361.692C491.788 361.918 492.231 362.357 492.464 362.91C492.697 363.464 492.701 364.087 492.474 364.644L487.826 376.054C487.595 376.623 487.146 377.077 486.58 377.315C486.013 377.554 485.375 377.558 484.806 377.326L481.728 376.072L487.266 362.477C487.501 361.93 487.941 361.497 488.493 361.272C489.044 361.048 489.661 361.049 490.212 361.276V361.276Z" fill="#565656"/>
<path opacity="0.05" d="M484.656 366.091L489.866 368.223L487.322 374.442C486.867 375.554 485.989 376.44 484.882 376.904C483.774 377.369 482.527 377.374 481.415 376.919L480.397 376.503L484.656 366.091Z" fill="black"/>
<path d="M470.681 344.605L475.432 353.228L465.221 358.853L460.471 350.231C459.874 349.147 459.732 347.871 460.076 346.682C460.42 345.494 461.222 344.49 462.306 343.893L464.298 342.796C464.835 342.492 465.427 342.298 466.04 342.224C466.653 342.151 467.274 342.2 467.868 342.368C468.461 342.536 469.016 342.821 469.499 343.205C469.982 343.589 470.384 344.065 470.681 344.605V344.605Z" fill="#565656"/>
<path d="M461.185 350.995L458.886 347.206C457.206 343.641 459.172 339.03 463.359 336.719L468.221 334.039L471.029 339.125L461.185 350.995Z" fill="#565656"/>
<path d="M479.452 330.457L479.999 331.449C480.298 331.992 480.369 332.632 480.197 333.227C480.024 333.823 479.622 334.326 479.079 334.625L470.953 339.102L468.15 334.015L476.277 329.538C476.82 329.239 477.459 329.167 478.055 329.34C478.65 329.512 479.153 329.914 479.452 330.457Z" fill="#565656"/>
<path opacity="0.05" d="M468.463 353.82C466.776 354.747 465.446 356.21 464.682 357.977L464.976 358.5L474.92 353.036C472.748 352.45 470.432 352.731 468.463 353.82V353.82Z" fill="black"/>
<path d="M475.92 377.932L471.175 369.319L481.349 363.714L486.099 372.336C486.395 372.872 486.582 373.462 486.65 374.071C486.717 374.68 486.664 375.296 486.494 375.884C486.324 376.473 486.039 377.022 485.656 377.5C485.274 377.979 484.801 378.377 484.264 378.673L482.272 379.771C481.735 380.066 481.145 380.253 480.537 380.321C479.928 380.389 479.311 380.336 478.723 380.166C478.134 379.995 477.585 379.711 477.107 379.328C476.628 378.945 476.23 378.472 475.934 377.936L475.92 377.932Z" fill="#565656"/>
<path opacity="0.05" d="M477.011 369.348C475.323 370.282 473.373 370.626 471.469 370.327L471.175 369.804L481.12 364.339C480.448 366.476 478.975 368.271 477.011 369.348V369.348Z" fill="black"/>
<path d="M465.315 365.957C467.637 370.171 472.935 371.706 477.15 369.384C481.364 367.062 482.898 361.764 480.576 357.55C478.255 353.335 472.956 351.801 468.742 354.123C464.528 356.445 462.994 361.743 465.315 365.957Z" fill="#565656"/>
<path d="M465.442 365.522C467.764 369.736 473.062 371.27 477.276 368.949C481.49 366.627 483.024 361.329 480.703 357.114C478.381 352.9 473.083 351.366 468.869 353.688C464.654 356.009 463.12 361.308 465.442 365.522Z" fill="#565656"/>
<path d="M480.809 357.114C480.072 355.774 478.995 354.652 477.687 353.861C476.378 353.071 474.884 352.638 473.355 352.609C472.567 353.917 472.137 355.409 472.108 356.935C472.078 358.462 472.45 359.969 473.187 361.307C473.923 362.644 474.999 363.764 476.305 364.555C477.611 365.346 479.101 365.78 480.628 365.813C481.419 364.507 481.852 363.015 481.884 361.488C481.916 359.961 481.545 358.452 480.809 357.114V357.114Z" fill="#EDEDED"/>
<defs>
<filter id="filter0_d" x="134.111" y="396.882" width="213.45" height="232.769" filterUnits="userSpaceOnUse" color-interpolation-filters="sRGB">
<feFlood flood-opacity="0" result="BackgroundImageFix"/>
<feColorMatrix in="SourceAlpha" type="matrix" values="0 0 0 0 0 0 0 0 0 0 0 0 0 0 0 0 0 0 127 0"/>
<feOffset/>
<feGaussianBlur stdDeviation="15"/>
<feColorMatrix type="matrix" values="0 0 0 0 0 0 0 0 0 0 0 0 0 0 0 0 0 0 0.25 0"/>
<feBlend mode="normal" in2="BackgroundImageFix" result="effect1_dropShadow"/>
<feBlend mode="normal" in="SourceGraphic" in2="effect1_dropShadow" result="shape"/>
</filter>
<filter id="filter1_d" x="74.7661" y="351.547" width="238.766" height="259.119" filterUnits="userSpaceOnUse" color-interpolation-filters="sRGB">
<feFlood flood-opacity="0" result="BackgroundImageFix"/>
<feColorMatrix in="SourceAlpha" type="matrix" values="0 0 0 0 0 0 0 0 0 0 0 0 0 0 0 0 0 0 127 0"/>
<feOffset/>
<feGaussianBlur stdDeviation="15"/>
<feColorMatrix type="matrix" values="0 0 0 0 0 0 0 0 0 0 0 0 0 0 0 0 0 0 0.25 0"/>
<feBlend mode="normal" in2="BackgroundImageFix" result="effect1_dropShadow"/>
<feBlend mode="normal" in="SourceGraphic" in2="effect1_dropShadow" result="shape"/>
</filter>
<filter id="filter2_d" x="107.856" y="224.155" width="193.612" height="207.777" filterUnits="userSpaceOnUse" color-interpolation-filters="sRGB">
<feFlood flood-opacity="0" result="BackgroundImageFix"/>
<feColorMatrix in="SourceAlpha" type="matrix" values="0 0 0 0 0 0 0 0 0 0 0 0 0 0 0 0 0 0 127 0"/>
<feOffset/>
<feGaussianBlur stdDeviation="15"/>
<feColorMatrix type="matrix" values="0 0 0 0 1 0 0 0 0 1 0 0 0 0 1 0 0 0 0.41 0"/>
<feBlend mode="normal" in2="BackgroundImageFix" result="effect1_dropShadow"/>
<feBlend mode="normal" in="SourceGraphic" in2="effect1_dropShadow" result="shape"/>
</filter>
<filter id="filter3_d" x="69.9258" y="213.106" width="300.245" height="309.076" filterUnits="userSpaceOnUse" color-interpolation-filters="sRGB">
<feFlood flood-opacity="0" result="BackgroundImageFix"/>
<feColorMatrix in="SourceAlpha" type="matrix" values="0 0 0 0 0 0 0 0 0 0 0 0 0 0 0 0 0 0 127 0"/>
<feOffset/>
<feGaussianBlur stdDeviation="19"/>
<feColorMatrix type="matrix" values="0 0 0 0 1 0 0 0 0 1 0 0 0 0 1 0 0 0 0.47 0"/>
<feBlend mode="normal" in2="BackgroundImageFix" result="effect1_dropShadow"/>
<feBlend mode="normal" in="SourceGraphic" in2="effect1_dropShadow" result="shape"/>
</filter>
<filter id="filter4_d" x="478.676" y="203.235" width="172.986" height="187.831" filterUnits="userSpaceOnUse" color-interpolation-filters="sRGB">
<feFlood flood-opacity="0" result="BackgroundImageFix"/>
<feColorMatrix in="SourceAlpha" type="matrix" values="0 0 0 0 0 0 0 0 0 0 0 0 0 0 0 0 0 0 127 0"/>
<feOffset/>
<feGaussianBlur stdDeviation="15"/>
<feColorMatrix type="matrix" values="0 0 0 0 1 0 0 0 0 1 0 0 0 0 1 0 0 0 0.41 0"/>
<feBlend mode="normal" in2="BackgroundImageFix" result="effect1_dropShadow"/>
<feBlend mode="normal" in="SourceGraphic" in2="effect1_dropShadow" result="shape"/>
</filter>
<filter id="filter5_d" x="489.705" y="235.056" width="183.908" height="194.174" filterUnits="userSpaceOnUse" color-interpolation-filters="sRGB">
<feFlood flood-opacity="0" result="BackgroundImageFix"/>
<feColorMatrix in="SourceAlpha" type="matrix" values="0 0 0 0 0 0 0 0 0 0 0 0 0 0 0 0 0 0 127 0"/>
<feOffset/>
<feGaussianBlur stdDeviation="15"/>
<feColorMatrix type="matrix" values="0 0 0 0 1 0 0 0 0 1 0 0 0 0 1 0 0 0 0.41 0"/>
<feBlend mode="normal" in2="BackgroundImageFix" result="effect1_dropShadow"/>
<feBlend mode="normal" in="SourceGraphic" in2="effect1_dropShadow" result="shape"/>
</filter>
<filter id="filter6_d" x="18.7637" y="346.216" width="161.288" height="171.999" filterUnits="userSpaceOnUse" color-interpolation-filters="sRGB">
<feFlood flood-opacity="0" result="BackgroundImageFix"/>
<feColorMatrix in="SourceAlpha" type="matrix" values="0 0 0 0 0 0 0 0 0 0 0 0 0 0 0 0 0 0 127 0"/>
<feOffset/>
<feGaussianBlur stdDeviation="15"/>
<feColorMatrix type="matrix" values="0 0 0 0 0 0 0 0 0 0 0 0 0 0 0 0 0 0 0.25 0"/>
<feBlend mode="normal" in2="BackgroundImageFix" result="effect1_dropShadow"/>
<feBlend mode="normal" in="SourceGraphic" in2="effect1_dropShadow" result="shape"/>
</filter>
<filter id="filter7_d" x="0.763672" y="318.216" width="161.288" height="171.999" filterUnits="userSpaceOnUse" color-interpolation-filters="sRGB">
<feFlood flood-opacity="0" result="BackgroundImageFix"/>
<feColorMatrix in="SourceAlpha" type="matrix" values="0 0 0 0 0 0 0 0 0 0 0 0 0 0 0 0 0 0 127 0"/>
<feOffset/>
<feGaussianBlur stdDeviation="15"/>
<feColorMatrix type="matrix" values="0 0 0 0 0 0 0 0 0 0 0 0 0 0 0 0 0 0 0.25 0"/>
<feBlend mode="normal" in2="BackgroundImageFix" result="effect1_dropShadow"/>
<feBlend mode="normal" in="SourceGraphic" in2="effect1_dropShadow" result="shape"/>
</filter>
<linearGradient id="paint0_linear" x1="-17326.7" y1="116656" x2="-5894.35" y2="110358" gradientUnits="userSpaceOnUse">
<stop stop-color="#808080" stop-opacity="0.25"/>
<stop offset="0.54" stop-color="#808080" stop-opacity="0.12"/>
<stop offset="1" stop-color="#808080" stop-opacity="0.1"/>
</linearGradient>
<linearGradient id="paint1_linear" x1="-16972.7" y1="116628" x2="-5540.35" y2="110330" gradientUnits="userSpaceOnUse">
<stop stop-color="#808080" stop-opacity="0.25"/>
<stop offset="0.54" stop-color="#808080" stop-opacity="0.12"/>
<stop offset="1" stop-color="#808080" stop-opacity="0.1"/>
</linearGradient>
</defs>
</svg>
