<svg width="810" height="708" viewBox="0 0 810 708" fill="none" xmlns="http://www.w3.org/2000/svg">
<g filter="url(#filter0_d)">
<path d="M312.674 470.663C262.698 498.75 214.222 527.839 169.043 556.101" stroke="#707070" stroke-opacity="0.01" stroke-width="10"/>
</g>
<g filter="url(#filter1_d)">
<path d="M278.675 432.663C219.828 464.557 162.798 497.628 109.674 529.784" stroke="#707070" stroke-opacity="0.01" stroke-width="10"/>
</g>
<g filter="url(#filter2_d)">
<path d="M145.191 405.88C113.327 423.257 82.4434 441.271 53.6743 458.784" stroke="#707070" stroke-opacity="0.01" stroke-width="10"/>
</g>
<g filter="url(#filter3_d)">
<path d="M127.191 377.88C95.3271 395.257 64.4434 413.271 35.6743 430.784" stroke="#707070" stroke-opacity="0.01" stroke-width="10"/>
</g>
<g filter="url(#filter4_d)">
<path d="M67.3408 495.705L101.241 479.079" stroke="#378D63" stroke-opacity="0.52" stroke-width="4"/>
<path d="M134.476 461.098L168.376 444.472" stroke="#378D63" stroke-opacity="0.52" stroke-width="4"/>
<path d="M266.006 396.59L299.906 379.964" stroke="#378D63" stroke-opacity="0.52" stroke-width="4"/>
<path d="M205.652 427.872L239.552 411.246" stroke="#378D63" stroke-opacity="0.52" stroke-width="4"/>
</g>
<g filter="url(#filter5_d)">
<path d="M337.459 363.441L371.358 346.816" stroke="#378D63" stroke-opacity="0.52" stroke-width="4"/>
<path d="M404.593 328.834L438.493 312.208" stroke="#378D63" stroke-opacity="0.52" stroke-width="4"/>
<path d="M536.124 264.326L570.024 247.7" stroke="#378D63" stroke-opacity="0.52" stroke-width="4"/>
<path d="M475.77 295.608L509.67 278.983" stroke="#378D63" stroke-opacity="0.52" stroke-width="4"/>
<path d="M607.301 231.1L641.201 214.474" stroke="#378D63" stroke-opacity="0.52" stroke-width="4"/>
<path d="M674.436 196.493L708.336 179.867" stroke="#378D63" stroke-opacity="0.52" stroke-width="4"/>
</g>
<g filter="url(#filter6_d)">
<path d="M216.645 556.934L250.545 540.308" stroke="#378D63" stroke-opacity="0.52" stroke-width="4"/>
<path d="M283.78 522.326L317.68 505.7" stroke="#378D63" stroke-opacity="0.52" stroke-width="4"/>
<path d="M415.31 457.817L449.21 441.192" stroke="#378D63" stroke-opacity="0.52" stroke-width="4"/>
<path d="M354.956 489.1L388.856 472.474" stroke="#378D63" stroke-opacity="0.52" stroke-width="4"/>
<path d="M486.489 424.592L520.388 407.967" stroke="#378D63" stroke-opacity="0.52" stroke-width="4"/>
</g>
<g filter="url(#filter7_d)">
<path d="M546.538 394.795L580.438 378.17" stroke="#378D63" stroke-opacity="0.52" stroke-width="4"/>
<path d="M613.674 360.188L647.574 343.563" stroke="#378D63" stroke-opacity="0.52" stroke-width="4"/>
<path d="M684.851 326.963L718.751 310.337" stroke="#378D63" stroke-opacity="0.52" stroke-width="4"/>
<path d="M751.985 292.354L785.884 275.729" stroke="#378D63" stroke-opacity="0.52" stroke-width="4"/>
</g>
<path d="M161.041 425.067C162.896 424.044 164.268 422.327 164.856 420.293C165.445 418.259 165.202 416.074 164.18 414.219L163.326 412.667L165.172 411.655L181.631 402.583L185.213 400.612C185.713 400.336 186.128 399.929 186.414 399.435C199.634 389.059 198.342 372.8 189.694 357.103C186.799 351.638 182.955 346.731 178.34 342.613L178.523 342.509C173.583 338.106 167.995 335.412 161.889 335.196L162.183 335.72C159.096 335.59 156.012 336.017 153.076 336.98C152.749 336.86 152.399 336.811 152.051 336.837C151.702 336.864 151.364 336.965 151.058 337.134L128.526 349.552L126.709 346.249C125.686 344.395 123.969 343.022 121.935 342.434C119.901 341.845 117.716 342.088 115.861 343.11L121.576 353.435L93.7856 368.749L95.7099 372.25L97.6342 375.751L100.526 380.993L100.474 381.072L93.7827 368.923L80.4125 376.199C64.2332 385.117 66.3794 401.606 75.4253 418.576L75.5038 418.628L76.0677 419.672L76.1463 419.725L76.6608 420.635C86.1806 437.442 98.9376 448.092 115.189 439.121L128.397 431.788L120.63 417.699L120.682 417.621L124.644 424.812L126.461 428.115L128.499 431.805L156.332 416.521L161.041 425.067ZM134.232 355.525L134.125 355.554L134.177 355.476L134.232 355.525Z" fill="url(#paint0_linear)"/>
<path d="M153.083 411.199L124.087 358.566L97.7705 373.064L126.767 425.697L153.083 411.199Z" fill="#6C8579"/>
<path d="M79.3409 417.721L79.4194 417.773C70.4142 401.422 67.9364 385.392 83.502 376.809L96.0319 369.905L128.626 429.166L116.102 436.061C100.527 444.639 88.3462 434.071 79.3409 417.721Z" fill="#9CBEAD"/>
<path d="M73.0674 401.757C74.3675 407.367 76.4909 412.753 79.3687 417.741C81.7257 422.152 84.6081 426.262 87.953 429.98L93.3063 427.036L77.9003 399.121L73.0674 401.757Z" fill="#F8F8F8"/>
<path d="M102.306 381.287L121.337 415.831L120.372 416.362C119.852 416.649 119.279 416.83 118.688 416.896C118.097 416.962 117.499 416.911 116.927 416.745C116.356 416.58 115.823 416.303 115.359 415.932C114.894 415.561 114.507 415.101 114.22 414.58L99.5504 387.952C98.9708 386.9 98.8329 385.661 99.1669 384.507C99.501 383.353 100.279 382.379 101.332 381.8L102.296 381.269L102.306 381.287Z" fill="#F8F8F8"/>
<path d="M154.795 344.251L155.504 345.536L99.584 376.344L95.9619 369.769L146.583 341.881C147.278 341.496 148.042 341.253 148.831 341.164C149.619 341.075 150.418 341.143 151.181 341.363C151.944 341.583 152.656 341.951 153.276 342.447C153.896 342.942 154.412 343.555 154.795 344.251Z" fill="#9DC0AF"/>
<path d="M180.985 391.784L181.693 393.07C182.466 394.473 182.65 396.125 182.204 397.663C181.759 399.202 180.721 400.5 179.318 401.273L128.687 429.166L125.065 422.592L180.985 391.784Z" fill="#9DC0AF"/>
<path d="M163.225 410.217L130.596 351.008L146.098 342.444C163.205 333.023 177.299 342.536 186.31 358.878C195.316 375.229 195.825 392.227 178.703 401.688L163.225 410.217Z" fill="#9CBEAD"/>
<path d="M160.145 338.267L166.686 350.189L175.776 345.175C171.147 341.004 165.888 338.48 160.145 338.267Z" fill="#3A7759"/>
<path d="M189.462 391.475L182.922 379.553L192.011 374.539C193.019 380.718 192.356 386.513 189.462 391.475Z" fill="#3A7759"/>
<path d="M126.256 347.352L128.786 351.943L122.211 355.566L116.768 345.685L118.035 344.987C118.73 344.601 119.494 344.356 120.284 344.266C121.073 344.176 121.873 344.243 122.637 344.463C123.401 344.683 124.113 345.051 124.735 345.547C125.356 346.043 125.873 346.656 126.256 347.352Z" fill="#9DC0AF"/>
<path d="M159.407 422.842L153.969 412.971L160.543 409.349L163.073 413.94C163.846 415.343 164.03 416.995 163.584 418.534C163.139 420.072 162.1 421.37 160.698 422.143L159.412 422.851L159.407 422.842Z" fill="#9DC0AF"/>
<path d="M154.013 408.85L126.721 359.324L156.106 351.728C158.393 351.137 160.811 351.324 162.98 352.26C165.148 353.195 166.944 354.825 168.085 356.893L178.218 375.294C179.362 377.371 179.781 379.77 179.407 382.111C179.032 384.453 177.887 386.602 176.151 388.218L154.013 408.85Z" fill="#575958"/>
<path d="M127.556 361.253C138.457 355.242 152.768 360.312 159.529 372.583C166.29 384.854 162.903 399.645 152.025 405.659" fill="#EDEDED"/>
<path d="M152.129 409.762L124.942 360.419L129.88 357.701L130.175 362.133L152.503 402.665L157.067 407.045L152.129 409.762Z" fill="#9CBEAD"/>
<path opacity="0.05" d="M152.129 409.762L124.942 360.419L129.88 357.701L130.175 362.133L152.503 402.665L157.067 407.045L152.129 409.762Z" fill="black"/>
<path d="M138.548 385.014L134.926 378.44L128.351 382.062L131.973 388.636L138.548 385.014Z" fill="#575958"/>
<path d="M128.511 386.272C130.511 389.903 132.869 392.441 133.777 391.941C134.684 391.441 133.799 388.092 131.798 384.461C129.798 380.83 127.44 378.292 126.533 378.792C125.625 379.292 126.511 382.641 128.511 386.272Z" fill="#575958"/>
<path opacity="0.05" d="M91.0331 381.241C89.403 381.901 87.9257 382.889 86.6923 384.142C85.4588 385.396 84.4956 386.889 83.862 388.53C83.2285 390.171 82.9382 391.924 83.0089 393.681C83.0796 395.438 83.5099 397.162 84.2732 398.747" fill="black"/>
<path opacity="0.05" d="M115.484 425.645C114.056 426.667 112.433 427.385 110.716 427.755C109 428.125 107.225 428.141 105.503 427.799C103.78 427.458 102.146 426.768 100.7 425.771C99.2546 424.774 98.0284 423.491 97.0972 422.002" fill="black"/>
<path opacity="0.05" d="M160.246 358.129C160.246 358.129 172.265 364.368 172.928 381.153L160.246 358.129Z" fill="black"/>
<path opacity="0.05" d="M154.032 361.547C154.032 361.547 166.051 367.786 166.714 384.571L154.032 361.547Z" fill="black"/>
<path d="M138.049 372.434C139.549 375.158 142.973 376.149 145.697 374.649C148.42 373.148 149.411 369.725 147.911 367.001C146.411 364.278 142.987 363.287 140.263 364.787C137.54 366.287 136.549 369.711 138.049 372.434Z" fill="#CCD2DB"/>
<path d="M151.302 388.714C152.302 390.529 154.584 391.19 156.4 390.19C158.215 389.19 158.876 386.907 157.876 385.092C156.876 383.276 154.593 382.615 152.778 383.616C150.962 384.616 150.301 386.898 151.302 388.714Z" fill="#CCD2DB"/>
<path d="M136.216 389.278L137.235 389.693C137.792 389.92 138.235 390.358 138.468 390.912C138.702 391.465 138.705 392.089 138.479 392.645L133.831 404.055C133.599 404.625 133.15 405.078 132.584 405.317C132.017 405.555 131.379 405.559 130.81 405.327L127.732 404.073L133.27 390.478C133.505 389.931 133.945 389.498 134.497 389.274C135.048 389.049 135.666 389.051 136.216 389.278Z" fill="#565656"/>
<path opacity="0.05" d="M130.659 394.093L135.87 396.224L133.326 402.444C132.871 403.556 131.993 404.441 130.885 404.906C129.778 405.37 128.531 405.376 127.419 404.921L126.4 404.504L130.659 394.093Z" fill="black"/>
<path d="M116.68 372.606L121.43 381.228L111.22 386.853L106.47 378.231C105.873 377.147 105.73 375.871 106.075 374.682C106.419 373.494 107.221 372.491 108.305 371.894L110.297 370.796C110.834 370.492 111.426 370.298 112.039 370.225C112.652 370.151 113.273 370.2 113.866 370.368C114.46 370.537 115.015 370.821 115.497 371.205C115.98 371.589 116.382 372.065 116.68 372.606Z" fill="#565656"/>
<path d="M107.185 378.996L104.886 375.207C103.206 371.642 105.172 367.03 109.359 364.72L114.221 362.039L117.029 367.125L107.185 378.996Z" fill="#565656"/>
<path d="M125.454 358.458L126 359.45C126.299 359.993 126.37 360.633 126.198 361.228C126.025 361.824 125.623 362.326 125.08 362.626L116.954 367.103L114.152 362.016L122.278 357.539C122.821 357.24 123.46 357.168 124.056 357.341C124.652 357.513 125.154 357.915 125.454 358.458Z" fill="#565656"/>
<path opacity="0.05" d="M114.463 381.82C112.776 382.748 111.446 384.211 110.683 385.978L110.976 386.501L120.921 381.036C118.748 380.451 116.433 380.732 114.463 381.82Z" fill="black"/>
<path d="M121.922 405.933L117.177 397.32L127.351 391.715L132.101 400.337C132.397 400.874 132.584 401.463 132.651 402.072C132.719 402.681 132.666 403.297 132.496 403.886C132.326 404.474 132.041 405.023 131.658 405.502C131.276 405.98 130.803 406.379 130.266 406.674L128.274 407.772C127.737 408.068 127.147 408.255 126.538 408.322C125.93 408.39 125.313 408.337 124.725 408.167C124.136 407.997 123.587 407.712 123.109 407.329C122.63 406.947 122.232 406.474 121.936 405.937L121.922 405.933Z" fill="#565656"/>
<path opacity="0.05" d="M123.012 397.349C121.325 398.283 119.375 398.627 117.47 398.328L117.177 397.805L127.121 392.34C126.45 394.477 124.977 396.272 123.012 397.349Z" fill="black"/>
<path d="M111.317 393.958C113.639 398.172 118.937 399.707 123.152 397.385C127.366 395.063 128.9 389.765 126.578 385.551C124.257 381.336 118.958 379.802 114.744 382.124C110.53 384.446 108.996 389.744 111.317 393.958Z" fill="#565656"/>
<path d="M111.445 393.523C113.767 397.737 119.065 399.271 123.279 396.95C127.493 394.628 129.027 389.33 126.706 385.116C124.384 380.901 119.086 379.367 114.872 381.689C110.657 384.011 109.123 389.309 111.445 393.523Z" fill="#565656"/>
<path d="M126.813 385.115C126.076 383.776 124.999 382.654 123.69 381.863C122.381 381.072 120.887 380.64 119.358 380.61C118.571 381.918 118.141 383.41 118.111 384.937C118.082 386.463 118.454 387.971 119.19 389.308C119.927 390.645 121.002 391.766 122.308 392.557C123.614 393.348 125.105 393.782 126.631 393.815C127.422 392.508 127.856 391.017 127.888 389.489C127.919 387.962 127.549 386.454 126.813 385.115Z" fill="#EDEDED"/>
<path d="M425.367 434.405C427.221 433.382 428.593 431.664 429.181 429.63C429.77 427.596 429.527 425.412 428.506 423.557L427.651 422.004L429.497 420.992L445.956 411.92L449.538 409.95C450.038 409.673 450.453 409.266 450.739 408.772C463.959 398.397 462.667 382.137 454.02 366.441C451.125 360.975 447.28 356.068 442.665 351.951L442.848 351.846C437.909 347.443 432.321 344.75 426.215 344.534L426.508 345.057C423.422 344.928 420.337 345.355 417.401 346.318C417.074 346.197 416.724 346.148 416.376 346.175C416.028 346.201 415.689 346.303 415.384 346.472L392.851 358.889L391.034 355.586C390.011 353.732 388.294 352.36 386.26 351.771C384.226 351.183 382.041 351.426 380.186 352.447L385.901 362.773L358.111 378.086L360.035 381.587L361.959 385.088L364.852 390.331L364.799 390.409L358.108 378.26L344.738 385.536C328.558 394.454 330.705 410.943 339.751 427.914L339.829 427.966L340.393 429.01L340.471 429.062L340.986 429.972C350.506 446.78 363.263 457.429 379.515 448.459L392.722 441.125L384.955 427.036L385.007 426.958L388.969 434.149L390.786 437.452L392.824 441.142L420.658 425.858L425.367 434.405ZM398.557 364.862L398.45 364.892L398.502 364.813L398.557 364.862Z" fill="url(#paint1_linear)"/>
<path d="M417.406 420.535L388.409 367.902L362.093 382.401L391.09 435.033L417.406 420.535Z" fill="#6C8579"/>
<path d="M343.662 427.056L343.74 427.109C334.735 410.758 332.257 394.728 347.823 386.144L360.353 379.24L392.947 438.502L380.422 445.397C364.848 453.975 352.667 443.407 343.662 427.056Z" fill="#9CBEAD"/>
<path d="M337.394 411.095C338.694 416.705 340.817 422.091 343.695 427.079C346.052 431.49 348.935 435.6 352.279 439.318L357.633 436.374L342.227 408.459L337.394 411.095Z" fill="#F8F8F8"/>
<path d="M366.631 390.625L385.662 425.168L384.698 425.699C384.177 425.986 383.605 426.168 383.014 426.234C382.422 426.299 381.824 426.248 381.253 426.083C380.682 425.917 380.149 425.641 379.684 425.27C379.22 424.898 378.833 424.439 378.546 423.918L363.876 397.289C363.296 396.237 363.158 394.998 363.492 393.844C363.826 392.691 364.605 391.717 365.657 391.137L366.621 390.606L366.631 390.625Z" fill="#F8F8F8"/>
<path d="M419.119 353.588L419.827 354.873L363.907 385.681L360.285 379.106L410.907 351.218C411.602 350.833 412.365 350.59 413.154 350.501C413.943 350.412 414.742 350.48 415.504 350.7C416.267 350.92 416.979 351.288 417.599 351.784C418.219 352.279 418.736 352.892 419.119 353.588Z" fill="#9DC0AF"/>
<path d="M445.309 401.122L446.017 402.407C446.79 403.81 446.974 405.462 446.528 407C446.083 408.539 445.045 409.837 443.642 410.61L393.011 438.503L389.389 431.929L445.309 401.122Z" fill="#9DC0AF"/>
<path d="M427.546 419.553L394.918 360.343L410.419 351.78C427.526 342.359 441.621 351.872 450.632 368.214C459.637 384.565 460.146 401.563 443.025 411.024L427.546 419.553Z" fill="#9CBEAD"/>
<path d="M424.466 347.603L431.006 359.525L440.096 354.511C435.468 350.34 430.209 347.816 424.466 347.603Z" fill="#3A7759"/>
<path d="M453.786 400.813L447.246 388.891L456.336 383.876C457.344 390.055 456.68 395.85 453.786 400.813Z" fill="#3A7759"/>
<path d="M390.58 356.689L393.109 361.28L386.535 364.902L381.092 355.022L382.359 354.324C383.054 353.938 383.818 353.693 384.607 353.603C385.397 353.513 386.197 353.58 386.961 353.8C387.724 354.019 388.437 354.388 389.058 354.884C389.679 355.379 390.197 355.993 390.58 356.689Z" fill="#9DC0AF"/>
<path d="M423.728 432.178L418.29 422.307L424.865 418.685L427.394 423.276C428.167 424.679 428.351 426.331 427.905 427.87C427.46 429.408 426.422 430.706 425.019 431.479L423.733 432.187L423.728 432.178Z" fill="#9DC0AF"/>
<path d="M418.338 418.187L391.046 368.661L420.432 361.065C422.718 360.475 425.137 360.662 427.305 361.597C429.474 362.532 431.27 364.163 432.41 366.231L442.543 384.632C443.688 386.708 444.106 389.107 443.732 391.449C443.358 393.79 442.212 395.94 440.477 397.556L418.338 418.187Z" fill="#575958"/>
<path d="M391.879 370.59C402.78 364.579 417.091 369.649 423.852 381.92C430.613 394.191 427.227 408.982 416.348 414.996" fill="#EDEDED"/>
<path d="M416.453 419.099L389.266 369.756L394.203 367.038L394.499 371.469L416.826 412.002L421.391 416.381L416.453 419.099Z" fill="#9CBEAD"/>
<path opacity="0.05" d="M416.453 419.099L389.266 369.756L394.203 367.038L394.499 371.469L416.826 412.002L421.391 416.381L416.453 419.099Z" fill="black"/>
<path d="M402.87 394.351L399.248 387.777L392.673 391.399L396.295 397.973L402.87 394.351Z" fill="#575958"/>
<path d="M392.833 395.608C394.834 399.239 397.191 401.777 398.099 401.277C399.007 400.777 398.121 397.428 396.121 393.797C394.12 390.166 391.763 387.628 390.855 388.128C389.947 388.628 390.833 391.977 392.833 395.608Z" fill="#575958"/>
<path opacity="0.05" d="M355.356 390.578C353.725 391.238 352.248 392.225 351.015 393.479C349.781 394.733 348.818 396.226 348.184 397.866C347.551 399.507 347.261 401.26 347.331 403.017C347.402 404.775 347.832 406.499 348.596 408.083" fill="black"/>
<path opacity="0.05" d="M379.808 434.982C378.379 436.004 376.757 436.722 375.04 437.092C373.324 437.463 371.549 437.478 369.827 437.136C368.104 436.795 366.469 436.105 365.024 435.108C363.578 434.111 362.352 432.828 361.421 431.339" fill="black"/>
<path opacity="0.05" d="M424.568 367.465C424.568 367.465 436.587 373.704 437.25 390.49L424.568 367.465Z" fill="black"/>
<path opacity="0.05" d="M418.357 370.884C418.357 370.884 430.376 377.123 431.039 393.908L418.357 370.884Z" fill="black"/>
<path d="M402.373 381.772C403.873 384.495 407.297 385.486 410.02 383.986C412.744 382.486 413.735 379.062 412.235 376.339C410.735 373.615 407.311 372.624 404.587 374.124C401.864 375.624 400.873 379.048 402.373 381.772Z" fill="#CCD2DB"/>
<path d="M415.627 398.051C416.627 399.867 418.91 400.528 420.725 399.527C422.541 398.527 423.202 396.245 422.201 394.429C421.201 392.614 418.919 391.953 417.103 392.953C415.288 393.953 414.627 396.236 415.627 398.051Z" fill="#CCD2DB"/>
<path d="M400.537 398.614L401.557 399.03C402.113 399.256 402.557 399.695 402.79 400.248C403.023 400.802 403.026 401.425 402.8 401.982L398.152 413.392C397.92 413.961 397.472 414.415 396.905 414.653C396.339 414.892 395.701 414.895 395.131 414.664L392.053 413.41L397.591 399.815C397.826 399.267 398.267 398.835 398.818 398.61C399.369 398.386 399.987 398.387 400.537 398.614Z" fill="#565656"/>
<path opacity="0.05" d="M394.981 403.429L400.191 405.561L397.647 411.78C397.192 412.892 396.315 413.777 395.207 414.242C394.099 414.706 392.852 414.712 391.741 414.257L390.722 413.84L394.981 403.429Z" fill="black"/>
<path d="M381.007 381.943L385.757 390.566L375.546 396.191L370.796 387.569C370.199 386.485 370.057 385.209 370.401 384.02C370.745 382.832 371.547 381.828 372.631 381.231L374.624 380.134C375.161 379.83 375.753 379.636 376.365 379.562C376.978 379.489 377.599 379.538 378.193 379.706C378.787 379.874 379.341 380.159 379.824 380.543C380.307 380.927 380.709 381.403 381.007 381.943Z" fill="#565656"/>
<path d="M371.51 388.333L369.211 384.544C367.531 380.979 369.497 376.368 373.684 374.057L378.546 371.377L381.354 376.463L371.51 388.333Z" fill="#565656"/>
<path d="M389.777 367.795L390.324 368.787C390.623 369.33 390.694 369.97 390.522 370.565C390.349 371.161 389.947 371.663 389.404 371.963L381.278 376.44L378.475 371.353L386.602 366.876C387.145 366.577 387.784 366.505 388.38 366.678C388.976 366.85 389.478 367.252 389.777 367.795Z" fill="#565656"/>
<path opacity="0.05" d="M378.787 391.158C377.101 392.085 375.771 393.548 375.007 395.315L375.301 395.838L385.245 390.374C383.072 389.788 380.757 390.069 378.787 391.158Z" fill="black"/>
<path d="M386.245 415.27L381.5 406.657L391.674 401.052L396.424 409.674C396.72 410.211 396.907 410.8 396.974 411.409C397.042 412.018 396.989 412.634 396.819 413.223C396.649 413.811 396.364 414.36 395.981 414.839C395.599 415.317 395.126 415.716 394.589 416.011L392.597 417.109C392.06 417.404 391.47 417.592 390.861 417.659C390.253 417.727 389.636 417.674 389.048 417.504C388.459 417.333 387.91 417.049 387.432 416.666C386.953 416.284 386.555 415.81 386.259 415.274L386.245 415.27Z" fill="#565656"/>
<path opacity="0.05" d="M387.336 406.686C385.649 407.619 383.699 407.964 381.794 407.665L381.5 407.142L391.445 401.677C390.773 403.814 389.301 405.609 387.336 406.686Z" fill="black"/>
<path d="M375.641 403.295C377.963 407.509 383.261 409.043 387.475 406.722C391.689 404.4 393.223 399.102 390.902 394.888C388.58 390.673 383.282 389.139 379.068 391.461C374.853 393.783 373.319 399.081 375.641 403.295Z" fill="#565656"/>
<path d="M375.767 402.86C378.089 407.074 383.387 408.608 387.602 406.286C391.816 403.965 393.35 398.666 391.028 394.452C388.707 390.238 383.408 388.704 379.194 391.026C374.98 393.347 373.446 398.646 375.767 402.86Z" fill="#565656"/>
<path d="M391.134 394.452C390.397 393.112 389.32 391.99 388.011 391.199C386.703 390.408 385.209 389.976 383.68 389.947C382.892 391.255 382.462 392.747 382.433 394.273C382.403 395.8 382.775 397.307 383.512 398.644C384.248 399.982 385.324 401.102 386.63 401.893C387.935 402.684 389.426 403.118 390.953 403.151C391.744 401.845 392.177 400.353 392.209 398.826C392.241 397.299 391.87 395.79 391.134 394.452Z" fill="#EDEDED"/>
<g filter="url(#filter8_d)">
<path d="M534 298.469C498.312 318.248 463.526 338.769 431 358.727" stroke="white" stroke-opacity="0.01" stroke-width="10"/>
</g>
<g filter="url(#filter9_d)">
<path d="M556.001 336.469C516.408 354.119 477.922 372.621 442.001 390.727" stroke="white" stroke-opacity="0.01" stroke-width="10"/>
</g>
<g filter="url(#filter10_d)">
<path d="M269.188 295.1C226.584 316.94 185.157 339.67 146.482 361.82" stroke="white" stroke-opacity="0.01" stroke-width="10"/>
</g>
<g filter="url(#filter11_d)">
<path d="M302.644 314.923C231.85 348.303 163.502 383.064 99.9998 416.947" stroke="white" stroke-opacity="0.01" stroke-width="14"/>
</g>
<defs>
<filter id="filter0_d" x="136.391" y="436.304" width="208.732" height="154.036" filterUnits="userSpaceOnUse" color-interpolation-filters="sRGB">
<feFlood flood-opacity="0" result="BackgroundImageFix"/>
<feColorMatrix in="SourceAlpha" type="matrix" values="0 0 0 0 0 0 0 0 0 0 0 0 0 0 0 0 0 0 127 0"/>
<feOffset/>
<feGaussianBlur stdDeviation="15"/>
<feColorMatrix type="matrix" values="0 0 0 0 0 0 0 0 0 0 0 0 0 0 0 0 0 0 0.25 0"/>
<feBlend mode="normal" in2="BackgroundImageFix" result="effect1_dropShadow"/>
<feBlend mode="normal" in="SourceGraphic" in2="effect1_dropShadow" result="shape"/>
</filter>
<filter id="filter1_d" x="77.0845" y="398.267" width="233.973" height="165.794" filterUnits="userSpaceOnUse" color-interpolation-filters="sRGB">
<feFlood flood-opacity="0" result="BackgroundImageFix"/>
<feColorMatrix in="SourceAlpha" type="matrix" values="0 0 0 0 0 0 0 0 0 0 0 0 0 0 0 0 0 0 127 0"/>
<feOffset/>
<feGaussianBlur stdDeviation="15"/>
<feColorMatrix type="matrix" values="0 0 0 0 0 0 0 0 0 0 0 0 0 0 0 0 0 0 0.25 0"/>
<feBlend mode="normal" in2="BackgroundImageFix" result="effect1_dropShadow"/>
<feBlend mode="normal" in="SourceGraphic" in2="effect1_dropShadow" result="shape"/>
</filter>
<filter id="filter2_d" x="21.0742" y="371.49" width="156.511" height="121.565" filterUnits="userSpaceOnUse" color-interpolation-filters="sRGB">
<feFlood flood-opacity="0" result="BackgroundImageFix"/>
<feColorMatrix in="SourceAlpha" type="matrix" values="0 0 0 0 0 0 0 0 0 0 0 0 0 0 0 0 0 0 127 0"/>
<feOffset/>
<feGaussianBlur stdDeviation="15"/>
<feColorMatrix type="matrix" values="0 0 0 0 0 0 0 0 0 0 0 0 0 0 0 0 0 0 0.25 0"/>
<feBlend mode="normal" in2="BackgroundImageFix" result="effect1_dropShadow"/>
<feBlend mode="normal" in="SourceGraphic" in2="effect1_dropShadow" result="shape"/>
</filter>
<filter id="filter3_d" x="3.07422" y="343.49" width="156.511" height="121.565" filterUnits="userSpaceOnUse" color-interpolation-filters="sRGB">
<feFlood flood-opacity="0" result="BackgroundImageFix"/>
<feColorMatrix in="SourceAlpha" type="matrix" values="0 0 0 0 0 0 0 0 0 0 0 0 0 0 0 0 0 0 127 0"/>
<feOffset/>
<feGaussianBlur stdDeviation="15"/>
<feColorMatrix type="matrix" values="0 0 0 0 0 0 0 0 0 0 0 0 0 0 0 0 0 0 0.25 0"/>
<feBlend mode="normal" in2="BackgroundImageFix" result="effect1_dropShadow"/>
<feBlend mode="normal" in="SourceGraphic" in2="effect1_dropShadow" result="shape"/>
</filter>
<filter id="filter4_d" x="55.46" y="367.168" width="256.326" height="141.333" filterUnits="userSpaceOnUse" color-interpolation-filters="sRGB">
<feFlood flood-opacity="0" result="BackgroundImageFix"/>
<feColorMatrix in="SourceAlpha" type="matrix" values="0 0 0 0 0 0 0 0 0 0 0 0 0 0 0 0 0 0 127 0"/>
<feOffset/>
<feGaussianBlur stdDeviation="5.5"/>
<feColorMatrix type="matrix" values="0 0 0 0 0.215686 0 0 0 0 0.552941 0 0 0 0 0.388235 0 0 0 0.57 0"/>
<feBlend mode="normal" in2="BackgroundImageFix" result="effect1_dropShadow"/>
<feBlend mode="normal" in="SourceGraphic" in2="effect1_dropShadow" result="shape"/>
</filter>
<filter id="filter5_d" x="325.578" y="167.071" width="394.638" height="209.165" filterUnits="userSpaceOnUse" color-interpolation-filters="sRGB">
<feFlood flood-opacity="0" result="BackgroundImageFix"/>
<feColorMatrix in="SourceAlpha" type="matrix" values="0 0 0 0 0 0 0 0 0 0 0 0 0 0 0 0 0 0 127 0"/>
<feOffset/>
<feGaussianBlur stdDeviation="5.5"/>
<feColorMatrix type="matrix" values="0 0 0 0 0.215686 0 0 0 0 0.552941 0 0 0 0 0.388235 0 0 0 0.57 0"/>
<feBlend mode="normal" in2="BackgroundImageFix" result="effect1_dropShadow"/>
<feBlend mode="normal" in="SourceGraphic" in2="effect1_dropShadow" result="shape"/>
</filter>
<filter id="filter6_d" x="204.764" y="395.171" width="327.505" height="174.558" filterUnits="userSpaceOnUse" color-interpolation-filters="sRGB">
<feFlood flood-opacity="0" result="BackgroundImageFix"/>
<feColorMatrix in="SourceAlpha" type="matrix" values="0 0 0 0 0 0 0 0 0 0 0 0 0 0 0 0 0 0 127 0"/>
<feOffset/>
<feGaussianBlur stdDeviation="5.5"/>
<feColorMatrix type="matrix" values="0 0 0 0 0.215686 0 0 0 0 0.552941 0 0 0 0 0.388235 0 0 0 0.57 0"/>
<feBlend mode="normal" in2="BackgroundImageFix" result="effect1_dropShadow"/>
<feBlend mode="normal" in="SourceGraphic" in2="effect1_dropShadow" result="shape"/>
</filter>
<filter id="filter7_d" x="534.657" y="262.933" width="263.107" height="144.657" filterUnits="userSpaceOnUse" color-interpolation-filters="sRGB">
<feFlood flood-opacity="0" result="BackgroundImageFix"/>
<feColorMatrix in="SourceAlpha" type="matrix" values="0 0 0 0 0 0 0 0 0 0 0 0 0 0 0 0 0 0 127 0"/>
<feOffset/>
<feGaussianBlur stdDeviation="5.5"/>
<feColorMatrix type="matrix" values="0 0 0 0 0.215686 0 0 0 0 0.552941 0 0 0 0 0.388235 0 0 0 0.57 0"/>
<feBlend mode="normal" in2="BackgroundImageFix" result="effect1_dropShadow"/>
<feBlend mode="normal" in="SourceGraphic" in2="effect1_dropShadow" result="shape"/>
</filter>
<filter id="filter8_d" x="396.002" y="234.572" width="172.986" height="187.831" filterUnits="userSpaceOnUse" color-interpolation-filters="sRGB">
<feFlood flood-opacity="0" result="BackgroundImageFix"/>
<feColorMatrix in="SourceAlpha" type="matrix" values="0 0 0 0 0 0 0 0 0 0 0 0 0 0 0 0 0 0 127 0"/>
<feOffset/>
<feGaussianBlur stdDeviation="15"/>
<feColorMatrix type="matrix" values="0 0 0 0 1 0 0 0 0 1 0 0 0 0 1 0 0 0 0.41 0"/>
<feBlend mode="normal" in2="BackgroundImageFix" result="effect1_dropShadow"/>
<feBlend mode="normal" in="SourceGraphic" in2="effect1_dropShadow" result="shape"/>
</filter>
<filter id="filter9_d" x="407.032" y="266.394" width="183.908" height="194.174" filterUnits="userSpaceOnUse" color-interpolation-filters="sRGB">
<feFlood flood-opacity="0" result="BackgroundImageFix"/>
<feColorMatrix in="SourceAlpha" type="matrix" values="0 0 0 0 0 0 0 0 0 0 0 0 0 0 0 0 0 0 127 0"/>
<feOffset/>
<feGaussianBlur stdDeviation="15"/>
<feColorMatrix type="matrix" values="0 0 0 0 1 0 0 0 0 1 0 0 0 0 1 0 0 0 0.41 0"/>
<feBlend mode="normal" in2="BackgroundImageFix" result="effect1_dropShadow"/>
<feBlend mode="normal" in="SourceGraphic" in2="effect1_dropShadow" result="shape"/>
</filter>
<filter id="filter10_d" x="111.505" y="224.604" width="192.632" height="207.481" filterUnits="userSpaceOnUse" color-interpolation-filters="sRGB">
<feFlood flood-opacity="0" result="BackgroundImageFix"/>
<feColorMatrix in="SourceAlpha" type="matrix" values="0 0 0 0 0 0 0 0 0 0 0 0 0 0 0 0 0 0 127 0"/>
<feOffset/>
<feGaussianBlur stdDeviation="15"/>
<feColorMatrix type="matrix" values="0 0 0 0 1 0 0 0 0 1 0 0 0 0 1 0 0 0 0.41 0"/>
<feBlend mode="normal" in2="BackgroundImageFix" result="effect1_dropShadow"/>
<feBlend mode="normal" in="SourceGraphic" in2="effect1_dropShadow" result="shape"/>
</filter>
<filter id="filter11_d" x="60.3477" y="219.583" width="281.832" height="292.377" filterUnits="userSpaceOnUse" color-interpolation-filters="sRGB">
<feFlood flood-opacity="0" result="BackgroundImageFix"/>
<feColorMatrix in="SourceAlpha" type="matrix" values="0 0 0 0 0 0 0 0 0 0 0 0 0 0 0 0 0 0 127 0"/>
<feOffset/>
<feGaussianBlur stdDeviation="16.5"/>
<feColorMatrix type="matrix" values="0 0 0 0 1 0 0 0 0 1 0 0 0 0 1 0 0 0 0.43 0"/>
<feBlend mode="normal" in2="BackgroundImageFix" result="effect1_dropShadow"/>
<feBlend mode="normal" in="SourceGraphic" in2="effect1_dropShadow" result="shape"/>
</filter>
<linearGradient id="paint0_linear" x1="-17326.7" y1="116656" x2="-5894.35" y2="110358" gradientUnits="userSpaceOnUse">
<stop stop-color="#808080" stop-opacity="0.25"/>
<stop offset="0.54" stop-color="#808080" stop-opacity="0.12"/>
<stop offset="1" stop-color="#808080" stop-opacity="0.1"/>
</linearGradient>
<linearGradient id="paint1_linear" x1="-17062.3" y1="116666" x2="-5630.03" y2="110367" gradientUnits="userSpaceOnUse">
<stop stop-color="#808080" stop-opacity="0.25"/>
<stop offset="0.54" stop-color="#808080" stop-opacity="0.12"/>
<stop offset="1" stop-color="#808080" stop-opacity="0.1"/>
</linearGradient>
</defs>
</svg>
