<svg width="422" height="365" viewBox="0 0 422 365" fill="none" xmlns="http://www.w3.org/2000/svg">
<line x1="79.2847" y1="198.569" x2="96.7294" y2="180.662" stroke="#378D63" stroke-width="4"/>
<line x1="113.458" y1="162.056" x2="130.903" y2="144.149" stroke="#378D63" stroke-width="4"/>
<line x1="146.97" y1="129.088" x2="164.415" y2="111.18" stroke="#378D63" stroke-width="4"/>
<line x1="181.144" y1="92.575" x2="198.588" y2="74.6674" stroke="#378D63" stroke-width="4"/>
<line x1="150.459" y1="125.506" x2="167.904" y2="107.599" stroke="#378D63" stroke-width="4"/>
<line x1="184.632" y1="88.9935" x2="202.077" y2="71.0859" stroke="#378D63" stroke-width="4"/>
<line x1="218.145" y1="56.025" x2="235.589" y2="38.1174" stroke="#378D63" stroke-width="4"/>
<line x1="252.318" y1="19.512" x2="269.763" y2="1.60443" stroke="#378D63" stroke-width="4"/>
<line x1="127.285" y1="363.569" x2="144.729" y2="345.662" stroke="#378D63" stroke-width="4"/>
<line x1="161.458" y1="327.056" x2="178.903" y2="309.149" stroke="#378D63" stroke-width="4"/>
<line x1="194.97" y1="294.088" x2="212.415" y2="276.18" stroke="#378D63" stroke-width="4"/>
<line x1="229.144" y1="257.575" x2="246.588" y2="239.667" stroke="#378D63" stroke-width="4"/>
<line x1="198.459" y1="290.506" x2="215.904" y2="272.599" stroke="#378D63" stroke-width="4"/>
<line x1="232.632" y1="253.994" x2="250.077" y2="236.086" stroke="#378D63" stroke-width="4"/>
<line x1="266.145" y1="221.025" x2="283.589" y2="203.117" stroke="#378D63" stroke-width="4"/>
<line x1="296.97" y1="189.088" x2="314.415" y2="171.18" stroke="#378D63" stroke-width="4"/>
<line x1="331.144" y1="152.575" x2="348.588" y2="134.667" stroke="#378D63" stroke-width="4"/>
<line x1="300.459" y1="185.506" x2="317.904" y2="167.599" stroke="#378D63" stroke-width="4"/>
<line x1="334.632" y1="148.994" x2="352.077" y2="131.086" stroke="#378D63" stroke-width="4"/>
<line x1="368.145" y1="116.025" x2="385.589" y2="98.1174" stroke="#378D63" stroke-width="4"/>
<line x1="402.318" y1="79.512" x2="419.763" y2="61.6044" stroke="#378D63" stroke-width="4"/>
<path d="M71.186 250.065C72.1148 249.015 72.5887 247.638 72.5035 246.239C72.4182 244.839 71.7808 243.531 70.7312 242.601L69.853 241.823L70.7796 240.782L79.0266 231.463L80.8226 229.438C81.0728 229.154 81.2412 228.808 81.3097 228.436C87.247 219.026 82.8257 209.173 73.9418 201.306C70.9209 198.541 67.4318 196.336 63.6379 194.795L63.7289 194.689C59.6693 193.041 55.5853 192.604 51.7292 193.827L52.0287 194.088C50.0748 194.694 48.2459 195.646 46.6294 196.9C46.3982 196.897 46.1692 196.945 45.958 197.039C45.7467 197.133 45.5582 197.271 45.4052 197.444L34.1138 210.2L32.2462 208.544C31.1959 207.615 29.8198 207.141 28.4204 207.226C27.0209 207.311 25.7125 207.949 24.7828 208.998V208.998L30.6431 214.167L16.7168 229.897L18.6955 231.653L20.6742 233.409L23.6439 236.035L23.6287 236.096L16.7538 230.007L10.0333 237.518C1.92611 246.678 6.93154 256.484 16.347 265.056L16.4076 265.071L16.9914 265.597L17.052 265.612L17.5753 266.065C27.2501 274.43 37.5744 278.235 45.7153 269.027L52.3213 261.516L44.3443 254.456L44.3595 254.396L48.4296 258L50.2972 259.656L52.3886 261.504L66.3487 245.782L71.186 250.065V250.065ZM39.0012 212.656L38.9406 212.698L38.9557 212.637L39.0012 212.656Z" fill="url(#paint0_linear)"/>
<path d="M63.1386 243.185L33.3501 216.808L20.1617 231.703L49.9503 258.079L63.1386 243.185Z" fill="#6C8579"/>
<path d="M18.5966 263.652L18.6572 263.667C9.40484 255.472 4.29477 246.026 12.0936 237.211L18.3727 230.119L51.8791 259.83L45.6016 266.915C37.7961 275.728 27.849 271.846 18.5966 263.652Z" fill="#9CBEAD"/>
<path d="M11.1368 255.091C13.1951 258.3 15.7172 261.188 18.6212 263.658C21.0721 265.885 23.7837 267.807 26.6967 269.383L29.3805 266.356L13.5645 252.372L11.1368 255.091Z" fill="#F8F8F8"/>
<path d="M24.818 235.822L44.3687 253.134L43.8855 253.679C43.6245 253.974 43.3079 254.215 42.9539 254.387C42.5999 254.56 42.2154 254.661 41.8223 254.685C41.4292 254.709 41.0353 254.655 40.663 254.526C40.2907 254.398 39.9474 254.198 39.6525 253.937L24.5816 240.592C23.9862 240.065 23.6246 239.322 23.5764 238.529C23.5281 237.735 23.7972 236.954 24.3244 236.359L24.8076 235.813L24.818 235.822Z" fill="#F8F8F8"/>
<path d="M49.3176 201.052L50.0452 201.696L22.0211 233.345L18.3001 230.05L43.6691 201.4C44.0168 201.006 44.4389 200.684 44.9112 200.453C45.3834 200.222 45.8965 200.087 46.4212 200.054C46.9458 200.022 47.4717 200.093 47.9687 200.265C48.4657 200.436 48.9241 200.703 49.3176 201.052Z" fill="#9DC0AF"/>
<path d="M76.2222 224.872L76.9497 225.517C77.7436 226.22 78.2258 227.209 78.2901 228.268C78.3544 229.326 77.9956 230.367 77.2926 231.161L51.9191 259.816L48.1981 256.521L76.2222 224.872Z" fill="#9DC0AF"/>
<path d="M69.2435 240.318L35.727 210.647L43.4905 201.859C52.0643 192.179 62.9701 194.978 72.2241 203.166C81.4765 211.36 85.5741 221.848 77.0003 231.556L69.2435 240.318Z" fill="#9CBEAD"/>
<path d="M51.3222 196.13L58.0524 202.111L62.6063 196.962C58.7925 195.391 54.9509 194.986 51.3222 196.13Z" fill="#3A7759"/>
<path d="M81.4415 222.795L74.7113 216.814L79.2653 211.665C81.268 215.294 82.1426 219.056 81.4415 222.795Z" fill="#3A7759"/>
<path d="M32.2092 209.332L34.8077 211.633L31.5129 215.354L25.921 210.403L26.5561 209.686C26.9036 209.29 27.3256 208.968 27.7981 208.736C28.2705 208.504 28.7841 208.368 29.3093 208.335C29.8345 208.303 30.3611 208.374 30.8587 208.545C31.3563 208.716 31.8153 208.984 32.2092 209.332V209.332Z" fill="#9DC0AF"/>
<path d="M69.6711 249.041L64.0844 244.094L67.3792 240.373L69.9777 242.674C70.7716 243.377 71.2537 244.366 71.318 245.425C71.3823 246.483 71.0235 247.524 70.3205 248.318L69.6763 249.045L69.6711 249.041Z" fill="#9DC0AF"/>
<path d="M63.1967 241.514L35.162 216.695L51.7993 205.423C53.0942 204.547 54.644 204.125 56.2045 204.226C57.765 204.327 59.2475 204.945 60.4186 205.981L70.8303 215.204C72.006 216.244 72.8005 217.647 73.0877 219.191C73.3749 220.734 73.1384 222.33 72.4156 223.723L63.1967 241.514Z" fill="#575958"/>
<path d="M36.111 217.713C41.573 211.54 51.6254 211.519 58.571 217.669C65.5166 223.818 66.6936 233.796 61.2467 239.966" fill="#EDEDED"/>
<path d="M62.2244 242.502L34.2957 217.774L36.7707 214.981L37.9406 217.679L60.8789 237.992L64.6994 239.709L62.2244 242.502Z" fill="#9CBEAD"/>
<path opacity="0.05" d="M62.2244 242.502L34.2957 217.774L36.7707 214.981L37.9406 217.679L60.8789 237.992L64.6994 239.709L62.2244 242.502Z" fill="black"/>
<path d="M48.2498 230.088L44.5288 226.793L41.234 230.514L44.955 233.809L48.2498 230.088Z" fill="#575958"/>
<path d="M42.2699 233.104C44.3249 234.924 46.3596 235.982 46.8145 235.468C47.2695 234.955 45.9723 233.063 43.9173 231.243C41.8622 229.424 39.8275 228.365 39.3726 228.879C38.9177 229.393 40.2148 231.284 42.2699 233.104Z" fill="#575958"/>
<path opacity="0.05" d="M17.7779 238.301C16.9081 239.075 16.2063 240.019 15.7159 241.075C15.2254 242.132 14.9568 243.277 14.9265 244.441C14.8963 245.605 15.105 246.763 15.5399 247.843C15.9748 248.924 16.6266 249.903 17.455 250.722" fill="black"/>
<path opacity="0.05" d="M42.9014 260.557C42.2376 261.511 41.3853 262.32 40.3971 262.933C39.4089 263.545 38.3057 263.949 37.1554 264.12C36.0052 264.29 34.8323 264.223 33.709 263.922C32.5857 263.622 31.5357 263.095 30.6239 262.373" fill="black"/>
<path opacity="0.05" d="M55.8034 208.495C55.8034 208.495 64.6866 209.713 68.8331 220.034Z" fill="black"/>
<path opacity="0.05" d="M52.6892 212.008C52.6892 212.008 61.5724 213.226 65.7189 223.547Z" fill="black"/>
<path d="M45.142 222.353C46.6833 223.718 49.0391 223.574 50.4038 222.033C51.7686 220.492 51.6255 218.136 50.0842 216.771C48.5429 215.407 46.1871 215.55 44.8224 217.091C43.4576 218.632 43.6007 220.988 45.142 222.353Z" fill="#CCD2DB"/>
<path d="M57.0281 229.558C58.0556 230.468 59.6262 230.373 60.536 229.345C61.4458 228.318 61.3504 226.747 60.3229 225.838C59.2954 224.928 57.7248 225.023 56.815 226.051C55.9052 227.078 56.0006 228.649 57.0281 229.558Z" fill="#CCD2DB"/>
<path d="M47.7429 233.265L48.4711 233.297C48.8685 233.315 49.2426 233.49 49.5111 233.783C49.7796 234.077 49.9205 234.465 49.9029 234.862L49.5415 243.012C49.5235 243.418 49.3447 243.801 49.0445 244.076C48.7443 244.351 48.3472 244.495 47.9407 244.477L45.742 244.379L46.1726 234.669C46.1973 234.275 46.376 233.908 46.6699 233.645C46.9637 233.382 47.3492 233.246 47.7429 233.265V233.265Z" fill="#565656"/>
<path opacity="0.05" d="M45.3491 237.504L49.0727 237.674L48.869 242.119C48.8326 242.913 48.4821 243.661 47.8946 244.197C47.3071 244.733 46.5307 245.014 45.7362 244.977L45.0082 244.944L45.3491 237.504Z" fill="black"/>
<path d="M31.8533 227.212L36.7332 231.533L31.6161 237.312L26.7363 232.991C26.1229 232.447 25.7504 231.683 25.7008 230.865C25.6511 230.048 25.9283 229.244 26.4714 228.63L27.4699 227.502C27.7373 227.194 28.0634 226.941 28.4292 226.759C28.795 226.577 29.1932 226.469 29.6009 226.442C30.0086 226.415 30.4176 226.469 30.8042 226.601C31.1908 226.733 31.5474 226.941 31.8533 227.212V227.212Z" fill="#565656"/>
<path d="M27.3527 233.308L25.0761 231.457C23.2355 229.607 23.4363 226.294 25.5339 223.921L27.9701 221.169L30.8523 223.716L27.3527 233.308Z" fill="#565656"/>
<path d="M34.1779 216.437L34.7392 216.934C35.0466 217.206 35.2332 217.59 35.2581 217.999C35.283 218.409 35.1441 218.812 34.8719 219.119L30.7995 223.719L27.9204 221.169L31.9929 216.57C32.265 216.263 32.6481 216.076 33.0579 216.051C33.4677 216.026 33.8706 216.165 34.1779 216.437Z" fill="#565656"/>
<path opacity="0.05" d="M32.5194 233.452C31.6737 234.405 31.1695 235.613 31.0861 236.885L31.3856 237.146L36.3726 231.526C34.8872 231.644 33.5057 232.335 32.5194 233.452V233.452Z" fill="black"/>
<path d="M42.5333 246.831L37.6586 242.515L42.7572 236.756L47.6371 241.077C47.9408 241.346 48.1885 241.672 48.3662 242.037C48.5439 242.402 48.648 242.798 48.6726 243.203C48.6972 243.608 48.6418 244.013 48.5096 244.397C48.3773 244.78 48.1709 245.134 47.902 245.438L46.9034 246.565C46.6345 246.869 46.3084 247.117 45.9437 247.295C45.5791 247.472 45.183 247.576 44.7781 247.601C44.3732 247.626 43.9674 247.57 43.5839 247.438C43.2005 247.306 42.8468 247.099 42.5431 246.83L42.5333 246.831Z" fill="#565656"/>
<path opacity="0.05" d="M41.3046 241.235C40.46 242.192 39.3204 242.841 38.066 243.078L37.7665 242.817L42.7534 237.197C42.8097 238.68 42.2906 240.127 41.3046 241.235V241.235Z" fill="black"/>
<path d="M33.2566 241.721C35.6417 243.833 39.2873 243.611 41.3992 241.226C43.5111 238.841 43.2896 235.196 40.9045 233.084C38.5194 230.972 34.8739 231.193 32.762 233.578C30.65 235.964 30.8715 239.609 33.2566 241.721Z" fill="#565656"/>
<path d="M33.239 241.421C35.6241 243.533 39.2697 243.312 41.3816 240.927C43.4935 238.542 43.2721 234.896 40.887 232.784C38.5019 230.672 34.8563 230.894 32.7444 233.279C30.6325 235.664 30.8539 239.309 33.239 241.421Z" fill="#565656"/>
<path d="M40.9537 232.76C40.1961 232.089 39.2749 231.629 38.2828 231.426C37.2908 231.224 36.2629 231.287 35.3029 231.608C35.1025 232.599 35.166 233.625 35.487 234.584C35.8081 235.543 36.3754 236.4 37.1322 237.07C37.889 237.74 38.8087 238.2 39.7991 238.403C40.7894 238.606 41.8157 238.545 42.7751 238.226C42.978 237.235 42.9164 236.209 42.5967 235.249C42.277 234.29 41.7104 233.431 40.9537 232.76V232.76Z" fill="#EDEDED"/>
<path d="M255.386 274.209C256.315 273.158 256.789 271.782 256.704 270.383C256.618 268.983 255.981 267.675 254.931 266.745L254.053 265.967L254.98 264.925L263.227 255.607L265.023 253.582C265.273 253.298 265.441 252.952 265.51 252.58C271.447 243.17 267.026 233.317 258.142 225.45C255.121 222.685 251.632 220.48 247.838 218.939L247.929 218.833C243.869 217.185 239.785 216.748 235.929 217.971L236.229 218.232C234.275 218.838 232.446 219.79 230.83 221.044C230.598 221.041 230.369 221.089 230.158 221.183C229.947 221.277 229.758 221.415 229.605 221.588L218.314 234.344L216.446 232.688C215.396 231.759 214.02 231.285 212.621 231.37C211.221 231.455 209.913 232.093 208.983 233.142V233.142L214.843 238.311L200.917 254.041L202.896 255.797L204.874 257.553L207.844 260.179L207.829 260.24L200.954 254.151L194.233 261.662C186.126 270.822 191.132 280.628 200.547 289.2L200.608 289.215L201.192 289.741L201.252 289.756L201.775 290.209C211.45 298.574 221.775 302.379 229.915 293.171L236.521 285.66L228.544 278.6L228.56 278.54L232.63 282.143L234.497 283.8L236.589 285.648L250.549 269.926L255.386 274.209V274.209ZM223.201 236.8L223.141 236.842L223.156 236.781L223.201 236.8Z" fill="url(#paint1_linear)"/>
<path d="M247.339 267.329L217.55 240.952L204.362 255.847L234.15 282.223L247.339 267.329Z" fill="#6C8579"/>
<path d="M202.797 287.796L202.857 287.811C193.605 279.616 188.495 270.17 196.294 261.355L202.573 254.263L236.079 283.974L229.802 291.059C221.996 299.872 212.049 295.99 202.797 287.796Z" fill="#9CBEAD"/>
<path d="M195.337 279.235C197.395 282.444 199.917 285.332 202.821 287.802C205.272 290.029 207.984 291.951 210.897 293.526L213.581 290.5L197.765 276.516L195.337 279.235Z" fill="#F8F8F8"/>
<path d="M209.018 259.966L228.569 277.278L228.086 277.823C227.825 278.118 227.508 278.359 227.154 278.531C226.8 278.704 226.416 278.805 226.022 278.829C225.629 278.853 225.236 278.799 224.863 278.67C224.491 278.542 224.148 278.342 223.853 278.081L208.782 264.736C208.186 264.209 207.825 263.466 207.777 262.673C207.728 261.879 207.997 261.098 208.525 260.503L209.008 259.957L209.018 259.966Z" fill="#F8F8F8"/>
<path d="M233.518 225.196L234.245 225.84L206.221 257.489L202.5 254.194L227.869 225.544C228.217 225.15 228.639 224.828 229.111 224.597C229.584 224.366 230.097 224.231 230.621 224.198C231.146 224.166 231.672 224.237 232.169 224.409C232.666 224.58 233.124 224.847 233.518 225.196Z" fill="#9DC0AF"/>
<path d="M260.422 249.016L261.15 249.661C261.944 250.364 262.426 251.353 262.49 252.412C262.555 253.47 262.196 254.511 261.493 255.305L236.119 283.96L232.398 280.665L260.422 249.016Z" fill="#9DC0AF"/>
<path d="M253.444 264.462L219.927 234.791L227.691 226.003C236.265 216.323 247.17 219.122 256.424 227.31C265.677 235.504 269.774 245.992 261.2 255.7L253.444 264.462Z" fill="#9CBEAD"/>
<path d="M235.522 220.274L242.253 226.255L246.807 221.106C242.993 219.535 239.151 219.13 235.522 220.274Z" fill="#3A7759"/>
<path d="M265.642 246.939L258.912 240.958L263.465 235.809C265.468 239.438 266.343 243.2 265.642 246.939Z" fill="#3A7759"/>
<path d="M216.409 233.476L219.008 235.777L215.713 239.498L210.121 234.547L210.756 233.83C211.104 233.434 211.526 233.112 211.998 232.88C212.471 232.648 212.984 232.512 213.51 232.479C214.035 232.447 214.561 232.518 215.059 232.689C215.557 232.86 216.015 233.128 216.409 233.476V233.476Z" fill="#9DC0AF"/>
<path d="M253.871 273.185L248.285 268.238L251.579 264.517L254.178 266.818C254.972 267.521 255.454 268.51 255.518 269.569C255.582 270.627 255.224 271.668 254.521 272.462L253.876 273.189L253.871 273.185Z" fill="#9DC0AF"/>
<path d="M247.397 265.658L219.362 240.839L235.999 229.567C237.294 228.69 238.844 228.269 240.405 228.37C241.965 228.471 243.448 229.089 244.619 230.125L255.03 239.348C256.206 240.388 257.001 241.791 257.288 243.335C257.575 244.878 257.339 246.473 256.616 247.867L247.397 265.658Z" fill="#575958"/>
<path d="M220.311 241.857C225.773 235.684 235.826 235.663 242.771 241.813C249.717 247.962 250.894 257.94 245.447 264.11" fill="#EDEDED"/>
<path d="M246.425 266.646L218.496 241.918L220.971 239.125L222.141 241.823L245.079 262.136L248.9 263.852L246.425 266.646Z" fill="#9CBEAD"/>
<path opacity="0.05" d="M246.425 266.646L218.496 241.918L220.971 239.125L222.141 241.823L245.079 262.136L248.9 263.852L246.425 266.646Z" fill="black"/>
<path d="M232.45 254.232L228.729 250.937L225.434 254.658L229.155 257.953L232.45 254.232Z" fill="#575958"/>
<path d="M226.47 257.248C228.525 259.068 230.56 260.126 231.015 259.612C231.47 259.099 230.173 257.207 228.117 255.387C226.062 253.568 224.028 252.509 223.573 253.023C223.118 253.537 224.415 255.428 226.47 257.248Z" fill="#575958"/>
<path opacity="0.05" d="M201.978 262.445C201.108 263.219 200.407 264.163 199.916 265.219C199.426 266.276 199.157 267.421 199.127 268.585C199.096 269.749 199.305 270.907 199.74 271.987C200.175 273.068 200.827 274.047 201.655 274.866" fill="black"/>
<path opacity="0.05" d="M227.102 284.701C226.438 285.655 225.585 286.464 224.597 287.077C223.609 287.689 222.506 288.093 221.356 288.264C220.205 288.434 219.033 288.367 217.909 288.066C216.786 287.766 215.736 287.239 214.824 286.517" fill="black"/>
<path opacity="0.05" d="M240.004 232.639C240.004 232.639 248.887 233.857 253.033 244.178Z" fill="black"/>
<path opacity="0.05" d="M236.889 236.152C236.889 236.152 245.773 237.37 249.919 247.691Z" fill="black"/>
<path d="M229.342 246.497C230.883 247.862 233.239 247.718 234.604 246.177C235.969 244.636 235.826 242.28 234.284 240.915C232.743 239.551 230.387 239.694 229.023 241.235C227.658 242.776 227.801 245.132 229.342 246.497Z" fill="#CCD2DB"/>
<path d="M241.228 253.702C242.256 254.612 243.826 254.517 244.736 253.489C245.646 252.462 245.551 250.891 244.523 249.982C243.496 249.072 241.925 249.167 241.015 250.195C240.105 251.222 240.201 252.793 241.228 253.702Z" fill="#CCD2DB"/>
<path d="M231.943 257.409L232.671 257.441C233.069 257.459 233.443 257.634 233.711 257.927C233.98 258.221 234.121 258.609 234.103 259.006L233.742 267.156C233.724 267.562 233.545 267.945 233.245 268.22C232.944 268.494 232.547 268.639 232.141 268.621L229.942 268.523L230.373 258.813C230.398 258.419 230.576 258.052 230.87 257.789C231.164 257.526 231.549 257.39 231.943 257.409V257.409Z" fill="#565656"/>
<path opacity="0.05" d="M229.549 261.648L233.273 261.818L233.069 266.263C233.033 267.057 232.682 267.805 232.095 268.341C231.507 268.877 230.731 269.158 229.936 269.121L229.208 269.088L229.549 261.648Z" fill="black"/>
<path d="M216.053 251.356L220.933 255.677L215.816 261.456L210.936 257.135C210.323 256.591 209.951 255.827 209.901 255.009C209.851 254.192 210.128 253.388 210.672 252.774L211.67 251.646C211.938 251.338 212.264 251.085 212.629 250.903C212.995 250.721 213.393 250.613 213.801 250.586C214.209 250.559 214.618 250.613 215.004 250.745C215.391 250.877 215.748 251.085 216.053 251.356V251.356Z" fill="#565656"/>
<path d="M211.553 257.452L209.276 255.601C207.436 253.751 207.637 250.438 209.734 248.065L212.17 245.313L215.052 247.86L211.553 257.452Z" fill="#565656"/>
<path d="M218.378 240.581L218.939 241.078C219.247 241.35 219.433 241.734 219.458 242.143C219.483 242.553 219.344 242.956 219.072 243.263L215 247.863L212.121 245.313L216.193 240.714C216.465 240.407 216.848 240.22 217.258 240.195C217.668 240.17 218.071 240.309 218.378 240.581Z" fill="#565656"/>
<path opacity="0.05" d="M216.72 257.596C215.874 258.549 215.37 259.757 215.286 261.029L215.586 261.29L220.573 255.67C219.087 255.788 217.706 256.479 216.72 257.596V257.596Z" fill="black"/>
<path d="M226.733 270.975L221.859 266.659L226.957 260.9L231.837 265.221C232.141 265.49 232.389 265.816 232.566 266.181C232.744 266.546 232.848 266.942 232.873 267.347C232.897 267.752 232.842 268.157 232.71 268.541C232.578 268.924 232.371 269.278 232.102 269.582L231.104 270.709C230.835 271.013 230.509 271.261 230.144 271.439C229.779 271.616 229.383 271.72 228.978 271.745C228.573 271.77 228.168 271.714 227.784 271.582C227.401 271.45 227.047 271.243 226.743 270.974L226.733 270.975Z" fill="#565656"/>
<path opacity="0.05" d="M225.505 265.379C224.66 266.336 223.521 266.985 222.266 267.222L221.967 266.961L226.954 261.341C227.01 262.824 226.491 264.271 225.505 265.379V265.379Z" fill="black"/>
<path d="M217.457 265.865C219.842 267.977 223.487 267.755 225.599 265.37C227.711 262.985 227.49 259.34 225.105 257.228C222.72 255.116 219.074 255.337 216.962 257.722C214.85 260.108 215.072 263.753 217.457 265.865Z" fill="#565656"/>
<path d="M217.439 265.565C219.824 267.677 223.47 267.456 225.582 265.071C227.694 262.686 227.472 259.04 225.087 256.928C222.702 254.816 219.057 255.038 216.945 257.423C214.833 259.808 215.054 263.453 217.439 265.565Z" fill="#565656"/>
<path d="M225.154 256.904C224.396 256.233 223.475 255.773 222.483 255.57C221.491 255.368 220.463 255.431 219.503 255.752C219.303 256.743 219.366 257.769 219.687 258.728C220.008 259.687 220.576 260.544 221.332 261.214C222.089 261.884 223.009 262.344 223.999 262.547C224.99 262.75 226.016 262.689 226.975 262.37C227.178 261.379 227.117 260.353 226.797 259.393C226.477 258.434 225.911 257.575 225.154 256.904V256.904Z" fill="#EDEDED"/>
<defs>
<linearGradient id="paint0_linear" x1="15012.5" y1="76628" x2="20741.8" y2="70157.6" gradientUnits="userSpaceOnUse">
<stop stop-color="#808080" stop-opacity="0.25"/>
<stop offset="0.54" stop-color="#808080" stop-opacity="0.12"/>
<stop offset="1" stop-color="#808080" stop-opacity="0.1"/>
</linearGradient>
<linearGradient id="paint1_linear" x1="15196.7" y1="76652.1" x2="20926" y2="70181.8" gradientUnits="userSpaceOnUse">
<stop stop-color="#808080" stop-opacity="0.25"/>
<stop offset="0.54" stop-color="#808080" stop-opacity="0.12"/>
<stop offset="1" stop-color="#808080" stop-opacity="0.1"/>
</linearGradient>
</defs>
</svg>
