<svg width="1419" height="1614" viewBox="0 0 1419 1614" fill="none" xmlns="http://www.w3.org/2000/svg">
<g filter="url(#filter0_d)">
<path d="M688.568 903.3C721.212 873.976 811.446 792.769 850.552 763.717M1383.55 441.8C1343.39 462.433 1281.63 494.929 1210.05 535.242M1114.05 590.753C1059.73 623.034 1003.06 658.284 948.052 695.128M629.886 965.081C590.872 1008.65 552.443 1055.5 515.36 1103.58M466.151 1169.08C426.646 1223 389.205 1277.27 354.859 1329.08M309.306 1399.08C264.31 1469.5 226.708 1532.12 199.568 1578.58" stroke="#378D63" stroke-opacity="0.4" stroke-width="20"/>
</g>
<g filter="url(#filter1_d)">
<path d="M597.368 550.411C632.917 524.687 731.199 453.43 773.146 428.656M1337.07 164.634C1294.96 180.925 1230.13 206.739 1154.7 239.294M1053.39 284.391C995.969 310.774 935.906 339.863 877.324 370.712M532.509 605.672C489.125 644.888 445.977 687.441 404.039 731.347M348.209 791.303C303.247 840.768 260.302 890.795 220.693 938.699M168.024 1003.51C115.865 1068.8 71.8802 1127.12 40 1170.47" stroke="#378D63" stroke-opacity="0.4" stroke-width="20"/>
</g>
<path d="M944.02 620.875C947.382 618.753 949.763 615.384 950.642 611.507C951.52 607.63 950.823 603.562 948.704 600.199L946.931 597.383L950.279 595.284L980.121 576.463L986.617 572.374C987.523 571.801 988.256 570.992 988.737 570.035C1012.36 549.13 1008.15 518.801 990.207 490.341C984.178 480.418 976.43 471.647 967.326 464.44L967.658 464.224C957.915 456.518 947.145 452.088 935.678 452.358L936.286 453.307C930.487 453.405 924.753 454.546 919.359 456.675C918.731 456.485 918.07 456.433 917.421 456.521C916.771 456.609 916.148 456.836 915.594 457.187L874.738 482.948L870.969 476.959C868.847 473.597 865.477 471.215 861.6 470.337C857.723 469.459 853.656 470.156 850.292 472.275L862.143 490.994L811.755 522.763L815.748 529.111L819.741 535.46L825.741 544.966L825.651 545.118L811.769 523.09L787.516 538.203C758.181 556.703 764.025 587.368 782.853 618.172L783.006 618.261L784.178 620.155L784.331 620.245L785.396 621.893C805.094 652.339 830.178 670.888 859.644 652.281L883.585 637.077L867.472 611.533L867.561 611.38L875.781 624.419L879.551 630.408L883.777 637.098L934.251 605.38L944.02 620.875ZM886.093 493.512L885.895 493.578L885.984 493.425L886.093 493.512Z" fill="url(#paint0_linear)"/>
<path d="M927.578 595.765L867.42 500.333L819.704 530.411L879.861 625.844L927.578 595.765Z" fill="#6C8579"/>
<path d="M790.087 616.133L790.24 616.223C771.557 586.575 765.142 556.808 793.365 539.002L816.083 524.679L883.715 632.137L861.006 646.443C832.767 664.239 808.771 645.78 790.087 616.133Z" fill="#9CBEAD"/>
<path d="M776.58 586.914C779.637 597.284 784.211 607.144 790.156 616.173C795.06 624.18 800.916 631.563 807.596 638.162L817.303 632.052L785.346 581.439L776.58 586.914Z" fill="#F8F8F8"/>
<path d="M829.11 545.32L868.592 607.954L866.844 609.056C865.9 609.651 864.847 610.055 863.747 610.243C862.646 610.432 861.519 610.402 860.431 610.155C859.342 609.908 858.312 609.449 857.401 608.804C856.489 608.16 855.713 607.342 855.118 606.397L824.683 558.115C823.48 556.207 823.085 553.9 823.583 551.701C824.082 549.502 825.434 547.591 827.341 546.389L829.089 545.287L829.11 545.32Z" fill="#F8F8F8"/>
<path d="M923.379 470.109L924.849 472.44L823.456 536.355L815.942 524.434L907.728 466.575C908.987 465.778 910.391 465.237 911.86 464.984C913.328 464.73 914.833 464.768 916.286 465.097C917.74 465.425 919.115 466.037 920.332 466.897C921.549 467.757 922.585 468.849 923.379 470.109Z" fill="#9DC0AF"/>
<path d="M977.716 556.297L979.185 558.628C980.788 561.171 981.315 564.248 980.651 567.18C979.986 570.112 978.184 572.66 975.64 574.263L883.837 632.132L876.323 620.211L977.716 556.297Z" fill="#9DC0AF"/>
<path d="M946.464 592.801L878.773 485.445L906.878 467.684C937.896 448.138 965.361 464.408 984.055 494.038C1002.74 523.685 1005.57 555.484 974.529 575.108L946.464 592.801Z" fill="#9CBEAD"/>
<path d="M932.747 458.305L946.321 479.925L962.802 469.524C953.668 462.22 943.532 458.07 932.747 458.305Z" fill="#3A7759"/>
<path d="M993.576 554.784L980.002 533.164L996.483 522.763C999.055 534.231 998.451 545.164 993.576 554.784Z" fill="#3A7759"/>
<path d="M870.239 479.075L875.487 487.4L863.566 494.914L852.273 477L854.571 475.552C855.83 474.752 857.235 474.208 858.705 473.952C860.175 473.696 861.681 473.733 863.137 474.06C864.592 474.388 865.969 474.999 867.188 475.86C868.407 476.72 869.444 477.813 870.239 479.075Z" fill="#9DC0AF"/>
<path d="M940.712 616.886L929.43 598.988L941.351 591.474L946.598 599.799C948.201 602.342 948.729 605.418 948.064 608.35C947.399 611.282 945.597 613.83 943.053 615.434L940.723 616.903L940.712 616.886Z" fill="#9DC0AF"/>
<path d="M929.057 591.261L872.437 501.461L926.668 483.979C930.888 482.62 935.441 482.703 939.608 484.216C943.776 485.729 947.322 488.586 949.687 492.336L970.711 525.7C973.085 529.465 974.135 533.916 973.692 538.345C973.249 542.774 971.34 546.929 968.266 550.149L929.057 591.261Z" fill="#575958"/>
<path d="M874.208 504.982C893.974 492.512 921.353 500.432 935.38 522.682C949.407 544.932 944.694 573.024 924.973 585.497" fill="#EDEDED"/>
<path d="M925.632 593.179L869.229 503.712L878.182 498.072L879.226 506.344L925.547 579.837L934.585 587.54L925.632 593.179Z" fill="#9CBEAD"/>
<path opacity="0.05" d="M925.632 593.179L869.229 503.712L878.182 498.072L879.226 506.344L925.547 579.837L934.585 587.54L925.632 593.179Z" fill="black"/>
<path d="M897.434 548.299L889.92 536.378L877.999 543.893L885.513 555.814L897.434 548.299Z" fill="#575958"/>
<path d="M878.769 551.766C882.919 558.35 887.618 562.846 889.264 561.808C890.91 560.771 888.88 554.592 884.73 548.009C880.58 541.425 875.881 536.929 874.235 537.967C872.589 539.004 874.619 545.182 878.769 551.766Z" fill="#575958"/>
<path opacity="0.05" d="M807.983 546.48C805.001 547.898 802.341 549.911 800.168 552.397C797.995 554.883 796.355 557.788 795.349 560.933C794.343 564.077 793.993 567.395 794.32 570.68C794.646 573.966 795.643 577.149 797.249 580.034" fill="black"/>
<path opacity="0.05" d="M858.703 626.992C856.139 629.064 853.177 630.589 850.001 631.473C846.825 632.357 843.502 632.581 840.236 632.132C836.97 631.683 833.83 630.569 831.011 628.861C828.191 627.152 825.752 624.884 823.842 622.197" fill="black"/>
<path opacity="0.05" d="M935.127 495.516C935.127 495.516 958.341 505.879 961.439 537.263L935.127 495.516Z" fill="black"/>
<path opacity="0.05" d="M923.865 502.609C923.865 502.609 947.078 512.972 950.176 544.356L923.865 502.609Z" fill="black"/>
<path d="M895.118 524.78C898.23 529.718 904.756 531.197 909.694 528.085C914.632 524.972 916.111 518.446 912.999 513.508C909.886 508.571 903.36 507.091 898.422 510.204C893.485 513.316 892.005 519.842 895.118 524.78Z" fill="#CCD2DB"/>
<path d="M921.752 553.824C923.827 557.116 928.177 558.102 931.469 556.027C934.761 553.952 935.747 549.601 933.672 546.309C931.597 543.018 927.246 542.031 923.955 544.106C920.663 546.181 919.677 550.532 921.752 553.824Z" fill="#CCD2DB"/>
<path d="M893.535 556.546L895.492 557.212C896.559 557.575 897.439 558.347 897.937 559.359C898.435 560.371 898.511 561.539 898.147 562.607L890.698 584.504C890.326 585.596 889.536 586.496 888.501 587.005C887.465 587.515 886.27 587.592 885.178 587.221L879.27 585.211L888.147 559.121C888.526 558.07 889.304 557.21 890.313 556.728C891.321 556.247 892.479 556.181 893.535 556.546Z" fill="#565656"/>
<path opacity="0.05" d="M883.654 566.183L893.654 569.601L889.573 581.538C888.844 583.672 887.297 585.429 885.272 586.422C883.248 587.414 880.912 587.563 878.778 586.833L876.823 586.165L883.654 566.183Z" fill="black"/>
<path d="M855.085 527.46L864.94 543.093L846.426 554.764L836.571 539.13C835.332 537.165 834.925 534.789 835.439 532.524C835.952 530.258 837.345 528.29 839.31 527.051L842.922 524.774C843.895 524.145 844.983 523.716 846.124 523.51C847.264 523.305 848.433 523.328 849.564 523.578C850.696 523.828 851.766 524.299 852.713 524.966C853.661 525.632 854.467 526.48 855.085 527.46Z" fill="#565656"/>
<path d="M838.004 540.488L833.276 533.641C829.734 527.146 832.909 518.287 840.501 513.493L849.317 507.934L855.141 517.154L838.004 540.488Z" fill="#565656"/>
<path d="M869.967 499.979L871.101 501.777C871.721 502.762 871.926 503.953 871.668 505.088C871.411 506.223 870.713 507.21 869.728 507.83L854.994 517.118L849.18 507.895L863.914 498.607C864.899 497.986 866.09 497.782 867.225 498.039C868.36 498.297 869.347 498.995 869.967 499.979Z" fill="#565656"/>
<path opacity="0.05" d="M851.955 544.977C848.896 546.902 846.565 549.79 845.329 553.186L845.937 554.134L863.97 542.794C859.834 541.936 855.525 542.719 851.955 544.977Z" fill="black"/>
<path d="M868.593 589.339L858.748 573.722L877.196 562.093L887.05 577.727C887.664 578.7 888.079 579.784 888.274 580.918C888.468 582.051 888.437 583.212 888.183 584.334C887.928 585.455 887.456 586.516 886.792 587.455C886.127 588.394 885.285 589.193 884.312 589.806L880.699 592.083C879.726 592.697 878.642 593.112 877.508 593.307C876.375 593.501 875.214 593.47 874.092 593.216C872.971 592.961 871.91 592.489 870.971 591.825C870.032 591.16 869.233 590.318 868.62 589.345L868.593 589.339Z" fill="#565656"/>
<path opacity="0.05" d="M869.687 573.132C866.628 575.068 863.011 575.929 859.409 575.579L858.801 574.631L876.834 563.291C875.811 567.371 873.25 570.897 869.687 573.132Z" fill="black"/>
<path d="M847.391 568.068C852.208 575.709 862.307 577.999 869.948 573.182C877.589 568.366 879.878 558.267 875.062 550.626C870.245 542.984 860.146 540.695 852.505 545.511C844.864 550.328 842.574 560.427 847.391 568.068Z" fill="#565656"/>
<path d="M847.592 567.243C852.408 574.884 862.507 577.173 870.148 572.357C877.789 567.54 880.079 557.441 875.262 549.8C870.446 542.159 860.347 539.869 852.706 544.686C845.064 549.503 842.775 559.602 847.592 567.243Z" fill="#565656"/>
<path d="M875.454 549.784C873.924 547.355 871.782 545.372 869.242 544.034C866.702 542.697 863.855 542.052 860.986 542.166C859.654 544.704 859.013 547.547 859.126 550.411C859.24 553.275 860.104 556.059 861.632 558.484C863.16 560.909 865.299 562.89 867.834 564.228C870.369 565.566 873.211 566.214 876.075 566.108C877.413 563.572 878.06 560.728 877.951 557.863C877.842 554.998 876.981 552.211 875.454 549.784Z" fill="#EDEDED"/>
<g filter="url(#filter2_d)">
<path d="M647.898 827.648C493.901 963.379 430.878 1048.57 357.782 1215.86" stroke="black" stroke-opacity="0.01" stroke-width="22"/>
</g>
<g filter="url(#filter3_d)">
<path d="M477.565 798.8C323.568 934.531 260.545 1019.73 187.449 1187.01" stroke="black" stroke-opacity="0.01" stroke-width="22"/>
</g>
<defs>
<filter id="filter0_d" x="160.933" y="402.905" width="1257.19" height="1210.72" filterUnits="userSpaceOnUse" color-interpolation-filters="sRGB">
<feFlood flood-opacity="0" result="BackgroundImageFix"/>
<feColorMatrix in="SourceAlpha" type="matrix" values="0 0 0 0 0 0 0 0 0 0 0 0 0 0 0 0 0 0 127 0"/>
<feOffset/>
<feGaussianBlur stdDeviation="15"/>
<feColorMatrix type="matrix" values="0 0 0 0 0 0 0 0 0 0 0 0 0 0 0 0 0 0 0.25 0"/>
<feBlend mode="normal" in2="BackgroundImageFix" result="effect1_dropShadow"/>
<feBlend mode="normal" in="SourceGraphic" in2="effect1_dropShadow" result="shape"/>
</filter>
<filter id="filter1_d" x="0.882324" y="0.245667" width="1371.67" height="1330.35" filterUnits="userSpaceOnUse" color-interpolation-filters="sRGB">
<feFlood flood-opacity="0" result="BackgroundImageFix"/>
<feColorMatrix in="SourceAlpha" type="matrix" values="0 0 0 0 0 0 0 0 0 0 0 0 0 0 0 0 0 0 127 0"/>
<feOffset/>
<feGaussianBlur stdDeviation="15"/>
<feColorMatrix type="matrix" values="0 0 0 0 0 0 0 0 0 0 0 0 0 0 0 0 0 0 0.25 0"/>
<feBlend mode="normal" in2="BackgroundImageFix" result="effect1_dropShadow"/>
<feBlend mode="normal" in="SourceGraphic" in2="effect1_dropShadow" result="shape"/>
</filter>
<filter id="filter2_d" x="292.435" y="802.006" width="417.232" height="436.353" filterUnits="userSpaceOnUse" color-interpolation-filters="sRGB">
<feFlood flood-opacity="0" result="BackgroundImageFix"/>
<feColorMatrix in="SourceAlpha" type="matrix" values="0 0 0 0 0 0 0 0 0 0 0 0 0 0 0 0 0 0 127 0"/>
<feOffset/>
<feGaussianBlur stdDeviation="8"/>
<feColorMatrix type="matrix" values="0 0 0 0 0 0 0 0 0 0 0 0 0 0 0 0 0 0 0.25 0"/>
<feBlend mode="normal" in2="BackgroundImageFix" result="effect1_dropShadow"/>
<feBlend mode="normal" in="SourceGraphic" in2="effect1_dropShadow" result="shape"/>
</filter>
<filter id="filter3_d" x="122.102" y="773.158" width="417.232" height="436.353" filterUnits="userSpaceOnUse" color-interpolation-filters="sRGB">
<feFlood flood-opacity="0" result="BackgroundImageFix"/>
<feColorMatrix in="SourceAlpha" type="matrix" values="0 0 0 0 0 0 0 0 0 0 0 0 0 0 0 0 0 0 127 0"/>
<feOffset/>
<feGaussianBlur stdDeviation="8"/>
<feColorMatrix type="matrix" values="0 0 0 0 0 0 0 0 0 0 0 0 0 0 0 0 0 0 0.25 0"/>
<feBlend mode="normal" in2="BackgroundImageFix" result="effect1_dropShadow"/>
<feBlend mode="normal" in="SourceGraphic" in2="effect1_dropShadow" result="shape"/>
</filter>
<linearGradient id="paint0_linear" x1="-18984.9" y1="220378" x2="1743.98" y2="207311" gradientUnits="userSpaceOnUse">
<stop stop-color="#808080" stop-opacity="0.25"/>
<stop offset="0.54" stop-color="#808080" stop-opacity="0.12"/>
<stop offset="1" stop-color="#808080" stop-opacity="0.1"/>
</linearGradient>
</defs>
</svg>
