<svg width="1258" height="1211" viewBox="0 0 1258 1211" fill="none" xmlns="http://www.w3.org/2000/svg">
<g filter="url(#filter0_d)">
<path d="M528 500.5C560.644 471.176 650.879 389.969 689.985 360.918M1222.98 39C1182.82 59.6336 1121.07 92.1291 1049.48 132.443M953.485 187.953C899.161 220.234 842.494 255.485 787.485 292.329M469.318 562.281C430.304 605.846 391.876 652.705 354.792 700.781M305.583 766.281C266.078 820.205 228.638 874.475 194.291 926.281M148.738 996.281C103.742 1066.7 66.1405 1129.32 39 1175.78" stroke="#378D63" stroke-opacity="0.4" stroke-width="20"/>
</g>
<path d="M887.491 481.571C890.851 479.445 893.228 476.072 894.102 472.194C894.976 468.316 894.274 464.25 892.151 460.889L890.375 458.075L893.721 455.972L923.54 437.116L930.031 433.019C930.937 432.446 931.669 431.636 932.149 430.678C955.753 409.746 951.5 379.422 933.526 350.982C927.485 341.066 919.727 332.305 910.615 325.108L910.946 324.891C901.194 317.197 890.419 312.78 878.953 313.063L879.562 314.011C873.763 314.116 868.031 315.264 862.638 317.399C862.011 317.21 861.35 317.158 860.7 317.247C860.051 317.336 859.428 317.564 858.874 317.915L818.049 343.725L814.272 337.739C812.146 334.38 808.774 332.002 804.896 331.128C801.018 330.255 796.951 330.956 793.59 333.079L805.463 351.785L755.112 383.612L759.112 389.956L763.113 396.3L769.124 405.799L769.034 405.952L755.126 383.94L730.891 399.081C701.577 417.616 707.457 448.274 726.321 479.055L726.474 479.144L727.649 481.037L727.802 481.126L728.868 482.774C748.602 513.197 773.708 531.716 803.152 513.074L827.075 497.843L810.933 472.317L811.022 472.164L819.257 485.193L823.033 491.179L827.268 497.864L877.704 466.086L887.491 481.571ZM829.416 354.275L829.218 354.341L829.307 354.188L829.416 354.275Z" fill="url(#paint0_linear)"/>
<path d="M871.02 456.48L810.751 361.117L763.07 391.252L823.338 486.614L871.02 456.48Z" fill="#6C8579"/>
<path d="M733.553 477.008L733.706 477.097C714.988 447.472 708.539 417.712 736.74 399.873L759.443 385.524L827.2 492.903L804.508 507.235C776.289 525.065 752.271 506.634 733.553 477.008Z" fill="#9CBEAD"/>
<path d="M720.012 447.805C723.08 458.171 727.667 468.025 733.621 477.048C738.535 485.049 744.4 492.425 751.087 499.016L760.787 492.895L728.771 442.32L720.012 447.805Z" fill="#F8F8F8"/>
<path d="M772.494 406.15L812.049 468.737L810.302 469.841C809.358 470.438 808.306 470.842 807.206 471.032C806.106 471.222 804.979 471.193 803.89 470.948C802.8 470.702 801.77 470.245 800.858 469.601C799.946 468.957 799.169 468.14 798.573 467.196L768.081 418.95C766.876 417.043 766.478 414.737 766.974 412.537C767.47 410.337 768.82 408.425 770.726 407.22L772.473 406.116L772.494 406.15Z" fill="#F8F8F8"/>
<path d="M866.675 330.829L868.147 333.158L766.829 397.191L759.3 385.279L851.019 327.313C852.277 326.514 853.681 325.972 855.149 325.717C856.618 325.461 858.122 325.498 859.576 325.824C861.03 326.151 862.406 326.761 863.624 327.62C864.842 328.479 865.879 329.569 866.675 330.829Z" fill="#9DC0AF"/>
<path d="M921.111 416.953L922.583 419.282C924.19 421.824 924.721 424.899 924.059 427.832C923.398 430.765 921.599 433.315 919.057 434.921L827.322 492.898L819.793 480.986L921.111 416.953Z" fill="#9DC0AF"/>
<path d="M889.903 453.494L822.086 346.217L850.17 328.422C881.166 308.84 908.65 325.078 927.378 354.687C946.096 384.312 948.965 416.108 917.947 435.768L889.903 453.494Z" fill="#9CBEAD"/>
<path d="M876.029 319.014L889.628 340.618L906.097 330.197C896.954 322.904 886.814 318.766 876.029 319.014Z" fill="#3A7759"/>
<path d="M936.971 415.422L923.371 393.818L939.84 383.397C942.425 394.862 941.834 405.796 936.971 415.422Z" fill="#3A7759"/>
<path d="M813.545 339.857L818.803 348.175L806.891 355.703L795.577 337.802L797.873 336.351C799.131 335.55 800.536 335.005 802.005 334.747C803.475 334.489 804.981 334.525 806.437 334.85C807.893 335.176 809.27 335.786 810.49 336.645C811.71 337.504 812.748 338.595 813.545 339.857Z" fill="#9DC0AF"/>
<path d="M884.179 477.585L872.876 459.701L884.788 452.172L890.045 460.491C891.651 463.032 892.182 466.108 891.521 469.041C890.859 471.974 889.06 474.524 886.519 476.13L884.189 477.602L884.179 477.585Z" fill="#9DC0AF"/>
<path d="M872.494 451.974L815.769 362.24L869.979 344.694C874.198 343.33 878.751 343.408 882.92 344.917C887.09 346.425 890.639 349.277 893.008 353.025L914.071 386.365C916.45 390.127 917.505 394.576 917.067 399.006C916.629 403.435 914.725 407.592 911.655 410.816L872.494 451.974Z" fill="#575958"/>
<path d="M817.544 365.759C837.295 353.266 864.684 361.154 878.737 383.387C892.789 405.621 888.11 433.719 868.403 446.215" fill="#EDEDED"/>
<path d="M869.071 453.896L812.563 364.494L821.51 358.845L822.563 367.115L868.971 440.554L878.017 448.246L869.071 453.896Z" fill="#9CBEAD"/>
<path opacity="0.05" d="M869.071 453.896L812.563 364.494L821.51 358.845L822.563 367.115L868.971 440.554L878.017 448.246L869.071 453.896Z" fill="black"/>
<path d="M840.821 409.049L833.292 397.137L821.38 404.665L828.909 416.577L840.821 409.049Z" fill="#575958"/>
<path d="M822.16 412.537C826.318 419.116 831.022 423.607 832.666 422.567C834.311 421.528 832.274 415.352 828.116 408.773C823.958 402.194 819.254 397.704 817.61 398.743C815.965 399.783 818.002 405.959 822.16 412.537Z" fill="#575958"/>
<path opacity="0.05" d="M751.367 407.334C748.387 408.755 745.73 410.772 743.56 413.26C741.39 415.749 739.753 418.656 738.751 421.802C737.748 424.947 737.402 428.265 737.732 431.55C738.063 434.835 739.064 438.018 740.673 440.901" fill="black"/>
<path opacity="0.05" d="M802.182 487.787C799.62 489.862 796.66 491.39 793.485 492.278C790.31 493.166 786.987 493.394 783.72 492.948C780.454 492.503 777.313 491.393 774.491 489.688C771.67 487.983 769.228 485.717 767.315 483.032" fill="black"/>
<path opacity="0.05" d="M878.452 356.222C878.452 356.222 901.678 366.558 904.813 397.938L878.452 356.222Z" fill="black"/>
<path opacity="0.05" d="M867.198 363.328C867.198 363.328 890.424 373.664 893.558 405.044L867.198 363.328Z" fill="black"/>
<path d="M838.477 385.532C841.595 390.466 848.123 391.938 853.057 388.82C857.991 385.702 859.463 379.174 856.345 374.24C853.226 369.306 846.699 367.834 841.765 370.952C836.83 374.07 835.359 380.598 838.477 385.532Z" fill="#CCD2DB"/>
<path d="M865.145 414.545C867.224 417.834 871.575 418.816 874.865 416.737C878.154 414.658 879.136 410.306 877.057 407.017C874.978 403.727 870.626 402.746 867.336 404.825C864.047 406.904 863.066 411.256 865.145 414.545Z" fill="#CCD2DB"/>
<path d="M836.931 417.3L838.889 417.964C839.957 418.326 840.837 419.097 841.337 420.108C841.836 421.119 841.913 422.287 841.551 423.355L834.127 445.261C833.756 446.354 832.967 447.255 831.932 447.765C830.898 448.276 829.703 448.355 828.61 447.985L822.7 445.982L831.546 419.881C831.924 418.83 832.702 417.969 833.709 417.486C834.717 417.003 835.875 416.936 836.931 417.3Z" fill="#565656"/>
<path opacity="0.05" d="M827.062 426.948L837.066 430.356L832.999 442.297C832.272 444.432 830.727 446.19 828.703 447.185C826.68 448.181 824.344 448.332 822.21 447.605L820.254 446.938L827.062 426.948Z" fill="black"/>
<path d="M798.447 388.259L808.32 403.881L789.82 415.573L779.947 399.951C778.706 397.988 778.296 395.612 778.807 393.346C779.318 391.08 780.708 389.11 782.671 387.869L786.282 385.587C787.254 384.957 788.341 384.527 789.481 384.32C790.621 384.113 791.791 384.135 792.922 384.383C794.054 384.632 795.124 385.102 796.073 385.768C797.021 386.433 797.828 387.28 798.447 388.259Z" fill="#565656"/>
<path d="M781.382 401.307L776.646 394.466C773.096 387.975 776.261 379.112 783.847 374.31L792.656 368.739L798.491 377.954L781.382 401.307Z" fill="#565656"/>
<path d="M813.298 360.761L814.433 362.558C815.055 363.542 815.26 364.732 815.004 365.868C814.748 367.003 814.052 367.991 813.068 368.613L798.344 377.918L792.519 368.701L807.243 359.396C808.227 358.774 809.417 358.568 810.553 358.824C811.688 359.08 812.676 359.777 813.298 360.761Z" fill="#565656"/>
<path opacity="0.05" d="M795.337 405.78C792.281 407.708 789.953 410.599 788.721 413.996L789.331 414.944L807.351 403.583C803.213 402.73 798.906 403.518 795.337 405.78Z" fill="black"/>
<path d="M812.027 450.122L802.165 434.517L820.598 422.867L830.471 438.489C831.086 439.461 831.503 440.545 831.698 441.678C831.894 442.811 831.864 443.972 831.611 445.094C831.358 446.216 830.887 447.277 830.224 448.217C829.561 449.157 828.719 449.957 827.747 450.571L824.137 452.853C823.165 453.467 822.081 453.884 820.948 454.08C819.814 454.275 818.653 454.246 817.531 453.993C816.409 453.74 815.348 453.268 814.409 452.605C813.469 451.942 812.669 451.1 812.055 450.128L812.027 450.122Z" fill="#565656"/>
<path opacity="0.05" d="M813.102 433.914C810.046 435.854 806.43 436.719 802.827 436.373L802.218 435.426L820.238 424.064C819.22 428.145 816.663 431.675 813.102 433.914Z" fill="black"/>
<path d="M790.801 428.876C795.626 436.512 805.728 438.79 813.363 433.964C820.999 429.138 823.277 419.037 818.451 411.401C813.626 403.766 803.524 401.488 795.888 406.314C788.253 411.139 785.975 421.241 790.801 428.876Z" fill="#565656"/>
<path d="M791 428.051C795.826 435.686 805.928 437.964 813.563 433.138C821.199 428.313 823.476 418.211 818.651 410.576C813.825 402.94 803.724 400.662 796.088 405.488C788.453 410.314 786.175 420.415 791 428.051Z" fill="#565656"/>
<path d="M818.842 410.56C817.31 408.132 815.165 406.152 812.624 404.817C810.082 403.482 807.234 402.841 804.366 402.958C803.037 405.497 802.399 408.342 802.516 411.206C802.632 414.07 803.5 416.853 805.031 419.276C806.562 421.699 808.703 423.677 811.239 425.012C813.776 426.347 816.618 426.992 819.483 426.883C820.818 424.345 821.462 421.501 821.349 418.635C821.237 415.77 820.372 412.985 818.842 410.56Z" fill="#EDEDED"/>
<defs>
<filter id="filter0_d" x="0.365479" y="0.105164" width="1257.19" height="1210.72" filterUnits="userSpaceOnUse" color-interpolation-filters="sRGB">
<feFlood flood-opacity="0" result="BackgroundImageFix"/>
<feColorMatrix in="SourceAlpha" type="matrix" values="0 0 0 0 0 0 0 0 0 0 0 0 0 0 0 0 0 0 127 0"/>
<feOffset/>
<feGaussianBlur stdDeviation="15"/>
<feColorMatrix type="matrix" values="0 0 0 0 0 0 0 0 0 0 0 0 0 0 0 0 0 0 0.25 0"/>
<feBlend mode="normal" in2="BackgroundImageFix" result="effect1_dropShadow"/>
<feBlend mode="normal" in="SourceGraphic" in2="effect1_dropShadow" result="shape"/>
</filter>
<linearGradient id="paint0_linear" x1="-18784.8" y1="220261" x2="1928.77" y2="207171" gradientUnits="userSpaceOnUse">
<stop stop-color="#808080" stop-opacity="0.25"/>
<stop offset="0.54" stop-color="#808080" stop-opacity="0.12"/>
<stop offset="1" stop-color="#808080" stop-opacity="0.1"/>
</linearGradient>
</defs>
</svg>
