<svg width="22" height="22" viewBox="0 0 22 22" fill="none" xmlns="http://www.w3.org/2000/svg">
<path d="M20.3769 9.05905L21.467 10.0997C21.9287 10.5403 21.9287 11.2528 21.467 11.6887L11.9255 20.8012C11.4639 21.2419 10.7175 21.2419 10.2608 20.8012L0.714369 11.6887C0.252762 11.2481 0.252762 10.5356 0.714369 10.0997L1.80455 9.05905C2.27107 8.61374 3.03223 8.62311 3.48892 9.0778L9.12642 14.7262V1.25436C9.12642 0.630926 9.65187 0.129364 10.305 0.129364H11.8764C12.5295 0.129364 13.055 0.630926 13.055 1.25436V14.7262L18.6925 9.0778C19.1492 8.61843 19.9104 8.60905 20.3769 9.05905V9.05905Z" fill="white"/>
</svg>
