<svg width="118" height="103" viewBox="0 0 118 103" fill="none" xmlns="http://www.w3.org/2000/svg">
<path opacity="0.3" d="M5.25564 45.9035C5.25564 45.9035 64.4332 110.17 99.4178 58.9222C99.4178 58.9222 108.382 52.5583 104.724 42.2382C104.724 42.2382 101.477 45.378 96.2114 38.1962C94.3044 35.6238 92.1 33.2859 89.6442 31.2309C86.3545 28.4611 82.2483 26.8445 77.9533 26.628V26.628C77.9533 26.628 53.259 16.9517 18.6282 39.2282C18.6282 39.2282 7.49618 40.6527 6.14456 42.4582L21.1168 48.1346C21.1168 48.1346 24.8387 36.9878 33.7954 33.3714C33.7954 33.3714 20.9728 47.4889 23.3013 49.0656C23.7732 49.3932 31.3512 51.7239 31.3512 51.7239C31.3512 51.7239 37.9157 32.3836 51.9456 27.2249C51.9456 27.2249 34.3667 41.931 34.2326 52.6133L45.9014 55.4325C45.9014 55.4325 51.8496 34.6575 67.5903 28.1544C67.5903 28.1544 49.7769 44.183 48.5058 55.8709L60.3475 57.0907C60.3475 57.0907 66.5318 36.941 79.6697 31.6396C79.6697 31.6396 60.9377 52.231 63.0642 57.1909C63.0642 57.1909 74.0132 57.6529 76.9851 56.3688C76.9851 56.3688 81.7703 42.0226 89.6619 39.6065C89.6619 39.6065 78.6137 54.7066 80.0092 56.1611C80.0092 56.1611 94.4099 52.9704 100.874 47.5006C95.2004 52.8157 88.2394 56.5602 80.6775 58.3646C84.7032 60.9867 89.4087 62.3725 94.2131 62.3507C94.2131 62.3507 87.2775 67.7492 77.1926 59.0853C77.1926 59.0853 65.8766 61.1147 64.1741 60.2756C64.1741 60.2756 72.9274 70.2223 81.1621 73.1982C81.1621 73.1982 70.3988 74.2329 61.0164 60.0631L49.0929 59.0894C49.0929 59.0894 59.9921 72.8581 67.1301 76.0503C67.1301 76.0503 55.9861 75.404 46.1092 58.6103L34.5534 56.0166C34.5534 56.0166 43.0323 68.5878 50.172 73.8304C50.172 73.8304 39.959 70.9996 31.2721 55.0968L23.8271 52.4174C23.8271 52.4174 30.1706 61.4947 32.1821 63.9738C34.1936 66.4529 33.7739 67.1505 33.7739 67.1505C28.0095 63.2189 23.4539 57.7597 20.6175 51.3848C20.6175 51.3848 5.74696 45.0419 5.25564 45.9035Z" fill="#2AAB6C"/>
</svg>
