<svg width="240" height="240" viewBox="0 0 240 240" fill="none" xmlns="http://www.w3.org/2000/svg">
<path fill-rule="evenodd" clip-rule="evenodd" d="M239.935 122.798C239.935 114.189 239.215 106.003 237.775 98.2403H122.424V144.532H188.38C187.019 151.888 184.147 158.896 179.939 165.131C175.731 171.367 170.274 176.699 163.899 180.804V210.866H203.357C215.419 199.524 224.91 185.821 231.212 170.648C237.514 155.474 240.486 139.171 239.935 122.798V122.798Z" fill="#9BBDAC"/>
<path fill-rule="evenodd" clip-rule="evenodd" d="M122.395 239.937C152.22 240.765 181.235 230.36 203.472 210.863L163.87 180.802C151.506 188.54 137.06 192.473 122.395 192.092C107.129 191.934 92.3001 187.08 80.0006 178.217C67.7011 169.354 58.5527 156.929 53.8469 142.695H12.9484V173.745C23.1292 193.643 38.7582 210.373 58.087 222.063C77.4158 233.753 99.6821 239.941 122.395 239.937V239.937Z" fill="#99BCAB"/>
<path fill-rule="evenodd" clip-rule="evenodd" d="M53.8593 142.835C48.8301 128.039 48.8301 112.045 53.8593 97.2487V66.1991H12.9608C4.42529 82.8889 -0.0129579 101.303 2.84162e-05 119.971C2.84162e-05 139.307 4.75232 157.654 12.9608 173.885L53.8593 142.835V142.835Z" fill="#99BCAB"/>
<path fill-rule="evenodd" clip-rule="evenodd" d="M122.395 47.7123C139.792 47.4312 156.604 53.8696 169.198 65.6364L204.336 31.1996C182.16 10.8177 152.795 -0.360184 122.395 0.00885546C99.6972 -0.00877944 77.4413 6.15896 58.114 17.823C38.7867 29.487 23.1491 46.1879 12.9484 66.0598L53.8469 97.1094C58.5527 82.8761 67.7011 70.4508 80.0006 61.5876C92.3001 52.7243 107.129 47.8708 122.395 47.7123V47.7123Z" fill="#99BCAB"/>
</svg>
