<svg width="496" height="321" viewBox="0 0 496 321" fill="none" xmlns="http://www.w3.org/2000/svg">
<path opacity="0.3" d="M309.123 187.263C309.123 187.263 271.92 195.338 283.406 219.803C283.406 219.803 283.824 224.578 288.513 225.483C288.513 225.483 288.04 223.539 291.923 223.164C293.298 223.016 294.651 222.706 295.953 222.24C297.696 221.611 299.188 220.433 300.204 218.885C300.204 218.885 309.309 211.735 308.586 193.781C308.586 193.781 310.511 189.283 310.13 188.372L304.691 192.746C304.691 192.746 308.051 196.611 307.437 200.783C307.437 200.783 304.987 192.84 303.854 193.355C303.614 193.423 301.074 195.809 301.074 195.809C301.074 195.809 306.896 202.555 305.738 208.968C305.738 208.968 304.089 199.106 300.095 196.686L296.498 200.408C296.498 200.408 302.997 207.235 301.958 214.59C301.958 214.59 299.878 204.341 295.756 201.281L292.685 205.468C292.685 205.468 298.891 212.252 297.991 218.364C297.991 218.364 294.389 206.766 292.041 206.47C292.041 206.47 289.45 210.48 289.272 211.881C289.272 211.881 293.629 216.889 292.776 220.359C292.776 220.359 289.548 212.863 288.651 213.073C288.651 213.073 286.664 219.199 287.293 222.803C286.547 219.488 286.679 216.035 287.677 212.786C285.799 213.719 284.235 215.18 283.177 216.99C283.177 216.99 282.691 213.19 288.175 211.306C288.175 211.306 289.915 206.59 290.607 206.135C290.607 206.135 284.932 207.231 281.992 209.668C281.992 209.668 283.982 205.4 291.38 205.004L294.338 200.745C294.338 200.745 286.761 201.835 283.971 203.772C283.971 203.772 286.678 199.729 295.185 199.728L298.709 196.006C298.709 196.006 292.105 196.418 288.533 197.941C288.533 197.941 291.859 194.731 299.759 194.973L302.41 192.764C302.41 192.764 297.596 193.151 296.217 193.382C294.838 193.614 294.668 193.267 294.668 193.267C297.423 191.974 300.483 191.474 303.507 191.822C303.507 191.822 309.352 187.635 309.123 187.263Z" fill="#2AAB6C"/>
<path opacity="0.3" d="M80.4766 226.924C80.4766 226.924 78.8671 188.849 52.8 196.039C52.8 196.039 48.023 195.636 46.3373 200.099C46.3373 200.099 48.3062 199.971 48.0351 203.849C47.9491 205.218 48.0214 206.592 48.2507 207.943C48.5671 209.785 49.4755 211.474 50.8382 212.753C50.8382 212.753 56.3307 222.947 74.1018 225.308C74.1018 225.308 78.2166 227.974 79.1708 227.747L75.7937 221.643C75.7937 221.643 71.4085 224.299 67.3979 222.964C67.3979 222.964 75.6483 221.902 75.3307 220.735C75.263 220.494 73.4049 217.578 73.4049 217.578C73.4049 217.578 65.7682 222.155 59.6351 219.92C59.6351 219.92 69.6335 219.978 72.7079 216.465L69.644 212.216C69.644 212.216 61.7722 217.471 54.73 215.181C54.73 215.181 65.1887 214.88 68.9102 211.341L65.3126 207.595C65.3126 207.595 57.5657 212.556 51.6937 210.622C51.6937 210.622 63.717 209.051 64.4329 206.793C64.4329 206.793 60.9251 203.551 59.5739 203.141C59.5739 203.141 53.9325 206.575 50.6229 205.147C50.6229 205.147 58.5528 203.241 58.5031 202.362C58.5031 202.362 52.8089 199.36 49.1111 199.361C52.5093 199.19 55.8933 199.908 58.9302 201.442C58.328 199.434 57.154 197.645 55.5517 196.294C55.5517 196.294 59.3806 196.465 60.3334 202.222C60.3334 202.222 64.6768 204.741 65.0045 205.5C65.0045 205.5 64.8883 199.726 62.9893 196.406C62.9893 196.406 66.8621 199.099 65.9907 206.459L69.6861 210.147C69.6861 210.147 69.9448 202.492 68.4679 199.417C68.4679 199.417 71.9958 202.767 70.5402 211.154L73.6169 215.264C73.6169 215.264 74.3339 208.685 73.4437 204.926C73.4437 204.926 76.0438 208.745 74.4508 216.495L76.1823 219.478C76.1823 219.478 76.6182 214.67 76.6215 213.278C76.6249 211.885 76.9976 211.77 76.9976 211.77C77.8059 214.703 77.7814 217.803 76.9268 220.723C76.9268 220.723 80.0762 227.088 80.4766 226.924Z" fill="#2AAB6C"/>
<path opacity="0.3" d="M44.2213 29.9158C44.2213 29.9158 8.66072 16.1834 4.84998 42.9523C4.84998 42.9523 2.57741 47.1745 5.99552 50.504C5.99552 50.504 6.65749 48.6456 10.1331 50.4424C11.3671 51.0695 12.6701 51.5505 14.0156 51.8756C15.8339 52.31 17.7444 52.138 19.4558 51.3856C19.4558 51.3856 30.9847 50.421 40.2443 35.022C40.2443 35.022 44.3372 32.3242 44.5104 31.3511L37.5554 32.0693C37.5554 32.0693 38.2433 37.1423 35.4301 40.2907C35.4301 40.2907 37.7562 32.3037 36.5208 32.1211C36.2696 32.0774 32.8524 32.6325 32.8524 32.6325C32.8524 32.6325 33.9729 41.5 29.4771 46.2015C29.4771 46.2015 33.5143 37.0585 31.519 32.841L26.4083 33.9862C26.4083 33.9862 28.082 43.2696 23.1744 48.8346C23.1744 48.8346 27.0644 39.1305 25.3231 34.3015L20.4595 36.1044C20.4595 36.1044 21.9115 45.1904 17.7939 49.796C17.7939 49.796 21.1636 38.1294 19.3722 36.5969C19.3722 36.5969 14.9998 38.5214 14.0844 39.5889C14.0844 39.5889 14.9775 46.1312 12.3459 48.5949C12.3459 48.5949 13.7753 40.5586 12.9414 40.2528C12.9414 40.2528 7.91421 44.283 6.44475 47.6667C7.64066 44.4832 9.65078 41.6691 12.2744 39.5054C10.1911 39.2494 8.07861 39.6119 6.19979 40.5475C6.19979 40.5475 7.88106 37.1043 13.5011 38.5478C13.5011 38.5478 17.5443 35.5628 18.3767 35.5678C18.3767 35.5678 13.0306 33.3618 9.23077 33.7751C9.23077 33.7751 13.2429 31.3078 19.6319 35.0074L24.485 33.0932C24.485 33.0932 17.5872 29.8377 14.1611 29.9175C14.1611 29.9175 18.6486 28.0333 25.7573 32.7045L30.746 31.5313C30.746 31.5313 25.0118 28.2397 21.1851 27.5595C21.1851 27.5595 25.7218 26.7003 32.1936 31.2492L35.6156 30.8589C35.6156 30.8589 31.3811 28.5794 30.1087 28.0436C28.8363 27.5078 28.878 27.1014 28.878 27.1014C31.8899 27.5333 34.7223 28.7947 37.0584 30.7443C37.0584 30.7443 44.1605 30.3276 44.2213 29.9158Z" fill="#2AAB6C"/>
<path opacity="0.3" d="M164.319 26.2199C164.319 26.2199 142.806 -5.24352 124.492 14.6419C124.492 14.6419 120.238 16.876 121.156 21.5105C121.156 21.5105 122.753 20.3554 124.571 23.7919C125.23 25.0109 126.027 26.1496 126.947 27.1856C128.197 28.5767 129.863 29.5261 131.696 29.8918C131.696 29.8918 141.745 35.6376 158.105 28.2051C158.105 28.2051 163.004 28.3034 163.699 27.599L157.558 24.2247C157.558 24.2247 155.246 28.7901 151.143 29.7873C151.143 29.7873 157.591 24.527 156.695 23.6673C156.513 23.5003 153.386 22.021 153.386 22.021C153.386 22.021 149.318 29.9469 142.944 31.2912C142.944 31.2912 151.455 26.0537 152.189 21.4224L147.341 19.4712C147.341 19.4712 143.46 28.0613 136.247 29.8595C136.247 29.8595 145.006 24.064 146.241 19.1051L141.208 17.829C141.208 17.829 137.306 26.1237 131.259 27.5945C131.259 27.5945 140.647 19.898 140.037 17.6179C140.037 17.6179 135.35 16.7224 133.987 17.0845C133.987 17.0845 131.011 22.9795 127.484 23.5135C127.484 23.5135 133.204 17.6992 132.691 16.9813C132.691 16.9813 126.277 17.4437 123.141 19.4052C125.929 17.4604 129.178 16.2789 132.565 15.978C130.99 14.5914 129.045 13.694 126.968 13.3959C126.968 13.3959 130.303 11.5135 134.118 15.8846C134.118 15.8846 139.143 15.7293 139.814 16.1952C139.814 16.1952 136.668 11.3559 133.301 9.53899C133.301 9.53899 138.012 9.78349 141.164 16.4909L146.25 17.6588C146.25 17.6588 142.426 11.0363 139.53 9.15965C139.53 9.15965 144.305 10.1448 147.495 18.0255L152.278 19.8912C152.278 19.8912 149.417 13.9227 146.654 11.1881C146.654 11.1881 150.877 13.0554 153.628 20.4781L156.669 22.0958C156.669 22.0958 154.501 17.7814 153.772 16.5941C153.044 15.4069 153.318 15.2364 153.318 15.2364C155.55 17.3038 157.167 19.9484 157.989 22.8777C157.989 22.8777 164.053 26.5649 164.319 26.2199Z" fill="#2AAB6C"/>
<path opacity="0.3" d="M88.1493 49.4718C88.1493 49.4718 50.5207 55.6616 60.8081 80.7024C60.8081 80.7024 60.9809 85.4943 65.5899 86.6298C65.5899 86.6298 65.2125 84.6584 69.1432 84.4888C70.525 84.403 71.8928 84.1616 73.2205 83.769C75.0116 83.2306 76.5784 82.123 77.6835 80.6141C77.6835 80.6141 87.1398 73.9371 87.3737 55.9533C87.3737 55.9533 89.5248 51.5575 89.1896 50.6234L83.5384 54.725C83.5384 54.725 86.7434 58.7376 85.8351 62.8984C85.8351 62.8984 83.7893 54.8415 82.6596 55.2939C82.4189 55.3616 79.7662 57.6027 79.7662 57.6027C79.7662 57.6027 85.2327 64.6362 83.7652 71.0212C83.7652 71.0212 82.6137 61.0822 78.7529 58.4691L74.9254 62.0376C74.9254 62.0376 81.0892 69.1867 79.6603 76.4854C79.6603 76.4854 78.1039 66.1407 74.1443 62.8803L70.8643 66.9181C70.8643 66.9181 76.7206 74.0082 75.5059 80.073C75.5059 80.073 72.5011 68.3071 70.1719 67.8917C70.1719 67.8917 67.3828 71.7916 67.131 73.1504C67.131 73.1504 71.2168 78.3386 70.2031 81.7915C70.2031 81.7915 67.3588 74.1459 66.4899 74.3069C66.4899 74.3069 64.1917 80.3229 64.64 83.9883C64.0585 80.6367 64.3653 77.1912 65.5298 73.995C63.6097 74.8324 61.9757 76.2121 60.8284 77.9648C60.8284 77.9648 60.5264 74.1545 66.0993 72.547C66.0993 72.547 68.0742 67.9306 68.8357 67.4985C68.8357 67.4985 63.111 68.3073 60.0447 70.5919C60.0447 70.5919 62.2484 66.4203 69.6605 66.4046L72.8777 62.291C72.8777 62.291 65.1348 62.867 62.3053 64.7008C62.3053 64.7008 65.2099 60.7684 73.7133 61.2356L77.4225 57.69C77.4225 57.69 70.8054 57.7627 67.1636 59.108C67.1636 59.108 70.6371 56.0545 78.5201 56.7168L81.2819 54.6423C81.2819 54.6423 76.4503 54.7846 75.0622 54.9462C73.6741 55.1077 73.5232 54.7554 73.5232 54.7554C76.3398 53.6036 79.4207 53.2557 82.4232 53.7503C82.4232 53.7503 88.3303 49.8572 88.1493 49.4718Z" fill="#2AAB6C"/>
<path opacity="0.3" d="M486.963 242.972C486.963 242.972 449.353 249.156 459.633 274.168C459.633 274.168 459.805 278.96 464.414 280.096C464.414 280.096 464.037 278.124 467.965 277.945C469.348 277.869 470.717 277.627 472.042 277.225C473.836 276.691 475.404 275.583 476.505 274.07C476.505 274.07 485.962 267.393 486.15 249.433C486.15 249.433 488.299 245.027 487.966 244.103L482.312 248.195C482.312 248.195 485.52 252.217 484.612 256.378C484.612 256.378 482.563 248.311 481.436 248.773C481.195 248.841 478.54 251.072 478.54 251.072C478.54 251.072 484.006 258.106 482.539 264.491C482.539 264.491 481.39 254.561 477.527 251.939L473.702 255.517C473.702 255.517 479.866 262.666 478.446 269.962C478.446 269.962 476.88 259.62 472.918 256.35L469.638 260.388C469.638 260.388 475.494 267.478 474.277 273.533C474.277 273.533 471.272 261.767 468.946 261.361C468.946 261.361 466.166 265.258 465.905 266.62C465.905 266.62 470 271.805 468.977 275.261C468.977 275.261 466.133 267.615 465.264 267.777C465.264 267.777 462.965 273.793 463.414 277.458C462.832 274.106 463.139 270.661 464.304 267.465C462.381 268.298 460.745 269.678 459.602 271.434C459.602 271.434 459.297 267.614 464.87 266.007C464.87 266.007 466.855 261.388 467.609 260.968C467.609 260.968 461.882 261.767 458.816 264.052C458.816 264.052 461.022 259.89 468.444 259.872L471.651 255.761C471.651 255.761 464.028 256.428 461.145 258.256C461.145 258.256 464.049 254.323 472.55 254.781L476.262 251.245C476.262 251.245 469.645 251.318 466.003 252.663C466.003 252.663 469.476 249.61 477.359 250.272L480.119 248.188C480.119 248.188 475.287 248.33 473.902 248.501C472.516 248.672 472.363 248.31 472.363 248.31C475.177 247.153 478.257 246.802 481.26 247.296C481.26 247.296 487.175 243.359 486.963 242.972Z" fill="#2AAB6C"/>
<path opacity="0.3" d="M361.696 275.399C361.696 275.399 324.09 281.593 334.366 306.595C334.366 306.595 334.549 311.385 339.148 312.523C339.148 312.523 338.771 310.551 342.701 310.382C344.08 310.299 345.444 310.056 346.766 309.655C348.548 309.115 350.108 308.014 351.213 306.515C351.213 306.515 360.659 299.841 360.845 281.871C360.845 281.871 363.006 277.472 362.661 276.541L357.007 280.633C357.007 280.633 360.215 284.655 359.306 288.816C359.306 288.816 357.261 280.759 356.131 281.211C355.89 281.279 353.235 283.51 353.235 283.51C353.235 283.51 358.701 290.544 357.234 296.929C357.234 296.929 356.085 286.999 352.224 284.386L348.397 287.955C348.397 287.955 354.561 295.104 353.141 302.4C353.141 302.4 351.575 292.058 347.616 288.798L344.336 292.835C344.336 292.835 350.192 299.926 348.987 305.988C348.987 305.988 345.97 294.215 343.643 293.809C343.643 293.809 340.864 297.706 340.603 299.068C340.603 299.068 344.698 304.253 343.675 307.709C343.675 307.709 340.83 300.063 339.961 300.224C339.961 300.224 337.663 306.24 338.121 309.903C337.539 306.553 337.843 303.109 339.001 299.912C337.081 300.75 335.447 302.129 334.3 303.882C334.3 303.882 334.005 300.059 339.58 298.462C339.58 298.462 341.555 293.845 342.317 293.413C342.317 293.413 336.592 294.222 333.526 296.507C333.526 296.507 335.729 292.335 343.151 292.317L346.359 288.206C346.359 288.206 338.735 288.873 335.852 290.701C335.852 290.701 338.757 286.768 347.26 287.236L350.969 283.69C350.969 283.69 344.352 283.763 340.71 285.108C340.71 285.108 344.184 282.055 352.067 282.717L354.829 280.642C354.829 280.642 349.997 280.785 348.619 280.943C347.24 281.102 347.07 280.755 347.07 280.755C349.886 279.604 352.967 279.256 355.97 279.75C355.97 279.75 361.909 275.786 361.696 275.399Z" fill="#2AAB6C"/>
<path opacity="0.3" d="M347.892 9.2481C347.892 9.2481 312.335 -4.47463 308.521 22.2846C308.521 22.2846 306.249 26.5068 309.667 29.8363C309.667 29.8363 310.329 27.978 313.804 29.7747C315.034 30.408 316.335 30.8932 317.68 31.2203C319.498 31.6532 321.408 31.4812 323.12 30.7303C323.12 30.7303 334.649 29.7656 343.921 14.3736C343.921 14.3736 348.001 11.6689 348.187 10.7027L341.238 11.3673C341.238 11.3673 341.916 16.4431 339.112 19.5888C339.112 19.5888 341.429 11.6044 340.193 11.4218C339.942 11.3782 336.535 11.9306 336.535 11.9306C336.535 11.9306 337.679 20.7707 333.188 25.4914C333.188 25.4914 337.235 16.3457 335.23 12.1309L330.119 13.2761C330.119 13.2761 331.803 22.5568 326.888 28.1342C326.888 28.1342 330.788 18.4274 329.037 13.6011L324.164 15.4067C324.164 15.4067 325.671 24.4668 321.505 29.0859C321.505 29.0859 324.875 17.4194 323.074 15.8895C323.074 15.8895 318.701 17.8141 317.786 18.8815C317.786 18.8815 318.689 25.4211 316.057 27.8849C316.057 27.8849 317.477 19.8513 316.646 19.5551C316.646 19.5551 311.616 23.5756 310.146 26.9593C311.346 23.7778 313.355 20.9646 315.976 18.798C313.896 18.5473 311.789 18.9085 309.911 19.8374C309.911 19.8374 311.592 16.3942 317.212 17.8378C317.212 17.8378 321.249 14.8651 322.078 14.8604C322.078 14.8604 316.732 12.6544 312.935 13.0774C312.935 13.0774 316.954 10.5977 323.346 14.3069L328.199 12.3927C328.199 12.3927 321.301 9.13731 317.878 9.22673C317.878 9.22673 322.363 7.33288 329.462 12.0068L334.463 10.8405C334.463 10.8405 328.719 7.55163 324.899 6.8591C324.899 6.8591 329.436 5.99983 335.898 10.5514L339.33 10.1584C339.33 10.1584 335.094 7.83775 333.816 7.28271C332.538 6.72768 332.614 6.4052 332.614 6.4052C335.622 6.84164 338.45 8.10358 340.785 10.0508C340.785 10.0508 347.878 9.67798 347.892 9.2481Z" fill="#2AAB6C"/>
<path opacity="0.3" d="M415.179 161.544C415.179 161.544 395.143 129.126 375.922 148.186C375.922 148.186 371.556 150.171 372.271 154.894C372.271 154.894 373.921 153.817 375.583 157.329C376.187 158.588 376.938 159.772 377.82 160.855C379 162.313 380.625 163.345 382.447 163.793C382.447 163.793 392.225 169.978 408.9 163.298C408.9 163.298 413.786 163.608 414.514 162.947L408.57 159.278C408.57 159.278 406.054 163.745 401.919 164.554C401.919 164.554 408.578 159.566 407.711 158.698C407.536 158.519 404.483 156.895 404.483 156.895C404.483 156.895 400.073 164.636 393.637 165.686C393.637 165.686 402.382 160.84 403.322 156.275L398.557 154.103C398.557 154.103 394.292 162.511 387.012 163.995C387.012 163.995 395.967 158.602 397.478 153.7L392.506 152.199C392.506 152.199 388.192 160.319 382.126 161.504C382.126 161.504 391.852 154.232 391.351 151.932C391.351 151.932 386.699 150.829 385.32 151.134C385.32 151.134 382.085 156.883 378.505 157.266C378.505 157.266 384.485 151.711 384.007 150.973C384.007 150.973 377.575 151.149 374.355 152.958C377.224 151.15 380.515 150.121 383.903 149.973C382.396 148.518 380.495 147.535 378.435 147.147C378.435 147.147 381.852 145.408 385.456 149.953C385.456 149.953 390.47 150.019 391.13 150.519C391.13 150.519 388.203 145.535 384.922 143.58C384.922 143.58 389.617 144.026 392.465 150.871L397.492 152.273C397.492 152.273 393.961 145.475 391.168 143.518C391.168 143.518 395.888 144.715 398.73 152.725L403.466 154.791C403.466 154.791 400.873 148.706 398.248 145.87C398.248 145.87 402.389 147.927 404.795 155.456L407.763 157.219C407.763 157.219 405.796 152.807 405.139 151.579C404.483 150.351 404.72 150.086 404.72 150.086C406.864 152.247 408.364 154.962 409.052 157.927C409.052 157.927 414.898 161.873 415.179 161.544Z" fill="#2AAB6C"/>
<path opacity="0.3" d="M211.827 304.421C211.827 304.421 183.454 278.967 170.401 302.641C170.401 302.641 166.764 305.74 168.781 310.107C168.781 310.107 170.072 308.602 172.655 311.512C173.579 312.541 174.624 313.454 175.767 314.231C177.305 315.299 179.152 315.831 181.023 315.746C181.023 315.746 192.15 318.935 206.27 307.821C206.27 307.821 211.048 306.748 211.56 305.908L204.81 304.066C204.81 304.066 203.649 309.066 199.903 311.002C199.903 311.002 204.924 304.397 203.818 303.752C203.606 303.625 200.213 302.937 200.213 302.937C200.213 302.937 198.149 311.598 192.274 314.423C192.274 314.423 199.301 307.307 198.929 302.654L193.746 301.918C193.746 301.918 192.018 311.181 185.448 314.638C185.448 314.638 192.531 306.945 192.596 301.816L187.393 301.782C187.393 301.782 185.54 310.789 180.054 313.629C180.054 313.629 187.338 303.917 186.206 301.846C186.206 301.846 181.435 302.095 180.232 302.766C180.232 302.766 178.746 309.198 175.413 310.57C175.413 310.57 179.592 303.559 178.92 302.979C178.92 302.979 172.798 304.959 170.218 307.605C172.465 305.053 175.343 303.134 178.563 302.04C176.71 301.066 174.612 300.655 172.529 300.859C172.529 300.859 175.313 298.238 180.006 301.593C180.006 301.593 184.82 300.241 185.619 300.535C185.619 300.535 181.379 296.533 177.705 295.623C177.705 295.623 182.338 294.737 186.992 300.503L192.216 300.427C192.216 300.427 186.915 294.905 183.687 293.807C183.687 293.807 188.549 293.625 193.531 300.525L198.616 301.173C198.616 301.173 194.419 296.068 191.083 294.066C191.083 294.066 195.629 294.866 200.058 301.423L203.414 302.277C203.414 302.277 200.301 298.591 199.29 297.619C198.279 296.646 198.473 296.3 198.473 296.3C201.134 297.773 203.334 299.956 204.826 302.607C204.826 302.607 211.659 304.821 211.827 304.421Z" fill="#2AAB6C"/>
<path d="M161.897 90.1279C161.897 90.1279 124.694 98.2028 136.181 122.668C136.181 122.668 136.598 127.443 141.288 128.348C141.288 128.348 140.814 126.404 144.688 126.032C146.063 125.884 147.416 125.573 148.718 125.107C150.484 124.481 151.997 123.294 153.024 121.726C153.024 121.726 162.122 114.589 161.399 96.6353C161.399 96.6353 163.331 92.1245 162.988 91.2027L157.552 95.5869C157.552 95.5869 160.913 99.4518 160.289 103.626C160.289 103.626 157.848 95.6802 156.706 96.1986C156.465 96.2662 153.935 98.6493 153.935 98.6493C153.935 98.6493 159.745 105.389 158.589 111.811C158.589 111.811 156.94 101.95 152.956 99.5269L149.319 103.291C149.319 103.291 155.818 110.118 154.779 117.473C154.779 117.473 152.699 107.224 148.577 104.164L145.493 108.344C145.493 108.344 151.712 115.135 150.802 121.25C150.802 121.25 147.2 109.651 144.853 109.355C144.853 109.355 142.261 113.366 142.093 114.764C142.093 114.764 146.441 119.774 145.587 123.245C145.587 123.245 142.359 115.748 141.463 115.959C141.463 115.959 139.476 122.085 140.104 125.689C139.353 122.375 139.482 118.922 140.479 115.674C138.604 116.606 137.042 118.066 135.988 119.876C135.988 119.876 135.492 116.078 140.977 114.194C140.977 114.194 142.764 109.464 143.409 109.024C143.409 109.024 137.734 110.12 134.794 112.556C134.794 112.556 136.783 108.289 144.178 107.841L147.136 103.582C147.136 103.582 139.568 104.67 136.769 106.61C136.769 106.61 139.476 102.567 147.983 102.566L151.507 98.8434C151.507 98.8434 144.909 99.2431 141.341 100.776C141.341 100.776 144.657 97.5689 152.557 97.8109L155.208 95.6013C155.208 95.6013 150.393 95.9882 149.024 96.2171C147.655 96.446 147.475 96.1019 147.475 96.1019C150.227 94.8102 153.285 94.3108 156.304 94.6597C156.304 94.6597 162.145 90.4943 161.897 90.1279Z" fill="#2AAB6C"/>
<path d="M296.614 109.809C296.614 109.809 269.038 83.4976 255.246 106.756C255.246 106.756 251.524 109.775 253.403 114.171C253.403 114.171 254.724 112.699 257.224 115.683C258.117 116.744 259.133 117.692 260.252 118.51C261.756 119.619 263.585 120.201 265.453 120.164C265.453 120.164 276.47 123.696 290.927 113.007C290.927 113.007 295.736 112.081 296.272 111.255L289.599 109.204C289.599 109.204 288.289 114.153 284.481 115.981C284.481 115.981 289.692 109.5 288.628 108.854C288.403 108.72 285.041 107.919 285.041 107.919C285.041 107.919 282.711 116.52 276.772 119.155C276.772 119.155 284.017 112.258 283.78 107.609L278.636 106.748C278.636 106.748 276.624 115.966 269.947 119.224C269.947 119.224 277.269 111.755 277.492 106.633L272.303 106.429C272.303 106.429 270.154 115.343 264.599 118.047C264.599 118.047 272.176 108.563 271.108 106.464C271.108 106.464 266.336 106.559 265.083 107.201C265.083 107.201 263.397 113.585 260.025 114.855C260.025 114.855 264.421 107.99 263.773 107.382C263.773 107.382 257.587 109.173 254.931 111.737C257.259 109.258 260.194 107.431 263.445 106.436C261.62 105.405 259.533 104.93 257.441 105.069C257.441 105.069 260.311 102.528 264.976 106.006C264.976 106.006 269.835 104.817 270.618 105.127C270.618 105.127 266.541 101.079 262.865 99.9719C262.865 99.9719 267.516 99.2258 271.992 105.135L277.211 105.227C277.211 105.227 272.092 99.5398 268.888 98.3417C268.888 98.3417 273.762 98.3122 278.525 105.356L283.589 106.188C283.589 106.188 279.552 100.954 276.34 98.8757C276.34 98.8757 280.854 99.8198 285.09 106.503L288.403 107.463C288.403 107.463 285.389 103.687 284.421 102.682C283.453 101.676 283.65 101.34 283.65 101.34C286.264 102.894 288.395 105.143 289.807 107.837C289.807 107.837 296.424 110.205 296.614 109.809Z" fill="#2AAB6C"/>
<path d="M196.919 209.443C196.919 209.443 187.575 172.493 163.545 184.823C163.545 184.823 158.784 185.402 158.032 190.121C158.032 190.121 159.958 189.58 160.46 193.438C160.655 194.81 161.012 196.153 161.522 197.44C162.202 199.19 163.438 200.668 165.041 201.645C165.041 201.645 172.484 210.502 190.406 209.185C190.406 209.185 194.969 210.967 195.869 210.548L191.271 205.275C191.271 205.275 187.524 208.759 183.329 208.286C183.329 208.286 191.187 205.569 190.636 204.456C190.568 204.216 188.09 201.754 188.09 201.754C188.09 201.754 181.541 207.801 175.094 206.85C175.094 206.85 184.924 204.867 187.182 200.815L183.298 197.305C183.298 197.305 176.689 204.023 169.299 203.232C169.299 203.232 179.473 200.81 182.401 196.591L178.113 193.641C178.113 193.641 171.54 200.079 165.4 199.373C165.4 199.373 176.871 195.392 177.12 193.026C177.12 193.026 173.023 190.573 171.609 190.42C171.609 190.42 166.779 194.893 163.26 194.199C163.26 194.199 170.6 190.745 170.407 189.875C170.407 189.875 164.224 188.091 160.604 188.848C163.896 187.986 167.357 188.003 170.641 188.895C169.649 187.05 168.14 185.536 166.3 184.537C166.3 184.537 170.084 183.92 172.146 189.334C172.146 189.334 176.923 190.921 177.394 191.599C177.394 191.599 176.112 185.966 173.574 183.106C173.574 183.106 177.915 184.95 178.556 192.332L182.924 195.197C182.924 195.197 181.613 187.65 179.552 184.937C179.552 184.937 183.681 187.506 183.971 196.004L187.803 199.404C187.803 199.404 187.178 192.818 185.536 189.301C185.536 189.301 188.851 192.524 188.869 200.424L191.171 202.997C191.171 202.997 190.622 198.197 190.342 196.831C190.062 195.466 190.404 195.277 190.404 195.277C191.79 197.986 192.397 201.027 192.155 204.06C192.155 204.06 196.53 209.687 196.919 209.443Z" fill="#2AAB6C"/>
</svg>
