<svg width="109" height="105" viewBox="0 0 109 105" fill="none" xmlns="http://www.w3.org/2000/svg">
<path fill-rule="evenodd" clip-rule="evenodd" d="M79.4022 73.3134C79.4022 90.8133 61.963 105 40.4506 105C18.9382 105 1.49902 90.8133 1.49902 73.3134C1.49902 55.8135 18.9382 41.627 40.4506 41.627C61.963 41.627 79.4022 55.8135 79.4022 73.3134ZM40.4508 97.1599C56.6405 97.1599 69.7649 86.4834 69.7649 73.3134C69.7649 60.1433 56.6405 49.4669 40.4508 49.4669C24.2611 49.4669 11.1367 60.1433 11.1367 73.3134C11.1367 86.4834 24.2611 97.1599 40.4508 97.1599Z" fill="#3A7759"/>
<path d="M77.9265 2.63761C77.9431 2.52992 77.9886 2.45251 77.9679 2.36837C77.8769 2.52319 77.7776 2.73187 77.6866 2.88669C77.7694 2.78571 77.8811 2.71503 77.9265 2.63761Z" fill="#2AAB6C"/>
<path d="M47.67 27.1825C46.5697 28.2192 45.6225 29.3535 45.0683 30.7737C44.2537 32.7965 43.8279 34.9134 43.638 37.027C43.2622 41.0083 43.1512 45.0166 42.1424 48.9611C42.5643 48.4024 42.9779 47.8975 43.3998 47.3388C44.4544 45.067 45.6372 43.0543 45.885 40.5638C46.1122 38.4267 46.0084 36.256 46.3762 34.0785C46.3928 33.9708 46.6286 33.9674 46.612 34.0751C46.6166 36.4545 46.5467 38.881 46.1541 41.22C45.8358 43.0745 45.1245 44.6428 44.2725 46.2516C45.0088 45.3967 45.7161 44.5115 46.4813 43.6869C46.4523 43.6566 46.4523 43.6566 46.4606 43.6028C46.9608 41.4387 48.6485 39.6414 49.1487 37.4773C49.6944 35.2358 49.7767 32.9473 50.0287 30.6487C50.2105 29.0265 50.5163 27.0341 51.2234 25.2739L51.2317 25.22C51.2399 25.1662 51.2854 25.0888 51.3227 25.0652C51.5294 24.594 51.7652 24.1531 52.0382 23.6886C51.8148 23.83 51.5624 23.9411 51.3018 24.106L50.52 24.6009C49.7961 25.1562 49.2253 25.8092 48.8076 26.5598C48.2079 27.6199 47.7405 28.6936 47.0457 29.7168C46.9547 29.8716 46.6775 29.7067 46.7313 29.5755C46.9794 28.835 47.244 27.9869 47.67 27.1825V27.1825Z" fill="#2AAB6C"/>
<path d="M68.2834 21.8656C68.209 21.9127 68.1635 21.9901 68.089 22.0372C68.1635 21.9901 68.209 21.9127 68.2834 21.8656Z" fill="#2AAB6C"/>
<path d="M50.3886 31.1506C50.3514 31.6117 50.2853 32.0425 50.2482 32.5035C50.0913 34.4017 49.9551 36.3839 49.3348 38.235C48.7683 39.9548 47.5275 41.4695 46.932 43.159C48.6817 41.1765 50.4893 39.2546 52.3631 37.3395C53.3971 35.8585 54.4104 34.2935 55.0638 32.6645C55.924 30.5644 56.1346 28.535 56.3328 26.3676C56.5104 24.5536 56.7293 22.4703 57.6143 20.6461C57.6226 20.5923 57.6681 20.5149 57.6764 20.461C55.8149 22.0767 54.0073 23.561 52.7499 25.6208C51.7036 27.4013 51.2736 29.3264 50.3886 31.1506Z" fill="#2AAB6C"/>
<path d="M62.3082 22.9261C61.9114 25.0734 61.5477 27.4427 60.3359 29.4251C61.0474 28.7317 61.7588 28.0384 62.4786 27.2911C62.9625 26.5473 63.3802 25.7968 63.7028 25.0092C64.0873 24.0365 64.3106 23.0202 64.7241 22.0778C64.7696 22.0004 64.931 22.0441 64.9227 22.0979C64.7574 23.1749 64.3108 24.3327 63.8807 25.3828C63.7732 25.6453 63.6574 25.9616 63.4754 26.2713C64.1124 25.625 64.7122 25.0024 65.3492 24.3561C65.8952 23.4272 66.4411 22.4983 66.9788 21.6232C67.2185 20.4991 67.6569 19.3951 67.8677 18.2408C68.0537 17.2479 68.0121 16.2046 68.1981 15.2118C68.4048 14.3031 68.7439 13.4078 69.2154 12.526L69.1782 12.5496C68.9093 12.7684 68.6777 12.9636 68.4088 13.1824C67.8504 13.9733 67.1679 14.697 66.7419 15.5014C65.9975 16.8477 65.5468 18.2511 65.0299 19.6479L64.9926 19.6714C64.9678 19.833 64.9141 19.9642 64.8231 20.119C64.7776 20.1965 64.6162 20.1527 64.6245 20.0989C64.922 18.1603 65.3643 15.9357 66.4645 14.024C66.2039 14.1889 65.9722 14.3842 65.6744 14.5727C64.7685 15.4377 64.024 16.3464 63.5981 17.5883C62.9281 19.325 62.6182 21.1256 62.3082 22.9261V22.9261Z" fill="#2AAB6C"/>
<path d="M56.8992 26.8352C56.862 26.8588 56.862 26.8588 56.8992 26.8352C56.8042 27.6733 56.7092 28.5113 56.5563 29.2887C56.0437 31.7523 54.9684 33.94 53.6284 36.1008C54.4681 35.229 55.3367 34.3875 56.2054 33.5461C56.4492 32.1763 57.4585 30.8569 58.054 29.6049C59.03 27.6259 59.3689 25.8556 59.1534 23.7556C59.17 23.6479 59.3479 23.5839 59.3975 23.6983C59.9894 25.3171 59.667 26.9796 58.9929 28.5245C58.3354 29.9616 57.6323 31.4761 56.9086 32.9066C57.6655 32.1358 58.4887 31.3717 59.2456 30.6009C61.6115 27.4506 61.6523 23.6813 62.4998 20.1306C62.7478 18.9526 63.1613 17.5728 63.8312 16.2736C61.4609 17.4821 59.7402 19.4948 58.6525 21.5445C57.6144 23.2711 57.4078 25.0548 56.8992 26.8352V26.8352Z" fill="#2AAB6C"/>
<path d="M32.1124 55.4071C33.2218 59.1292 32.755 62.8279 32.5446 66.6073C33.1401 64.9178 33.8017 63.235 34.4923 61.5824C34.4961 59.1492 34.8597 56.7799 34.5614 54.3433C34.2921 51.937 33.6091 49.5981 33.3025 47.2154C33.0042 44.7788 33.012 42.0999 33.7522 39.6868C32.6768 41.4369 31.9035 43.1904 31.8459 45.3174C31.7925 47.6362 32.1901 49.8641 32.6456 52.1526C32.6663 52.2367 32.4511 52.3243 32.4015 52.2098C31.4909 49.8205 30.9236 46.7277 31.3616 43.8737C30.8531 45.6541 30.4934 47.3402 30.7627 49.309C31.0526 51.3619 31.5494 53.3811 32.1124 55.4071V55.4071Z" fill="#2AAB6C"/>
<path d="M29.7728 58.3965C29.4128 57.8951 29.119 57.4004 28.8707 56.8283C29.2516 58.7264 29.6326 60.6245 30.1831 62.5124C30.8579 64.9052 31.5327 67.298 31.5289 69.7312C31.7853 68.9369 32.0334 68.1965 32.2898 67.4022C32.1322 65.3628 32.4752 63.3468 32.5163 61.3275C32.582 58.7092 31.9734 56.3231 31.22 53.7856C30.5495 51.5847 29.916 48.9227 30.1266 46.4557C28.5552 50.5618 28.2083 54.136 29.988 58.309C30.0087 58.3931 29.8225 58.5109 29.7728 58.3965Z" fill="#2AAB6C"/>
<path d="M33.6816 42.5507C33.4627 44.634 33.6492 46.7037 34.0054 48.7634C34.7631 52.8052 35.5789 56.9076 34.7521 60.9799C35.6247 59.0178 36.5925 57.0926 37.7506 55.2415C38.077 52.8957 38.4159 50.6879 38.3079 48.3254C38.2082 45.909 38.034 43.5397 38.0005 41.13C37.9753 38.6665 38.2188 35.5467 39.5505 33.0022C39.4016 33.0965 39.3189 33.1974 39.17 33.2917C38.8928 33.5643 38.6157 33.837 38.3758 34.086C36.2125 36.5734 36.2461 39.8581 35.3117 42.8804C35.2662 42.9578 35.1338 42.9443 35.1131 42.8602C35.5553 40.1981 35.9644 37.3138 37.5071 34.9275C36.7047 35.7757 35.9684 36.6306 35.2321 37.4855C34.5705 39.1683 33.8881 40.767 33.6816 42.5507V42.5507Z" fill="#2AAB6C"/>
<path d="M38.4129 43.4955C38.5997 46.8777 39.3574 50.9196 38.2989 54.3121L38.3362 54.2885C39.395 52.6461 40.5117 51.0642 41.6574 49.5126C42.8812 44.6056 42.6032 39.6281 43.4959 34.6874C43.9093 32.4325 44.6121 29.6055 46.341 27.5389C46.2294 27.6096 46.0887 27.6499 46.0142 27.6971C45.2614 28.2222 44.5003 28.8011 43.7763 29.3565C43.2758 29.7705 42.8332 30.2451 42.4568 30.7264C42.0557 31.3693 41.7496 32.0491 41.5015 32.7896L41.4643 32.8131C41.1667 34.3141 41.1628 35.8724 40.828 37.397C40.7825 37.4744 40.6501 37.4609 40.6956 37.3835C40.8608 35.869 40.6536 34.1527 41.0629 32.5809C41.0298 32.3588 41.0256 32.167 41.0587 31.9516C40.0702 33.3551 39.2513 34.7485 38.8544 36.4582C38.4245 38.8208 38.3339 41.1632 38.4129 43.4955V43.4955Z" fill="#2AAB6C"/>
<path d="M30.8761 71.552C30.8099 71.5453 30.7809 71.515 30.7892 71.4611L30.8884 70.815C30.9007 70.5154 30.9048 70.2698 30.9172 69.9702C30.8133 67.362 29.4063 65.1409 28.6239 62.5732C28.6032 62.489 28.7439 62.4486 28.8308 62.5395C29.6502 64.2087 30.4697 65.8779 30.8754 67.6144L30.8464 67.5841C30.6683 66.3355 30.3868 65.1038 30.068 63.8956C29.8155 63.1317 29.563 62.3678 29.3478 61.5803C29.3188 61.55 29.3933 61.5029 29.3933 61.5029C29.4015 61.449 29.3726 61.4187 29.3808 61.3649C28.8799 59.5913 28.2632 57.6967 28.0436 55.8423C27.7711 58.9318 27.933 62.0381 28.7816 65.0501C29.5681 67.8097 30.6484 70.6265 30.3138 73.4637C30.5081 72.8545 30.6652 72.2689 30.8596 71.6597C30.8968 71.6361 30.8678 71.6058 30.8761 71.552V71.552Z" fill="#2AAB6C"/>
<path d="M69.5056 17.642C68.9846 19.2844 68.1782 20.8157 67.2393 22.3337C68.8152 20.607 70.2671 18.8131 71.6237 16.9821C71.3546 15.8883 72.219 14.4175 72.6988 13.4819C72.9345 13.041 73.133 12.6236 73.3688 12.1827C73.5382 11.2976 74.0469 10.3922 74.3157 9.73591L74.7996 8.55458C74.5804 8.88779 74.3901 9.25128 74.1999 9.61477C73.9476 10.1634 73.6291 10.7053 73.3479 11.2236C72.8268 12.4285 72.1444 13.5896 71.7185 14.8315C71.4621 15.6258 71.214 16.3662 70.9287 17.1302C70.875 17.2615 70.8129 17.4466 70.7302 17.5476L70.2959 18.4058C70.2959 18.4058 70.2587 18.4294 70.2297 18.3991C70.0933 18.6313 69.9651 18.8097 69.7996 19.0117L69.7624 19.0352C69.7251 19.0588 69.6879 19.0824 69.6589 19.0521C69.6217 19.0756 69.6507 19.1059 69.6135 19.1295C69.6052 19.1833 69.4438 19.1396 69.4521 19.0858C70.3286 15.5654 70.5431 11.9778 73.1572 8.96199C73.1655 8.90815 73.2027 8.88458 73.211 8.83073C72.8966 9.12692 72.6112 9.4534 72.3258 9.77989C71.329 11.2372 70.6507 12.5903 70.3201 14.3067C70.0141 15.424 69.8405 16.5549 69.5056 17.642V17.642Z" fill="#2AAB6C"/>
<path d="M72.8588 17.9009C72.6271 18.0961 72.4327 18.2678 72.2673 18.4697L72.3045 18.4462C74.1288 17.2916 76.011 16.1976 77.8063 15.0128C79.4527 13.9222 80.2137 12.9057 80.9457 11.4214C80.9416 11.2296 80.9374 11.0378 80.867 10.8392C80.867 10.8392 80.8381 10.8089 80.8753 10.7854C80.8463 10.7551 80.8463 10.7551 80.8546 10.7012C80.4825 12.2494 79.2954 13.6327 77.8641 14.6358C76.1723 15.8038 74.3231 16.6824 72.8588 17.9009V17.9009Z" fill="#2AAB6C"/>
<path d="M76.334 17.5976C74.7124 18.5267 73.1198 19.486 71.6223 20.4824C73.7073 19.6004 75.6516 18.7588 77.5296 17.473C77.5669 17.4494 77.6331 17.4561 77.6703 17.4326L78.3404 17.0084C78.4521 16.9378 78.6342 17.0656 78.5514 17.1666C77.1492 18.6375 75.0768 20.0949 73.087 21.0139C71.8914 21.5761 70.6835 22.0003 69.5624 22.5153C68.5117 23.2289 67.5562 23.9796 66.402 24.71C68.3587 23.5689 70.6215 22.6229 72.5906 21.6198C72.7396 21.5255 72.9174 21.4616 73.0664 21.3673C73.4676 21.162 73.8317 20.9802 74.1667 20.7681C76.1234 19.627 78.1917 18.4152 79.5236 16.7458C79.5691 16.6684 79.6436 16.6213 79.6518 16.5674C79.9248 16.1029 80.1026 15.6015 80.2804 15.1C79.1429 16.1603 77.4344 16.9985 76.334 17.5976V17.5976Z" fill="#2AAB6C"/>
<path d="M78.7918 22.1678C77.3522 22.7872 75.8215 23.1239 74.3612 23.6592C72.8264 24.2416 71.4655 25.0057 70.0176 25.679C69.9804 25.7026 69.9224 25.642 69.9307 25.5881C71.1262 24.5885 72.3754 23.895 73.8151 23.2756C75.4532 22.2389 77.1864 21.2391 78.5556 19.9836C78.9444 19.6403 79.2671 19.2903 79.5525 18.9638C77.6828 20.6333 74.5222 21.5154 72.0318 22.4109C69.0823 23.8887 66.0376 25.3294 63.9611 27.0326C62.3437 28.591 60.6974 30.1191 59.1752 31.7145C58.41 32.5391 57.5786 33.357 56.7844 34.1514C60.255 31.4687 65.6496 30.4854 69.7658 28.8527C72.4133 27.8091 75.185 26.8328 77.4436 25.2575C79.3299 23.9178 80.4964 22.4503 81.3359 20.7035C80.492 21.3835 79.3627 21.9524 78.7918 22.1678V22.1678Z" fill="#2AAB6C"/>
<path d="M75.9121 22.531C75.9497 22.5072 76.0165 22.514 76.0541 22.4902L76.0248 22.4597L75.9121 22.531Z" fill="#2AAB6C"/>
<path d="M76.8452 11.0041C76.9652 10.8795 77.0851 10.755 77.2423 10.6069C77.5773 9.51979 78.3383 8.50333 78.4829 7.34223C78.5986 6.58835 78.5819 5.82103 78.5653 5.0537C78.557 5.10755 78.5198 5.13111 78.5115 5.18496C78.4498 7.12011 77.7675 9.15631 76.8452 11.0041V11.0041Z" fill="#2AAB6C"/>
<path d="M74.782 15.2245L75.0054 15.0831C77.4212 13.3597 79.5846 11.3099 79.9441 8.74876C79.8737 8.5502 79.8695 8.35838 79.7991 8.15982C79.6751 8.53004 79.4849 8.89353 79.2657 9.22673C78.6248 11.4312 76.7345 13.4541 74.782 15.2245V15.2245Z" fill="#2AAB6C"/>
<path d="M66.3472 24.8415C66.31 24.8651 66.2438 24.8584 66.2438 24.8584C66.1693 24.9055 66.161 24.9594 66.0866 25.0065L66.3472 24.8415Z" fill="#2AAB6C"/>
<path d="M41.6044 60.774C40.1688 61.1477 37.2192 61.7505 36.0568 62.9723C35.5027 64.3926 35.0437 65.8499 34.5558 67.2769C36.0407 65.2675 40.1074 64.8329 42.631 64.597C45.3987 64.3039 48.2615 64.0478 50.8843 63.1658C51.1656 63.085 51.3808 62.9974 51.6331 62.8864C51.6703 62.8628 51.6703 62.8628 51.6786 62.8089C51.7158 62.7854 51.782 62.7921 51.8482 62.7988C53.1017 62.2972 54.0986 61.7149 55.0459 61.0181C52.8948 62.3309 50.0982 63.0312 47.6076 62.6142C47.4752 62.6008 47.5 62.4392 47.6324 62.4527C51.5586 62.496 54.1399 61.0081 56.9569 59.0794C57.2506 58.6991 57.507 58.3423 57.7428 57.9014C54.9752 59.0695 51.5125 59.5108 48.4139 59.7703C46.1054 59.9186 43.8755 60.2117 41.6044 60.774V60.774Z" fill="#2AAB6C"/>
<path d="M34.469 68.3058C34.4236 68.3832 34.3574 68.3765 34.2912 68.3698C34.0638 69.1943 33.7991 70.0425 33.5717 70.867C34.7134 69.5611 37.7292 68.9651 39.1937 68.6216C41.4194 68.1368 43.7361 67.9346 45.8046 67.1603C46.5161 66.9044 47.1035 66.5813 47.7282 66.2345C46.4457 66.7059 45.035 66.918 43.8145 66.7667C43.7194 66.7297 43.7649 66.6523 43.8311 66.659C45.1715 66.6858 46.4498 66.4602 47.6743 65.9283C48.3197 65.6657 48.9154 65.2887 49.5028 64.9656C50.0405 64.528 50.4831 64.0534 50.9919 63.5856C50.0735 63.8751 49.0972 64.104 48.1581 64.3094C44.1535 64.9965 36.0943 64.506 34.469 68.3058V68.3058Z" fill="#2AAB6C"/>
<path d="M46.4044 55.355C43.314 55.5607 40.1533 56.0053 38.1968 58.0214L37.899 58.6474C40.3809 56.4932 45.3371 55.7388 48.6014 56.5899C48.6965 56.6269 48.6428 56.7582 48.5476 56.7212C44.7538 56.2538 40.3768 56.7389 37.655 59.1422C37.196 60.162 36.7741 61.1582 36.3813 62.1847C38.4 60.8585 42.4046 60.1715 43.956 59.9189C46.6905 59.4037 49.5203 59.3629 52.2755 58.9319C54.5137 58.585 56.9462 58.0664 58.7415 56.8815C60.5741 55.6731 61.5046 54.2091 62.5635 52.5666C60.2386 53.6976 57.6571 54.3105 55.0136 54.6709C52.1259 55.0885 49.2879 55.1831 46.4044 55.355V55.355Z" fill="#2AAB6C"/>
<path d="M72.1636 35.7955C69.7394 36.6977 66.9594 37.2904 64.3282 37.3512C59.0742 38.2942 53.6754 39.0857 49.7538 41.4218C49.7166 41.4453 49.6504 41.4386 49.6504 41.4386C49.336 41.7348 49.0879 42.0377 48.7735 42.3339C51.3133 40.2403 54.7015 39.4086 58.2593 39.0044C62.7025 38.526 67.0754 38.2865 71.353 37.135C71.4564 37.1182 71.5061 37.2326 71.4316 37.2798C64.1094 40.3095 54.4694 37.4163 48.4178 42.8993C48.3806 42.9229 48.3144 42.9162 48.2482 42.9095C47.363 43.8586 46.544 44.8145 45.7167 45.8242C45.4231 46.2046 45.1294 46.5849 44.7985 46.9888C48.7738 44.0839 54.5491 43.6862 59.6543 43.275C62.273 43.0761 65.0242 42.8907 67.5974 42.3318C68.9832 41.8436 70.1456 41.0593 71.3949 40.3659C72.7186 39.6253 74.1541 38.8141 75.1882 37.7707C76.7021 36.2291 77.5458 34.6742 78.3936 32.8736C76.9169 34.3916 74.2652 35.6808 72.1636 35.7955V35.7955Z" fill="#2AAB6C"/>
<path d="M48.7167 49.7102C46.1146 50.2389 41.4067 51.1279 40.7824 53.6621C40.7659 53.7698 40.5673 53.7497 40.5838 53.642C40.6086 53.4804 40.6707 53.2953 40.7327 53.1102C39.9055 54.5575 39.1156 55.9811 38.4497 57.4721C41.4777 54.8265 46.8063 55.149 51.0179 54.8658C54.4475 54.6399 58.1336 54.0573 61.1617 52.7242C62.9281 51.9466 64.529 50.9334 65.5548 49.5063C62.9116 52.0543 58.154 52.8289 54.3808 51.5706C54.2856 51.5336 54.3104 51.3721 54.4056 51.4091C59.1427 52.3004 62.4523 51.324 65.9353 48.7793C66.0345 48.5707 66.1421 48.3082 66.2785 48.0759C63.362 48.9008 60.2675 48.9146 57.2019 48.9587C54.2769 48.9624 51.534 49.094 48.7167 49.7102V49.7102Z" fill="#2AAB6C"/>
<path d="M70.5573 32.6783C71.7238 32.0859 72.8821 31.5473 74.0197 30.9245C76.3031 29.1877 78.5535 27.6662 79.9266 25.2901C80.427 24.4385 80.7164 23.4289 81.0928 22.51C79.3804 24.9065 76.4847 26.6905 73.258 28.0034C70.4615 29.1412 67.6153 30.1647 64.6823 31.0972C61.29 32.1746 57.8523 33.3293 55.478 35.6585C55.4035 35.7056 55.3745 35.6753 55.3456 35.645C53.6 37.3818 51.8255 39.0883 50.1378 40.8857C54.742 38.2635 60.447 37.6671 65.8044 36.7074C65.9078 36.6905 65.974 36.6972 66.0485 36.6501C69.0809 35.9464 72.527 35.1753 75.1952 33.7783C75.9687 33.3374 76.7588 32.7887 77.4538 32.203C77.6564 31.9775 77.9253 31.7587 78.157 31.5635C78.3597 31.338 78.5251 31.136 78.6906 30.9341C78.8188 30.7557 78.947 30.5773 79.0462 30.3687C79.071 30.2071 79.162 30.0523 79.282 29.9277C79.8362 28.945 80.1629 27.9117 80.5929 26.8617C80.597 26.616 80.6673 26.377 80.7376 26.1381C78.4255 29.1572 74.4294 31.5404 70.6359 32.823C70.5532 32.924 70.4456 32.749 70.5573 32.6783V32.6783Z" fill="#2AAB6C"/>
<path d="M44.249 47.7251C43.1115 49.2228 42.0982 50.7879 41.1511 52.3597C43.182 49.8589 49.553 49.0841 52.4613 48.7506C56.0937 48.2992 59.8213 48.7599 63.4329 48.2244C65.671 47.8775 68.1863 47.2579 69.7002 45.7164C70.817 44.572 71.5615 43.2257 72.459 41.977C72.5831 41.6068 72.8478 41.1962 73.067 40.863C65.3727 45.4409 51.43 41.6731 44.249 47.7251Z" fill="#2AAB6C"/>
<path d="M79.7697 11.0008C79.1783 12.0071 78.3303 12.9327 77.3582 13.791C76.7378 14.3296 76.0511 14.8614 75.4306 15.4C76.6509 14.6762 77.9168 13.8751 78.744 12.8654C79.2486 12.2057 79.5092 11.6032 79.7697 11.0008V11.0008Z" fill="#2AAB6C"/>
<path d="M34.7799 61.0111C35.6524 59.049 36.6202 57.1238 37.7783 55.2727L37.8775 54.6265L35.1224 56.3701C35.1558 57.9048 35.0857 59.4563 34.7799 61.0111V61.0111Z" fill="#34DB89"/>
<path d="M34.469 68.3058C34.4236 68.3832 34.3574 68.3765 34.2912 68.3698C34.0638 69.1943 33.7991 70.0425 33.5717 70.867C34.7134 69.5611 37.7292 68.9651 39.1937 68.6216C41.4194 68.1368 43.7361 67.9346 45.8046 67.1603C46.5161 66.9044 47.1035 66.5813 47.7282 66.2345C46.4457 66.7059 45.035 66.918 43.8145 66.7667C43.7194 66.7297 43.7649 66.6523 43.8311 66.659C45.1715 66.6858 46.4498 66.4602 47.6743 65.9283C48.3197 65.6657 48.9154 65.2887 49.5028 64.9656C50.0405 64.528 50.4831 64.0534 50.9919 63.5856C50.0735 63.8751 49.0972 64.104 48.1581 64.3094C44.1535 64.9965 36.0943 64.506 34.469 68.3058V68.3058Z" fill="#34DB89"/>
<path d="M33.3734 71.9151C33.7746 71.2722 35.0074 70.6865 35.5121 70.4643C36.7076 69.9022 37.9983 69.377 39.3842 69.3263C39.4876 69.3095 39.5001 69.4475 39.3967 69.4643C38.0066 69.7607 36.5918 70.2185 35.417 70.8648C34.904 71.1408 34.3538 71.4404 33.9567 71.8376C33.7541 72.0631 33.6176 72.2954 33.357 72.4603C33.3197 72.4839 33.2908 72.4536 33.2908 72.4536C33.299 72.3997 33.2783 72.3156 33.2866 72.2617L33.2204 72.255C33.0468 72.9483 32.8649 73.6955 32.7202 74.4191C33.8535 73.167 36.4763 72.2849 37.8829 71.8809C41.7178 70.7665 45.019 69.4065 47.538 66.7912C46.3342 67.4072 44.9856 67.8718 43.5211 68.2153C40.7783 68.7843 34.1424 69.0947 33.3734 71.9151V71.9151Z" fill="#34DB89"/>
<path d="M41.6044 60.774C40.1688 61.1477 37.2192 61.7505 36.0568 62.9723C35.5027 64.3926 35.0437 65.8499 34.5558 67.2769C36.0407 65.2675 40.1074 64.8329 42.631 64.597C45.3987 64.3039 48.2615 64.0478 50.8843 63.1658C51.1656 63.085 51.3808 62.9974 51.6331 62.8864C51.6703 62.8628 51.6703 62.8628 51.6786 62.8089C51.7158 62.7854 51.782 62.7921 51.8482 62.7988C53.1017 62.2972 54.0986 61.7149 55.0459 61.0181C52.8948 62.3309 50.0982 63.0312 47.6076 62.6142C47.4752 62.6008 47.5 62.4392 47.6324 62.4527C51.5586 62.496 54.1399 61.0081 56.9569 59.0794C57.2506 58.6991 57.507 58.3423 57.7428 57.9014C54.9752 59.0695 51.5125 59.5108 48.4139 59.7703C46.1054 59.9186 43.8755 60.2117 41.6044 60.774V60.774Z" fill="#34DB89"/>
<path d="M30.1796 62.5121C30.8544 64.9049 31.5291 67.2976 31.5254 69.7309C31.7818 68.9366 32.0299 68.1962 32.2862 67.4019C32.1287 65.3624 32.4717 63.3465 32.5127 61.3272C32.5457 60.2368 32.4379 59.1868 32.2929 58.1603L29.5007 59.9275C29.7077 60.7688 29.9147 61.6102 30.1796 62.5121V62.5121Z" fill="#34DB89"/>
<path d="M32.578 66.5836C33.1734 64.8941 33.8351 63.2113 34.5257 61.5588C34.5461 59.8929 34.6617 58.264 34.711 56.6283L32.6634 57.9243C33.0279 60.8051 32.7223 63.6725 32.578 66.5836Z" fill="#34DB89"/>
<path d="M30.88 71.5514C30.8138 71.5447 30.7848 71.5144 30.7931 71.4606L30.8923 70.8144C30.9046 70.5149 30.9087 70.2692 30.9211 69.9697C30.8172 67.3614 29.4102 65.1404 28.6279 62.5726C28.6072 62.4885 28.7478 62.4481 28.8347 62.5389C29.6541 64.2081 30.4736 65.8773 30.8793 67.6138L30.8504 67.5836C30.6722 66.335 30.3907 65.1033 30.0719 63.8951C29.8194 63.1311 29.5669 62.3672 29.3517 61.5797C29.3227 61.5494 29.3972 61.5023 29.3972 61.5023C29.4054 61.4484 29.3765 61.4182 29.3847 61.3643C29.273 60.9975 29.1612 60.6307 29.0577 60.21L28.0525 60.8462C28.1686 62.2799 28.4253 63.6731 28.8145 65.0799C29.601 67.8395 30.6813 70.6563 30.3466 73.4934C30.541 72.8842 30.6981 72.2986 30.8924 71.6894C30.9007 71.6356 30.8717 71.6053 30.88 71.5514V71.5514Z" fill="#34DB89"/>
<path d="M78.1128 8.20823C76.8761 10.3522 75.6685 12.5264 74.4319 14.6704C74.1134 15.2122 74.9823 15.6833 75.5407 15.3299C77.9979 13.7747 79.5199 10.8668 79.5029 8.34942C79.5152 7.61238 78.1127 7.77072 78.1004 8.50776C78.1173 10.5876 76.7484 13.1556 74.7007 14.4516C75.0731 14.6534 75.4372 14.9092 75.8096 15.1111C77.0462 12.9671 78.2539 10.7929 79.4905 8.64894C79.7965 7.96908 78.485 7.53509 78.1128 8.20823V8.20823Z" fill="#3A7759"/>
<path d="M77.3195 5.06441C77.0055 7.11066 76.6252 9.15017 76.2822 11.1661C76.1995 11.7046 77.1801 12.105 77.5648 11.5698C78.3258 10.5534 78.7517 9.31148 78.9335 8.12681C79.1361 7.02628 79.2972 5.75748 78.5772 4.75465C78.1013 4.13209 76.9844 4.83896 77.4603 5.46152C77.9858 6.1985 77.6633 7.42357 77.5104 8.20101C77.3037 9.10971 77.0225 10.0655 76.4269 10.8801C76.8448 11.0045 77.2916 11.1593 77.7095 11.2838C78.0236 9.23752 78.4038 7.19801 78.7469 5.18205C78.8543 4.48202 77.4642 4.34082 77.3195 5.06441Z" fill="#3A7759"/>
<path d="M78.9463 7.82756L78.3758 10.2306C78.2186 10.8162 79.253 11.0853 79.6583 10.6343C80.4236 9.80965 80.5144 8.77981 80.3239 7.83077C80.2038 7.08028 78.8014 7.23862 78.9215 7.98911C79.0498 8.68574 79.0748 9.39921 78.5122 9.99833C78.9301 10.1228 79.3769 10.2776 79.7948 10.402L80.3653 7.99904C80.481 7.24516 79.0909 7.10397 78.9463 7.82756V7.82756Z" fill="#3A7759"/>
<path d="M76.5662 15.6529C78.4815 14.3435 80.0369 13.4077 80.5578 11.3278C80.7149 10.7422 79.7096 10.5034 79.2752 10.9241L72.1771 17.7501C71.7428 18.1708 72.409 18.8674 73.0171 18.6284C74.5519 18.046 75.5569 16.5348 76.6779 15.5822C77.2984 15.0437 76.1606 14.3539 75.5401 14.8924C74.6135 15.6733 73.6539 17.1071 72.4377 17.5852L73.2777 18.4634L80.3758 11.6375C79.958 11.513 79.5111 11.3582 79.0932 11.2338C78.6302 12.9367 77.1947 13.748 75.66 14.7679C75.0189 15.2223 75.8878 16.1309 76.5662 15.6529V15.6529Z" fill="#3A7759"/>
<path d="M80.0852 13.7677C80.929 12.6503 81.7686 11.341 81.1644 10.0218C80.916 9.44971 79.9769 9.65511 79.7991 10.1566C79.5014 11.2201 79.1375 12.2769 78.7737 13.3337C78.5628 14.0506 79.9529 14.1918 80.1638 13.4749C80.4615 12.4114 80.8915 11.3613 81.1892 10.2978C80.7466 10.3348 80.2667 10.3955 79.824 10.4326C80.2586 11.3244 79.4685 12.3105 78.9184 13.0476C78.48 13.714 79.6178 14.4038 80.0852 13.7677V13.7677Z" fill="#3A7759"/>
<path d="M71.9477 20.3242C73.3295 20.0817 74.5457 19.6036 75.7412 19.0415C75.4888 18.7151 75.2736 18.3651 75.0502 18.0689C72.5475 19.7015 70.082 21.3105 67.5794 22.943C66.872 23.3907 67.7409 24.2993 68.4483 23.8516C72.676 21.2731 77.5451 19.5528 80.5977 15.8707C81.0485 15.3422 80.2127 14.6558 79.6087 15.0866L78.6408 15.6992C78.9676 15.9785 79.3318 16.2343 79.6297 16.4833C80.1178 15.9313 80.4859 15.5038 80.7547 14.8475C80.9697 14.3225 80.2415 13.811 79.6458 14.188C76.8991 15.8778 74.1151 17.5911 71.3973 19.3112C70.6899 19.7589 71.5589 20.6675 72.2662 20.2198C75.013 18.53 77.797 16.8167 80.5148 15.0966C80.1424 14.8947 79.7783 14.639 79.4059 14.4371C79.2571 14.9689 78.9551 15.403 78.4546 15.8171C77.9748 16.3152 78.8396 17.0319 79.4435 16.6011L80.4115 15.9885C80.0846 15.7092 79.7205 15.4534 79.4226 15.2044C76.3866 18.7789 71.6292 20.4285 67.4759 22.9598L68.3449 23.8684C70.8476 22.2359 73.313 20.6269 75.8157 18.9944C76.4114 18.6174 75.8155 17.6818 75.1246 18.0218C74.0408 18.5133 72.928 18.9745 71.6786 19.2304C70.8222 19.3348 71.0169 20.4757 71.9477 20.3242V20.3242Z" fill="#3A7759"/>
<path d="M67.9824 24.4875L70.7747 22.7204C71.3703 22.3434 70.8034 21.4381 70.0836 21.7478C68.9336 22.2326 68.0607 22.8822 67.1135 23.579C66.464 24.0872 67.333 24.9958 67.9824 24.4875C68.818 23.8615 69.5874 23.2287 70.5968 22.7843C70.3443 22.4579 70.1292 22.1079 69.9057 21.8118L67.1135 23.579C66.4061 24.0267 67.275 24.9352 67.9824 24.4875Z" fill="#3A7759"/>
<path d="M71.0335 23.868C75.1373 22.5348 79.6423 20.5588 81.6358 17.2065C81.9543 16.6647 81.0771 16.2474 80.5269 16.547C76.3985 18.9168 72.3073 21.263 68.1788 23.6328C67.517 24.003 68.1584 24.8612 68.8699 24.6053C69.6187 24.3259 70.322 24.1239 71.0335 23.868C71.8857 23.5718 71.3435 22.505 70.4914 22.8012C69.7798 23.0571 69.0765 23.2591 68.365 23.5149C68.6174 23.8414 68.8326 24.1913 69.0561 24.4875C73.1845 22.1177 77.2757 19.7715 81.4042 17.4018C81.0318 17.1999 80.6677 16.9441 80.2953 16.7423C78.4838 19.7848 74.1442 21.559 70.4624 22.7709C69.6764 23.0739 70.2185 24.1407 71.0335 23.868Z" fill="#3A7759"/>
<path d="M68.8803 17.5518C68.1855 19.0125 67.528 20.4496 66.8332 21.9103C66.5354 22.5363 67.5449 22.967 68.062 22.4453C69.4104 21.1056 69.828 19.4801 70.2166 17.8242C70.3613 17.1006 68.9712 16.9594 68.8265 17.683C68.5 19.1538 68.1154 20.564 66.9242 21.7555L68.153 22.2904C68.8478 20.8297 69.5053 19.3926 70.2001 17.9319C70.5351 17.2823 69.2235 16.8483 68.8803 17.5518V17.5518Z" fill="#3A7759"/>
<path d="M70.1893 17.9848C71.5789 15.0634 72.9023 12.1353 74.2919 9.21393C74.5524 8.61148 73.5511 8.12696 73.063 8.67895C70.5564 11.4322 69.593 14.4242 68.8158 17.7359C68.6711 18.4595 70.0612 18.6007 70.2059 17.8771C70.9211 14.7505 71.8514 11.9739 74.1636 9.39231L72.9348 8.85734C71.5453 11.7787 70.2219 14.7068 68.8323 17.6282C68.5718 18.2307 69.8833 18.6647 70.1893 17.9848V17.9848Z" fill="#3A7759"/>
<path d="M73.2912 14.2258C73.3904 14.0171 73.4607 13.7782 73.531 13.5392C73.8081 12.8291 72.5917 12.4321 72.2194 13.1052C71.2227 15.0001 70.226 16.895 69.2665 18.7663C68.9398 19.362 70.0072 19.8533 70.4953 19.3013C71.8976 17.8304 72.5468 16.0096 73.2912 14.2258C73.5972 13.546 72.2856 13.112 71.9796 13.7918C71.289 15.4443 70.677 17.2416 69.3865 18.6418L70.6153 19.1767C71.612 17.2819 72.6087 15.387 73.5682 13.5157C73.1214 13.3609 72.7035 13.2364 72.2567 13.0817C72.1864 13.3206 72.0871 13.5293 72.0168 13.7683C71.7025 14.502 73.0141 14.936 73.2912 14.2258V14.2258Z" fill="#3A7759"/>
<path d="M75.0575 7.76058C73.6304 9.393 72.944 11.2374 72.2203 13.1053C71.9432 13.8154 73.1596 14.2124 73.5319 13.5393C74.4376 11.7992 75.3433 10.0592 76.2863 8.29555C76.6585 7.62241 75.347 7.18841 74.9747 7.86155C74.069 9.6016 73.1633 11.3417 72.2203 13.1053C72.6671 13.26 73.085 13.3845 73.5319 13.5393C74.21 11.7488 74.851 9.98182 76.1953 8.45038C76.7289 7.82097 75.62 7.16147 75.0575 7.76058V7.76058Z" fill="#3A7759"/>
<path d="M70.3259 10.7528C67.1615 13.6306 65.1059 16.7305 64.1881 20.5201C64.0144 21.2134 65.206 21.3344 65.5534 20.8228C67.5511 17.6624 69.5488 14.502 71.5175 11.3113C71.9187 10.6685 70.6071 10.2345 70.2059 10.8773C68.2083 14.0377 66.2106 17.1981 64.2419 20.3888C64.697 20.4897 65.1521 20.5906 65.6072 20.6916C66.4629 17.087 68.4937 14.1488 71.4637 11.4426C72.0842 10.904 70.9464 10.2142 70.3259 10.7528V10.7528Z" fill="#3A7759"/>
<path d="M62.2403 25.9833C64.1509 21.857 66.0243 17.7542 67.8978 13.6515C68.1873 13.0794 67.0991 12.504 66.6689 13.1166C65.2875 15.1091 63.5543 16.9838 62.4873 19.1177C61.4658 21.1741 61.1022 23.5434 60.8667 25.7344C60.7882 26.4647 62.1783 26.6059 62.2568 25.8756C62.513 23.7687 62.8229 21.5307 63.7989 19.5517C64.7832 17.5188 66.4708 15.7215 67.8068 13.8063L66.5779 13.2714C64.6673 17.3977 62.7939 21.5004 60.9205 25.6031C60.6227 26.2291 61.9343 26.6631 62.2403 25.9833Z" fill="#3A7759"/>
<path d="M57.3566 28.6857C60.2725 24.3607 63.1512 20.0593 66.0589 15.7882C66.3236 15.3776 65.6698 14.819 65.1279 15.0647C59.0633 17.7847 55.6759 22.9915 55.9954 28.5748C56.0494 29.3185 57.4518 29.1602 57.3979 28.4164C57.1281 23.3851 60.2219 18.5586 65.6783 16.0776C65.3804 15.8286 65.0825 15.5796 64.7473 15.3542C61.8314 19.6791 58.9527 23.9805 56.045 28.2517C55.6066 28.9181 56.9554 29.3285 57.3566 28.6857V28.6857Z" fill="#3A7759"/>
<path d="M50.7199 34.2461C53.5075 29.6621 56.3241 25.1082 59.1407 20.5544C59.4509 20.0664 58.5614 19.5112 58.0319 19.8949C55.0204 21.9953 52.5758 24.5635 51.0746 27.5555C50.1978 29.3259 48.3863 32.3685 49.4374 34.2799C49.8016 34.9732 51.113 34.5322 50.7488 33.8389C49.8839 32.2472 51.9146 28.8714 52.7501 27.3703C54.1852 24.809 56.3072 22.5909 58.9381 20.78C58.5657 20.5781 58.2016 20.3223 57.8292 20.1205C55.0416 24.7045 52.225 29.2583 49.4084 33.8122C49.0072 34.455 50.3187 34.889 50.7199 34.2461V34.2461Z" fill="#3A7759"/>
<path d="M54.3721 36.3114C55.8649 32.4981 57.788 28.9473 57.3116 24.8247C57.2494 24.1348 56.0621 24.2056 55.8967 24.845L52.9695 36.0322C52.7586 36.7491 54.2149 36.897 54.3596 36.1734L57.2868 24.9862L55.8719 25.0066C56.3525 28.8836 54.4169 32.2964 53.0233 35.9009C52.7834 36.5875 54.095 37.0215 54.3721 36.3114V36.3114Z" fill="#3A7759"/>
<path d="M76.6832 31.7694C73.2955 35.2261 69.8416 38.6761 66.4167 42.1564C66.0568 42.53 66.4583 43.1996 67.0498 43.0683C73.2305 41.782 76.0967 36.9051 77.8748 32.3279C78.1519 31.6177 76.8403 31.1837 76.5633 31.8939C74.9629 35.9696 72.4815 40.7489 66.8924 41.9039C67.1159 42.2 67.3393 42.4962 67.5256 42.8159C70.9133 39.3591 74.3672 35.9091 77.7921 32.4289C78.3754 31.9139 77.2748 31.2005 76.6832 31.7694V31.7694Z" fill="#3A7759"/>
<path d="M77.7091 32.0931C77.5354 32.3489 77.3617 32.6047 77.2252 32.8369C77.0804 33.123 77.2956 33.473 77.6473 33.5907C77.999 33.7085 78.392 33.557 78.574 33.2474C78.6732 33.0387 78.8387 32.8367 78.9379 32.6281C79.1116 32.3723 78.8675 31.992 78.5158 31.8742C78.1641 31.7565 77.7711 31.908 77.5891 32.2176C77.4899 32.4263 77.3244 32.6282 77.2252 32.8369C77.672 32.9917 78.0899 33.1162 78.5367 33.2709C78.6277 33.1161 78.7642 32.8839 78.8469 32.7829C79.0579 32.5035 79.0413 32.1737 78.6978 32.0021C78.4289 31.7834 77.9201 31.8137 77.7091 32.0931V32.0931Z" fill="#3A7759"/>
<path d="M77.2514 32.8667C76.9784 33.3312 76.6765 33.7653 76.4035 34.2298C76.0106 34.8188 77.1442 35.3168 77.6323 34.7648C78.0377 34.3138 78.3189 33.7954 78.5712 33.2468C78.9062 32.5973 77.5946 32.1633 77.2514 32.8667C77.0156 33.3076 76.8171 33.7249 76.5234 34.1053L77.7523 34.6402C78.0252 34.1758 78.3272 33.7416 78.6001 33.2771C78.7739 33.0213 78.5297 32.6411 78.178 32.5233C77.7602 32.3988 77.3961 32.5806 77.2514 32.8667V32.8667Z" fill="#3A7759"/>
<path d="M73.0661 32.1133C74.2864 31.3895 75.5564 30.7802 76.7106 30.0498C76.3837 29.7705 76.0196 29.5148 75.7216 29.2658C73.5128 31.393 71.3412 33.4967 69.1323 35.6239C68.7724 35.9975 69.2111 36.6436 69.7654 36.5359C76.2191 35.2226 79.5487 30.3928 81.3682 25.5463C81.5997 24.9135 80.6936 24.466 80.1394 25.0113C79.3079 25.8292 78.4848 26.5933 77.6534 27.4112C78.0547 27.6433 78.3898 27.8688 78.7912 28.101C80.2761 26.0916 81.19 23.8602 82.2942 21.7028C82.621 21.1071 81.5535 20.6158 81.0654 21.1678C78.0542 24.5808 75.0429 27.9937 72.0027 31.3763C71.4774 31.9519 72.578 32.6653 73.1406 32.0661C76.1518 28.6532 79.163 25.2403 82.2032 21.8576L80.9744 21.3226C79.8867 23.3723 79.0845 25.5331 77.6451 27.465C77.1777 28.1011 78.1914 28.7236 78.7829 28.1548C79.6143 27.3369 80.4375 26.5728 81.2689 25.7549L80.0401 25.22C78.4274 29.5953 75.4536 34.2972 69.5543 35.5027C69.7777 35.7988 70.0012 36.095 70.1874 36.4147C72.3963 34.2874 74.5679 32.1838 76.7767 30.0565C77.2938 29.5348 76.3918 28.8416 75.7878 29.2725C74.5965 30.0265 73.3265 30.6358 72.1434 31.3359C71.4236 31.6456 72.2925 32.5542 73.0661 32.1133V32.1133Z" fill="#3A7759"/>
<path d="M80.5416 19.3103C76.9509 21.2425 73.3602 23.1747 69.7406 25.0766C68.9381 25.4873 69.8442 26.3723 70.6095 25.9852C71.8423 25.3995 72.9592 24.6926 74.3078 24.228C75.4786 23.8274 76.7279 23.5715 77.9194 23.255L77.0794 22.3767L70.8871 27.9001C70.4155 28.3444 71.1272 28.9636 71.727 28.7784C74.1719 27.9603 76.2031 26.7721 77.8949 25.1666C79.504 23.662 81.3198 21.6863 82.0145 19.7881C82.2006 19.2328 81.5303 18.7819 80.9057 19.1286L80.7567 19.2228C81.1291 19.4247 81.4932 19.6804 81.8656 19.8823C81.8739 19.8285 81.9483 19.7814 81.9566 19.7275C82.3205 19.1082 81.2366 18.7247 80.7278 19.1925C80.645 19.2935 80.4961 19.3878 80.4134 19.4887C79.7929 20.0273 80.9308 20.7171 81.5512 20.1785C81.634 20.0776 81.7829 19.9833 81.8656 19.8823L80.6368 19.3474C80.6285 19.4012 80.5541 19.4483 80.5458 19.5022C80.2273 20.0441 81.1045 20.4613 81.6547 20.1617L81.8036 20.0674C81.4312 19.8655 81.0671 19.6098 80.6947 19.4079C80.1447 21.0201 78.5771 22.6929 77.3031 23.9854C75.6609 25.7053 73.6588 26.9238 71.1766 27.7655L72.0166 28.6438L78.2089 23.1203C78.7177 22.6525 77.9688 22.0569 77.369 22.242C75.9252 22.6696 74.4028 22.9525 73.0086 23.4945C71.8958 23.9557 70.8534 24.6154 69.7323 25.1305L70.6013 26.0391C74.192 24.1069 77.7827 22.1747 81.4023 20.2728C82.1469 19.8015 81.278 18.8929 80.5416 19.3103V19.3103Z" fill="#3A7759"/>
<path d="M63.8112 48.6189C64.3366 48.4808 64.8248 48.3663 65.3212 48.198C65.1432 47.8245 64.957 47.5048 64.779 47.1312C61.4861 48.4374 58.1932 49.7436 54.9375 51.0262C54.4038 51.2181 54.2964 51.9181 54.9418 52.093C58.5578 53.0619 62.3182 51.5571 64.858 49.4635C65.6274 48.8307 66.1196 48.033 67.0049 47.5214C68.039 46.9155 69.1229 46.424 69.9833 45.6364C71.6585 44.1385 71.9519 42.0081 73.532 40.4733C74.0491 39.9516 73.1388 39.3123 72.5431 39.6893C67.5749 42.4933 62.5985 45.3511 57.6303 48.1551C57.0056 48.5018 57.5394 49.185 58.1434 49.1916C60.03 49.1645 61.8296 49.0465 63.6623 48.7131C64.5559 48.5851 64.3612 47.4443 63.4676 47.5722C61.606 47.8753 59.8064 47.9933 57.9488 48.0508C58.0978 48.394 58.313 48.744 58.462 49.0873C63.4302 46.2833 68.4067 43.4254 73.3749 40.6214C73.048 40.3421 72.6839 40.0864 72.386 39.8374C71.2774 40.9279 70.806 42.2472 70.0408 43.5094C68.8745 45.4144 66.6116 45.9228 65.1059 47.4105C62.8061 49.6926 59.4058 52.1363 55.4671 51.08C55.4464 51.4333 55.492 51.7934 55.4714 52.1468C58.7643 50.8406 62.0572 49.5345 65.3129 48.2519C66.1361 47.9253 65.6519 46.9191 64.7708 47.1851C64.2743 47.3534 63.7779 47.5217 63.2608 47.6059C62.4251 47.7945 62.9673 48.8613 63.8112 48.6189V48.6189Z" fill="#3A7759"/>
<path d="M55.9935 57.9421C56.0969 57.9253 56.2665 57.9152 56.3699 57.8983C56.2209 57.5551 56.0057 57.2051 55.8567 56.8618C53.4285 58.4472 51.0334 60.2548 48.4314 61.6584C46.6774 62.5741 43.281 63.4596 40.9396 64.2608C40.1618 64.5099 40.5302 65.395 41.2749 65.3613C43.9433 65.2768 46.5579 64.8862 49.1393 64.2733C48.8869 63.9469 48.6717 63.5969 48.4483 63.3008C46.8184 64.2837 45.1224 65.2599 43.4925 66.2428C42.8968 66.6198 43.3644 67.2962 44.0057 67.2793C44.5063 67.3028 45.0234 67.2186 45.5116 67.1041L45.1763 66.0036C44.0717 66.411 42.901 66.8116 41.7964 67.219C40.1582 67.8182 38.7848 68.0068 36.9893 68.3167C37.1383 68.6599 37.3535 69.0099 37.5025 69.3532C39.9556 68.0437 42.4169 66.6804 44.87 65.371C45.383 65.0949 45.1222 64.3849 44.5264 64.3243C42.6647 64.1899 40.8941 64.3382 39.111 64.786C39.3635 65.1125 39.5786 65.4624 39.8021 65.7586C42.5075 63.9005 45.279 62.0492 47.9844 60.1912C48.5056 59.8613 48.1952 59.0368 47.4712 59.1546C43.5328 59.8484 39.6067 60.2426 36.9677 62.9824C37.369 63.2146 37.7042 63.44 38.1055 63.6722C38.7591 62.9182 39.4498 62.1407 40.1034 61.3868C40.5087 60.9358 39.9294 60.3301 39.2634 60.5085C36.1317 61.4209 35.5861 64.0999 34.1798 66.2539C33.7869 66.8429 34.9578 67.3173 35.4087 66.7889C36.2276 65.833 37.0839 64.8536 37.9028 63.8977C37.5015 63.6655 37.1664 63.4401 36.765 63.2079C35.3794 65.0086 34.5275 67.0549 33.3322 68.9296C32.9682 69.5489 34.0812 69.9627 34.561 69.4646C34.7926 69.2693 34.9953 69.0438 35.169 68.788L33.9402 68.2531L33.932 68.3069C33.7169 68.832 34.4741 69.3737 35.0408 68.9664C35.3387 68.7779 35.6075 68.5591 35.9054 68.3706C35.533 68.1687 35.1689 67.913 34.7965 67.7111C34.1472 68.6569 33.6302 69.6161 32.7326 70.4273C32.261 70.8716 32.9727 71.4908 33.5725 71.3056C33.676 71.2887 33.7504 71.2416 33.8166 71.2484L32.9766 70.3701C32.9394 70.3936 32.9311 70.4475 32.8939 70.471C32.472 71.0297 33.221 71.6254 33.8828 71.2551C34.3586 71.0026 34.8839 70.8646 35.3804 70.6962L34.5404 69.8179C34.1515 70.1613 33.6304 70.9287 33.2209 71.1878C32.588 71.5884 33.1632 72.4398 33.9119 72.1604C33.614 71.9114 33.3161 71.6624 32.981 71.4369C32.3151 72.4904 31.9677 73.4395 31.9183 74.6376C31.8936 75.2367 32.6921 75.5092 33.2009 75.0413C34.3301 74.0349 35.4594 73.0285 36.6176 72.0524C38.0157 70.8272 38.2556 70.5781 39.8566 70.0024C40.6054 69.723 40.266 68.8682 39.5213 68.902C39.1531 68.8919 38.7766 68.9357 38.4291 69.0098C38.6526 69.3059 38.876 69.6021 39.0623 69.9218C39.9144 69.188 42.6822 69.3324 44.0432 69.0058C43.7908 68.6794 43.5756 68.3294 43.3521 68.0332C41.441 69.0969 39.5298 70.1607 37.6476 71.2546C36.9485 71.6485 37.6354 72.4292 38.3387 72.2272C39.9148 71.8131 41.3834 71.2239 42.7651 70.5439C44.2957 69.7697 45.3381 68.6724 46.7156 67.8006C47.3857 67.3765 46.7568 66.6564 46.0245 66.8281C45.9873 66.8517 45.9211 66.8449 45.9211 66.8449L46.7611 67.7232C46.881 67.5987 46.972 67.4439 47.092 67.3193C47.5428 66.7909 46.7649 66.165 46.1031 66.5353C44.0802 67.6697 41.2753 67.9864 38.909 68.5116L39.7489 69.3899C39.9061 69.2418 40.1792 69.2149 40.3943 69.1273C41.172 68.8782 40.8409 67.9696 40.059 68.0269C39.9928 68.0202 39.9556 68.0437 39.8521 68.0606C39.9267 68.4509 39.9722 68.811 40.0468 69.2014C43.1081 68.528 46.3806 68.4502 48.3205 66.1043C48.6597 65.6465 48.1548 64.9937 47.4805 65.226C47.3399 65.2664 47.2654 65.3135 47.1247 65.3539C47.3772 65.6803 47.5924 66.0303 47.8158 66.3264C48.7011 65.8148 49.3215 65.2762 50.062 64.6132C50.8479 63.8727 51.6339 63.5697 52.7177 63.0782C54.2773 62.3342 55.4273 61.412 56.2958 60.133C56.5978 59.6988 55.8985 59.2176 55.3649 59.4095L52.92 60.2276C53.1724 60.554 53.3876 60.904 53.611 61.2002C55.6629 60.0961 56.5438 58.5175 58.2605 57.188C60.0144 55.8349 61.007 54.1857 62.4547 52.6374C62.9718 52.1157 62.0905 51.5066 61.4658 51.8533C57.0354 54.2198 52.6422 56.5626 48.1827 58.8988C47.5581 59.2455 48.0919 59.9286 48.6959 59.9353C51.4678 59.834 53.8589 59.1472 56.1631 57.932C56.9284 57.5449 56.0594 56.6363 55.2941 57.0234C53.2051 58.1511 51.029 58.7504 48.5302 58.8247C48.6792 59.168 48.8944 59.518 49.0434 59.8612C53.4739 57.4948 57.8671 55.1519 62.3265 52.8158C61.9996 52.5365 61.6355 52.2807 61.3376 52.0317C59.9271 53.5564 58.9552 55.2898 57.1144 56.552C56.2871 57.1243 56.2085 57.4171 55.5839 58.2013C54.8394 59.1101 53.8921 59.8068 52.7628 60.3757C52.1009 60.746 52.7423 61.6041 53.4538 61.3483L55.8987 60.5302C55.6008 60.2812 55.3029 60.0321 54.9678 59.8067C54.4011 60.6515 53.6317 61.2843 52.672 61.8431C51.8612 62.3076 50.5829 62.5332 49.8383 63.0045C48.7586 63.6878 48.2168 64.8086 46.9676 65.502C46.3057 65.8723 46.9471 66.7304 47.6586 66.4745C47.7993 66.4341 47.8737 66.387 48.0144 66.3466L47.1744 65.4683C45.5199 67.4878 42.5205 67.5386 39.8811 68.0908C39.0454 68.2794 39.1242 69.2991 40.0758 69.2317C40.1419 69.2384 40.1792 69.2149 40.2826 69.198L39.9473 68.0976C39.4136 68.2895 39.0951 68.3938 38.7063 68.7371C38.1975 69.205 38.9547 69.7468 39.5463 69.6154C42.0905 69.0262 44.8954 68.7095 47.0672 67.4809C46.7403 67.2016 46.3762 66.9458 46.0783 66.6968C45.9583 66.8214 45.8673 66.9762 45.7474 67.1007C45.3338 67.6056 45.9585 68.1339 46.5874 67.979C46.6246 67.9555 46.6908 67.9622 46.6908 67.9622C46.4384 67.6358 46.2232 67.2858 45.9997 66.9896C44.8084 67.7436 43.9232 68.6928 42.6367 69.4098C41.1722 70.1907 39.592 70.8506 37.9124 71.2815C38.1648 71.608 38.38 71.9579 38.6035 72.2541C40.5146 71.1904 42.4258 70.1267 44.308 69.0327C45.0071 68.6388 44.3202 67.8581 43.6169 68.0601C41.6932 68.5483 39.4384 68.1279 38.0403 69.3531C37.6142 69.72 38.1273 70.319 38.6734 70.2651C39.0499 70.2213 39.3892 70.2011 39.7656 70.1573L39.4303 69.0568C36.369 70.1677 34.4291 72.5137 32.2079 74.5029C32.6257 74.6274 33.0726 74.7822 33.4904 74.9067C33.5151 73.8701 33.8252 72.9445 34.4084 71.992C34.7103 71.5579 33.9821 71.0464 33.4774 71.2686C33.7298 71.595 33.945 71.945 34.1685 72.2411C34.7641 71.8641 35.2191 71.09 35.7568 70.6524C36.2574 70.2384 35.5167 69.589 34.9169 69.7741C34.2798 69.9829 33.6799 70.168 33.0925 70.4912C33.4194 70.7705 33.7835 71.0262 34.0814 71.2752C34.1186 71.2517 34.1269 71.1978 34.1641 71.1743C34.5405 70.693 33.9985 70.0637 33.3241 70.296C33.2207 70.3128 33.1463 70.3599 33.0801 70.3532L33.9201 71.2315C34.8921 70.3732 35.4629 69.2827 36.1577 68.2595C36.5052 67.7479 35.5701 67.2702 35.0489 67.6C34.751 67.7885 34.4821 68.0073 34.1843 68.1958C34.5567 68.3977 34.9208 68.6534 35.2932 68.8553L35.3014 68.8015C35.5247 68.2226 34.5317 67.6842 34.0726 68.2665C33.8989 68.5223 33.6962 68.7478 33.4646 68.943L34.6934 69.478C35.8432 67.6807 36.6124 65.7354 37.9525 64.0121C38.4489 63.4063 37.3483 62.6929 36.8147 63.3223C35.9957 64.2782 35.1395 65.2576 34.3205 66.2135L35.5493 66.7485C36.7364 64.9277 37.22 62.4338 39.8552 61.6897L39.0152 60.8114C38.3617 61.5654 37.6709 62.3429 37.0174 63.0968C36.521 63.7026 37.5926 64.3857 38.1552 63.7866C40.5171 61.3194 44.1908 61.0363 47.7155 60.4099C47.5665 60.0667 47.3513 59.7167 47.2023 59.3734C44.497 61.2315 41.7254 63.0828 39.02 64.9409C38.4161 65.3717 38.9706 66.139 39.7111 65.9134C41.2501 65.5228 42.8139 65.4082 44.4108 65.5157C44.2991 65.1489 44.179 64.8359 44.0673 64.4691C41.6142 65.7786 39.1528 67.1419 36.6997 68.4513C36.1495 68.7509 36.5551 69.6124 37.2129 69.4878C38.9794 69.1477 40.3074 69.0365 41.9456 68.4373C43.1908 67.9895 44.4732 67.5182 45.7184 67.0704C46.43 66.8146 46.1733 65.8588 45.3831 65.97C44.8949 66.0844 44.3861 66.1148 43.8772 66.1452C44.0262 66.4884 44.2414 66.8384 44.3904 67.1817C46.0203 66.1987 47.7163 65.2226 49.3462 64.2397C50.0453 63.8458 49.3584 63.0651 48.6551 63.2671C46.2143 63.8395 43.6742 64.1831 41.1381 64.281L41.4734 65.3815C43.9928 64.5162 46.8845 63.8529 49.1804 62.6916C51.8404 61.3484 54.252 59.4332 56.7174 57.8242C57.2759 57.4708 56.92 56.7237 56.2042 56.7877C56.1008 56.8046 55.9312 56.8147 55.8278 56.8315C54.9135 56.8754 55.1081 58.0163 55.9935 57.9421V57.9421Z" fill="#3A7759"/>
<path d="M65.246 48.8739L52.3391 54.1255C51.6565 54.4117 51.8552 55.3069 52.6744 55.226C57.3534 54.7442 63.5298 53.2661 66.086 49.7522C66.5533 49.1161 65.4155 48.4263 64.9481 49.0624C62.6029 52.2969 56.8195 53.6236 52.5459 54.0918L52.8812 55.1923L65.7881 49.9407C66.5824 49.5839 66.0692 48.5474 65.246 48.8739Z" fill="#3A7759"/>
<path d="M52.6123 22.7904C51.4209 23.5444 50.1344 24.2614 49.212 25.2342C48.2606 26.1766 47.814 27.3344 47.1771 28.4181C46.7842 29.0071 47.9261 29.4513 48.4059 28.9531L53.6674 23.5812C54.2299 22.9821 53.0921 22.2923 52.5296 22.8914L47.2681 28.2633L48.4969 28.7983C49.1173 27.8222 49.4812 26.7654 50.3871 25.9004C51.264 25.0051 52.4388 24.3588 53.5185 23.6755C54.1886 23.2513 53.3569 22.3192 52.6123 22.7904V22.7904Z" fill="#3A7759"/>
<path d="M47.2337 28.2869C47.031 28.5124 46.7994 28.7076 46.5967 28.9331C46.394 29.1586 46.4106 29.4884 46.6506 29.6769C46.8906 29.8653 47.3167 29.9359 47.5856 29.7172C47.8917 29.4748 48.1606 29.256 48.3425 28.9464C48.5535 28.667 48.5369 28.3372 48.1935 28.1656C47.9163 28.0007 47.4446 28.0075 47.2337 28.2869C47.1055 28.4653 46.9028 28.6908 46.7456 28.8389C47.0725 29.1182 47.4366 29.3739 47.7345 29.6229C47.9372 29.3974 48.1688 29.2022 48.3715 28.9767C48.6114 28.7276 48.5369 28.3372 48.2224 28.1959C47.9163 28.0007 47.4736 28.0378 47.2337 28.2869V28.2869Z" fill="#3A7759"/>
<path d="M41.7545 37.4914L47.6607 27.9193C47.2138 27.7645 46.796 27.64 46.3491 27.4853C45.0381 30.1139 43.9505 32.6011 42.9622 35.3171C42.7223 36.0037 43.9677 36.431 44.2737 35.7511C45.4151 33.1327 46.2379 30.181 47.7972 27.687C48.0246 27.3 47.5612 26.8154 47.0441 26.8996L47.7972 27.687C47.8964 27.4784 47.9667 27.2394 48.066 27.0308C48.372 26.3509 47.0605 25.9169 46.7544 26.5968C46.4484 27.2766 44.471 27.8961 43.776 28.4818C42.8867 29.2391 42.2745 30.1613 41.7286 31.0902C40.6574 33.0322 40.12 35.2198 40.3644 37.3502C40.4556 38.0704 41.858 37.912 41.7669 37.1918C41.5142 35.1154 42.155 32.9109 43.3131 31.0598C43.9873 29.9524 44.9634 28.8485 46.3576 28.3065C47.4993 27.8755 47.5614 28.128 48.0287 27.0543C47.5819 26.8996 47.164 26.7751 46.7172 26.6203C46.6179 26.829 46.5476 27.0679 46.4484 27.2766C46.2581 27.6401 46.6471 28.1718 47.2015 28.0641L46.4484 27.2766C44.9264 29.747 44.1036 32.6987 42.9249 35.3407C43.3718 35.4954 43.7897 35.6199 44.2365 35.7747C45.2248 33.0586 46.2835 30.5411 47.6234 27.9428C47.9667 27.2394 46.7131 26.866 46.3119 27.5088L40.4057 37.0809C40.0045 37.7238 41.3161 38.1578 41.7545 37.4914Z" fill="#3A7759"/>
<path d="M39.1507 45.7034C40.3992 40.6348 41.656 35.5125 42.9418 30.4203C43.0782 29.7506 41.895 29.5757 41.5765 30.1176C38.7972 35.0854 37.2756 40.1809 37.7441 45.6699C37.798 46.4137 39.2004 46.2553 39.1465 45.5116C38.6822 40.2144 40.208 35.3107 42.8591 30.5213C42.404 30.4204 41.9489 30.3195 41.4938 30.2186C40.2452 35.2871 38.9884 40.4095 37.7027 45.5016C37.5497 46.2791 38.977 46.3967 39.1507 45.7034V45.7034Z" fill="#3A7759"/>
<path d="M30.1504 48.6729C30.2665 50.1066 30.8625 51.4796 30.9414 52.9369C30.9746 53.5965 32.2571 53.5627 32.3563 52.9165C32.7364 50.002 33.3854 47.3062 34.1627 44.432L32.7726 44.2908C32.7521 45.0816 32.7688 45.849 32.8516 46.623C32.9303 47.2052 33.9605 47.2825 34.2417 46.7642C36.3384 42.0826 38.5882 37.4986 40.9787 32.8741C41.2227 32.3794 40.4076 31.7771 39.8699 32.2146C38.3311 33.4802 37.3467 35.0756 36.0189 36.4993C34.9683 37.6504 33.8267 38.9564 32.9374 40.1512C32.1309 41.2451 31.6346 42.7259 31.0763 43.9544C30.4188 45.3915 30.2081 46.9834 30.1752 48.5114C30.163 49.2484 31.5531 49.3896 31.5653 48.6526C31.5816 47.2323 31.7179 45.6875 32.3589 44.3581C32.8924 43.2912 33.2521 42.0426 33.9098 41.043C34.3192 40.3463 34.9894 39.9221 35.5519 39.323C36.0772 38.7475 36.3915 38.0137 36.8879 37.4079C37.3387 36.8795 37.9427 36.4486 38.3935 35.9202C39.2125 34.9643 39.5971 33.9916 40.6726 33.1165C40.3002 32.9146 39.9361 32.6589 39.5637 32.457C37.1443 37.0511 34.9235 41.6654 32.8268 46.3471L34.2169 46.4882C34.1547 45.7983 34.1215 45.1387 34.1255 44.4555C34.1378 43.7185 32.9173 43.5672 32.7354 44.3143C31.9291 47.1582 31.2801 49.8541 30.9289 52.7989L32.3438 52.7785C32.265 51.3213 31.6979 49.9785 31.5529 48.5146C31.4618 47.7944 30.0593 47.9527 30.1504 48.6729V48.6729Z" fill="#3A7759"/>
<path d="M31.579 72.0328C31.6989 71.4707 31.7733 70.9861 31.7897 70.4409L30.3748 70.4612C30.3955 70.5454 30.4452 70.6598 30.4659 70.7439C30.6605 71.4473 32.0547 71.3428 31.8684 70.5856C31.4709 68.7952 31.0362 67.0284 30.6097 65.2077C30.4524 64.4808 29.0872 64.6156 29.2073 65.366C29.2943 65.8944 29.4185 66.3992 29.5054 66.9276C29.9564 66.8367 30.4073 66.7457 30.8582 66.6548C30.4899 65.7698 30.0925 64.8544 29.6952 63.939C29.4552 63.3131 28.2348 63.5993 28.3424 64.2118C28.8394 67.106 29.3363 70.0003 29.8622 72.9248C29.9492 73.4532 31.0001 73.6146 31.2523 73.066L31.2896 73.0424C30.8345 72.9415 30.3794 72.8406 29.9243 72.7397C29.9036 73.0931 29.883 73.4465 29.8334 73.7696C29.7839 74.5302 31.0127 74.6276 31.2235 73.9108C31.4179 73.3016 31.546 72.6857 31.579 72.0328C31.6575 71.3025 30.2674 71.1613 30.1889 71.8916C30.0897 72.5378 29.9616 73.1537 29.7962 73.7931L31.1863 73.9343C31.2069 73.5809 31.2276 73.2276 31.2771 72.9045C31.3391 72.2819 30.2096 71.9757 29.9118 72.6017L29.8746 72.6253L31.2647 72.7665C30.7678 69.8722 30.2708 66.978 29.7449 64.0534C29.294 64.1444 28.843 64.2353 28.3921 64.3262C28.7894 65.2416 29.1578 66.1266 29.5551 67.042C29.7952 67.668 31.0156 67.3818 30.9079 66.7693C30.8209 66.2409 30.6967 65.7361 30.6097 65.2077C30.1298 65.2683 29.6872 65.3054 29.2073 65.366C29.6048 67.1564 30.0395 68.9233 30.4659 70.7439C30.9458 70.6833 31.3885 70.6462 31.8684 70.5856C31.8477 70.5015 31.798 70.387 31.7773 70.3029C31.5952 69.7375 30.3747 69.5862 30.3624 70.3233C30.3459 70.8685 30.3005 71.3834 30.1517 71.9151C30.0442 72.6152 31.4343 72.7564 31.579 72.0328V72.0328Z" fill="#3A7759"/>
<path d="M30.036 62.7983C29.5392 60.7791 29.0796 58.7363 28.6118 56.7474C28.4379 56.1282 27.3044 56.0677 27.1969 56.7677C27.0358 58.0365 27.3463 59.2986 27.421 60.564C27.4502 61.9068 27.893 63.1822 28.4104 64.4106C28.6505 65.0365 29.8709 64.7503 29.7632 64.1378C29.5065 62.7446 29.258 61.2974 29.0012 59.9042C28.5213 59.9648 28.0787 60.0019 27.5988 60.0625C27.9423 61.1091 28.3231 62.1322 28.675 63.1249C28.9357 63.835 30.2471 63.394 29.9863 62.6839C29.6924 61.7517 29.2951 60.8364 29.0012 59.9042C28.7694 59.2244 27.4787 59.312 27.5988 60.0625C27.8555 61.4558 28.104 62.9029 28.3607 64.2962C28.8117 64.2053 29.2626 64.1143 29.7135 64.0234C29.2251 62.8254 28.8112 61.5802 28.8027 60.3215C28.8439 59.1772 28.4714 58.1003 28.616 56.9392L27.2011 56.9596C27.6979 58.9788 28.1575 61.0216 28.6253 63.0105C28.8281 63.66 30.2306 63.5017 30.036 62.7983V62.7983Z" fill="#3A7759"/>
<path d="M30.4588 64.4261C30.3428 63.8674 30.1897 63.3323 30.0365 62.7972C29.8047 62.1174 28.4477 62.1983 28.634 62.9555C28.8121 63.7666 28.9901 64.5777 29.2343 65.3954C29.3917 66.1224 30.7569 65.9876 30.6368 65.2371C30.5457 64.9544 30.5209 64.6785 30.4588 64.4261C30.3014 63.6991 28.899 63.8575 29.0563 64.5844C29.1184 64.8368 29.1433 65.1128 29.2054 65.3652C29.6853 65.3045 30.1279 65.2675 30.6078 65.2068C30.4298 64.3958 30.2518 63.5847 30.0075 62.7669C29.5276 62.8276 29.085 62.8646 28.6051 62.9253C28.7582 63.4604 28.9404 64.0257 29.0273 64.5541C29.1847 65.281 30.5499 65.1463 30.4588 64.4261V64.4261Z" fill="#3A7759"/>
<path d="M27.6193 56.2091C27.3426 58.6693 28.1746 61.3515 29.2713 63.6231C29.5486 64.2255 30.7607 63.9931 30.6241 63.3503C30.0817 60.971 29.5394 58.5917 29.0342 56.1888C28.8769 55.4618 27.4744 55.6202 27.6318 56.3471C28.1741 58.7264 28.7165 61.1058 29.2217 63.5087C29.6726 63.4177 30.1235 63.3268 30.5744 63.2359C29.5481 61.1629 28.7574 58.649 29.0384 56.3806C29.1251 55.5964 27.6978 55.4788 27.6193 56.2091V56.2091Z" fill="#3A7759"/>
<path d="M31.9457 67.8599C31.9207 67.1464 31.8958 66.4329 31.8708 65.7194C31.3909 65.7801 30.9483 65.8171 30.4684 65.8778C30.6216 66.8504 30.7376 67.8465 30.8619 68.7888C30.9323 69.4249 32.2066 69.445 32.2768 68.7685C32.4296 67.116 32.6196 65.44 32.4331 63.8078C32.2508 61.9298 31.5141 60.1597 30.8808 58.3727C30.6779 57.7232 29.4493 58.0632 29.528 58.6455C29.7144 59.8402 29.8345 61.0282 30.0209 62.2229C30.4719 62.132 30.9228 62.0411 31.3737 61.9501C30.9184 60.5367 30.219 59.1805 29.6975 57.7603C29.4574 57.1344 28.1998 57.4441 28.3447 58.0331C29.0775 61.3614 29.8476 64.6663 30.5804 67.9946C30.7005 68.7451 32.103 68.5868 31.9457 67.8599C31.2128 64.5315 30.4427 61.2267 29.7099 57.8983C29.259 57.9892 28.808 58.0801 28.3571 58.1711C28.8786 59.5912 29.5118 60.9407 30.0334 62.3609C30.2362 63.0104 31.4649 62.6703 31.3862 62.0881C31.1998 60.8934 31.0796 59.7054 30.8932 58.5107C30.4423 58.6016 29.9914 58.6925 29.5404 58.7834C30.7656 62.1892 31.1964 65.0767 30.8205 68.6206L32.2354 68.6002C32.0821 67.6276 31.9661 66.6314 31.8419 65.6891C31.7217 64.9386 30.4144 65.134 30.4394 65.8475C30.4643 66.5609 30.4893 67.2744 30.5142 67.9879C30.5971 68.7619 31.9996 68.6036 31.9457 67.8599V67.8599Z" fill="#3A7759"/>
<path d="M29.7149 57.8981C29.5493 57.2251 29.4209 56.5284 29.2264 55.8251C29.069 55.0981 27.77 55.2396 27.8239 55.9834C27.8778 56.7272 28.1014 57.4608 28.3249 58.1945C28.4449 58.5074 28.9 58.6083 29.2186 58.504C29.6116 58.3525 29.6901 58.0597 29.5991 57.777C29.3962 57.1275 29.2224 56.5083 29.1891 55.8486C28.7093 55.9093 28.2666 55.9463 27.7867 56.007C27.9523 56.68 28.0807 57.3767 28.2752 58.08C28.4698 58.7834 29.8722 58.6251 29.7149 57.8981V57.8981Z" fill="#3A7759"/>
<path d="M29.9782 45.8653C29.5482 47.7904 28.7873 49.6819 28.5187 51.6507C28.2377 53.4816 28.4201 55.3595 28.4411 57.1937C28.4743 57.8533 29.7568 57.8195 29.856 57.1733C29.9262 56.4969 30.0626 55.8271 30.1328 55.1507L28.7179 55.171C28.8299 56.4128 29.1858 57.5975 29.5708 58.8123C29.7736 59.4619 31.0023 59.1218 30.9236 58.5396C30.6833 56.6011 30.2072 54.666 30.4345 52.9664C30.7526 50.6745 31.0791 48.3287 31.3972 46.0368C31.484 45.2526 30.0939 45.1114 29.9782 45.8653C29.6435 48.2649 29.2798 50.6343 29.0113 53.0406C28.7593 54.9018 29.2726 56.8133 29.5584 58.6744C30.0093 58.5835 30.4602 58.4925 30.9112 58.4016C30.5097 57.2944 30.2695 56.231 30.1783 55.0732C30.1079 54.4372 28.8626 54.4474 28.7634 55.0936C28.6932 55.7701 28.5568 56.4398 28.4866 57.1163L29.9015 57.0959C29.868 55.1238 29.694 53.192 30.066 51.2063C30.4339 49.4663 31.0293 47.7768 31.4634 46.0435C31.5502 45.2594 30.1601 45.1182 29.9782 45.8653V45.8653Z" fill="#3A7759"/>
<path d="M33.3478 65.5138C33.5668 64.3056 33.7486 63.1209 33.9967 61.943C34.0958 61.2968 32.8919 61.0378 32.6314 61.6402C32.3005 62.4817 32.0359 63.3298 31.8664 64.2149L33.2813 64.1946C32.9745 60.0618 32.5931 55.9762 31.5334 51.931C31.3388 51.2276 30.0108 51.3388 30.1309 52.0893C30.7523 56.8009 31.4109 61.4889 31.7965 66.2039C31.8297 66.8636 33.1122 66.8298 33.2113 66.1836C33.2279 66.0759 33.2816 65.9446 33.2692 65.8066L31.8543 65.827L32.0904 67.5736C32.2105 68.3241 33.5468 68.1591 33.4929 67.4153C33.4307 66.7254 33.3685 66.0355 33.3436 65.322C33.2897 64.5782 31.8872 64.7366 31.9411 65.4803C32.0033 66.1702 32.0655 66.8602 32.0904 67.5736C32.5703 67.513 33.013 67.4759 33.4929 67.4153L33.2568 65.6686C33.1573 65.0023 31.9783 65.0193 31.8419 65.689C31.8253 65.7967 31.7716 65.928 31.784 66.0659L33.1989 66.0456C32.8133 61.3306 32.0885 56.6359 31.5334 51.931C31.0535 51.9916 30.6108 52.0287 30.1309 52.0893C31.1907 56.1345 31.5348 60.2437 31.8789 64.3529C31.941 65.0428 33.1284 64.972 33.2938 64.3326C33.4467 63.5551 33.6658 62.7844 33.9801 62.0507C33.525 61.9498 33.0699 61.8489 32.6148 61.7479C32.3958 62.9562 32.2139 64.1408 31.9659 65.3188C31.813 66.0962 33.232 66.2677 33.3478 65.5138V65.5138Z" fill="#3A7759"/>
<path d="M34.1236 53.4514C33.6276 56.2448 33.1027 59.0079 32.6067 61.8013C32.5075 62.4475 33.7115 62.7065 33.972 62.1041C35.1547 59.2164 36.6312 56.3858 35.4888 53.3167C35.2281 52.6066 33.9167 53.0476 34.1774 53.7577C35.237 56.4903 33.7274 59.0987 32.6605 61.6701C33.1156 61.771 33.5707 61.8719 34.0258 61.9728C34.5217 59.1794 35.0467 56.4163 35.5427 53.6229C35.6294 52.8387 34.2393 52.6975 34.1236 53.4514V53.4514Z" fill="#3A7759"/>
<path d="M33.1978 62.5459C32.7098 63.5354 32.4865 64.5518 32.1971 65.5614C32.0317 66.2009 33.3019 66.4666 33.5624 65.8642C33.8312 65.2079 34.1372 64.528 34.4433 63.8482L33.0532 63.707C33.0698 64.0368 33.1319 64.2892 33.2519 64.6022C33.5002 65.1743 34.5345 65.0059 34.6171 64.4674C34.6915 63.9828 34.7369 63.4678 34.8486 62.9596C34.8816 62.7442 34.8113 62.9832 34.8568 62.9058C34.9106 62.7745 34.9643 62.6433 35.0098 62.5659C35.1174 62.3033 35.2166 62.0947 35.3241 61.8322C35.5847 61.2297 34.5834 60.7452 34.0953 61.2972C33.9381 61.4453 33.8099 61.6237 33.69 61.7482C34.1078 61.8727 34.5547 62.0274 34.9725 62.1519L35.2535 60.3211C35.3527 59.6749 34.2439 59.4529 33.8882 60.0183C33.425 60.8463 33.2101 61.8088 33.1068 62.7007C32.9911 63.4546 34.4184 63.5722 34.4969 62.8419C34.6209 62.0342 34.7531 61.1726 35.1708 60.422C34.7157 60.3211 34.2606 60.2202 33.8055 60.1193L33.5245 61.9502C33.4419 62.4886 34.3935 62.8587 34.8071 62.3539C34.9353 62.1755 35.0925 62.0274 35.2124 61.9028L33.9836 61.3679C33.5246 62.3877 33.3261 63.2425 33.1608 64.3195C33.6035 64.2824 34.0834 64.2218 34.5261 64.1847C34.4557 63.9862 34.3853 63.7876 34.4184 63.5722C34.4059 62.9967 33.3095 62.9127 33.0283 63.431C32.7223 64.1109 32.4245 64.7369 32.1474 65.447C32.6025 65.5479 33.0576 65.6489 33.5127 65.7498C33.7567 64.8175 33.9634 63.9088 34.4059 62.9967C34.8815 62.3067 33.57 61.8727 33.1978 62.5459V62.5459Z" fill="#3A7759"/>
<path d="M35.4242 60.5555C35.6599 59.6771 35.8956 58.7987 36.094 57.9438C36.2594 57.3044 35.0182 57.0689 34.7287 57.6411C34.2489 58.5768 33.8644 59.5494 33.9804 60.5456C34.1005 61.2961 35.5029 61.1377 35.3828 60.3872C35.271 59.5829 35.6597 58.8021 36.0402 58.0751C35.5851 57.9742 35.13 57.8733 34.6749 57.7724C34.4393 58.6508 34.2036 59.5292 34.0052 60.384C33.8233 61.1312 35.2796 61.2791 35.4242 60.5555V60.5555Z" fill="#3A7759"/>
<path d="M38.819 53.2995C39.4144 51.1724 39.2816 48.9714 39.0082 46.8108C38.946 46.1209 37.7587 46.1917 37.5933 46.8312C36.6258 50.5064 35.6667 54.1277 34.6992 57.8029C34.4966 58.466 35.746 58.6475 36.0645 58.1057C36.9082 56.5507 38.0746 55.0832 38.757 53.4846C39.034 52.7744 37.7225 52.3404 37.4454 53.0506C36.7921 54.6795 35.6256 56.147 34.753 57.6717C35.2081 57.7726 35.6632 57.8735 36.1183 57.9744C37.0857 54.2992 38.0449 50.6779 39.0124 47.0026L37.5975 47.023C37.8212 49.0692 37.9705 51.1625 37.3544 53.2054C37.218 53.8751 38.6081 54.0163 38.819 53.2995V53.2995Z" fill="#3A7759"/>
<path d="M37.8536 59.5997C38.4162 59.4381 38.9498 59.2462 39.5497 59.0611C39.2973 58.7346 39.0821 58.3847 38.8586 58.0885C37.8658 58.8627 36.9682 59.6739 36.0913 60.5692C35.6115 61.0673 36.4763 61.7841 37.0802 61.3532C38.8011 60.2155 40.5053 58.748 42.5572 58.0814C42.3793 57.7078 42.193 57.3881 42.0151 57.0146C39.0986 58.277 37.2248 60.1921 35.529 62.4808C35.1443 63.016 35.8478 63.689 36.5179 63.2649L46.2722 57.0915C46.7934 56.7616 46.4457 55.9607 45.759 56.055C44.9978 56.1964 44.2738 56.3143 43.5043 56.5096C43.6823 56.8831 43.8685 57.2028 44.0465 57.5764L49.6685 55.7685C50.3056 55.5597 50.202 54.7016 49.5029 54.6579C44.7203 54.2815 40.0414 55.6383 36.9763 58.745C36.4138 59.3441 37.5227 60.0036 38.1142 59.4348C40.8276 56.6479 45.0101 55.4594 49.2921 55.8123C49.2465 55.4522 49.1719 55.0618 49.1264 54.7017L43.5043 56.5096C42.6521 56.8058 43.1736 57.7885 44.0465 57.5764C44.6753 57.4215 45.2669 57.2902 45.9164 57.2194C45.7674 56.8762 45.5522 56.5262 45.4032 56.1829L35.649 62.3563C35.9758 62.6356 36.3399 62.8913 36.6379 63.1403C38.1682 61.0536 39.8641 59.2024 42.5282 58.0511C43.3225 57.6942 42.8673 56.7183 41.9861 56.9843C39.7563 57.7148 38.0148 59.2059 36.1823 60.4144C36.5092 60.6937 36.8733 60.9494 37.1712 61.1984C37.9654 60.4041 38.7513 59.6636 39.6696 58.9365C40.2364 58.5292 39.7274 57.6846 38.9786 57.964C38.416 58.1256 37.8823 58.3175 37.2825 58.5026C36.4303 58.7989 36.9724 59.8657 37.8536 59.5997V59.5997Z" fill="#3A7759"/>
<path d="M38.8668 56.7229C38.5689 56.9114 38.3001 57.1302 38.0022 57.3187C37.7044 57.5072 37.6465 57.8841 37.8783 58.1264C38.11 58.3687 38.5733 58.4158 38.8712 58.2273C39.169 58.0388 39.4669 57.8503 39.7357 57.6315C40.0046 57.4127 40.1204 57.0963 39.8597 56.8238C39.657 56.6118 39.1357 56.5041 38.8668 56.7229C38.5979 56.9417 38.3001 57.1302 38.0022 57.3187L38.8712 58.2273C39.169 58.0388 39.4379 57.82 39.7357 57.6315C40.0336 57.443 40.0914 57.066 39.8597 56.8238C39.628 56.5815 39.1646 56.5344 38.8668 56.7229Z" fill="#3A7759"/>
<path d="M39.7345 57.6305C43.4616 55.0285 47.2549 52.4333 50.982 49.8314C51.4742 49.4712 51.1928 48.677 50.4688 48.7949C44.9997 49.8254 42.6133 53.7666 38.8656 56.7219C38.2161 57.2302 39.0851 58.1387 39.7345 57.6305C43.2134 54.894 45.6081 50.8989 50.6635 49.9358C50.5145 49.5925 50.2993 49.2425 50.1503 48.8993C46.4232 51.5012 42.6299 54.0964 38.9028 56.6983C38.1872 57.1999 39.0561 58.1084 39.7345 57.6305V57.6305Z" fill="#3A7759"/>
<path d="M42.898 48.1909C41.6985 49.8737 41.0907 51.8628 39.4237 53.3068C38.8777 53.7982 39.8376 54.552 40.4126 54.0908C40.9049 53.7307 41.3682 53.3402 41.8976 52.9565C41.5253 52.7546 41.1612 52.4989 40.7888 52.297C40.2966 53.0947 39.8623 53.9529 39.3702 54.7506C39.0062 55.3699 40.0902 55.7534 40.599 55.2855C40.7934 55.1139 40.9506 54.9658 41.145 54.7941L39.9162 54.2592C39.3868 55.0804 38.8367 55.8175 38.0673 56.4503C37.5213 56.9417 38.5102 57.7257 39.0562 57.2343C41.5588 55.1643 44.0614 53.0942 46.564 51.0242C46.99 50.6573 46.812 49.8462 46.0508 49.9877C45.0455 50.1863 44.3629 50.4725 43.5521 50.937C43.879 51.2163 44.2431 51.472 44.541 51.7211C46.994 49.5366 49.4097 47.3757 51.8626 45.1912C52.3714 44.7234 51.6225 44.1278 51.0226 44.3129L50.9854 44.3365C51.2378 44.6629 51.453 45.0129 51.6765 45.309C51.9081 45.1138 52.1687 44.9489 52.4004 44.7536C52.9754 44.2925 52.4788 43.5858 51.7093 43.7811C48.2467 44.6599 45.1854 45.7708 42.898 48.1909C42.3355 48.79 43.4733 49.4798 44.0358 48.8807C46.1288 46.6323 49.0329 45.6694 52.2804 44.8782C52.028 44.5517 51.8128 44.2018 51.5894 43.9056C51.3577 44.1009 51.0971 44.2658 50.8655 44.461C50.3277 44.8986 50.7788 45.6827 51.5565 45.4336L51.5938 45.41L50.7538 44.5317C48.3008 46.7162 45.8851 48.8771 43.4322 51.0616C42.8862 51.553 43.8254 52.2226 44.4211 51.8456L46.2454 51.1285C46.0964 50.7853 45.8813 50.4353 45.7323 50.092C43.2297 52.1621 40.7271 54.2321 38.2245 56.3022C38.5513 56.5815 38.9154 56.8372 39.2134 57.0862C40.1027 56.3289 40.6528 55.5918 41.236 54.6393C41.5999 54.02 40.516 53.6365 40.0072 54.1043C39.8128 54.276 39.6556 54.4241 39.4612 54.5958L40.69 55.1307C41.1822 54.333 41.6454 53.5051 42.1086 52.6771C42.4188 52.1891 41.5292 51.6339 40.9997 52.0176C40.5075 52.3778 40.0442 52.7682 39.5147 53.152C39.8416 53.4313 40.2057 53.687 40.5036 53.936C42.2078 52.4685 42.7702 50.5568 43.9779 48.8201C44.4742 48.2142 43.3364 47.5245 42.898 48.1909V48.1909Z" fill="#3A7759"/>
<path d="M40.9126 55.4257C41.4173 54.766 41.8764 54.1838 42.5051 53.5914C42.1038 53.3592 41.7686 53.1338 41.3673 52.9016C40.8047 53.5007 40.3084 54.1065 39.7748 54.7359C39.2785 55.3418 40.4163 56.0316 40.9126 55.4257C41.4462 54.7963 41.9426 54.1905 42.5051 53.5914C43.0677 52.9922 41.9878 52.363 41.3673 52.9016C40.7468 53.4401 40.2794 54.0762 39.7748 54.7359C39.2785 55.3418 40.4163 56.0316 40.9126 55.4257Z" fill="#3A7759"/>
<path d="M56.0321 38.8604C53.7402 39.3386 51.4525 40.0086 49.5827 41.2406C47.4606 42.5836 46.344 44.603 44.4329 46.1042C43.7834 46.6125 44.5572 47.4841 45.3018 47.0128L46.4932 46.2588C46.1663 45.9795 45.8022 45.7238 45.5043 45.4748C45.3471 45.6229 45.1899 45.771 45.041 45.8652C44.495 46.3567 45.4259 47.0801 46.0299 46.6493C49.5088 44.3503 53.0457 42.1118 56.5825 39.8734C57.2899 39.4257 56.4209 38.5171 55.7136 38.9648C52.1767 41.2032 48.6688 43.472 45.1609 45.7407C45.4878 46.02 45.8519 46.2757 46.1498 46.5247C46.307 46.3766 46.4642 46.2285 46.6131 46.1343C47.1592 45.6429 46.2571 44.9497 45.6242 45.3502L44.4329 46.1042L45.3018 47.0128C46.6462 45.9189 47.5892 44.5928 48.8095 43.4316C50.7412 41.577 53.3433 40.6108 56.1895 40.0249C57.0996 39.7892 56.905 38.6483 56.0321 38.8604V38.8604Z" fill="#3A7759"/>
<path d="M53.608 36.8905C52.9916 37.6209 52.3091 38.3446 51.6349 39.0144C51.1551 39.5125 52.0488 40.2595 52.6238 39.7984C55.7138 37.4052 58.7749 34.9817 61.8649 32.5885C62.4026 32.1509 61.9516 31.3668 61.1738 31.616C57.7444 32.7169 55.7175 34.5345 53.608 36.8905C53.0826 37.4661 54.1832 38.1794 54.7458 37.5803C56.6609 35.3959 58.5678 33.7029 61.716 32.6828C61.4635 32.3564 61.2484 32.0064 61.0249 31.7102C57.9349 34.1034 54.8738 36.5269 51.7838 38.9201C52.1107 39.1994 52.4748 39.4551 52.7727 39.7042C53.4842 39.0108 54.1295 38.3107 54.7458 37.5803C55.3083 36.9812 54.1705 36.2914 53.608 36.8905V36.8905Z" fill="#3A7759"/>
<path d="M51.7871 38.9202L48.6971 41.3134C48.0476 41.8216 48.8214 42.6932 49.566 42.222C50.7574 41.468 51.8246 40.6467 52.776 39.7042C53.3675 39.1354 52.2297 38.4456 51.6382 39.0144C50.7695 39.8559 49.7767 40.6301 48.6971 41.3134L49.566 42.222L52.656 39.8288C53.3055 39.3205 52.4365 38.4119 51.7871 38.9202V38.9202Z" fill="#3A7759"/>
<path d="M53.8744 38.2301C54.1598 37.9036 54.4825 37.5535 54.7389 37.1968C54.9499 36.9174 54.9332 36.5876 54.5898 36.416C54.2837 36.2208 53.8038 36.2815 53.6301 36.5373C53.3446 36.8638 53.0592 37.1902 52.7656 37.5706C52.203 38.1697 53.3408 38.8595 53.8744 38.2301C54.1598 37.9036 54.4452 37.5771 54.7389 37.1968C54.3376 36.9646 54.0024 36.7392 53.6011 36.507C53.3446 36.8638 53.0592 37.1902 52.7366 37.5403C52.203 38.1697 53.3408 38.8595 53.8744 38.2301Z" fill="#3A7759"/>
<path d="M52.4736 39.8939C52.9244 39.3655 53.4125 38.8135 53.8634 38.285C54.3597 37.6792 53.2881 36.9961 52.7256 37.5952C52.2375 38.1472 51.7577 38.6454 51.3358 39.2041C51.1248 39.4835 51.1414 39.8133 51.4848 39.9849C51.7621 40.1497 52.2999 40.1497 52.4736 39.8939C52.8955 39.3352 53.3836 38.7832 53.8634 38.285C53.4621 38.0529 53.1269 37.8274 52.7256 37.5952C52.2747 38.1237 51.7866 38.6757 51.3358 39.2041C50.8105 39.7797 51.9483 40.4694 52.4736 39.8939V39.8939Z" fill="#3A7759"/>
<path d="M58.8658 31.7646C58.1254 32.4276 57.385 33.0907 56.6073 33.7774C56.0985 34.2452 57.0212 35.0225 57.5962 34.5614C58.469 33.9118 59.2177 33.1948 59.9747 32.4241C60.5289 31.8788 59.4284 31.1654 58.8658 31.7646C58.1916 32.4344 57.5546 33.0806 56.7562 33.6831C57.0831 33.9624 57.4472 34.2181 57.7451 34.4672C58.4855 33.8041 59.226 33.141 60.0036 32.4543C60.5951 31.8855 59.4863 31.226 58.8658 31.7646V31.7646Z" fill="#3A7759"/>
<path d="M68.2514 23.3929C63.8871 25.3286 61.7612 28.6674 58.8657 31.7639C58.3032 32.363 59.3831 32.9923 60.0036 32.4537C61.5671 31.0266 63.1225 29.6533 64.6861 28.2261C66.0925 26.9471 67.4657 25.4459 69.1245 24.4933C69.7864 24.1231 69.1161 23.2346 68.4335 23.5208C68.2556 23.5847 68.0777 23.6487 67.9371 23.6891L68.777 24.5674C68.897 24.4429 69.0087 24.3722 69.1286 24.2476C69.7491 23.7091 68.6113 23.0193 67.9908 23.5579C67.8709 23.6824 67.7592 23.7531 67.6392 23.8776C67.1677 24.3219 67.8711 24.9949 68.4792 24.7559C68.6571 24.692 68.835 24.628 68.9756 24.5876C68.7232 24.2612 68.508 23.9112 68.2846 23.615C66.5885 24.5912 65.2897 26.0452 63.9205 27.3007C62.2453 28.7986 60.6072 30.2728 58.9609 31.8009C59.3622 32.0331 59.6974 32.2586 60.0987 32.4907C62.7625 29.5894 64.814 26.2977 68.8887 24.4967C69.5878 24.1029 69.0457 23.0361 68.2514 23.3929V23.3929Z" fill="#3A7759"/>
<path d="M78.4459 0.12064L78.3632 0.659125C76.0801 4.14602 73.7432 7.32665 70.4009 10.2685C69.9541 10.5512 69.4991 10.8878 69.0731 11.2547C68.4029 11.6788 67.8197 12.1938 67.3316 12.7458C67.2571 12.7929 67.1827 12.84 67.1372 12.9175C66.0988 13.3315 65.2922 13.9879 64.6304 14.7957C64.4442 14.9135 64.2498 15.0851 64.0637 15.203C61.7263 15.7585 59.6911 17.1925 58.4751 18.983L58.4379 19.0066C56.6093 19.5318 55.0457 20.5214 53.7799 21.7601C53.3994 22.0495 53.0478 22.3693 52.7541 22.7496C52.3818 22.9853 51.9723 23.2444 51.6289 23.5104C50.4582 23.911 49.5564 24.5303 48.8574 25.3617C48.4106 25.6444 48.0301 25.9339 47.5833 26.2167C45.2872 26.503 42.735 28.4586 41.6555 30.4545C41.2377 30.7675 40.8779 31.1411 40.547 31.545C39.9265 32.0835 39.2688 32.6457 38.6483 33.1842C37.5563 34.167 36.5884 35.2172 35.6205 36.2673C35.5543 36.2606 35.5543 36.2606 35.4798 36.3077C35.2771 36.5332 35.1407 36.7655 35.0042 36.9977C34.2224 37.93 33.5358 38.8994 32.8782 39.899C32.75 40.0774 32.6217 40.2558 32.5225 40.4644C32.1213 41.1073 31.7201 41.7501 31.3851 42.3997C30.9922 42.9887 30.6944 43.6147 30.4629 44.2475C30.0576 45.136 29.7185 46.0312 29.3794 46.9265C28.4778 48.4209 27.9899 50.2854 27.9737 52.1431C27.9571 52.2508 27.9034 52.3821 27.8868 52.4898C27.3536 55.3067 27.1349 58.265 27.4333 61.1391C27.5161 61.9132 27.6362 62.6636 27.7853 63.4444C28.6092 67.0555 30.3557 70.5688 29.7482 74.308C29.7316 74.4156 29.8268 74.4527 29.9592 74.4661C29.7649 75.0753 29.5995 75.7147 29.3679 76.3475C29.1736 76.9566 28.2145 81.0155 30.3326 80.7932C31.6317 80.6517 32.4505 78.8207 32.0159 77.9289C31.9952 77.8448 31.9291 77.8381 31.8256 77.8549C32.0034 76.9159 32.2101 76.0072 32.3878 75.0682C32.4705 74.9673 32.5532 74.8663 32.5905 74.8427C33.4754 72.581 38.0593 72.0622 40.4669 71.2677C43.2966 70.352 46.304 68.9348 47.7268 66.673C47.764 66.6495 47.7351 66.6192 47.7061 66.5889C49.2077 65.7844 50.4487 64.7073 51.4289 63.3576C54.5564 62.2534 57.2245 60.4189 58.1177 57.6658C58.9492 57.2854 59.76 56.8209 60.4177 56.2588C61.6049 55.313 62.5024 54.0643 62.949 52.469C62.9572 52.4151 62.9655 52.3613 62.8993 52.3546C63.7763 51.8968 64.5084 51.2875 65.2116 50.648C65.4888 50.3754 65.8197 49.9715 66.0389 49.6383C66.2664 49.2512 66.4896 48.2348 66.8412 47.9151C66.8784 47.8915 66.8495 47.8612 66.8867 47.8376L67.4203 47.6458C70.4816 46.5348 72.5042 43.6504 73.3932 41.143C73.4015 41.0891 73.3725 41.0588 73.3436 41.0286C73.4428 40.8199 73.6455 40.5944 73.7902 40.3083C74.692 39.689 75.4862 38.8946 76.1645 37.9791C77.2648 36.9424 78.4313 35.4749 78.8075 34.1186C79.7132 32.3786 80.3045 30.4972 80.4738 28.737C80.4449 28.7068 80.4821 28.6832 80.4531 28.6529C80.6682 28.1279 80.817 27.5961 80.9452 26.9802C82.2315 24.9507 82.9302 22.3693 82.3051 20.0909C82.3134 20.0371 82.2472 20.0304 82.2182 20.0001C82.2885 19.7611 82.3215 19.5457 82.3918 19.3068C82.5903 18.8894 82.6937 18.4351 82.6895 18.2432C82.7225 17.5903 82.5113 16.5572 81.8948 15.975C81.8741 15.8909 81.8617 15.7529 81.841 15.6687C81.7581 14.8947 81.8614 14.0028 81.7495 13.1985C81.8197 12.522 81.7286 11.8018 81.5423 11.0446L81.5506 10.9908L81.5216 10.9605C81.4719 10.8461 81.4595 10.7081 81.4098 10.5937C81.3104 9.9273 81.0662 9.10952 80.5573 8.70236C80.4082 7.92158 80.4204 6.74703 79.7501 6.29613L79.3775 4.78172C79.303 4.39133 79.1995 3.97066 79.0215 3.59711C79.0215 3.59711 78.9926 3.56683 79.0298 3.54327C78.7441 2.55722 78.7605 1.57449 78.6445 0.578324C78.661 0.470627 78.7065 0.393215 78.7231 0.285518C78.7686 0.208107 78.6444 0.140813 78.6072 0.164375C78.5783 0.134089 78.6155 0.110522 78.5865 0.0802358C78.6982 0.00954817 78.4996 -0.0106197 78.4459 0.12064V0.12064ZM72.2874 9.8038C72.5728 9.47732 72.8582 9.15084 73.1725 8.85464C73.1643 8.90849 73.127 8.93206 73.1188 8.98591C70.5708 12.0084 70.2901 15.5893 69.4137 19.1097C69.4054 19.1635 69.5006 19.2005 69.575 19.1534C69.6122 19.1298 69.5833 19.0996 69.6205 19.076C69.6495 19.1063 69.6867 19.0827 69.7239 19.0592L69.7612 19.0356C69.8894 18.8572 70.0548 18.6553 70.1913 18.423C70.1913 18.423 70.2203 18.4533 70.2575 18.4297C70.4023 18.1437 70.6132 17.8643 70.6918 17.5715C70.7455 17.4402 70.8365 17.2854 70.8903 17.1542C71.2046 16.4205 71.4237 15.6497 71.6801 14.8555C72.106 13.6135 72.7884 12.4524 73.3095 11.2475C73.6279 10.7056 73.9092 10.1873 74.1614 9.63869C74.3517 9.27519 74.5419 8.9117 74.7611 8.57849L74.2773 9.75983C74.0457 10.3926 73.4998 11.3215 73.3303 12.2066C73.1318 12.624 72.8961 13.0649 72.6603 13.5058C72.1806 14.4414 71.3162 15.9123 71.5853 17.006C70.2286 18.837 68.7478 20.6007 67.2009 22.3576C68.1687 20.87 68.9462 19.3083 69.4672 17.6659C69.8021 16.5788 70.0046 15.4783 70.2444 14.3542C70.6413 12.6445 71.3195 11.2915 72.2874 9.8038V9.8038ZM72.4789 16.878C72.4417 16.9016 72.4417 16.9016 72.4789 16.878C72.4334 16.9554 72.3962 16.979 72.3962 16.979C72.3962 16.979 72.4044 16.9251 72.4789 16.878ZM68.2847 21.8661C68.2102 21.9132 68.1647 21.9907 68.0903 22.0378C68.1647 21.9907 68.2102 21.9132 68.2847 21.8661ZM65.7019 14.6037C65.9625 14.4388 66.1941 14.2436 66.492 14.0551C65.3629 15.9365 64.9206 18.1611 64.652 20.13C64.6355 20.2377 64.8341 20.2578 64.8506 20.1501C64.9044 20.0189 64.9664 19.8338 65.0201 19.7025L65.0574 19.6789C65.6115 18.2586 66.025 16.8787 66.7694 15.5325C67.2244 14.7584 67.8779 14.0044 68.4363 13.2135C68.7052 12.9947 68.9368 12.7995 69.2057 12.5807L69.2429 12.5571C68.7714 13.4389 68.4323 14.3342 68.2256 15.2429C67.9734 16.229 68.0522 17.2487 67.8952 18.2718C67.6844 19.4262 67.246 20.5301 67.0063 21.6542C66.4976 22.5596 65.9227 23.4583 65.3767 24.3872C64.7397 25.0334 64.14 25.6561 63.5029 26.3024C63.6477 26.0163 63.7635 25.6999 63.9082 25.4138C64.3383 24.3638 64.8139 23.2363 64.9502 22.129C64.9668 22.0213 64.8054 21.9776 64.7516 22.1088C64.3008 23.0748 64.1149 24.0676 63.7303 25.0403C63.4367 25.8581 62.99 26.5784 62.5061 27.3222C61.7946 28.0156 61.1121 28.7392 60.3634 29.4562C61.5463 27.4435 61.9017 25.128 62.3357 22.9572C62.6457 21.1566 62.9846 19.3864 63.6545 17.6497C64.0515 16.3775 64.796 15.4688 65.7019 14.6037V14.6037ZM66.349 24.8414L66.0884 25.0064C66.1629 24.9592 66.1711 24.9054 66.2456 24.8583C66.2456 24.8583 66.3118 24.865 66.349 24.8414ZM63.6998 16.2598C63.0298 17.5589 62.6453 18.9691 62.3683 20.1167C61.5208 23.6674 61.5463 27.4435 59.1142 30.5871C58.3572 31.3579 57.5341 32.1219 56.7771 32.8927C57.5381 31.4387 58.2329 29.978 58.8615 28.5106C59.5356 26.9658 59.8952 25.2797 59.2661 23.6845C59.2164 23.5701 59.0385 23.634 59.022 23.7417C59.2375 25.8418 58.8986 27.612 57.9225 29.5911C57.327 30.8431 56.3467 32.1928 56.0739 33.5322C55.2053 34.3737 54.3656 35.2455 53.4969 36.0869C54.837 33.9261 55.9123 31.7385 56.4248 29.2749C56.615 28.4739 56.6728 27.6594 56.7678 26.8214L56.805 26.7978C57.3508 24.9939 57.5574 23.2102 58.4548 21.524C59.6087 19.481 61.3294 17.4682 63.6998 16.2598V16.2598ZM57.7058 20.4908C57.6976 20.5447 57.6521 20.6221 57.6438 20.6759C56.7588 22.5001 56.5026 24.607 56.3623 26.3974C56.1641 28.5648 55.9534 30.5942 55.0933 32.6943C54.4399 34.3233 53.3976 35.8581 52.3926 37.3693C50.5188 39.2845 48.7112 41.2064 46.9615 43.1888C47.557 41.4993 48.7978 39.9847 49.3643 38.2649C49.9846 36.4138 50.1497 34.4618 50.2776 32.5334C50.3148 32.0723 50.3809 31.6415 50.4181 31.1804C51.3031 29.3562 51.733 27.4311 52.8084 25.681C54.0368 23.5909 55.8444 22.1065 57.7058 20.4908ZM47.0378 29.7707C47.7327 28.7475 48.2 27.6738 48.7997 26.6136C49.2174 25.8631 49.7882 25.2101 50.5121 24.6547L51.2939 24.1599C51.5463 24.0488 51.8069 23.8839 52.0303 23.7425C51.7656 24.1532 51.5216 24.6479 51.3148 25.1191C51.3065 25.1729 51.261 25.2504 51.2238 25.2739C51.1866 25.2975 51.2155 25.3278 51.2155 25.3278C50.5084 27.088 50.2026 29.0804 50.0208 30.7026C49.7689 33.0012 49.7237 35.2662 49.1408 37.5312C48.6406 39.6953 46.9529 41.4926 46.4527 43.6567C46.4445 43.7105 46.4445 43.7105 46.4734 43.7408L44.2646 46.3056C45.1538 44.6732 45.8279 43.1284 46.1462 41.274C46.5388 38.9349 46.6087 36.5084 46.6042 34.129C46.6207 34.0213 46.3849 34.0247 46.3683 34.1324C46.0088 36.2561 46.0754 38.4503 45.8771 40.6177C45.5921 43.1318 44.4465 45.1209 43.3919 47.3927C42.941 47.9211 42.5564 48.4563 42.1345 49.015C43.1433 45.0706 43.2543 41.0623 43.6301 37.0809C43.82 34.9673 44.2458 32.8504 45.0604 30.8276C45.6518 29.3838 46.5618 28.2731 47.6621 27.2364C47.2733 28.0172 46.9715 28.8889 46.7151 29.6832C46.6696 29.7606 46.9178 29.8952 47.0378 29.7707V29.7707ZM41.1511 31.9892C41.118 32.2046 41.1511 32.4267 41.1553 32.6185C40.717 34.16 40.887 35.8999 40.7879 37.4211C40.7797 37.4749 40.941 37.5187 40.9203 37.4345C41.2552 35.9099 41.288 34.382 41.5567 32.8507L41.5939 32.8271C41.842 32.0867 42.148 31.4068 42.5492 30.764C42.9256 30.2827 43.3682 29.8081 43.8687 29.3941C44.5926 28.8387 45.3537 28.2598 46.1066 27.7347C46.2183 27.664 46.3217 27.6471 46.4334 27.5764C44.6755 29.6128 43.9727 32.4398 43.5883 34.725C42.6955 39.6657 43.0108 44.6196 41.7498 49.5502C40.5669 51.1253 39.4501 52.7072 38.4285 54.3261L38.3913 54.3497C39.4209 50.9269 38.6631 46.8851 38.5053 43.5331C38.3973 41.1705 38.4507 38.8517 38.9757 36.5261C39.3147 34.7558 40.1625 33.3927 41.1511 31.9892V31.9892ZM40.2983 53.0942C39.7979 53.9457 39.3264 54.8275 38.8549 55.7093C39.3264 54.8275 39.7979 53.9457 40.2983 53.0942ZM37.5357 34.9579C35.993 37.3442 35.5839 40.2285 35.1417 42.8906C35.1252 42.9983 35.2948 42.9882 35.3403 42.9108C36.3037 39.9188 36.2411 36.6038 38.4044 34.1165C38.6815 33.8438 38.9214 33.5948 39.1986 33.3221C39.3185 33.1976 39.4302 33.1269 39.5791 33.0326C38.2185 35.5468 37.9666 38.7205 38.0291 41.1605C38.0626 43.5701 38.2658 45.9697 38.3365 48.3558C38.4113 50.4962 38.1635 52.5492 37.8411 54.6493L37.742 55.2955C36.6128 57.1769 35.6161 59.0718 34.7435 61.0339C35.0494 59.4791 35.1484 57.9579 35.0489 56.4165C34.9367 53.8621 34.4481 51.3515 33.9968 48.8174C33.6406 46.7577 33.4541 44.688 33.673 42.6047C33.8795 40.821 34.5329 39.192 35.2897 37.5462C36.0053 36.6072 36.7705 35.7826 37.5357 34.9579V34.9579ZM31.3978 43.8502C30.9597 46.7042 31.5271 49.797 32.4376 52.1864C32.4873 52.3008 32.6652 52.2368 32.6817 52.1291C32.2924 49.8474 31.8287 47.6128 31.8821 45.294C31.9396 43.167 32.713 41.4135 33.7883 39.6633C33.011 42.1 33.0114 44.7251 33.3387 47.1919C33.6452 49.5746 34.3282 51.9136 34.5976 54.3198C34.6804 55.0939 34.6971 55.8612 34.6849 56.5983C34.6645 58.2642 34.5199 59.8628 34.4995 61.5287C33.7717 63.2048 33.1473 64.864 32.5518 66.5536C32.6961 63.6424 33.0018 60.775 32.6372 57.8942C32.5336 57.036 32.3556 56.225 32.1196 55.3533C31.5194 53.3509 31.0598 51.3081 30.8071 49.2317C30.5585 47.347 30.8892 45.6306 31.3978 43.8502V43.8502ZM30.0868 46.4788C29.9052 48.976 30.5386 51.638 31.1802 53.8087C31.6273 55.276 32.0082 56.7366 32.2566 58.1837C32.4016 59.2101 32.5094 60.2601 32.4764 61.3506C32.4354 63.3699 32.0924 65.3858 32.25 67.4253C31.9646 68.1893 31.7083 68.9835 31.4891 69.7543C31.4928 67.321 30.8553 64.9047 30.1433 62.5355C29.9073 61.6638 29.6714 60.7922 29.4644 59.9509C29.2532 58.9177 29.0048 57.9081 28.8309 56.8513C29.0792 57.4234 29.3647 57.972 29.733 58.4195C29.8199 58.5104 29.9688 58.4161 29.9481 58.332C28.1767 54.1052 28.5154 50.5849 30.0868 46.4788V46.4788ZM30.3148 73.4632C30.6122 70.6496 29.5402 67.7789 28.7826 65.0496C28.3935 63.6429 28.1368 62.2496 28.0207 60.816C27.8715 59.1602 27.8918 57.4942 28.0157 55.8115C28.1607 57.2755 28.5706 58.7663 29.0259 60.1798C29.1377 60.5466 29.2784 60.9437 29.3529 61.3341C29.3446 61.3879 29.3736 61.4182 29.3654 61.4721C29.3281 61.4956 29.2909 61.5192 29.3198 61.5495C29.5723 62.3134 29.8248 63.0774 30.0401 63.8648C30.3589 65.073 30.6404 66.3047 30.8185 67.5533L30.8475 67.5836C30.4418 65.8471 29.6223 64.1779 28.8029 62.5087C28.7822 62.4246 28.5753 62.4582 28.596 62.5424C29.3412 65.1337 30.7482 67.3548 30.8893 69.9394C30.8769 70.239 30.8728 70.4846 30.8605 70.7842L30.7613 71.4304C30.753 71.4842 30.782 71.5145 30.8482 71.5212C30.8399 71.5751 30.8689 71.6053 30.8606 71.6592C30.6952 72.2987 30.5009 72.9078 30.3148 73.4632V73.4632ZM37.8565 71.8502C36.45 72.2543 33.8272 73.1363 32.6938 74.3884C32.8385 73.6648 33.0121 72.9715 33.194 72.2243L33.2602 72.2311C33.252 72.2849 33.2437 72.3387 33.2644 72.4229C33.2934 72.4532 33.2934 72.4532 33.3306 72.4296C33.5912 72.2647 33.7277 72.0324 33.9304 71.8069C34.3275 71.4098 34.8777 71.1102 35.3906 70.8341C36.6027 70.1643 37.9803 69.73 39.3703 69.4337C39.4737 69.4168 39.424 69.3024 39.3578 69.2957C37.9719 69.3463 36.6812 69.8715 35.4857 70.4336C34.981 70.6558 33.74 71.2954 33.3471 71.8844C34.1161 69.064 40.752 68.7537 43.503 68.1307C44.9675 67.7873 46.3161 67.3227 47.5199 66.7067C44.9926 69.3758 41.6914 70.7358 37.8565 71.8502V71.8502ZM49.5013 64.9665C48.9139 65.2897 48.3182 65.6667 47.6729 65.9293C46.4856 66.4376 45.1783 66.6329 43.8296 66.66C43.7262 66.6768 43.7097 66.7845 43.8131 66.7677C45.0336 66.919 46.4443 66.7068 47.7267 66.2355C47.1683 66.5889 46.5147 66.9054 45.8031 67.1612C43.6975 67.9591 41.3517 68.131 39.1923 68.6226C37.765 68.9425 34.7119 69.5621 33.5703 70.868C33.7977 70.0434 34.0251 69.2189 34.2897 68.3707C34.3559 68.3775 34.4593 68.3606 34.4676 68.3068C36.1218 64.5373 44.181 65.0277 48.1277 64.2801C49.0957 64.105 50.0431 63.8458 50.9615 63.5562C50.4817 64.0544 50.0101 64.4987 49.5013 64.9665V64.9665ZM56.9968 59.0559C54.2459 60.9914 51.6356 62.4489 47.6723 62.4292C47.5399 62.4157 47.5151 62.5773 47.6475 62.5907C50.0719 63.001 52.9057 62.2771 55.0858 60.9946C54.2047 61.6981 53.1415 62.2737 51.8881 62.7753C51.8591 62.745 51.7557 62.7619 51.7184 62.7854C51.6812 62.809 51.6812 62.809 51.673 62.8629C51.4578 62.9504 51.1765 63.0312 50.9242 63.1423C48.3014 64.0243 45.5047 64.2871 42.6709 64.5735C40.11 64.833 36.0433 65.2676 34.5957 67.2534C35.0546 65.7961 35.5426 64.369 36.0967 62.9488C37.259 61.727 40.2087 61.1242 41.6442 60.7505C43.8782 60.2117 46.1452 59.8951 48.4248 59.7165C51.5524 59.4873 54.9861 59.0157 57.7537 57.8476C57.5179 58.2885 57.2532 58.6991 56.9968 59.0559V59.0559ZM60.1156 55.818C59.7185 56.2151 59.2635 56.5517 58.7795 56.858C56.947 58.0664 54.5516 58.5614 52.3135 58.9083C49.5583 59.3394 46.7285 59.3801 43.9939 59.8954C42.4715 60.1782 38.4379 60.835 36.4193 62.1612C36.8121 61.1347 37.2339 60.1385 37.693 59.1187C40.4438 56.7457 44.7545 56.2538 48.5856 56.6977C48.718 56.7111 48.7428 56.5496 48.6394 56.5664C45.3378 55.7389 40.4189 56.4697 37.937 58.6239L38.2347 57.9979C40.154 56.0053 43.3147 55.5607 46.4423 55.3315C49.3631 55.136 52.2301 55.0717 55.1178 54.6541C56.2844 54.4991 57.3931 54.2836 58.4811 53.984C59.9166 53.6102 61.3315 53.1524 62.6759 52.4959C61.8073 53.7749 61.1332 54.8822 60.1156 55.818V55.818ZM65.9436 48.7262C62.9073 50.9882 59.966 51.9746 56.0895 51.6082C55.5599 51.5544 55.0014 51.4703 54.4139 51.356C54.2815 51.3425 54.2567 51.5041 54.3891 51.5175C55.0635 51.7227 55.7751 51.9044 56.466 52.0019C59.7592 52.4458 63.3253 51.5502 65.5259 49.4768C64.5373 50.8803 62.8992 51.9171 61.1328 52.6947C60.1606 53.1155 59.1678 53.4521 58.117 53.7282C55.8376 54.3444 53.3347 54.6644 50.9889 54.8363C46.7402 55.143 41.4487 54.797 38.4208 57.4426C39.1156 55.9819 39.8766 54.5279 40.7038 53.0807C40.6417 53.2658 40.5797 53.4509 40.5549 53.6124C40.5384 53.7201 40.737 53.7403 40.7535 53.6326C40.8816 53.0167 41.2953 52.5118 41.833 52.0743C42.1764 51.8083 42.5487 51.5727 42.9499 51.3674C44.7329 50.4821 47.0909 50.0106 48.6506 49.7042C50.2847 49.3506 51.9602 49.1653 53.5902 49.0575C54.7775 48.9867 55.9277 48.9394 57.1729 48.9292C60.2385 48.8851 63.3331 48.8713 66.2496 48.0464C66.1504 48.2551 66.0428 48.5176 65.9436 48.7262ZM73.1408 40.8166C72.9506 41.1801 72.6569 41.5604 72.5328 41.9306C71.6353 43.1793 70.8908 44.5256 69.774 45.67C68.2601 47.2115 65.7821 47.8075 63.5067 48.1779C60.1309 48.7101 56.6598 48.3302 53.2509 48.6402C53.0151 48.6436 52.742 48.6705 52.4979 48.7278C50.6818 48.9535 47.4632 49.3375 44.8404 50.2195C43.3139 50.7481 41.9322 51.4281 41.1877 52.3368C42.1348 50.765 43.1481 49.2 44.2856 47.7022C51.4293 41.6738 65.3721 45.4416 73.1408 40.8166V40.8166ZM78.4018 32.8196C77.554 34.6202 76.7393 36.2055 75.1964 37.7167C74.1623 38.7601 72.7641 39.5478 71.4031 40.3119C70.1911 40.9818 68.9914 41.7897 67.6056 42.2778C65.0324 42.8368 62.2812 43.0222 59.6625 43.221C54.5573 43.6322 48.753 43.9997 44.8067 46.9348C45.1004 46.5545 45.3941 46.1742 45.725 45.7703C46.515 44.7841 47.3712 43.8047 48.2564 42.8555C48.2853 42.8858 48.3515 42.8925 48.426 42.8454C54.5149 37.3388 64.1176 40.2556 71.4398 37.2258C71.5143 37.1787 71.4646 37.0643 71.3612 37.0811C67.0464 38.2561 62.7107 38.472 58.2675 38.9504C54.7097 39.3547 51.3215 40.1863 48.7817 42.2799C49.0671 41.9535 49.3442 41.6808 49.6586 41.3846C49.6876 41.4149 49.7248 41.3913 49.762 41.3678C53.6464 39.0553 59.0824 38.2402 64.3364 37.2973C66.9386 37.2061 69.7104 36.6673 72.1718 35.7415C74.2652 35.6807 76.9169 34.3914 78.4018 32.8196V32.8196ZM70.7316 32.8609C74.5252 31.5782 78.5212 29.195 80.8333 26.1759C80.7258 26.4384 80.6927 26.6538 80.6886 26.8995C80.2586 27.9495 79.9319 28.9828 79.3777 29.9656C79.2578 30.0901 79.1668 30.2449 79.142 30.4065C79.0138 30.5849 78.9145 30.7935 78.7863 30.9719C78.6208 31.1739 78.4182 31.3994 78.2527 31.6013C78.0211 31.7965 77.7811 32.0456 77.5495 32.2408C76.8546 32.8265 76.0727 33.3213 75.2909 33.8161C72.5565 35.2064 69.1766 35.9842 66.1442 36.6879C66.0408 36.7048 65.9746 36.698 65.9001 36.7452C60.5055 37.7285 54.8088 38.271 50.2336 40.9235C51.9502 39.1564 53.6958 37.4196 55.4413 35.6829C55.4703 35.7131 55.5654 35.7501 55.5737 35.6963C57.948 33.3671 61.3858 32.2124 64.778 31.135C67.7111 30.2025 70.5572 29.179 73.3537 28.0412C76.5515 26.698 79.4761 24.9443 81.1885 22.5479C80.8122 23.4667 80.5228 24.4763 80.0223 25.3279C78.6492 27.704 76.3989 29.2255 74.1155 30.9623C72.9779 31.5851 71.8196 32.1237 70.653 32.7161C70.4462 32.7498 70.5538 32.9248 70.7316 32.8609V32.8609ZM77.5111 25.2642C75.2897 26.8159 72.4808 27.8158 69.8332 28.8594C65.6508 30.4854 60.2852 31.499 56.8518 34.1581C57.646 33.3638 58.4485 32.5156 59.2427 31.7213C60.7648 30.1258 62.3822 28.5674 64.0285 27.0393C66.105 25.3362 69.1497 23.8954 72.0992 22.4176C74.6186 21.5524 77.7502 20.64 79.6199 18.9705C79.2973 19.3206 79.0119 19.6471 78.623 19.9904C77.2539 21.2459 75.4916 22.2153 73.8825 23.2824C72.4801 23.8782 71.1936 24.5952 69.9981 25.5949C69.9609 25.6184 70.0188 25.679 70.085 25.6857C71.5329 25.0125 72.9021 24.1945 74.4286 23.666C75.8889 23.1307 77.4196 22.794 78.8592 22.1745C79.4011 21.9288 80.5595 21.3902 81.4323 20.7406C80.5638 22.4571 79.4263 23.9548 77.5111 25.2642ZM76.0543 22.4912C76.0171 22.5148 75.9509 22.5081 75.9137 22.5316C75.9137 22.5316 75.9509 22.5081 76.0543 22.4912C75.9881 22.4845 75.9881 22.4845 76.0543 22.4912ZM81.5723 16.7626L81.5433 16.7323L81.5723 16.7626ZM79.7105 16.6281C79.665 16.7056 79.5906 16.7527 79.5823 16.8065C78.2877 18.4524 76.1821 19.6878 74.2254 20.8289C73.8904 21.0409 73.4891 21.2463 73.125 21.4281C72.9472 21.492 72.7983 21.5863 72.6493 21.6805C70.643 22.7072 68.4174 23.6296 66.4607 24.7707C67.5487 24.0336 68.5704 23.2897 69.6211 22.5761C70.7794 22.0375 71.9874 21.6133 73.1457 21.0747C75.1065 20.1254 77.1789 18.6679 78.6101 17.2273C78.7301 17.1028 78.5481 16.9749 78.3991 17.0692L77.729 17.4933C77.6628 17.4866 77.6628 17.4866 77.5883 17.5337C75.7103 18.8195 73.766 19.6611 71.681 20.5431C73.1495 19.5165 74.7422 18.5571 76.3927 17.6584C77.5303 17.0356 79.2016 16.221 80.3681 15.191C80.1613 15.6622 79.9835 16.1637 79.7105 16.6281V16.6281ZM80.8389 10.8091C80.8389 10.8091 80.8679 10.8394 80.8307 10.863C80.8721 11.0312 80.9052 11.2534 80.9094 11.4452C80.2146 12.9059 79.4163 13.9459 77.7699 15.0365C75.9746 16.2214 74.0924 17.3153 72.2682 18.4699L72.2309 18.4935C72.4253 18.3218 72.628 18.0963 72.8224 17.9246C74.2868 16.7062 76.1731 15.804 77.7533 14.7067C79.1846 13.7036 80.38 12.2664 80.7438 10.7721C80.781 10.7485 80.81 10.7788 80.8389 10.8091V10.8091ZM75.4367 15.3464C76.0861 14.8381 76.7066 14.2996 77.3643 13.7375C78.2991 12.9027 79.2133 11.9839 79.7757 10.9472C79.5152 11.5497 79.2174 12.1757 78.7583 12.758C77.9518 13.8518 76.6942 14.5991 75.4367 15.3464V15.3464ZM79.916 8.71926C79.5565 11.2804 77.4221 13.3605 74.9774 15.0536L74.754 15.195C76.6692 13.4481 78.5595 11.4253 79.2086 9.16695C79.4279 8.83374 79.6181 8.47025 79.7421 8.10004C79.8042 8.35244 79.8746 8.55099 79.916 8.71926V8.71926ZM78.5092 7.37323C78.3356 8.50405 77.6035 9.55079 77.2686 10.6379C77.1486 10.7624 77.0287 10.887 76.8715 11.0351C77.7937 9.1873 78.4471 7.12083 78.5667 5.24625C78.575 5.1924 78.6122 5.16883 78.6205 5.11498C78.6082 5.85202 78.6249 6.61935 78.5092 7.37323V7.37323ZM77.925 2.63807C77.8133 2.70876 77.7678 2.78617 77.6851 2.88715C77.7761 2.73232 77.8753 2.52365 77.9663 2.36883C77.987 2.45296 77.9705 2.56066 77.925 2.63807Z" fill="#100D0D"/>
</svg>
