<svg width="85" height="85" viewBox="0 0 85 85" fill="none" xmlns="http://www.w3.org/2000/svg">
<path d="M42.5 85C65.9721 85 85 65.9721 85 42.5C85 19.0279 65.9721 0 42.5 0C19.0279 0 0 19.0279 0 42.5C0 65.9721 19.0279 85 42.5 85Z" fill="#99BCAB"/>
<path d="M32.116 31.8243C34.3672 31.8243 36.1921 29.4344 36.1921 26.4864C36.1921 23.5384 34.3672 21.1486 32.116 21.1486C29.8648 21.1486 28.0398 23.5384 28.0398 26.4864C28.0398 29.4344 29.8648 31.8243 32.116 31.8243Z" fill="#444053"/>
<path d="M53.1758 31.8243C55.427 31.8243 57.2519 29.4344 57.2519 26.4864C57.2519 23.5384 55.427 21.1486 53.1758 21.1486C50.9246 21.1486 49.0996 23.5384 49.0996 26.4864C49.0996 29.4344 50.9246 31.8243 53.1758 31.8243Z" fill="#444053"/>
<path d="M67.9762 43.2764C67.9762 50.9412 55.1752 63.8513 42.2576 63.8513C29.34 63.8513 17.0242 50.65 17.0242 42.9852C17.0242 35.3204 29.073 42.3301 41.9907 42.3301C54.9083 42.3301 67.9762 35.6115 67.9762 43.2764Z" fill="#3F3D56"/>
<path d="M21.0946 44.5865C21.0946 44.5865 44.3142 49.7545 63.8216 44.7321C63.8216 44.7321 66.2088 44.7321 64.578 47.4922C64.1522 48.208 63.5318 48.7881 62.7891 49.165C59.0292 51.0862 45.1109 56.7641 22.855 49.5225C22.1669 49.3054 21.5431 48.9216 21.0391 48.4052C20.5351 47.8888 20.1666 47.2559 19.9663 46.5627C19.7042 45.6151 19.8172 44.7175 21.0946 44.5865Z" fill="#F6F8FB"/>
</svg>
