<svg width="433" height="121" viewBox="0 0 433 121" fill="none" xmlns="http://www.w3.org/2000/svg">
<path d="M150.932 0H84.1265V16.0828H150.932V0Z" fill="#378D63"/>
<path d="M382.278 0H358.772V16.0828H382.278V0Z" fill="#378D63"/>
<path d="M429.289 0H405.784V16.0828H429.289V0Z" fill="#378D63"/>
<path d="M334.029 0H174.438V16.0828H334.029V0Z" fill="#378D63"/>
<path d="M66.8067 103.92H0.000976562V120.003H66.8067V103.92Z" fill="#378D63"/>
<path d="M298.152 103.92H274.646V120.003H298.152V103.92Z" fill="#378D63"/>
<path d="M345.164 103.92H321.659V120.003H345.164V103.92Z" fill="#378D63"/>
<path d="M249.903 103.92H90.312V120.003H249.903V103.92Z" fill="#378D63"/>
<path d="M342.69 35.8771H275.885V51.9599H342.69V35.8771Z" fill="#378D63"/>
<path d="M433 35.8771H366.195V51.9599H433V35.8771Z" fill="#378D63"/>
<path d="M23.5067 35.8771H0.000976562V51.9599H23.5067V35.8771Z" fill="#378D63"/>
<path d="M70.5179 35.8771H47.0122V51.9599H70.5179V35.8771Z" fill="#378D63"/>
<path d="M253.615 35.8771H94.0239V51.9599H253.615V35.8771Z" fill="#378D63"/>
<path d="M204.129 70.5171H137.324V86.5999H204.129V70.5171Z" fill="#378D63"/>
<path d="M113.818 70.5171H47.0122V86.5999H113.818V70.5171Z" fill="#378D63"/>
<path d="M23.5067 70.5171H0.000976562V86.5999H23.5067V70.5171Z" fill="#378D63"/>
<path d="M433.001 70.5171H409.495V86.5999H433.001V70.5171Z" fill="#378D63"/>
<path d="M385.99 70.5171H226.398V86.5999H385.99V70.5171Z" fill="#378D63"/>
</svg>
