<svg width="90" height="101" viewBox="0 0 90 101" fill="none" xmlns="http://www.w3.org/2000/svg">
<path d="M71.186 67.0647C72.1148 66.0144 72.5887 64.6384 72.5035 63.2389C72.4182 61.8394 71.7808 60.531 70.7312 59.6013L69.853 58.8229L70.7796 57.7814L79.0266 48.4634L80.8226 46.4377C81.0729 46.1543 81.2412 45.8081 81.3097 45.4363C87.247 36.0258 82.8257 26.1726 73.9418 18.3064C70.9209 15.5414 67.4318 13.3363 63.6379 11.7945L63.7289 11.6885C59.6693 10.041 55.5853 9.60402 51.7292 10.8271L52.0287 11.0883C50.0748 11.6939 48.2459 12.6461 46.6294 13.8996C46.3982 13.8972 46.1692 13.9445 45.958 14.0385C45.7467 14.1325 45.5582 14.2709 45.4052 14.4443L34.1138 27.1997L32.2462 25.5436C31.1959 24.6147 29.8198 24.1408 28.4204 24.2261C27.0209 24.3113 25.7125 24.9488 24.7828 25.9983L30.6431 31.1672L16.7168 46.8974L18.6955 48.6529L20.6742 50.4085L23.6439 53.035L23.6287 53.0956L16.7538 47.0069L10.0333 54.5177C1.92611 63.6775 6.93154 73.484 16.347 82.056L16.4076 82.0712L16.9914 82.5968L17.052 82.612L17.5753 83.0652C27.2501 91.4303 37.5744 95.2351 45.7153 86.0265L52.3213 78.5155L44.3443 71.4563L44.3595 71.3957L48.4296 74.9994L50.2972 76.6556L52.3886 78.5037L66.3487 62.782L71.186 67.0647ZM39.0012 29.6558L38.9406 29.6978L38.9557 29.6373L39.0012 29.6558Z" fill="url(#paint0_linear)"/>
<path d="M63.1386 60.1851L33.3501 33.8084L20.1617 48.7027L49.9503 75.0794L63.1386 60.1851Z" fill="#6C8579"/>
<path d="M18.5966 80.6516L18.6572 80.6668C9.40484 72.472 4.29477 63.0258 12.0936 54.2109L18.3727 47.1189L51.8791 76.8299L45.6016 83.9151C37.7961 92.7283 27.849 88.8463 18.5966 80.6516Z" fill="#9CBEAD"/>
<path d="M11.1368 72.0909C13.1951 75.3004 15.7172 78.1875 18.6212 80.6582C21.0721 82.8852 23.7837 84.8073 26.6967 86.3824L29.3805 83.3555L13.5645 69.3719L11.1368 72.0909Z" fill="#F8F8F8"/>
<path d="M24.818 52.8223L44.3687 70.1337L43.8855 70.6794C43.6245 70.9742 43.3079 71.2147 42.9539 71.3872C42.5999 71.5597 42.2154 71.6608 41.8223 71.6846C41.4292 71.7085 41.0353 71.6547 40.663 71.5264C40.2907 71.398 39.9474 71.1976 39.6525 70.9365L24.5816 57.5918C23.9862 57.0645 23.6246 56.3224 23.5764 55.5285C23.5281 54.7347 23.7972 53.9542 24.3244 53.3588L24.8076 52.8131L24.818 52.8223Z" fill="#F8F8F8"/>
<path d="M49.3176 18.0516L50.0452 18.6958L22.0211 50.3448L18.3001 47.05L43.6691 18.3996C44.0168 18.0055 44.4389 17.6838 44.9112 17.4529C45.3834 17.2221 45.8965 17.0866 46.4212 17.0543C46.9458 17.022 47.4717 17.0934 47.9687 17.2645C48.4657 17.4357 48.9241 17.7031 49.3176 18.0516Z" fill="#9DC0AF"/>
<path d="M76.2222 41.8724L76.9497 42.5167C77.7436 43.2196 78.2258 44.2092 78.2901 45.2677C78.3544 46.3261 77.9956 47.3667 77.2926 48.1606L51.9191 76.8162L48.1981 73.5214L76.2222 41.8724Z" fill="#9DC0AF"/>
<path d="M69.2435 57.3175L35.727 27.6469L43.4905 18.8589C52.0643 9.17914 62.9701 11.9776 72.2241 20.1656C81.4765 28.3603 85.5741 38.848 77.0003 48.5564L69.2435 57.3175Z" fill="#9CBEAD"/>
<path d="M51.3222 13.1298L58.0524 19.1108L62.6063 13.9622C58.7925 12.3906 54.9509 11.9857 51.3222 13.1298Z" fill="#3A7759"/>
<path d="M81.4415 39.7946L74.7113 33.8136L79.2653 28.665C81.268 32.2943 82.1426 36.0559 81.4415 39.7946Z" fill="#3A7759"/>
<path d="M32.2092 26.3323L34.8077 28.6332L31.5129 32.3541L25.921 27.4028L26.5561 26.6856C26.9036 26.2904 27.3256 25.9677 27.7981 25.736C28.2705 25.5043 28.7841 25.3681 29.3093 25.3353C29.8345 25.3025 30.3611 25.3736 30.8587 25.5447C31.3563 25.7158 31.8153 25.9835 32.2092 26.3323Z" fill="#9DC0AF"/>
<path d="M69.6711 66.0405L64.0844 61.0937L67.3792 57.3727L69.9777 59.6736C70.7716 60.3765 71.2537 61.3661 71.318 62.4245C71.3823 63.483 71.0235 64.5236 70.3205 65.3175L69.6763 66.0451L69.6711 66.0405Z" fill="#9DC0AF"/>
<path d="M63.1967 58.5138L35.162 33.6953L51.7993 22.4232C53.0942 21.5464 54.644 21.1254 56.2045 21.2264C57.765 21.3274 59.2475 21.9447 60.4186 22.981L70.8303 32.2035C72.006 33.2439 72.8005 34.6473 73.0877 36.1908C73.3749 37.7342 73.1384 39.3295 72.4156 40.7232L63.1967 58.5138Z" fill="#575958"/>
<path d="M36.111 34.7131C41.573 28.5398 51.6254 28.5194 58.571 34.6688C65.5166 40.8183 66.6936 50.7956 61.2467 56.9656" fill="#EDEDED"/>
<path d="M62.2244 59.5015L34.2957 34.7741L36.7707 31.981L37.9406 34.6788L60.8789 54.9921L64.6994 56.7084L62.2244 59.5015Z" fill="#9CBEAD"/>
<path opacity="0.05" d="M62.2244 59.5015L34.2957 34.7741L36.7707 31.981L37.9406 34.6788L60.8789 54.9921L64.6994 56.7084L62.2244 59.5015Z" fill="black"/>
<path d="M48.2498 47.0876L44.5288 43.7928L41.234 47.5138L44.955 50.8086L48.2498 47.0876Z" fill="#575958"/>
<path d="M42.2699 50.1038C44.3249 51.9235 46.3596 52.9821 46.8145 52.4683C47.2695 51.9546 45.9723 50.063 43.9173 48.2433C41.8622 46.4237 39.8275 45.365 39.3726 45.8788C38.9177 46.3925 40.2148 48.2842 42.2699 50.1038Z" fill="#575958"/>
<path opacity="0.05" d="M17.7779 55.3006C16.9081 56.0749 16.2063 57.0192 15.7159 58.0754C15.2254 59.1315 14.9568 60.2771 14.9265 61.4412C14.8963 62.6052 15.105 63.7631 15.5399 64.8433C15.9748 65.9235 16.6266 66.9031 17.455 67.7215" fill="black"/>
<path opacity="0.05" d="M42.9014 77.5565C42.2376 78.5111 41.3853 79.3198 40.3971 79.9325C39.4089 80.5453 38.3057 80.9493 37.1554 81.1195C36.0052 81.2897 34.8323 81.2226 33.709 80.9223C32.5857 80.622 31.5357 80.0949 30.6239 79.3734" fill="black"/>
<path opacity="0.05" d="M55.8034 25.495C55.8034 25.495 64.6866 26.7129 68.8331 37.034L55.8034 25.495Z" fill="black"/>
<path opacity="0.05" d="M52.6892 29.0083C52.6892 29.0083 61.5724 30.2263 65.7189 40.5473L52.6892 29.0083Z" fill="black"/>
<path d="M45.142 39.3528C46.6833 40.7175 49.0391 40.5744 50.4038 39.0331C51.7686 37.4918 51.6255 35.1361 50.0842 33.7713C48.5429 32.4066 46.1871 32.5497 44.8224 34.091C43.4576 35.6322 43.6007 37.988 45.142 39.3528Z" fill="#CCD2DB"/>
<path d="M57.0281 46.5584C58.0556 47.4682 59.6262 47.3729 60.536 46.3454C61.4458 45.3178 61.3504 43.7473 60.3229 42.8375C59.2954 41.9276 57.7248 42.023 56.815 43.0506C55.9052 44.0781 56.0006 45.6486 57.0281 46.5584Z" fill="#CCD2DB"/>
<path d="M47.7429 50.2651L48.4711 50.2974C48.8685 50.315 49.2426 50.4898 49.5111 50.7832C49.7796 51.0766 49.9205 51.4647 49.9029 51.862L49.5415 60.0117C49.5235 60.4183 49.3447 60.801 49.0445 61.0757C48.7443 61.3504 48.3472 61.4946 47.9407 61.4766L45.742 61.3791L46.1726 51.6688C46.1973 51.2754 46.376 50.9076 46.6699 50.6449C46.9637 50.3822 47.3492 50.2458 47.7429 50.2651Z" fill="#565656"/>
<path opacity="0.05" d="M45.3491 54.5036L49.0727 54.6742L48.869 59.119C48.8326 59.9134 48.4821 60.6609 47.8946 61.1969C47.3071 61.7329 46.5307 62.0136 45.7362 61.9772L45.0082 61.9439L45.3491 54.5036Z" fill="black"/>
<path d="M31.8533 44.2116L36.7332 48.5325L31.6161 54.3115L26.7363 49.9905C26.1229 49.4474 25.7504 48.6829 25.7008 47.8652C25.6511 47.0475 25.9283 46.2435 26.4714 45.6301L27.4699 44.5024C27.7373 44.1935 28.0634 43.9407 28.4292 43.7587C28.795 43.5766 29.1932 43.469 29.6009 43.4419C30.0086 43.4149 30.4176 43.4689 30.8042 43.6011C31.1908 43.7332 31.5474 43.9407 31.8533 44.2116Z" fill="#565656"/>
<path d="M27.3527 50.3083L25.0761 48.4566C23.2355 46.6069 23.4363 43.2938 25.5339 40.9214L27.9701 38.1687L30.8523 40.7162L27.3527 50.3083Z" fill="#565656"/>
<path d="M34.1779 33.4373L34.7392 33.9343C35.0466 34.2064 35.2332 34.5896 35.2581 34.9993C35.283 35.4091 35.1441 35.812 34.8719 36.1194L30.7995 40.7186L27.9204 38.1693L31.9929 33.5701C32.265 33.2627 32.6481 33.076 33.0579 33.0511C33.4677 33.0263 33.8706 33.1651 34.1779 33.4373Z" fill="#565656"/>
<path opacity="0.05" d="M32.5194 50.4515C31.6737 51.4052 31.1695 52.6131 31.0861 53.885L31.3856 54.1461L36.3726 48.5264C34.8872 48.6444 33.5057 49.3346 32.5194 50.4515Z" fill="black"/>
<path d="M42.5333 63.8309L37.6586 59.5145L42.7572 53.7564L47.6371 58.0773C47.9408 58.3463 48.1885 58.6724 48.3662 59.037C48.5439 59.4017 48.648 59.7978 48.6726 60.2027C48.6972 60.6076 48.6418 61.0133 48.5096 61.3968C48.3773 61.7803 48.1709 62.134 47.902 62.4377L46.9034 63.5654C46.6345 63.8691 46.3084 64.1169 45.9437 64.2945C45.5791 64.4722 45.183 64.5763 44.7781 64.6009C44.3732 64.6255 43.9674 64.5701 43.5839 64.4379C43.2005 64.3057 42.8468 64.0992 42.5431 63.8303L42.5333 63.8309Z" fill="#565656"/>
<path opacity="0.05" d="M41.3046 58.235C40.46 59.1924 39.3204 59.8409 38.066 60.078L37.7665 59.8169L42.7534 54.1972C42.8097 55.6796 42.2906 57.1265 41.3046 58.235Z" fill="black"/>
<path d="M33.2566 58.721C35.6417 60.8329 39.2873 60.6114 41.3992 58.2263C43.5111 55.8412 43.2896 52.1957 40.9045 50.0837C38.5194 47.9718 34.8739 48.1933 32.762 50.5784C30.65 52.9635 30.8715 56.609 33.2566 58.721Z" fill="#565656"/>
<path d="M33.239 58.4213C35.6241 60.5333 39.2697 60.3118 41.3816 57.9267C43.4935 55.5416 43.2721 51.896 40.887 49.7841C38.5019 47.6722 34.8563 47.8937 32.7444 50.2788C30.6325 52.6639 30.8539 56.3094 33.239 58.4213Z" fill="#565656"/>
<path d="M40.9537 49.7601C40.1961 49.0885 39.2749 48.6285 38.2828 48.4262C37.2908 48.224 36.2629 48.2868 35.3029 48.6083C35.1025 49.5991 35.166 50.6253 35.487 51.5839C35.8081 52.5425 36.3754 53.3999 37.1322 54.0701C37.889 54.7404 38.8087 55.2 39.7991 55.4028C40.7894 55.6057 41.8157 55.5448 42.7751 55.2261C42.978 54.2353 42.9164 53.2085 42.5967 52.2491C42.277 51.2896 41.7104 50.4312 40.9537 49.7601Z" fill="#EDEDED"/>
<defs>
<linearGradient id="paint0_linear" x1="15012.5" y1="76445" x2="20741.8" y2="69974.6" gradientUnits="userSpaceOnUse">
<stop stop-color="#808080" stop-opacity="0.25"/>
<stop offset="0.54" stop-color="#808080" stop-opacity="0.12"/>
<stop offset="1" stop-color="#808080" stop-opacity="0.1"/>
</linearGradient>
</defs>
</svg>
